<svg xmlns="http://www.w3.org/2000/svg" width="175.361" height="46.347" viewBox="0 0 175.361 46.347">
  <g id="coingecko-logotype-color" transform="translate(-0.001 0.001)">
    <g id="Coin_Gecko_Vector_Text" data-name="Coin Gecko Vector Text" transform="translate(60.709 12.659)">
      <path id="Path_7474" data-name="Path 7474" d="M407.3,126.542a3.869,3.869,0,0,0-4.03-3.219c-3.469,0-4.92,3.06-4.92,6.165s1.451,6.166,4.92,6.166c2.519,0,3.9-1.881,4.124-4.238h2.766a6.628,6.628,0,0,1-6.885,6.549c-4.851,0-7.753-3.854-7.753-8.479S398.412,121,403.263,121c3.649.022,6.527,2.04,6.868,5.531Z" transform="translate(-395.52 -121)" fill="#fff"/>
      <path id="Path_7475" data-name="Path 7475" d="M492.66,154.175c0-3.582,2.153-6.165,5.916-6.165s5.916,2.583,5.916,6.165-2.153,6.19-5.916,6.19S492.66,157.78,492.66,154.175Zm9.248,0c0-2.015-1.019-4.124-3.332-4.124s-3.332,2.107-3.332,4.124,1.019,4.149,3.332,4.149S501.908,156.215,501.908,154.175Z" transform="translate(-476.348 -143.474)" fill="#fff"/>
      <path id="Path_7476" data-name="Path 7476" d="M576.35,123.3h2.584v2.448H576.35Zm0,4.467h2.584v11.72H576.35Z" transform="translate(-545.984 -122.914)" fill="#fff"/>
      <path id="Path_7477" data-name="Path 7477" d="M608.48,148.319h2.448v1.723l.045.045A4.2,4.2,0,0,1,614.624,148c2.539,0,4.148,1.36,4.148,3.988v8.049h-2.584V152.67c-.045-1.835-.771-2.628-2.289-2.628a2.856,2.856,0,0,0-2.835,3.081v6.915H608.48Z" transform="translate(-572.719 -143.466)" fill="#fff"/>
      <path id="Path_7478" data-name="Path 7478" d="M698.55,137.573h-1.814l-.43-1.9a5.823,5.823,0,0,1-4.87,2.289c-4.848,0-7.756-3.859-7.756-8.479S686.588,121,691.433,121c3.526,0,6.505,1.881,6.935,5.531H695.6c-.272-2.131-2.129-3.219-4.17-3.219-3.469,0-4.92,3.06-4.92,6.165s1.451,6.166,4.92,6.166c2.9.045,4.487-1.7,4.534-4.443H691.66v-2.151h6.885Z" transform="translate(-635.291 -121)" fill="#fff"/>
      <path id="Path_7479" data-name="Path 7479" d="M787.644,154.855c0,1.837,1,3.469,3.15,3.469a2.715,2.715,0,0,0,2.855-1.95h2.45a5.132,5.132,0,0,1-5.3,3.99c-3.671,0-5.735-2.563-5.735-6.166,0-3.333,2.183-6.188,5.667-6.188,3.694,0,5.961,3.332,5.531,6.845Zm6.03-1.7a3.016,3.016,0,1,0-6.03,0Z" transform="translate(-719.646 -143.474)" fill="#fff"/>
      <path id="Path_7480" data-name="Path 7480" d="M868.6,152.248a2.478,2.478,0,0,0-2.675-2.2c-1.343,0-3.219.7-3.219,4.26,0,1.95.861,4.013,3.1,4.013a2.786,2.786,0,0,0,2.789-2.675h2.584c-.477,3.038-2.351,4.715-5.374,4.715-3.672,0-5.689-2.608-5.689-6.054,0-3.537,1.928-6.3,5.78-6.3,2.72,0,5.038,1.36,5.283,4.238Z" transform="translate(-782.102 -143.474)" fill="#fff"/>
      <path id="Path_7481" data-name="Path 7481" d="M939,123.3h2.584v9.2l4.67-4.737h3.174l-4.489,4.306,4.919,7.414H946.7l-3.582-5.691-1.542,1.5v4.2H939Z" transform="translate(-847.736 -122.914)" fill="#fff"/>
      <path id="Path_7482" data-name="Path 7482" d="M1007.81,154.175c0-3.582,2.153-6.165,5.916-6.165s5.918,2.583,5.918,6.165-2.155,6.19-5.918,6.19S1007.81,157.78,1007.81,154.175Zm9.249,0c0-2.015-1.021-4.124-3.333-4.124s-3.332,2.107-3.332,4.124,1.019,4.149,3.332,4.149S1017.059,156.215,1017.059,154.175Z" transform="translate(-904.991 -143.474)" fill="#fff"/>
    </g>
    <g id="Coin_Gecko_AI" data-name="Coin Gecko AI" transform="translate(0.001 -0.001)">
      <path id="Path_7483" data-name="Path 7483" d="M80.349,68.68A23.174,23.174,0,1,1,57.074,45.609,23.174,23.174,0,0,1,80.349,68.68Z" transform="translate(-34.001 -45.609)" fill="#8dc63f"/>
      <path id="Path_7484" data-name="Path 7484" d="M87.256,77.334A21.432,21.432,0,1,1,65.728,56,21.432,21.432,0,0,1,87.256,77.334Z" transform="translate(-42.647 -54.254)" fill="#f9e988"/>
      <path id="Path_7485" data-name="Path 7485" d="M174.342,63.371a11.785,11.785,0,0,1,4.119,0A12.537,12.537,0,0,1,182.4,64.69a22.859,22.859,0,0,1,3.33,2.438c1.051.855,2.1,1.73,3.093,2.687a15.682,15.682,0,0,1,2.638,3.191,18.146,18.146,0,0,1,1.847,3.723,16.944,16.944,0,0,1,.759,8.165h-.133a37.613,37.613,0,0,0-2.015-7.659,29.892,29.892,0,0,0-1.585-3.568,35.062,35.062,0,0,0-2.086-3.347A12.141,12.141,0,0,0,185.45,67.5a16.279,16.279,0,0,0-3.55-1.755c-1.211-.477-2.411-.971-3.674-1.333s-2.546-.635-3.886-.9Z" transform="translate(-150.774 -60.238)" fill="#fff"/>
      <path id="Path_7486" data-name="Path 7486" d="M96.718,117.2c-1.555-.45-3.167-1.088-4.8-1.733a3.287,3.287,0,0,0-1.191-1.543c-1.066-.925-3.07-.9-4.8-.492a11.985,11.985,0,0,0-5.61-.168C65.5,117.347,73.9,127.306,68.46,137.318c.774,1.642,9.118,11.224,21.192,8.653,0,0-4.129-9.923,5.189-14.685C102.4,127.409,107.86,120.235,96.718,117.2Z" transform="translate(-62.674 -101.686)" fill="#8bc53f"/>
      <path id="Path_7487" data-name="Path 7487" d="M238.737,172.383a.9.9,0,1,1-.9-.893A.9.9,0,0,1,238.737,172.383Z" transform="translate(-202.862 -150.351)" fill="#fff"/>
      <path id="Path_7488" data-name="Path 7488" d="M172.48,113.836a22.164,22.164,0,0,1,5.992,2.035C177.632,113.437,174.806,113.113,172.48,113.836Z" transform="translate(-149.226 -102.097)" fill="#009345"/>
      <path id="Path_7489" data-name="Path 7489" d="M137.529,131.663a4.144,4.144,0,1,1-4.144-4.143A4.144,4.144,0,0,1,137.529,131.663Z" transform="translate(-113.247 -113.765)" fill="#fff"/>
      <path id="Path_7490" data-name="Path 7490" d="M142.39,137.965a2.915,2.915,0,1,1-2.915-2.915A2.915,2.915,0,0,1,142.39,137.965Z" transform="translate(-119.338 -120.031)" fill="#58595b"/>
      <path id="Path_7491" data-name="Path 7491" d="M100.724,178.662a20.727,20.727,0,0,1-12.594,4.161c-2.536,0-3.05-2.687-4.725-1.374a11.93,11.93,0,0,1-6.334,2.091,7.888,7.888,0,0,1-7.436-6.7c-.433,5.165-.655,8.971-2.594,13.332,3.862,6.185,13.071,10.955,21.431,8.9-.9-6.272,4.583-12.415,7.671-15.558a40.642,40.642,0,0,0,4.583-4.855Z" transform="translate(-61.492 -154.803)" fill="#8bc53f"/>
      <path id="Path_7492" data-name="Path 7492" d="M189.259,188.352a15.026,15.026,0,0,1-3.547,2.275,22.541,22.541,0,0,1-3.98,1.449,12.5,12.5,0,0,1-4.247.49,5.813,5.813,0,0,1-3.886-1.708l.045-.052a7.4,7.4,0,0,0,3.882,1.07,18.23,18.23,0,0,0,4.081-.336,22.222,22.222,0,0,0,3.965-1.226,14.757,14.757,0,0,0,3.641-2.015Z" transform="translate(-150.158 -164.339)" fill="#58595b"/>
    </g>
  </g>
</svg>
