<svg xmlns="http://www.w3.org/2000/svg" viewBox="0 0 1920 1080" style=""><defs><style>.cls-1{fill:#ddd;}.cls-2{fill:#6b56ee;}.cls-3,.cls-4,.cls-5,.cls-6,.cls-7{fill:none;stroke-width:2px;}.cls-3,.cls-4{stroke:#5247e2;}.cls-3,.cls-5{stroke-linejoin:bevel;}.cls-4,.cls-6,.cls-7{stroke-miterlimit:10;}.cls-5{stroke:#2a2abc;}.cls-6{stroke:#09c671;}.cls-7{stroke:#fff;}.cls-8{font-size:12px;fill:#fff;font-family:NotoSans, Noto Sans;}</style></defs><title>construction</title><g id="area_bg" data-name="area bg"><path class="cls-1 CxfFdNZQ_0" width="16452" height="16452" d="M-7472.36 -3868.27 L8979.64 -3868.27 L8979.64 12583.73 L-7472.36 12583.73 Z"></path></g><g id="artboard_bg" data-name="artboard bg"><path class="cls-2 CxfFdNZQ_1" width="1920" height="1080" d="M0 0 L1920 0 L1920 1080 L0 1080 Z"></path></g><g id="minirounds"><path class="cls-3 CxfFdNZQ_2" d="M928.3,596.58l.58,0h-1.16Z"></path><path class="cls-4 CxfFdNZQ_3" d="M1033.3,637.74L1033.3,764.6"></path><path class="cls-4 CxfFdNZQ_4" d="M1008.39,637.74L1008.39,764.6"></path><path class="cls-4 CxfFdNZQ_5" d="M772.42,478.86L772.42,319.92"></path><path class="cls-4 CxfFdNZQ_6" d="M747.5,479.04L747.5,320.11"></path><path class="cls-4 CxfFdNZQ_7" d="M792.7,457.44L792.7,319.92"></path><path class="cls-4 CxfFdNZQ_8" d="M817.61,442.26L817.61,319.92"></path><path class="cls-3 CxfFdNZQ_9" d="M654.23,637.71L1265.77,637.71"></path><path class="cls-3 CxfFdNZQ_10" d="M654.23,442.23L1265.77,442.23"></path><path class="cls-3 CxfFdNZQ_11" d="M928.3,478.86A59.09,59.09,0,1,1,869.2,538a59.16,59.16,0,0,1,59.1-59.09m0-21A80.09,80.09,0,1,0,1008.39,538a80.19,80.19,0,0,0-80.09-80.09Z"></path><path class="cls-3 CxfFdNZQ_12" d="M1067.49,478.86a59.09,59.09,0,1,1-59.1,59.09,59.16,59.16,0,0,1,59.1-59.09m0-21A80.09,80.09,0,1,0,1147.58,538a80.19,80.19,0,0,0-80.09-80.09Z"></path><path class="cls-3 CxfFdNZQ_13" d="M1206.68,478.86a59.09,59.09,0,1,1-59.1,59.09,59.16,59.16,0,0,1,59.1-59.09m0-21A80.09,80.09,0,1,0,1286.77,538a80.19,80.19,0,0,0-80.09-80.09Z"></path><path class="cls-3 CxfFdNZQ_14" d="M746.88,419.86a64.49,64.49,0,0,0,9.22-9.56c10.52-13.38,16.32-31,16.32-49.62h-25c0,25.78-15.3,46.75-34.1,46.75s-34.09-21-34.09-46.75h-25c0,18.62,5.8,36.24,16.32,49.62a64.63,64.63,0,0,0,9.51,9.8c-15.42,12.9-25.55,34.42-25.55,58.75h25c0-25.59,15.29-46.42,34.09-46.42s34.1,20.83,34.1,46.42h25C772.7,454.38,762.45,432.74,746.88,419.86Z"></path><path class="cls-3 CxfFdNZQ_15" d="M746.88,656.44a65,65,0,0,0,9.22-9.56c10.52-13.38,16.32-31,16.32-49.62h-25c0,25.77-15.3,46.75-34.1,46.75s-34.09-21-34.09-46.75h-25c0,18.61,5.8,36.24,16.32,49.62a64.55,64.55,0,0,0,9.51,9.79c-15.42,12.9-25.55,34.42-25.55,58.76h25c0-25.6,15.29-46.42,34.09-46.42s34.1,20.82,34.1,46.42h25C772.7,691,762.45,669.31,746.88,656.44Z"></path><path class="cls-3 CxfFdNZQ_16" d="M595,571.36a65.48,65.48,0,0,0,9.56,9.22c13.39,10.52,31,16.32,49.63,16.32v-25c-25.78,0-46.75-15.3-46.75-34.1s21-34.09,46.75-34.09v-25c-18.62,0-36.24,5.79-49.63,16.32a65,65,0,0,0-9.79,9.51C581.91,489.12,560.39,479,536.05,479v25c25.6,0,46.43,15.29,46.43,34.09s-20.83,34.1-46.43,34.1v25C560.53,597.18,582.17,586.93,595,571.36Z"></path><path class="cls-3 CxfFdNZQ_17" d="M1324.76,571.36a65,65,0,0,0,9.56,9.22c13.38,10.52,31,16.32,49.63,16.32v-25c-25.78,0-46.76-15.3-46.76-34.1s21-34.09,46.76-34.09v-25c-18.62,0-36.25,5.79-49.63,16.32a64.55,64.55,0,0,0-9.79,9.51c-12.9-15.42-34.42-25.55-58.76-25.55v25c25.6,0,46.42,15.29,46.42,34.09s-20.82,34.1-46.42,34.1v25C1290.25,597.18,1311.89,586.93,1324.76,571.36Z"></path><path class="cls-3 CxfFdNZQ_18" width="847.89" height="354.75" d="M536.05 360.68 L1383.94 360.68 L1383.94 715.4300000000001 L536.05 715.4300000000001 Z"></path><path class="cls-3 CxfFdNZQ_19" d="M1265.77,442.23L1265.77,637.71"></path><path class="cls-3 CxfFdNZQ_20" d="M654.23,442.23L654.23,637.71"></path><path class="cls-5 CxfFdNZQ_21" d="M654.23,478.86L1265.77,478.86"></path><path class="cls-5 CxfFdNZQ_22" d="M654.23,597.03L1265.77,597.03"></path><path class="cls-6 CxfFdNZQ_23" d="M1160.02,537.97A46.59,46.59 0,1,1 1253.1999999999998,537.97A46.59,46.59 0,1,1 1160.02,537.97"></path><path class="cls-6 CxfFdNZQ_24" d="M881.64,537.97A46.59,46.59 0,1,1 974.82,537.97A46.59,46.59 0,1,1 881.64,537.97"></path><path class="cls-6 CxfFdNZQ_25" d="M666.8,597.07c0-32.91,20.86-59.59,46.59-59.59S760,564.16,760,597.07"></path><path class="cls-6 CxfFdNZQ_26" d="M760,478.88c0,32.37-20.86,58.6-46.6,58.6s-46.59-26.23-46.59-58.6"></path><path class="cls-6 CxfFdNZQ_27" d="M1020.36,537.51A46.59,46.59 0,1,1 1113.54,537.51A46.59,46.59 0,1,1 1020.36,537.51"></path><path class="cls-6 CxfFdNZQ_28" d="M1020.36,637.27L1020.36,538.06"></path><path class="cls-6 CxfFdNZQ_29" d="M804.7,446.82V531.2c0,38.36,22.57,53.37,50.42,53.37"></path><path class="cls-6 CxfFdNZQ_30" d="M804.7,490.91L859.94,490.91"></path><path class="cls-7 CxfFdNZQ_31" d="M746.88,538.08a64.49,64.49,0,0,0,9.22-9.56c10.52-13.38,16.32-31,16.32-49.62h-25c0,25.78-15.3,46.75-34.1,46.75s-34.09-21-34.09-46.75h-25c0,18.62,5.8,36.24,16.32,49.62a64.63,64.63,0,0,0,9.51,9.8c-15.42,12.9-25.55,34.42-25.55,58.75h25c0-25.59,15.29-46.42,34.09-46.42s34.1,20.83,34.1,46.42h25C772.7,572.59,762.45,551,746.88,538.08Z"></path><path class="cls-7 CxfFdNZQ_32" d="M855.62,504,864,479H817.7V442.26l-25,8.81v81c0,21.67,6.3,38.56,18.72,50.19,11,10.26,26.23,15.68,44.2,15.68V573c-25.16,0-37.92-13.75-37.92-40.87V504Z"></path><path class="cls-7 CxfFdNZQ_33" d="M1206.68,597.07A59.1,59.1,0,1,1,1265.77,538,59.16,59.16,0,0,1,1206.68,597.07Zm0-93.19a34.1,34.1,0,1,0,34.09,34.1A34.14,34.14,0,0,0,1206.68,503.88Z"></path><path class="cls-7 CxfFdNZQ_34" d="M928.3,597.07A59.1,59.1,0,1,1,987.39,538,59.16,59.16,0,0,1,928.3,597.07Zm0-93.19A34.1,34.1,0,1,0,962.39,538,34.14,34.14,0,0,0,928.3,503.88Z"></path><path class="cls-7 CxfFdNZQ_35" d="M1067.49,478.88a59.16,59.16,0,0,0-59.1,59.1c0,.18,0,.36,0,.55h0v99.21h25V586.2a59.08,59.08,0,1,0,34.1-107.32Zm0,93.19A34.1,34.1,0,1,1,1101.58,538,34.13,34.13,0,0,1,1067.49,572.07Z"></path><path class="cls-7 CxfFdNZQ_36" d="M746.88,319.92L772.7,319.92"></path><path class="cls-7 CxfFdNZQ_37" d="M791.79,319.92L817.61,319.92"></path><text class="cls-8" transform="translate(756.28 309.35)">a</text><text class="cls-8" transform="translate(801.33 309.35)">a</text><path class="cls-7 CxfFdNZQ_38" d="M928.3,478L928.3,503.82"></path><text class="cls-8" transform="translate(924.86 471.31)">a</text><path class="cls-7 CxfFdNZQ_39" d="M1067.02,478L1067.02,503.82"></path><text class="cls-8" transform="translate(1063.59 471.31)">a</text><path class="cls-7 CxfFdNZQ_40" d="M1206.75,478L1206.75,503.82"></path><text class="cls-8" transform="translate(1203.31 471.31)">a</text><text class="cls-8" transform="translate(1202.98 633.48)">b</text><text class="cls-8" transform="translate(778.62 404.28)">b</text><path class="cls-7 CxfFdNZQ_41" d="M1034.22,764.6L1008.39,764.6"></path><text class="cls-8" transform="translate(1017.94 780.45)">a</text><path class="cls-7 CxfFdNZQ_42" d="M1206.75,597.96L1206.75,618.24"></path><path class="cls-7 CxfFdNZQ_43" d="M772.42,412.89L792.7,412.89"></path><text class="cls-8" transform="translate(855.12 529.23)">b</text><path class="cls-7 CxfFdNZQ_44" d="M848.2,537.95L869.2,537.85"></path></g><style data-made-with="vivus-instant">.CxfFdNZQ_0{stroke-dasharray:65808 65810;stroke-dashoffset:65809;animation:CxfFdNZQ_draw_0 4600ms ease-out 0ms infinite,CxfFdNZQ_fade 4600ms linear 0ms infinite;}.CxfFdNZQ_1{stroke-dasharray:6000 6002;stroke-dashoffset:6001;animation:CxfFdNZQ_draw_1 4600ms ease-out 0ms infinite,CxfFdNZQ_fade 4600ms linear 0ms infinite;}.CxfFdNZQ_2{stroke-dasharray:3 5;stroke-dashoffset:4;animation:CxfFdNZQ_draw_2 4600ms ease-out 0ms infinite,CxfFdNZQ_fade 4600ms linear 0ms infinite;}.CxfFdNZQ_3{stroke-dasharray:127 129;stroke-dashoffset:128;animation:CxfFdNZQ_draw_3 4600ms ease-out 0ms infinite,CxfFdNZQ_fade 4600ms linear 0ms infinite;}.CxfFdNZQ_4{stroke-dasharray:127 129;stroke-dashoffset:128;animation:CxfFdNZQ_draw_4 4600ms ease-out 0ms infinite,CxfFdNZQ_fade 4600ms linear 0ms infinite;}.CxfFdNZQ_5{stroke-dasharray:159 161;stroke-dashoffset:160;animation:CxfFdNZQ_draw_5 4600ms ease-out 0ms infinite,CxfFdNZQ_fade 4600ms linear 0ms infinite;}.CxfFdNZQ_6{stroke-dasharray:159 161;stroke-dashoffset:160;animation:CxfFdNZQ_draw_6 4600ms ease-out 0ms infinite,CxfFdNZQ_fade 4600ms linear 0ms infinite;}.CxfFdNZQ_7{stroke-dasharray:138 140;stroke-dashoffset:139;animation:CxfFdNZQ_draw_7 4600ms ease-out 0ms infinite,CxfFdNZQ_fade 4600ms linear 0ms infinite;}.CxfFdNZQ_8{stroke-dasharray:123 125;stroke-dashoffset:124;animation:CxfFdNZQ_draw_8 4600ms ease-out 0ms infinite,CxfFdNZQ_fade 4600ms linear 0ms infinite;}.CxfFdNZQ_9{stroke-dasharray:612 614;stroke-dashoffset:613;animation:CxfFdNZQ_draw_9 4600ms ease-out 0ms infinite,CxfFdNZQ_fade 4600ms linear 0ms infinite;}.CxfFdNZQ_10{stroke-dasharray:612 614;stroke-dashoffset:613;animation:CxfFdNZQ_draw_10 4600ms ease-out 0ms infinite,CxfFdNZQ_fade 4600ms linear 0ms infinite;}.CxfFdNZQ_11{stroke-dasharray:875 877;stroke-dashoffset:876;animation:CxfFdNZQ_draw_11 4600ms ease-out 0ms infinite,CxfFdNZQ_fade 4600ms linear 0ms infinite;}.CxfFdNZQ_12{stroke-dasharray:875 877;stroke-dashoffset:876;animation:CxfFdNZQ_draw_12 4600ms ease-out 0ms infinite,CxfFdNZQ_fade 4600ms linear 0ms infinite;}.CxfFdNZQ_13{stroke-dasharray:875 877;stroke-dashoffset:876;animation:CxfFdNZQ_draw_13 4600ms ease-out 0ms infinite,CxfFdNZQ_fade 4600ms linear 0ms infinite;}.CxfFdNZQ_14{stroke-dasharray:621 623;stroke-dashoffset:622;animation:CxfFdNZQ_draw_14 4600ms ease-out 0ms infinite,CxfFdNZQ_fade 4600ms linear 0ms infinite;}.CxfFdNZQ_15{stroke-dasharray:621 623;stroke-dashoffset:622;animation:CxfFdNZQ_draw_15 4600ms ease-out 0ms infinite,CxfFdNZQ_fade 4600ms linear 0ms infinite;}.CxfFdNZQ_16{stroke-dasharray:621 623;stroke-dashoffset:622;animation:CxfFdNZQ_draw_16 4600ms ease-out 0ms infinite,CxfFdNZQ_fade 4600ms linear 0ms infinite;}.CxfFdNZQ_17{stroke-dasharray:621 623;stroke-dashoffset:622;animation:CxfFdNZQ_draw_17 4600ms ease-out 0ms infinite,CxfFdNZQ_fade 4600ms linear 0ms infinite;}.CxfFdNZQ_18{stroke-dasharray:2406 2408;stroke-dashoffset:2407;animation:CxfFdNZQ_draw_18 4600ms ease-out 0ms infinite,CxfFdNZQ_fade 4600ms linear 0ms infinite;}.CxfFdNZQ_19{stroke-dasharray:196 198;stroke-dashoffset:197;animation:CxfFdNZQ_draw_19 4600ms ease-out 0ms infinite,CxfFdNZQ_fade 4600ms linear 0ms infinite;}.CxfFdNZQ_20{stroke-dasharray:196 198;stroke-dashoffset:197;animation:CxfFdNZQ_draw_20 4600ms ease-out 0ms infinite,CxfFdNZQ_fade 4600ms linear 0ms infinite;}.CxfFdNZQ_21{stroke-dasharray:612 614;stroke-dashoffset:613;animation:CxfFdNZQ_draw_21 4600ms ease-out 0ms infinite,CxfFdNZQ_fade 4600ms linear 0ms infinite;}.CxfFdNZQ_22{stroke-dasharray:612 614;stroke-dashoffset:613;animation:CxfFdNZQ_draw_22 4600ms ease-out 0ms infinite,CxfFdNZQ_fade 4600ms linear 0ms infinite;}.CxfFdNZQ_23{stroke-dasharray:293 295;stroke-dashoffset:294;animation:CxfFdNZQ_draw_23 4600ms ease-out 0ms infinite,CxfFdNZQ_fade 4600ms linear 0ms infinite;}.CxfFdNZQ_24{stroke-dasharray:293 295;stroke-dashoffset:294;animation:CxfFdNZQ_draw_24 4600ms ease-out 0ms infinite,CxfFdNZQ_fade 4600ms linear 0ms infinite;}.CxfFdNZQ_25{stroke-dasharray:168 170;stroke-dashoffset:169;animation:CxfFdNZQ_draw_25 4600ms ease-out 0ms infinite,CxfFdNZQ_fade 4600ms linear 0ms infinite;}.CxfFdNZQ_26{stroke-dasharray:166 168;stroke-dashoffset:167;animation:CxfFdNZQ_draw_26 4600ms ease-out 0ms infinite,CxfFdNZQ_fade 4600ms linear 0ms infinite;}.CxfFdNZQ_27{stroke-dasharray:293 295;stroke-dashoffset:294;animation:CxfFdNZQ_draw_27 4600ms ease-out 0ms infinite,CxfFdNZQ_fade 4600ms linear 0ms infinite;}.CxfFdNZQ_28{stroke-dasharray:100 102;stroke-dashoffset:101;animation:CxfFdNZQ_draw_28 4600ms ease-out 0ms infinite,CxfFdNZQ_fade 4600ms linear 0ms infinite;}.CxfFdNZQ_29{stroke-dasharray:168 170;stroke-dashoffset:169;animation:CxfFdNZQ_draw_29 4600ms ease-out 0ms infinite,CxfFdNZQ_fade 4600ms linear 0ms infinite;}.CxfFdNZQ_30{stroke-dasharray:56 58;stroke-dashoffset:57;animation:CxfFdNZQ_draw_30 4600ms ease-out 0ms infinite,CxfFdNZQ_fade 4600ms linear 0ms infinite;}.CxfFdNZQ_31{stroke-dasharray:621 623;stroke-dashoffset:622;animation:CxfFdNZQ_draw_31 4600ms ease-out 0ms infinite,CxfFdNZQ_fade 4600ms linear 0ms infinite;}.CxfFdNZQ_32{stroke-dasharray:476 478;stroke-dashoffset:477;animation:CxfFdNZQ_draw_32 4600ms ease-out 0ms infinite,CxfFdNZQ_fade 4600ms linear 0ms infinite;}.CxfFdNZQ_33{stroke-dasharray:586 588;stroke-dashoffset:587;animation:CxfFdNZQ_draw_33 4600ms ease-out 0ms infinite,CxfFdNZQ_fade 4600ms linear 0ms infinite;}.CxfFdNZQ_34{stroke-dasharray:586 588;stroke-dashoffset:587;animation:CxfFdNZQ_draw_34 4600ms ease-out 0ms infinite,CxfFdNZQ_fade 4600ms linear 0ms infinite;}.CxfFdNZQ_35{stroke-dasharray:706 708;stroke-dashoffset:707;animation:CxfFdNZQ_draw_35 4600ms ease-out 0ms infinite,CxfFdNZQ_fade 4600ms linear 0ms infinite;}.CxfFdNZQ_36{stroke-dasharray:26 28;stroke-dashoffset:27;animation:CxfFdNZQ_draw_36 4600ms ease-out 0ms infinite,CxfFdNZQ_fade 4600ms linear 0ms infinite;}.CxfFdNZQ_37{stroke-dasharray:26 28;stroke-dashoffset:27;animation:CxfFdNZQ_draw_37 4600ms ease-out 0ms infinite,CxfFdNZQ_fade 4600ms linear 0ms infinite;}.CxfFdNZQ_38{stroke-dasharray:26 28;stroke-dashoffset:27;animation:CxfFdNZQ_draw_38 4600ms ease-out 0ms infinite,CxfFdNZQ_fade 4600ms linear 0ms infinite;}.CxfFdNZQ_39{stroke-dasharray:26 28;stroke-dashoffset:27;animation:CxfFdNZQ_draw_39 4600ms ease-out 0ms infinite,CxfFdNZQ_fade 4600ms linear 0ms infinite;}.CxfFdNZQ_40{stroke-dasharray:26 28;stroke-dashoffset:27;animation:CxfFdNZQ_draw_40 4600ms ease-out 0ms infinite,CxfFdNZQ_fade 4600ms linear 0ms infinite;}.CxfFdNZQ_41{stroke-dasharray:26 28;stroke-dashoffset:27;animation:CxfFdNZQ_draw_41 4600ms ease-out 0ms infinite,CxfFdNZQ_fade 4600ms linear 0ms infinite;}.CxfFdNZQ_42{stroke-dasharray:21 23;stroke-dashoffset:22;animation:CxfFdNZQ_draw_42 4600ms ease-out 0ms infinite,CxfFdNZQ_fade 4600ms linear 0ms infinite;}.CxfFdNZQ_43{stroke-dasharray:21 23;stroke-dashoffset:22;animation:CxfFdNZQ_draw_43 4600ms ease-out 0ms infinite,CxfFdNZQ_fade 4600ms linear 0ms infinite;}.CxfFdNZQ_44{stroke-dasharray:22 24;stroke-dashoffset:23;animation:CxfFdNZQ_draw_44 4600ms ease-out 0ms infinite,CxfFdNZQ_fade 4600ms linear 0ms infinite;}@keyframes CxfFdNZQ_draw{100%{stroke-dashoffset:0;}}@keyframes CxfFdNZQ_fade{0%{stroke-opacity:1;}91.30434782608695%{stroke-opacity:1;}100%{stroke-opacity:0;}}@keyframes CxfFdNZQ_draw_0{4.3478260869565215%{stroke-dashoffset: 65809}47.82608695652174%{ stroke-dashoffset: 0;}100%{ stroke-dashoffset: 0;}}@keyframes CxfFdNZQ_draw_1{4.841897233201581%{stroke-dashoffset: 6001}48.32015810276679%{ stroke-dashoffset: 0;}100%{ stroke-dashoffset: 0;}}@keyframes CxfFdNZQ_draw_2{5.33596837944664%{stroke-dashoffset: 4}48.81422924901186%{ stroke-dashoffset: 0;}100%{ stroke-dashoffset: 0;}}@keyframes CxfFdNZQ_draw_3{5.8300395256917%{stroke-dashoffset: 128}49.308300395256914%{ stroke-dashoffset: 0;}100%{ stroke-dashoffset: 0;}}@keyframes CxfFdNZQ_draw_4{6.324110671936759%{stroke-dashoffset: 128}49.80237154150198%{ stroke-dashoffset: 0;}100%{ stroke-dashoffset: 0;}}@keyframes CxfFdNZQ_draw_5{6.8181818181818175%{stroke-dashoffset: 160}50.29644268774703%{ stroke-dashoffset: 0;}100%{ stroke-dashoffset: 0;}}@keyframes CxfFdNZQ_draw_6{7.312252964426878%{stroke-dashoffset: 160}50.7905138339921%{ stroke-dashoffset: 0;}100%{ stroke-dashoffset: 0;}}@keyframes CxfFdNZQ_draw_7{7.806324110671937%{stroke-dashoffset: 139}51.284584980237156%{ stroke-dashoffset: 0;}100%{ stroke-dashoffset: 0;}}@keyframes CxfFdNZQ_draw_8{8.300395256916996%{stroke-dashoffset: 124}51.77865612648221%{ stroke-dashoffset: 0;}100%{ stroke-dashoffset: 0;}}@keyframes CxfFdNZQ_draw_9{8.794466403162055%{stroke-dashoffset: 613}52.27272727272727%{ stroke-dashoffset: 0;}100%{ stroke-dashoffset: 0;}}@keyframes CxfFdNZQ_draw_10{9.288537549407113%{stroke-dashoffset: 613}52.76679841897233%{ stroke-dashoffset: 0;}100%{ stroke-dashoffset: 0;}}@keyframes CxfFdNZQ_draw_11{9.782608695652174%{stroke-dashoffset: 876}53.2608695652174%{ stroke-dashoffset: 0;}100%{ stroke-dashoffset: 0;}}@keyframes CxfFdNZQ_draw_12{10.276679841897234%{stroke-dashoffset: 876}53.75494071146245%{ stroke-dashoffset: 0;}100%{ stroke-dashoffset: 0;}}@keyframes CxfFdNZQ_draw_13{10.770750988142293%{stroke-dashoffset: 876}54.24901185770751%{ stroke-dashoffset: 0;}100%{ stroke-dashoffset: 0;}}@keyframes CxfFdNZQ_draw_14{11.264822134387353%{stroke-dashoffset: 622}54.74308300395256%{ stroke-dashoffset: 0;}100%{ stroke-dashoffset: 0;}}@keyframes CxfFdNZQ_draw_15{11.75889328063241%{stroke-dashoffset: 622}55.23715415019763%{ stroke-dashoffset: 0;}100%{ stroke-dashoffset: 0;}}@keyframes CxfFdNZQ_draw_16{12.25296442687747%{stroke-dashoffset: 622}55.73122529644269%{ stroke-dashoffset: 0;}100%{ stroke-dashoffset: 0;}}@keyframes CxfFdNZQ_draw_17{12.747035573122531%{stroke-dashoffset: 622}56.22529644268774%{ stroke-dashoffset: 0;}100%{ stroke-dashoffset: 0;}}@keyframes CxfFdNZQ_draw_18{13.241106719367588%{stroke-dashoffset: 2407}56.7193675889328%{ stroke-dashoffset: 0;}100%{ stroke-dashoffset: 0;}}@keyframes CxfFdNZQ_draw_19{13.735177865612647%{stroke-dashoffset: 197}57.21343873517787%{ stroke-dashoffset: 0;}100%{ stroke-dashoffset: 0;}}@keyframes CxfFdNZQ_draw_20{14.229249011857705%{stroke-dashoffset: 197}57.70750988142292%{ stroke-dashoffset: 0;}100%{ stroke-dashoffset: 0;}}@keyframes CxfFdNZQ_draw_21{14.723320158102766%{stroke-dashoffset: 613}58.201581027667984%{ stroke-dashoffset: 0;}100%{ stroke-dashoffset: 0;}}@keyframes CxfFdNZQ_draw_22{15.217391304347828%{stroke-dashoffset: 613}58.69565217391305%{ stroke-dashoffset: 0;}100%{ stroke-dashoffset: 0;}}@keyframes CxfFdNZQ_draw_23{15.711462450592887%{stroke-dashoffset: 294}59.18972332015811%{ stroke-dashoffset: 0;}100%{ stroke-dashoffset: 0;}}@keyframes CxfFdNZQ_draw_24{16.205533596837945%{stroke-dashoffset: 294}59.683794466403164%{ stroke-dashoffset: 0;}100%{ stroke-dashoffset: 0;}}@keyframes CxfFdNZQ_draw_25{16.699604743083%{stroke-dashoffset: 169}60.17786561264822%{ stroke-dashoffset: 0;}100%{ stroke-dashoffset: 0;}}@keyframes CxfFdNZQ_draw_26{17.193675889328063%{stroke-dashoffset: 167}60.67193675889329%{ stroke-dashoffset: 0;}100%{ stroke-dashoffset: 0;}}@keyframes CxfFdNZQ_draw_27{17.687747035573125%{stroke-dashoffset: 294}61.16600790513834%{ stroke-dashoffset: 0;}100%{ stroke-dashoffset: 0;}}@keyframes CxfFdNZQ_draw_28{18.181818181818183%{stroke-dashoffset: 101}61.6600790513834%{ stroke-dashoffset: 0;}100%{ stroke-dashoffset: 0;}}@keyframes CxfFdNZQ_draw_29{18.675889328063242%{stroke-dashoffset: 169}62.154150197628454%{ stroke-dashoffset: 0;}100%{ stroke-dashoffset: 0;}}@keyframes CxfFdNZQ_draw_30{19.169960474308297%{stroke-dashoffset: 57}62.64822134387352%{ stroke-dashoffset: 0;}100%{ stroke-dashoffset: 0;}}@keyframes CxfFdNZQ_draw_31{19.66403162055336%{stroke-dashoffset: 622}63.14229249011858%{ stroke-dashoffset: 0;}100%{ stroke-dashoffset: 0;}}@keyframes CxfFdNZQ_draw_32{20.158102766798418%{stroke-dashoffset: 477}63.63636363636363%{ stroke-dashoffset: 0;}100%{ stroke-dashoffset: 0;}}@keyframes CxfFdNZQ_draw_33{20.652173913043477%{stroke-dashoffset: 587}64.13043478260869%{ stroke-dashoffset: 0;}100%{ stroke-dashoffset: 0;}}@keyframes CxfFdNZQ_draw_34{21.14624505928854%{stroke-dashoffset: 587}64.62450592885376%{ stroke-dashoffset: 0;}100%{ stroke-dashoffset: 0;}}@keyframes CxfFdNZQ_draw_35{21.640316205533594%{stroke-dashoffset: 707}65.11857707509881%{ stroke-dashoffset: 0;}100%{ stroke-dashoffset: 0;}}@keyframes CxfFdNZQ_draw_36{22.134387351778656%{stroke-dashoffset: 27}65.61264822134387%{ stroke-dashoffset: 0;}100%{ stroke-dashoffset: 0;}}@keyframes CxfFdNZQ_draw_37{22.62845849802372%{stroke-dashoffset: 27}66.10671936758894%{ stroke-dashoffset: 0;}100%{ stroke-dashoffset: 0;}}@keyframes CxfFdNZQ_draw_38{23.12252964426877%{stroke-dashoffset: 27}66.60079051383399%{ stroke-dashoffset: 0;}100%{ stroke-dashoffset: 0;}}@keyframes CxfFdNZQ_draw_39{23.616600790513836%{stroke-dashoffset: 27}67.09486166007905%{ stroke-dashoffset: 0;}100%{ stroke-dashoffset: 0;}}@keyframes CxfFdNZQ_draw_40{24.110671936758894%{stroke-dashoffset: 27}67.58893280632411%{ stroke-dashoffset: 0;}100%{ stroke-dashoffset: 0;}}@keyframes CxfFdNZQ_draw_41{24.604743083003953%{stroke-dashoffset: 27}68.08300395256917%{ stroke-dashoffset: 0;}100%{ stroke-dashoffset: 0;}}@keyframes CxfFdNZQ_draw_42{25.09881422924901%{stroke-dashoffset: 22}68.57707509881423%{ stroke-dashoffset: 0;}100%{ stroke-dashoffset: 0;}}@keyframes CxfFdNZQ_draw_43{25.592885375494074%{stroke-dashoffset: 22}69.07114624505928%{ stroke-dashoffset: 0;}100%{ stroke-dashoffset: 0;}}@keyframes CxfFdNZQ_draw_44{26.08695652173913%{stroke-dashoffset: 23}69.56521739130434%{ stroke-dashoffset: 0;}100%{ stroke-dashoffset: 0;}}</style></svg>