<svg xmlns="http://www.w3.org/2000/svg" viewBox="0 0 1920 1080"><defs><style>.cls-1{fill:#ddd;}.cls-2{fill:#6b56ee;}.cls-3{fill:#fff;}</style></defs><title>construction copy 2</title><g id="area_bg" data-name="area bg"><rect class="cls-1" x="-7472.36" y="-6608.77" width="16452" height="16452"/></g><g id="artboard_bg" data-name="artboard bg"><rect class="cls-2" width="1920" height="1080"/></g><g id="minirounds"><path class="cls-3" d="M772.7,597.07h-25c0-25.59-15.3-46.42-34.1-46.42s-34.09,20.83-34.09,46.42h-25c0-24.33,10.13-45.85,25.55-58.75a64.63,64.63,0,0,1-9.51-9.8c-10.52-13.38-16.32-31-16.32-49.62h25c0,25.78,15.29,46.75,34.09,46.75s34.1-21,34.1-46.75h25c0,18.62-5.8,36.24-16.32,49.62a64.49,64.49,0,0,1-9.22,9.56C762.45,551,772.7,572.59,772.7,597.07ZM855.62,504,864,479H817.7V442.26l-25,8.81v81c0,21.67,6.3,38.56,18.72,50.19,11,10.26,26.23,15.68,44.2,15.68V573c-25.16,0-37.92-13.75-37.92-40.87V504Zm410.15,34a59.1,59.1,0,1,0-59.09,59.09A59.16,59.16,0,0,0,1265.77,538Zm-25,0a34.1,34.1,0,1,1-34.09-34.1A34.13,34.13,0,0,1,1240.77,538Zm-253.38,0a59.1,59.1,0,1,0-59.09,59.09A59.16,59.16,0,0,0,987.39,538Zm-25,0a34.1,34.1,0,1,1-34.09-34.1A34.13,34.13,0,0,1,962.39,538Zm164.19,0a59,59,0,0,1-93.19,48.22v51.54h-25V538.53h0c0-.19,0-.37,0-.55a59.1,59.1,0,1,1,118.19,0Zm-25,0a34.1,34.1,0,1,0-34.09,34.09A34.13,34.13,0,0,0,1101.58,538Z"/></g></svg>