<svg xmlns="http://www.w3.org/2000/svg" viewBox="0 0 1920 1080"><defs><style>.cls-1{fill:#ddd;}.cls-2{fill:#dadada;}.cls-3{fill:#f1f1f1;}.cls-17,.cls-4{fill:#191946;}.cls-5{fill:#6b56ee;}.cls-6{fill:#fff;}.cls-7{fill:#ffd053;}.cls-8{fill:#ffc448;}.cls-9{fill:#ffd77a;}.cls-10{fill:#654735;}.cls-11{fill:#2c2c2c;}.cls-12{fill:#ffa6ad;}.cls-13{font-size:23.35px;fill:#828282;font-family:MavenPro-Regular, Maven Pro;}.cls-14{letter-spacing:-0.05em;}.cls-15{letter-spacing:-0.04em;}.cls-16{letter-spacing:-0.03em;}.cls-17{font-family:MavenPro-Medium, Maven Pro;font-weight:500;}.cls-18{letter-spacing:-0.03em;}.cls-19{letter-spacing:-0.02em;}.cls-20{fill:#2b2426;}.cls-21{fill:#3f3e40;}</style></defs><title>construction copy 4</title><g id="area_bg" data-name="area bg"><rect class="cls-1" x="-7472.36" y="-9317.77" width="16452" height="16452"/></g><g id="artboard_bg" data-name="artboard bg"><rect class="cls-2" width="1920" height="1080"/></g><g id="minirounds"><rect class="cls-3" x="439.31" y="450.19" width="97.28" height="97.28" rx="48.64" transform="translate(986.78 10.88) rotate(90)"/><path class="cls-4" d="M491.19,517.2h-6c0-6.11-3.65-11.08-8.13-11.08s-8.14,5-8.14,11.08h-6a18.28,18.28,0,0,1,6.1-14,15.69,15.69,0,0,1-2.27-2.33,19.2,19.2,0,0,1-3.9-11.85h6c0,6.16,3.65,11.16,8.14,11.16s8.14-5,8.14-11.16h6a19.2,19.2,0,0,1-3.89,11.85,15.91,15.91,0,0,1-2.2,2.28A18.23,18.23,0,0,1,491.19,517.2ZM511,495l2-6H501.93v-8.76l-6,2.1v19.34c0,5.17,1.51,9.2,4.47,12A15.07,15.07,0,0,0,511,517.41v-6c-6,0-9.05-3.28-9.05-9.75V495Z"/><rect class="cls-3" x="627.44" y="450.19" width="97.28" height="97.28" rx="20" transform="translate(1174.91 -177.26) rotate(90)"/><path class="cls-4" d="M679.33,517.2h-6c0-6.11-3.65-11.08-8.14-11.08s-8.14,5-8.14,11.08h-6a18.24,18.24,0,0,1,6.1-14,14.76,14.76,0,0,1-2.27-2.33,19.14,19.14,0,0,1-3.9-11.85h6c0,6.16,3.65,11.16,8.14,11.16s8.13-5,8.13-11.16h6a19.14,19.14,0,0,1-3.9,11.85,14.9,14.9,0,0,1-2.2,2.28A18.24,18.24,0,0,1,679.33,517.2ZM699.12,495l2-6h-11v-8.76l-6,2.1v19.34c0,5.17,1.5,9.2,4.47,12a15.05,15.05,0,0,0,10.55,3.74v-6c-6,0-9-3.28-9-9.75V495Z"/><rect class="cls-5" x="439.31" y="623.28" width="97.28" height="97.28" rx="48.64" transform="translate(1156.96 179.99) rotate(89.66)"/><path class="cls-6" d="M491.19,690.29h-6c0-6.11-3.65-11.08-8.13-11.08s-8.14,5-8.14,11.08h-6a18.28,18.28,0,0,1,6.1-14,15.69,15.69,0,0,1-2.27-2.33,19.2,19.2,0,0,1-3.9-11.85h6c0,6.16,3.65,11.16,8.14,11.16s8.14-5,8.14-11.16h6a19.2,19.2,0,0,1-3.89,11.85,15.91,15.91,0,0,1-2.2,2.28A18.23,18.23,0,0,1,491.19,690.29ZM511,668.07l2-6H501.93v-8.76l-6,2.1v19.34c0,5.17,1.51,9.2,4.47,12A15.07,15.07,0,0,0,511,690.5v-6c-6,0-9.05-3.28-9.05-9.75v-6.71Z"/><rect class="cls-5" x="627.44" y="623.28" width="97.28" height="97.28" rx="20" transform="translate(1348 -4.17) rotate(90)"/><path class="cls-6" d="M679.33,690.29h-6c0-6.11-3.65-11.08-8.14-11.08s-8.14,5-8.14,11.08h-6a18.24,18.24,0,0,1,6.1-14,14.76,14.76,0,0,1-2.27-2.33,19.14,19.14,0,0,1-3.9-11.85h6c0,6.16,3.65,11.16,8.14,11.16s8.13-5,8.13-11.16h6a19.14,19.14,0,0,1-3.9,11.85,14.9,14.9,0,0,1-2.2,2.28A18.24,18.24,0,0,1,679.33,690.29Zm19.79-22.22,2-6h-11v-8.76l-6,2.1v19.34c0,5.17,1.5,9.2,4.47,12a15.05,15.05,0,0,0,10.55,3.74v-6c-6,0-9-3.28-9-9.75v-6.71Z"/><path id="Rectangle_1773-2" data-name="Rectangle 1773-2" class="cls-6" d="M1060.81,359.44h86.47c16.32,0,29.55,11,29.55,24.58v41.59c0,13.57-13.23,24.58-29.55,24.58h-86.47c-16.32,0-29.55-11-29.55-24.58V384C1031.26,370.44,1044.49,359.44,1060.81,359.44Z"/><path id="Rectangle_1774-2" data-name="Rectangle 1774-2" class="cls-6" d="M1056.41,472.87h399.14c13.88,0,25.14,11,25.14,24.58v82.43c0,13.57-11.26,24.57-25.14,24.57H1056.41c-13.89,0-25.15-11-25.15-24.57V497.45C1031.26,483.88,1042.52,472.87,1056.41,472.87Z"/><path id="Rectangle_1775-2" data-name="Rectangle 1775-2" class="cls-6" d="M1049,627.14h229.31c9.8,0,17.75,11,17.75,24.58v41.59c0,13.57-7.95,24.58-17.75,24.58H1049c-9.81,0-17.76-11-17.76-24.58V651.72C1031.26,638.14,1039.21,627.14,1049,627.14Z"/><path id="Rectangle_1776" data-name="Rectangle 1776" class="cls-6" d="M961.69,627.14h0a45.37,45.37,0,0,1,45.37,45.37h0v45.38H961.69a45.37,45.37,0,0,1-45.37-45.38h0a45.37,45.37,0,0,1,45.37-45.37Z"/><rect id="Rectangle_1777" data-name="Rectangle 1777" class="cls-6" x="1031.26" y="686.13" width="30.25" height="31.76"/><g id="Group_1436" data-name="Group 1436"><path id="Path_1262" data-name="Path 1262" class="cls-4" d="M959.19,676.37a13.66,13.66,0,0,0,1.93-2,16.86,16.86,0,0,0,3.36-10.44l-5.25,0c0,5.41-3.15,9.83-7.1,9.86s-7.18-4.36-7.22-9.78l-5.25,0a16.85,16.85,0,0,0,3.49,10.4,13.44,13.44,0,0,0,2,2,16.06,16.06,0,0,0-5.29,12.37l5.25,0c0-5.38,3.15-9.77,7.1-9.79s7.19,4.33,7.22,9.71l5.25,0A16,16,0,0,0,959.19,676.37Z"/><path id="Path_1263" data-name="Path 1263" class="cls-4" d="M982,669.07l1.73-5.26-9.73.06,0-7.71L968.71,658l.1,17c0,4.55,1.37,8.09,4,10.52a13.3,13.3,0,0,0,9.3,3.24l0-5.25c-5.29,0-8-2.84-8-8.54l0-5.9Z"/></g><circle class="cls-7" cx="1122.79" cy="403.43" r="15.36"/><path class="cls-8" d="M1130.83,390.32a15.36,15.36,0,0,1-21,21.36,15.36,15.36,0,1,0,21-21.36Z"/><path class="cls-9" d="M1109.52,405.05a14.26,14.26,0,0,1,25.56-8.7,14.26,14.26,0,1,0-23.67,15.81A14.27,14.27,0,0,1,1109.52,405.05Z"/><path class="cls-10" d="M1116.49,405.75a.5.5,0,0,0-.82.55,7.7,7.7,0,0,0,14.24.15.51.51,0,0,0-.82-.56C1126.84,408.07,1122.07,411.17,1116.49,405.75Z"/><path class="cls-11" d="M1118.82,401.23a2.82,2.82,0,0,0-2.64-1.79,2.85,2.85,0,0,0-2.62,1.73.46.46,0,0,0,.74.51,2.44,2.44,0,0,1,3.78,0,.45.45,0,0,0,.32.14.44.44,0,0,0,.25-.08A.45.45,0,0,0,1118.82,401.23Z"/><path class="cls-11" d="M1132,401.23a2.85,2.85,0,0,0-5.26-.06.45.45,0,0,0,.16.56.47.47,0,0,0,.58-.05,2.44,2.44,0,0,1,3.78,0,.45.45,0,0,0,.32.14.49.49,0,0,0,.25-.08A.46.46,0,0,0,1132,401.23Z"/><circle class="cls-12" cx="1111.5" cy="405.68" r="2.68"/><circle class="cls-12" cx="1134.08" cy="405.68" r="2.68"/><text class="cls-13" transform="translate(1061.51 529.38)"><tspan class="cls-14">W</tspan><tspan x="21.62" y="0">e a</tspan><tspan class="cls-15" x="54.1" y="0">r</tspan><tspan x="62.08" y="0">e xtopo, a collecti</tspan><tspan class="cls-16" x="250.1" y="0">v</tspan><tspan x="262.49" y="0">e of highly </tspan><tspan x="0" y="33.18">skilled </tspan><tspan class="cls-17" x="71.84" y="33.18">full-stack</tspan><tspan x="174.38" y="33.18" xml:space="preserve"> d</tspan><tspan class="cls-16" x="194.44" y="33.18">ev</tspan><tspan x="218.79" y="33.18">elopers.</tspan></text><text class="cls-13" transform="translate(1061.51 412.29)">Hi !</text><text class="cls-13" transform="translate(1061.51 680.48)">H<tspan class="cls-18" x="15.62" y="0">o</tspan><tspan x="28.32" y="0">w can </tspan><tspan class="cls-19" x="98.15" y="0">w</tspan><tspan x="116.15" y="0">e help ?</tspan></text><circle class="cls-7" cx="1384.72" cy="554.02" r="15.36" transform="translate(527.38 1774.42) rotate(-76.72)"/><path class="cls-8" d="M1392.76,540.91a15.36,15.36,0,0,1-21,21.37,15.36,15.36,0,1,0,21-21.37Z"/><path class="cls-9" d="M1371.45,555.64A14.26,14.26,0,0,1,1397,547a14.26,14.26,0,1,0-23.67,15.8A14.15,14.15,0,0,1,1371.45,555.64Z"/><path class="cls-10" d="M1378.43,557.25a.51.51,0,0,0-.83.55,7.7,7.7,0,0,0,14.24.14.51.51,0,0,0-.82-.56C1388.78,559.56,1384,562.67,1378.43,557.25Z"/><path class="cls-20" d="M1395.57,548.2l-6.24.51h-.22c-.06,0-2.07.25-4.31.38h-.16c-2.23-.13-4.24-.37-4.3-.38h-.22l-6.24-.51c-1.23,0-1.9.58-1.84,1.64,0,0,.44,2.47.44,2.47a5.18,5.18,0,0,0,.81,2.27,2.88,2.88,0,0,0,1.08.91,3.26,3.26,0,0,0,.68.25,3.18,3.18,0,0,0,.62,0c.19,0,.49,0,.68,0h2a4.43,4.43,0,0,0,1.92-.45,3.88,3.88,0,0,0,1.84-2.16,4.81,4.81,0,0,1,1.87-2.05,1.32,1.32,0,0,1,1.45,0,6.23,6.23,0,0,1,1.14,1,6.73,6.73,0,0,1,.65.93c.23.35.37.78.61,1.14a3.14,3.14,0,0,0,.87.91,4.2,4.2,0,0,0,2.09.7h2.29c.18,0,.49,0,.67,0a3.28,3.28,0,0,0,.63,0,3.18,3.18,0,0,0,.67-.25,2.84,2.84,0,0,0,1.09-.91,5.17,5.17,0,0,0,.8-2.27s.44-2.43.45-2.47C1397.47,548.78,1396.79,548.17,1395.57,548.2Z"/><path class="cls-21" d="M1391.08,555.82h2c.18,0,.49,0,.67,0a3.28,3.28,0,0,0,.63,0,3.18,3.18,0,0,0,.67-.25,2.84,2.84,0,0,0,1.09-.91,5.17,5.17,0,0,0,.8-2.27s.44-2.43.45-2.47a2.68,2.68,0,0,0,0-.41c-2.87,4.44-6.36,5.52-8.6,5.73a4.27,4.27,0,0,0,2,.65Z"/><path class="cls-21" d="M1374.37,555.49a3.26,3.26,0,0,0,.68.25,3.18,3.18,0,0,0,.62,0c.19,0,.49,0,.68,0h2a4.43,4.43,0,0,0,1.92-.45,3.88,3.88,0,0,0,1.84-2.16A4,4,0,0,1,1383,552a17.84,17.84,0,0,1-9,3.23A4,4,0,0,0,1374.37,555.49Z"/></g></svg>