<?xml version="1.0" encoding="UTF-8"?><svg id="Layer_2" xmlns="http://www.w3.org/2000/svg" viewBox="0 0 33.47 25.51"><defs><style>.cls-1{fill:#fff;}</style></defs><g id="Layer_1-2"><path class="cls-1" d="M28.33,2.11C26.2,1.14,23.91,.41,21.52,0c-.04,0-.09,.01-.11,.05-.29,.52-.62,1.21-.85,1.74-2.57-.39-5.13-.39-7.65,0-.23-.55-.57-1.22-.86-1.74-.02-.04-.07-.06-.11-.05-2.39,.41-4.68,1.13-6.81,2.11-.02,0-.03,.02-.04,.04C.74,8.63-.44,14.96,.14,21.2c0,.03,.02,.06,.04,.08,2.86,2.1,5.64,3.38,8.36,4.22,.04,.01,.09,0,.12-.04,.64-.88,1.22-1.81,1.71-2.78,.03-.06,0-.12-.06-.15-.91-.35-1.78-.77-2.61-1.24-.07-.04-.07-.13-.01-.18,.18-.13,.35-.27,.52-.41,.03-.03,.07-.03,.11-.01,5.48,2.5,11.41,2.5,16.82,0,.04-.02,.08-.01,.11,.01,.17,.14,.34,.28,.52,.41,.06,.05,.06,.14,0,.18-.83,.49-1.7,.9-2.61,1.24-.06,.02-.09,.09-.06,.15,.5,.97,1.08,1.9,1.71,2.78,.03,.04,.07,.05,.12,.04,2.73-.85,5.51-2.12,8.37-4.22,.03-.02,.04-.05,.04-.08,.7-7.22-1.17-13.49-4.95-19.05,0-.02-.03-.03-.04-.04ZM11.18,17.4c-1.65,0-3.01-1.51-3.01-3.37s1.33-3.37,3.01-3.37,3.03,1.53,3.01,3.37c0,1.86-1.33,3.37-3.01,3.37Zm11.12,0c-1.65,0-3.01-1.51-3.01-3.37s1.33-3.37,3.01-3.37,3.03,1.53,3.01,3.37c0,1.86-1.32,3.37-3.01,3.37Z"/></g></svg>