<svg xmlns="http://www.w3.org/2000/svg" width="50" height="50" viewBox="0 0 50 50">
  <g id="discord" transform="translate(-377 -4727)">
    <circle id="Ellipse_97" data-name="Ellipse 97" cx="25" cy="25" r="25" transform="translate(377 4727)" fill="#5f70be"/>
    <g id="Layer_1-2" transform="translate(384.998 4739.002)">
      <path id="Path_7453" data-name="Path 7453" d="M28.33,2.11A27.8,27.8,0,0,0,21.52,0a.117.117,0,0,0-.11.05c-.29.52-.62,1.21-.85,1.74a25.155,25.155,0,0,0-7.65,0A18.732,18.732,0,0,0,12.05.05.1.1,0,0,0,11.94,0,27.379,27.379,0,0,0,5.13,2.11c-.02,0-.03.02-.04.04A28.213,28.213,0,0,0,.14,21.2a.123.123,0,0,0,.04.08A27.649,27.649,0,0,0,8.54,25.5a.115.115,0,0,0,.12-.04,20.333,20.333,0,0,0,1.71-2.78.11.11,0,0,0-.06-.15A19.528,19.528,0,0,1,7.7,21.29a.108.108,0,0,1-.01-.18c.18-.13.35-.27.52-.41a.09.09,0,0,1,.11-.01,19.8,19.8,0,0,0,16.82,0,.107.107,0,0,1,.11.01c.17.14.34.28.52.41a.112.112,0,0,1,0,.18,16.421,16.421,0,0,1-2.61,1.24.107.107,0,0,0-.06.15,22.52,22.52,0,0,0,1.71,2.78.109.109,0,0,0,.12.04,27.81,27.81,0,0,0,8.37-4.22.091.091,0,0,0,.04-.08A28.049,28.049,0,0,0,28.39,2.15c0-.02-.03-.03-.04-.04ZM11.18,17.4a3.214,3.214,0,0,1-3.01-3.37,3.194,3.194,0,0,1,3.01-3.37,3.194,3.194,0,0,1,3.01,3.37A3.194,3.194,0,0,1,11.18,17.4Zm11.12,0a3.214,3.214,0,0,1-3.01-3.37,3.194,3.194,0,0,1,3.01-3.37,3.194,3.194,0,0,1,3.01,3.37A3.188,3.188,0,0,1,22.3,17.4Z" fill="#fff"/>
    </g>
  </g>
</svg>
