<svg xmlns="http://www.w3.org/2000/svg" width="50" height="50" viewBox="0 0 50 50">
  <g id="github" transform="translate(-949 -4777)">
    <g id="Group_5157" data-name="Group 5157" transform="translate(949 4777)">
      <path id="Path_7472" data-name="Path 7472" d="M1139.058,31.3a25,25,0,1,0-31.2,24.225V49.164l-1.2.12a11.084,11.084,0,0,1-4.94-.64c-1.08-.54-1.7-1.3-2.56-3.02a8.727,8.727,0,0,0-2.14-2.82c-.82-.78-1.36-1.42-1.28-1.56.24-.38,1.68-.24,2.68.26a5.934,5.934,0,0,1,2.52,2.44,7,7,0,0,0,1.48,1.58c.82.56,1,.6,2.6.6,2.26,0,2.82-.28,3.14-1.54a4.837,4.837,0,0,1,.76-1.62l.52-.7-.94-.12c-6.38-.9-9.52-4.04-10.28-10.28a10.516,10.516,0,0,1,1.86-7.9c.58-.72.6-.78.36-1.5-.56-1.62-.06-5.62.74-5.92.58-.22,2.16.28,4.42,1.4l2.26,1.1,1.9-.32a29.235,29.235,0,0,1,8.66.02l2,.32,1.16-.68c2.16-1.24,4.56-2.1,5.28-1.86.86.28,1.4,4.24.82,5.94-.24.72-.22.78.36,1.5a10.173,10.173,0,0,1,1.86,4.5,15.385,15.385,0,0,1-1.78,9.06c-1.5,2.32-4.34,3.92-8.02,4.52l-1.42.24.48.62c.9,1.22,1.1,2.44,1.1,7.06v5.558A25.01,25.01,0,0,0,1139.058,31.3Z" transform="translate(-1089.058 -6.297)"/>
      <path id="Path_7473" data-name="Path 7473" d="M1145.848,83.649l-.48-.62,1.42-.24c3.68-.6,6.52-2.2,8.02-4.52a15.385,15.385,0,0,0,1.78-9.06,10.173,10.173,0,0,0-1.86-4.5c-.58-.72-.6-.78-.36-1.5.58-1.7.04-5.66-.82-5.94-.72-.24-3.12.62-5.28,1.86l-1.16.68-2-.32a29.235,29.235,0,0,0-8.66-.02l-1.9.32-2.26-1.1c-2.26-1.12-3.84-1.62-4.42-1.4-.8.3-1.3,4.3-.74,5.92.24.72.22.78-.36,1.5a10.516,10.516,0,0,0-1.86,7.9c.76,6.24,3.9,9.38,10.28,10.28l.94.12-.52.7a4.837,4.837,0,0,0-.76,1.62c-.32,1.26-.88,1.54-3.14,1.54-1.6,0-1.78-.04-2.6-.6a7,7,0,0,1-1.48-1.58,5.934,5.934,0,0,0-2.52-2.44c-1-.5-2.44-.64-2.68-.26-.08.14.46.78,1.28,1.56a8.727,8.727,0,0,1,2.14,2.82c.86,1.72,1.48,2.48,2.56,3.02a11.084,11.084,0,0,0,4.94.64l1.2-.12v6.358a25.175,25.175,0,0,0,12.4,0V90.709C1146.948,86.089,1146.748,84.869,1145.848,83.649Z" transform="translate(-1115.747 -47.042)" fill="#fff"/>
    </g>
  </g>
</svg>
