<?xml version="1.0" encoding="utf-8"?>
<!-- Generator: Adobe Illustrator 22.0.1, SVG Export Plug-In . SVG Version: 6.00 Build 0)  -->
<svg version="1.1" xmlns="http://www.w3.org/2000/svg" xmlns:xlink="http://www.w3.org/1999/xlink" width="1280" x="0px" y="0px"
	 viewBox="0 0 1920 1080" style="enable-background:new 0 0 1920 1080;" xml:space="preserve">
<style type="text/css">
	.st0{fill:#151616;}
	.st1{fill:#FFFFFF;}
	.st2{fill:#FFF8F4;}
	.st3{fill:#F6CFB2;}
	.st4{fill:#8ECCCE;}
	.st5{fill:#151515;}
	.st6{fill:none;stroke:#FFFFFF;stroke-width:0.5;stroke-miterlimit:10;}
</style>
<g id="fill">
	<rect x="0" y="0" class="st0" width="960" height="1080"/>
	<rect x="960" y="0" class="st1" width="960" height="1080"/>
	<g>
		<g>
			<path class="st2" d="M205,647.6h5.4l1.5-32.5h-5.6v-5.3h11.1l13.8,27.1l13.8-27.1h10.9v5.3h-5.6l1.4,32.5h5.4v5.3h-16.6v-5.3h5.3
				l-1-26.8l-13.2,25.5h-1.1l-13.2-25.5l-1,26.8h5.3v5.3H205V647.6z"/>
			<path class="st2" d="M273.3,647.6h3.9l12-32.6h-4.8v-5.2H306v5.2h-4.9l12,32.6h4v5.3h-15.3v-5.2h5l-3.2-9.1h-17l-3.2,9.1h5.2v5.2
				h-15.3V647.6z M301.9,633.6l-6.8-18.8l-6.8,18.8H301.9z"/>
			<path class="st2" d="M334.1,647.6h5.6v-32.5h-5.6v-5.3h17.1v5.3h-5.6v32.5h5.6v5.3h-17.1V647.6z"/>
			<path class="st2" d="M370.4,644.3c0-2.8,1.6-4.5,3.9-4.5c2.4,0,3.9,1.8,3.9,3.6c0,1.2-0.3,2-0.9,2.8c1.5,1.3,4.4,2.3,7.9,2.3
				c5.2,0,8.6-2.6,8.6-6.8c0-4.1-3.9-6-8.5-7.7c-7.7-2.9-13.3-5.5-13.3-13.2c0-6.7,5.4-11.8,13.7-11.8c7.5,0,13.4,4.1,13.4,8.8
				c0,2.7-1.7,4.3-3.8,4.3c-2.5,0-4-1.8-4-3.8c0-1,0.3-1.7,0.7-2.3c-1.2-1-3.7-1.8-6.4-1.8c-4.8,0-7.7,2.6-7.7,6.2
				c0,4.1,3.9,5.9,8.8,7.8c7.4,2.8,13,5.4,13,13c0,7.9-6.2,12.5-14.6,12.5C376.7,653.7,370.4,648.9,370.4,644.3z"/>
			<path class="st2" d="M419.9,631.4c0-12.6,9.2-22.3,22.1-22.3c12.7,0,21.8,9.8,21.8,22.3c0,12.6-9.2,22.3-22.1,22.3
				C429,653.7,419.9,644,419.9,631.4z M457.7,631.4c0-9.6-6.6-16.8-15.8-16.8c-9.2,0-15.9,7.1-15.9,16.8c0,9.6,6.6,16.8,15.9,16.8
				C451,648.2,457.7,641.1,457.7,631.4z"/>
			<path class="st2" d="M494.1,620.4v27.3h5.5v5.3h-16.5v-5.3h5.2v-32.5h-5.2v-5.3h10.3l23.3,30.4v-25.1h-5.5v-5.3h16.3v5.3h-5.1
				v37.9l-3.3,0.1L494.1,620.4z"/>
			<path class="st2" d="M554,653.1l-3.3-0.1v-37.9h-5v-5.3H562v5.3h-5.5v25.1l23.3-30.4h10.4v5.3h-5.2v32.5h5.2v5.3h-16.5v-5.3h5.5
				v-27.3L554,653.1z"/>
			<path class="st2" d="M608.8,631.4c0-12.6,9.2-22.3,22.1-22.3c12.7,0,21.8,9.8,21.8,22.3c0,12.6-9.2,22.3-22.1,22.3
				C617.9,653.7,608.8,644,608.8,631.4z M646.6,631.4c0-9.6-6.6-16.8-15.8-16.8c-9.2,0-15.9,7.1-15.9,16.8c0,9.6,6.6,16.8,15.9,16.8
				C639.9,648.2,646.6,641.1,646.6,631.4z"/>
			<path class="st2" d="M672,647.6h5.2v-32.5H672v-5.3h31.6v11.3H698v-6h-14.8v13.4h13.6v5.1h-13.6v14.2H698v-6h5.7v11.3H672V647.6z
				 M685.1,604.1l7.6-8.9c0.9-1,2-1.7,3.1-1.7c1.6,0,2.9,1.2,2.9,3c0,1.1-0.7,2.3-2.1,3.2l-9.9,6.2L685.1,604.1z"/>
			<path class="st2" d="M723.3,647.6h5.2v-32.5h-5.2v-5.3h31.6v11.3h-5.6v-6h-14.8v13.4h13.6v5.1h-13.6v14.2h14.8v-6h5.7v11.3h-31.7
				V647.6z"/>
			<path class="st2" d="M432.7,730.9h1.8v-11.5h-1.8V718h5.8c3.4,0,4.8,1.7,4.8,3.6c0,1.7-1.1,2.9-2.6,3.4c1.9,0.5,3,1.6,3,3.4
				c0,2.3-1.8,3.9-5,3.9h-6V730.9z M438.3,724.4c2.3,0,3.4-1,3.4-2.6c0-1.5-1.1-2.4-3.3-2.4h-2.3v5H438.3z M438.8,731
				c2.1,0,3.3-1.1,3.3-2.6c0-1.7-1.4-2.6-3.8-2.6h-2.2v5.2H438.8z"/>
			<path class="st2" d="M450.3,730.9h1.8v-11.5h-1.8V718h10.4v3.5h-1.6v-2.1h-5.4v4.9h4.7v1.4h-4.7v5.2h5.4v-2.1h1.6v3.5h-10.5
				V730.9z"/>
			<path class="st2" d="M467.5,730.9h1.8v-11.5h-1.8V718h5.5c3.2,0,5.2,1.6,5.2,4.2c0,2-1.3,3.3-3.1,3.9l3,4.8h1.7v1.4H477l-3.5-5.9
				c-0.3,0-0.5,0-0.8,0c-0.6,0-1.2,0-1.7,0v4.4h1.9v1.4h-5.3V730.9z M476.6,722.2c0-1.8-1.4-2.8-3.7-2.8H471v5.6c0.4,0,1,0,1.7,0
				C474.9,725.1,476.6,724.1,476.6,722.2z"/>
			<path class="st2" d="M485.4,730.9h1.8v-11.5h-1.8V718h5.5v1.4h-2V731h5v-2.2h1.6v3.6h-10V730.9z"/>
			<path class="st2" d="M501.9,730.9h1.9v-11.5h-1.9V718h5.5v1.4h-1.9v11.5h1.9v1.4h-5.5V730.9z"/>
			<path class="st2" d="M517.2,720.9v10.1h1.9v1.4h-5.3v-1.4h1.8v-11.5h-1.8V718h3.3l8.3,10.9v-9.5h-1.9V718h5.2v1.4h-1.8v13l-0.9,0
				L517.2,720.9z"/>
		</g>
		<path class="st3" d="M533.2,416.7l-14.6,14.7v-83.8L480,386.1l-38.6-38.6v182l62.5-62.7l0,61.8l14.6-14.7v-61.8l14.6-14.7V416.7z
			 M503.9,446.1l-47.8,48V382.9l23.9,23.9l23.9-23.9V446.1z"/>
	</g>
	<g>
		<g>
			<path class="st0" d="M1165,647.6h5.4l1.5-32.5h-5.6v-5.3h11.1l13.8,27.1l13.8-27.1h10.9v5.3h-5.6l1.4,32.5h5.4v5.3h-16.6v-5.3
				h5.3l-1-26.8l-13.2,25.5h-1.1l-13.2-25.5l-1,26.8h5.3v5.3H1165V647.6z"/>
			<path class="st0" d="M1233.3,647.6h3.9l12-32.6h-4.8v-5.2h21.6v5.2h-4.9l12,32.6h4v5.3h-15.3v-5.2h5l-3.2-9.1h-17l-3.2,9.1h5.2
				v5.2h-15.3V647.6z M1261.9,633.6l-6.8-18.8l-6.8,18.8H1261.9z"/>
			<path class="st0" d="M1294.1,647.6h5.6v-32.5h-5.6v-5.3h17.1v5.3h-5.6v32.5h5.6v5.3h-17.1V647.6z"/>
			<path class="st0" d="M1330.4,644.3c0-2.8,1.6-4.5,3.9-4.5c2.4,0,3.9,1.8,3.9,3.6c0,1.2-0.3,2-0.9,2.8c1.5,1.3,4.4,2.3,7.9,2.3
				c5.2,0,8.6-2.6,8.6-6.8c0-4.1-3.9-6-8.5-7.7c-7.7-2.9-13.3-5.5-13.3-13.2c0-6.7,5.4-11.8,13.7-11.8c7.5,0,13.4,4.1,13.4,8.8
				c0,2.7-1.7,4.3-3.8,4.3c-2.5,0-4-1.8-4-3.8c0-1,0.3-1.7,0.7-2.3c-1.2-1-3.7-1.8-6.4-1.8c-4.8,0-7.7,2.6-7.7,6.2
				c0,4.1,3.9,5.9,8.8,7.8c7.4,2.8,13,5.4,13,13c0,7.9-6.2,12.5-14.6,12.5C1336.7,653.7,1330.4,648.9,1330.4,644.3z"/>
			<path class="st0" d="M1379.9,631.4c0-12.6,9.2-22.3,22.1-22.3c12.7,0,21.8,9.8,21.8,22.3c0,12.6-9.2,22.3-22.1,22.3
				C1389,653.7,1379.9,644,1379.9,631.4z M1417.7,631.4c0-9.6-6.6-16.8-15.8-16.8c-9.2,0-15.8,7.1-15.8,16.8
				c0,9.6,6.6,16.8,15.8,16.8C1411,648.2,1417.7,641.1,1417.7,631.4z"/>
			<path class="st0" d="M1454.1,620.4v27.3h5.5v5.3h-16.5v-5.3h5.2v-32.5h-5.2v-5.3h10.3l23.3,30.4v-25.1h-5.5v-5.3h16.3v5.3h-5.1
				v37.9l-3.3,0.1L1454.1,620.4z"/>
			<path class="st0" d="M1514,653.1l-3.3-0.1v-37.9h-5v-5.3h16.3v5.3h-5.5v25.1l23.3-30.4h10.4v5.3h-5.2v32.5h5.2v5.3h-16.5v-5.3
				h5.5v-27.3L1514,653.1z"/>
			<path class="st0" d="M1568.8,631.4c0-12.6,9.2-22.3,22.1-22.3c12.7,0,21.8,9.8,21.8,22.3c0,12.6-9.2,22.3-22.1,22.3
				C1577.9,653.7,1568.8,644,1568.8,631.4z M1606.6,631.4c0-9.6-6.6-16.8-15.8-16.8c-9.2,0-15.8,7.1-15.8,16.8
				c0,9.6,6.6,16.8,15.8,16.8C1599.9,648.2,1606.6,641.1,1606.6,631.4z"/>
			<path class="st0" d="M1632,647.6h5.2v-32.5h-5.2v-5.3h31.6v11.3h-5.6v-6h-14.8v13.4h13.6v5.1h-13.6v14.2h14.8v-6h5.7v11.3H1632
				V647.6z M1645.1,604.1l7.6-8.9c0.9-1,2-1.7,3.1-1.7c1.6,0,2.9,1.2,2.9,3c0,1.1-0.7,2.3-2.1,3.2l-9.9,6.2L1645.1,604.1z"/>
			<path class="st0" d="M1683.3,647.6h5.2v-32.5h-5.2v-5.3h31.6v11.3h-5.6v-6h-14.8v13.4h13.6v5.1h-13.6v14.2h14.8v-6h5.7v11.3
				h-31.7V647.6z"/>
			<path class="st0" d="M1392.7,730.9h1.8v-11.5h-1.8V718h5.8c3.4,0,4.8,1.7,4.8,3.6c0,1.7-1.1,2.9-2.6,3.4c1.9,0.5,3,1.6,3,3.4
				c0,2.3-1.8,3.9-5,3.9h-6V730.9z M1398.3,724.4c2.3,0,3.4-1,3.4-2.6c0-1.5-1.1-2.4-3.3-2.4h-2.3v5H1398.3z M1398.8,731
				c2.1,0,3.3-1.1,3.3-2.6c0-1.7-1.4-2.6-3.8-2.6h-2.2v5.2H1398.8z"/>
			<path class="st0" d="M1410.3,730.9h1.8v-11.5h-1.8V718h10.4v3.5h-1.6v-2.1h-5.4v4.9h4.7v1.4h-4.7v5.2h5.4v-2.1h1.6v3.5h-10.5
				V730.9z"/>
			<path class="st0" d="M1427.5,730.9h1.8v-11.5h-1.8V718h5.5c3.2,0,5.2,1.6,5.2,4.2c0,2-1.3,3.3-3.1,3.9l3,4.8h1.7v1.4h-2.8
				l-3.5-5.9c-0.3,0-0.5,0-0.8,0c-0.6,0-1.2,0-1.7,0v4.4h1.9v1.4h-5.3V730.9z M1436.6,722.2c0-1.8-1.4-2.8-3.7-2.8h-1.9v5.6
				c0.4,0,1,0,1.7,0C1434.9,725.1,1436.6,724.1,1436.6,722.2z"/>
			<path class="st0" d="M1445.4,730.9h1.8v-11.5h-1.8V718h5.5v1.4h-2V731h5v-2.2h1.6v3.6h-10V730.9z"/>
			<path class="st0" d="M1461.9,730.9h1.9v-11.5h-1.9V718h5.5v1.4h-1.9v11.5h1.9v1.4h-5.5V730.9z"/>
			<path class="st0" d="M1477.2,720.9v10.1h1.9v1.4h-5.3v-1.4h1.8v-11.5h-1.8V718h3.3l8.3,10.9v-9.5h-1.9V718h5.2v1.4h-1.8v13
				l-0.9,0L1477.2,720.9z"/>
		</g>
		<path class="st3" d="M1493.2,416.7l-14.6,14.7v-83.8l-38.6,38.6l-38.6-38.6v182l62.5-62.7l0,61.8l14.6-14.7v-61.8l14.6-14.7V416.7
			z M1463.9,446.1l-47.8,48V382.9l23.9,23.9l23.9-23.9V446.1z"/>
	</g>
	<g>
		<path class="st4" d="M265.9,963.1h-1.3v-8.8h-10.4v8.8h-1.2v-17.8h1.2v7.9h10.4v-7.9h1.3V963.1z"/>
		<path class="st4" d="M281.6,963.1h-9.8v-17.8h9.8v1.1h-8.5v6.8h8v1.1h-8v7.7h8.5V963.1z"/>
		<path class="st4" d="M298.5,963.1h-1.4l-5.3-8.3l-5.4,8.3h-1.4l6-9.3l-5.5-8.5h1.4l4.8,7.6l4.9-7.6h1.3l-5.5,8.5L298.5,963.1z"/>
		<path class="st4" d="M314.7,950.9h-3.1v12.2h-1.2v-12.2h-2.5v-0.7l2.5-0.5v-1c0-1.6,0.3-2.8,0.9-3.6c0.6-0.8,1.6-1.1,2.9-1.1
			c0.7,0,1.5,0.1,2.2,0.3l-0.3,1c-0.7-0.2-1.3-0.3-1.9-0.3c-0.9,0-1.6,0.3-2,0.8c-0.4,0.6-0.6,1.5-0.6,2.7v1.2h3.1V950.9z"/>
		<path class="st4" d="M323.3,952.4c1.9,0,3.4,0.5,4.5,1.4c1.1,0.9,1.6,2.2,1.6,3.8c0,1.8-0.6,3.3-1.7,4.3c-1.1,1-2.7,1.5-4.7,1.5
			c-0.9,0-1.7-0.1-2.5-0.3c-0.8-0.2-1.5-0.4-2-0.8v-1.3c0.9,0.4,1.7,0.8,2.3,0.9c0.7,0.2,1.4,0.3,2.2,0.3c1.6,0,2.8-0.4,3.8-1.2
			c0.9-0.8,1.4-1.9,1.4-3.4c0-1.3-0.5-2.4-1.4-3.1c-0.9-0.8-2.2-1.1-3.7-1.1c-1.1,0-2.2,0.2-3.3,0.5l-0.7-0.5l0.7-8.2h8.6v1.2h-7.4
			l-0.5,6.3C321.6,952.5,322.6,952.4,323.3,952.4z"/>
		<path class="st4" d="M339.7,963.4c-1.9,0-3.4-0.6-4.5-1.8s-1.6-2.9-1.6-5c0-2.2,0.6-3.9,1.7-5.1c1.1-1.2,2.6-1.8,4.6-1.8
			c1.1,0,2.2,0.2,3.3,0.6l-0.3,1.1c-1.1-0.4-2.1-0.6-3-0.6c-1.6,0-2.9,0.5-3.7,1.5c-0.8,1-1.3,2.5-1.3,4.3c0,1.8,0.4,3.2,1.3,4.2
			c0.8,1,2,1.5,3.5,1.5c1.2,0,2.3-0.2,3.4-0.6v1.1C342.2,963.2,341,963.4,339.7,963.4z"/>
		<path class="st4" d="M353.2,950.9H350v12.2h-1.2v-12.2h-2.5v-0.7l2.5-0.5v-1c0-1.6,0.3-2.8,0.9-3.6c0.6-0.8,1.6-1.1,2.9-1.1
			c0.7,0,1.5,0.1,2.2,0.3l-0.3,1c-0.7-0.2-1.3-0.3-1.9-0.3c-0.9,0-1.6,0.3-2,0.8c-0.4,0.6-0.6,1.5-0.6,2.7v1.2h3.1V950.9z"/>
		<path class="st4" d="M363.5,949.6c1.9,0,3.3,0.6,4.2,1.8c0.9,1.2,1.4,2.9,1.4,5.1c0,2.2-0.5,3.9-1.5,5.1s-2.4,1.8-4.2,1.8
			c-0.9,0-1.8-0.2-2.6-0.6s-1.4-0.9-1.8-1.7H359l-0.3,2h-0.8v-19h1.2v4.8c0,0.7,0,1.4,0,2l0,1h0.1c0.5-0.8,1.1-1.4,1.8-1.8
			C361.6,949.8,362.5,949.6,363.5,949.6z M363.5,950.7c-1.6,0-2.7,0.4-3.4,1.3c-0.7,0.9-1,2.4-1,4.4v0.2c0,2,0.4,3.4,1.1,4.3
			c0.7,0.9,1.8,1.3,3.3,1.3c1.4,0,2.5-0.5,3.3-1.5c0.7-1,1.1-2.5,1.1-4.3C367.8,952.6,366.4,950.7,363.5,950.7z"/>
		<path class="st4" d="M378,963.1h-1.2v-13c0-1.2,0-2.4,0.1-3.7c-0.1,0.1-0.2,0.2-0.4,0.4c-0.1,0.1-1.4,1.1-3.8,3l-0.7-0.9l4.8-3.6
			h1V963.1z"/>
	</g>
	<g>
		<g>
			<path class="st4" d="M594,963.1h-1.3v-8.8h-10.4v8.8h-1.2v-17.8h1.2v7.9h10.4v-7.9h1.3V963.1z"/>
			<path class="st4" d="M609.8,963.1H600v-17.8h9.8v1.1h-8.5v6.8h8v1.1h-8v7.7h8.5V963.1z"/>
			<path class="st4" d="M626.7,963.1h-1.4l-5.3-8.3l-5.4,8.3h-1.4l6-9.3l-5.5-8.5h1.4l4.8,7.6l4.9-7.6h1.3l-5.5,8.5L626.7,963.1z"/>
			<path class="st4" d="M642.8,950.9h-3.1v12.2h-1.2v-12.2H636v-0.7l2.5-0.5v-1c0-1.6,0.3-2.8,0.9-3.6c0.6-0.8,1.6-1.1,2.9-1.1
				c0.7,0,1.5,0.1,2.2,0.3l-0.3,1c-0.7-0.2-1.3-0.3-1.9-0.3c-0.9,0-1.6,0.3-2,0.8c-0.4,0.6-0.6,1.5-0.6,2.7v1.2h3.1V950.9z
				 M650.3,950.9h-3.1v12.2H646v-12.2h-2.5v-0.7l2.5-0.5v-1c0-1.6,0.3-2.8,0.9-3.6c0.6-0.8,1.6-1.1,2.9-1.1c0.7,0,1.5,0.1,2.2,0.3
				l-0.3,1c-0.7-0.2-1.3-0.3-1.9-0.3c-0.9,0-1.6,0.3-2,0.8c-0.4,0.6-0.6,1.5-0.6,2.7v1.2h3.1V950.9z"/>
			<path class="st4" d="M660.1,950.9H657v12.2h-1.2v-12.2h-2.5v-0.7l2.5-0.5v-1c0-1.6,0.3-2.8,0.9-3.6c0.6-0.8,1.6-1.1,2.9-1.1
				c0.7,0,1.5,0.1,2.2,0.3l-0.3,1c-0.7-0.2-1.3-0.3-1.9-0.3c-0.9,0-1.6,0.3-2,0.8c-0.4,0.6-0.6,1.5-0.6,2.7v1.2h3.1V950.9z"/>
			<path class="st4" d="M667.1,963.1l7.3-16.7h-10.1v-1.2h11.5v0.9l-7.4,17H667.1z"/>
			<path class="st4" d="M685.4,950.9h-3.1v12.2h-1.2v-12.2h-2.5v-0.7l2.5-0.5v-1c0-1.6,0.3-2.8,0.9-3.6c0.6-0.8,1.6-1.1,2.9-1.1
				c0.7,0,1.5,0.1,2.2,0.3l-0.3,1c-0.7-0.2-1.3-0.3-1.9-0.3c-0.9,0-1.6,0.3-2,0.8c-0.4,0.6-0.6,1.5-0.6,2.7v1.2h3.1V950.9z"/>
			<path class="st4" d="M699.8,949.5c0,1.1-0.3,2-1,2.8s-1.6,1.2-2.8,1.5v0.1c1.4,0.2,2.5,0.6,3.3,1.4c0.7,0.7,1.1,1.7,1.1,3
				c0,1.7-0.6,3-1.7,3.9c-1.1,0.9-2.8,1.4-4.9,1.4c-1.8,0-3.4-0.3-4.7-1v-1.2c0.7,0.4,1.5,0.6,2.3,0.8c0.9,0.2,1.6,0.3,2.4,0.3
				c1.8,0,3.1-0.4,4.1-1.1c0.9-0.7,1.4-1.8,1.4-3.1c0-1.2-0.5-2.1-1.4-2.7c-0.9-0.6-2.3-1-4.1-1h-1.9v-1.2h2c1.5,0,2.7-0.4,3.5-1.1
				c0.9-0.7,1.3-1.7,1.3-2.9c0-1-0.4-1.8-1.1-2.4c-0.7-0.6-1.6-0.9-2.8-0.9c-0.9,0-1.7,0.1-2.4,0.4c-0.7,0.2-1.6,0.7-2.5,1.3
				l-0.6-0.8c0.7-0.6,1.5-1,2.5-1.4c1-0.3,2-0.5,3-0.5c1.6,0,2.9,0.4,3.8,1.2C699.3,947,699.8,948.1,699.8,949.5z"/>
		</g>
	</g>
	<g>
		<path class="st5" d="M1225.9,963.1h-1.3v-8.8h-10.4v8.8h-1.2v-17.8h1.2v7.9h10.4v-7.9h1.3V963.1z"/>
		<path class="st5" d="M1241.6,963.1h-9.8v-17.8h9.8v1.1h-8.5v6.8h8v1.1h-8v7.7h8.5V963.1z"/>
		<path class="st5" d="M1258.5,963.1h-1.4l-5.3-8.3l-5.4,8.3h-1.4l6-9.3l-5.5-8.5h1.4l4.8,7.6l4.9-7.6h1.3l-5.5,8.5L1258.5,963.1z"
			/>
		<path class="st5" d="M1274.7,950.9h-3.1v12.2h-1.2v-12.2h-2.5v-0.7l2.5-0.5v-1c0-1.6,0.3-2.8,0.9-3.6c0.6-0.8,1.6-1.1,2.9-1.1
			c0.7,0,1.5,0.1,2.2,0.3l-0.3,1c-0.7-0.2-1.3-0.3-1.9-0.3c-0.9,0-1.6,0.3-2,0.8c-0.4,0.6-0.6,1.5-0.6,2.7v1.2h3.1V950.9z"/>
		<path class="st5" d="M1283.3,952.4c1.9,0,3.4,0.5,4.5,1.4c1.1,0.9,1.6,2.2,1.6,3.8c0,1.8-0.6,3.3-1.7,4.3c-1.1,1-2.7,1.5-4.7,1.5
			c-0.9,0-1.7-0.1-2.5-0.3c-0.8-0.2-1.5-0.4-2-0.8v-1.3c0.9,0.4,1.7,0.8,2.3,0.9c0.7,0.2,1.4,0.3,2.2,0.3c1.6,0,2.8-0.4,3.8-1.2
			c0.9-0.8,1.4-1.9,1.4-3.4c0-1.3-0.5-2.4-1.4-3.1c-0.9-0.8-2.2-1.1-3.7-1.1c-1.1,0-2.2,0.2-3.3,0.5l-0.7-0.5l0.7-8.2h8.6v1.2h-7.4
			l-0.5,6.3C1281.6,952.5,1282.6,952.4,1283.3,952.4z"/>
		<path class="st5" d="M1299.7,963.4c-1.9,0-3.4-0.6-4.5-1.8s-1.6-2.9-1.6-5c0-2.2,0.6-3.9,1.7-5.1c1.1-1.2,2.6-1.8,4.6-1.8
			c1.1,0,2.2,0.2,3.3,0.6l-0.3,1.1c-1.1-0.4-2.1-0.6-3-0.6c-1.6,0-2.9,0.5-3.7,1.5c-0.8,1-1.3,2.5-1.3,4.3c0,1.8,0.4,3.2,1.3,4.2
			c0.8,1,2,1.5,3.5,1.5c1.2,0,2.3-0.2,3.4-0.6v1.1C1302.2,963.2,1301,963.4,1299.7,963.4z"/>
		<path class="st5" d="M1313.2,950.9h-3.1v12.2h-1.2v-12.2h-2.5v-0.7l2.5-0.5v-1c0-1.6,0.3-2.8,0.9-3.6c0.6-0.8,1.6-1.1,2.9-1.1
			c0.7,0,1.5,0.1,2.2,0.3l-0.3,1c-0.7-0.2-1.3-0.3-1.9-0.3c-0.9,0-1.6,0.3-2,0.8c-0.4,0.6-0.6,1.5-0.6,2.7v1.2h3.1V950.9z"/>
		<path class="st5" d="M1323.5,949.6c1.9,0,3.3,0.6,4.2,1.8c0.9,1.2,1.4,2.9,1.4,5.1c0,2.2-0.5,3.9-1.5,5.1s-2.4,1.8-4.2,1.8
			c-0.9,0-1.8-0.2-2.6-0.6s-1.4-0.9-1.8-1.7h-0.1l-0.3,2h-0.8v-19h1.2v4.8c0,0.7,0,1.4,0,2l0,1h0.1c0.5-0.8,1.1-1.4,1.8-1.8
			C1321.6,949.8,1322.5,949.6,1323.5,949.6z M1323.5,950.7c-1.6,0-2.7,0.4-3.4,1.3c-0.7,0.9-1,2.4-1,4.4v0.2c0,2,0.4,3.4,1.1,4.3
			c0.7,0.9,1.8,1.3,3.3,1.3c1.4,0,2.5-0.5,3.3-1.5c0.7-1,1.1-2.5,1.1-4.3C1327.8,952.6,1326.4,950.7,1323.5,950.7z"/>
		<path class="st5" d="M1338,963.1h-1.2v-13c0-1.2,0-2.4,0.1-3.7c-0.1,0.1-0.2,0.2-0.4,0.4c-0.1,0.1-1.4,1.1-3.8,3l-0.7-0.9l4.8-3.6
			h1V963.1z"/>
	</g>
	<g>
		<g>
			<path class="st5" d="M1544.2,963.1h-1.3v-8.8h-10.4v8.8h-1.2v-17.8h1.2v7.9h10.4v-7.9h1.3V963.1z"/>
			<path class="st5" d="M1560,963.1h-9.8v-17.8h9.8v1.1h-8.5v6.8h8v1.1h-8v7.7h8.5V963.1z"/>
			<path class="st5" d="M1576.9,963.1h-1.4l-5.3-8.3l-5.4,8.3h-1.4l6-9.3l-5.5-8.5h1.4l4.8,7.6l4.9-7.6h1.3l-5.5,8.5L1576.9,963.1z"
				/>
			<path class="st5" d="M1594.2,963.1h-1.2v-13c0-1.2,0-2.4,0.1-3.7c-0.1,0.1-0.2,0.2-0.4,0.4c-0.1,0.1-1.4,1.1-3.8,3l-0.7-0.9
				l4.8-3.6h1V963.1z"/>
			<path class="st5" d="M1613.5,958.6h-3.1v4.6h-1.1v-4.6h-9.2v-0.8l8.9-12.6h1.5v12.3h3.1V958.6z M1609.3,957.5v-5.1
				c0-2.5,0.1-4.5,0.2-6.2h-0.1c-0.2,0.3-0.7,1.1-1.5,2.3l-6.3,9H1609.3z"/>
			<path class="st5" d="M1621.9,963.1h-1.2v-13c0-1.2,0-2.4,0.1-3.7c-0.1,0.1-0.2,0.2-0.4,0.4c-0.1,0.1-1.4,1.1-3.8,3l-0.7-0.9
				l4.8-3.6h1.1V963.1z"/>
			<path class="st5" d="M1633.3,952.4c1.9,0,3.4,0.5,4.5,1.4c1.1,0.9,1.6,2.2,1.6,3.8c0,1.8-0.6,3.3-1.7,4.3c-1.1,1-2.7,1.5-4.7,1.5
				c-0.9,0-1.7-0.1-2.5-0.3c-0.8-0.2-1.5-0.4-2-0.8v-1.3c0.9,0.4,1.7,0.8,2.3,0.9c0.7,0.2,1.4,0.3,2.2,0.3c1.6,0,2.8-0.4,3.8-1.2
				c0.9-0.8,1.4-1.9,1.4-3.4c0-1.3-0.5-2.4-1.4-3.1c-0.9-0.8-2.2-1.1-3.7-1.1c-1.1,0-2.2,0.2-3.3,0.5l-0.7-0.5l0.7-8.2h8.6v1.2h-7.4
				l-0.5,6.3C1631.6,952.5,1632.6,952.4,1633.3,952.4z"/>
			<path class="st5" d="M1648.5,963.1h-1.2v-13c0-1.2,0-2.4,0.1-3.7c-0.1,0.1-0.2,0.2-0.4,0.4c-0.1,0.1-1.4,1.1-3.8,3l-0.7-0.9
				l4.8-3.6h1.1V963.1z"/>
			<path class="st5" d="M1659.9,952.4c1.9,0,3.4,0.5,4.5,1.4c1.1,0.9,1.6,2.2,1.6,3.8c0,1.8-0.6,3.3-1.7,4.3c-1.1,1-2.7,1.5-4.7,1.5
				c-0.9,0-1.7-0.1-2.5-0.3c-0.8-0.2-1.5-0.4-2-0.8v-1.3c0.9,0.4,1.7,0.8,2.3,0.9c0.7,0.2,1.4,0.3,2.2,0.3c1.6,0,2.8-0.4,3.8-1.2
				c0.9-0.8,1.4-1.9,1.4-3.4c0-1.3-0.5-2.4-1.4-3.1c-0.9-0.8-2.2-1.1-3.7-1.1c-1.1,0-2.2,0.2-3.3,0.5l-0.7-0.5l0.7-8.2h8.6v1.2h-7.4
				l-0.5,6.3C1658.2,952.5,1659.2,952.4,1659.9,952.4z"/>
		</g>
	</g>
	<path class="st6" d="M1594.7,912.8v6.5h3.5v-6.4h-3.1C1595,912.9,1594.8,912.9,1594.7,912.8z"/>
</g>
<g id="strokes">
	<g>
		<g>
			<g>
				<path class="st4" d="M653.3,898.5v2.8h-2.9l0.8,17.1h2.9v2.8h-8.7v-2.8h2.8l-0.5-14.1l-7,13.4H640l-7-13.4l-0.5,14.1h2.8v2.8
					h-8.7v-2.8h2.8l0.8-17.1h-3v-2.8h5.8l7.2,14.2l7.2-14.2H653.3 M654.1,897.7h-0.8h-5.8h-0.5l-0.2,0.4l-6.5,12.8l-6.5-12.8
					l-0.2-0.4h-0.5h-5.8h-0.8v0.8v2.8v0.8h0.8h2.1l-0.7,15.5h-2.1h-0.8v0.8v2.8v0.8h0.8h8.7h0.8v-0.8v-2.8v-0.8h-0.8h-2l0.4-10.2
					l5.6,10.7l0.2,0.4h0.5h0.6h0.5l0.2-0.4l5.6-10.7l0.4,10.2h-2h-0.8v0.8v2.8v0.8h0.8h8.7h0.8v-0.8v-2.8v-0.8H654h-2.1l-0.7-15.5
					h2.1h0.8v-0.8v-2.8V897.7L654.1,897.7z"/>
			</g>
		</g>
	</g>
	<g>
		<g>
			<g>
				<path class="st5" d="M1611.2,898.5v2.8h-2.9l0.8,17.1h2.9v2.8h-8.8v-2.8h2.8l-0.5-14.1l-7,13.4h-0.6l-7-13.4l-0.5,14.1h2.8v2.8
					h-8.7v-2.8h2.8l0.8-17.1h-3v-2.8h5.8l7.2,14.2l7.2-14.2H1611.2 M1612,897.7h-0.8h-5.8h-0.5l-0.2,0.4l-6.5,12.8l-6.5-12.8
					l-0.2-0.4h-0.5h-5.8h-0.8v0.8v2.8v0.8h0.8h2.1l-0.7,15.5h-2.1h-0.8v0.8v2.8v0.8h0.8h8.7h0.8v-0.8v-2.8v-0.8h-0.8h-2l0.4-10.2
					l5.6,10.7l0.2,0.4h0.5h0.6h0.5l0.2-0.4l5.6-10.7l0.4,10.2h-2h-0.8v0.8v2.8v0.8h0.8h8.8h0.8v-0.8v-2.8v-0.8h-0.8h-2.1l-0.7-15.5
					h2.1h0.8v-0.8v-2.8V897.7L1612,897.7z"/>
			</g>
		</g>
	</g>
	<g>
		<g>
			<path class="st4" d="M324.9,874.8v20.7l3.6-3.6v5.1l-3.6,3.6v15.3l-3.6,3.6l0-15.3l-15.4,15.5v-45l9.5,9.5L324.9,874.8
				 M315.4,889.4l-5.9-5.9V911l11.8-11.9v-15.6L315.4,889.4 M325.7,872.8l-1.4,1.4l-9,9l-9-9l-1.4-1.4v1.9v45v1.9l1.4-1.4l14.1-14.1
				l0,13.3l0,1.9l1.4-1.4l3.6-3.6l0.2-0.2v-0.3v-14.9l3.4-3.4l0.2-0.2V897v-5.1v-1.9l-1.4,1.4l-2.3,2.3v-18.8V872.8L325.7,872.8z
				 M315.4,890.5l0.6-0.6l4.5-4.5v13.3L310.3,909v-23.6l4.5,4.5L315.4,890.5L315.4,890.5z"/>
		</g>
	</g>
	<g>
		<g>
			<path class="st5" d="M1284.9,874.8v20.7l3.6-3.6v5.1l-3.6,3.6v15.3l-3.6,3.6l0-15.3l-15.4,15.5v-45l9.5,9.5L1284.9,874.8
				 M1275.4,889.4l-5.9-5.9V911l11.8-11.9v-15.6L1275.4,889.4 M1265,872.8v1.9v45v1.9l1.4-1.4l14.1-14.1l0,13.3l0,1.9l1.4-1.4
				l3.6-3.6l0.2-0.2v-0.3v-15l3.4-3.4l0.2-0.2V897v-5.1v-1.9l-1.4,1.4l-2.3,2.3v-18.8v-1.9l-1.4,1.4l-9,9l-9-9L1265,872.8
				L1265,872.8z M1275.4,890.5l0.6-0.6l4.5-4.5v13.3l-10.2,10.3v-23.6l4.5,4.5L1275.4,890.5L1275.4,890.5z"/>
		</g>
	</g>
</g>
</svg>
