<?xml version="1.0" encoding="utf-8"?>
<!-- Generator: Adobe Illustrator 22.0.1, SVG Export Plug-In . SVG Version: 6.00 Build 0)  -->
<svg version="1.1" id="Layer_1" xmlns="http://www.w3.org/2000/svg" xmlns:xlink="http://www.w3.org/1999/xlink" width="1280" x="0px" y="0px"
	 viewBox="0 0 1920 1080" style="enable-background:new 0 0 1920 1080;" xml:space="preserve">
<style type="text/css">
	.st0{fill:#262626;}
	.st1{fill:#8ECCCE;}
	.st2{fill:#F6CFB2;}
</style>
<rect x="1" y="0" class="st0" width="1920" height="1080"/>
<g>
	<path class="st1" d="M506.2,629.8h-7.3l-2.5,6.3H495l7.2-17.9h0.8l7,17.9h-1.4L506.2,629.8z M499.4,628.7h6.4l-2.4-6.4
		c-0.2-0.5-0.4-1.2-0.7-2.1c-0.2,0.8-0.5,1.5-0.7,2.1L499.4,628.7z"/>
	<path class="st1" d="M519,622.6c0.6,0,1.2,0.1,1.8,0.2l-0.2,1.2c-0.6-0.1-1.1-0.2-1.7-0.2c-1.1,0-2.1,0.5-2.8,1.4s-1.1,2.2-1.1,3.6
		v7.3h-1.2v-13.3h1l0.1,2.4h0.1c0.5-1,1.1-1.7,1.7-2.1C517.4,622.8,518.2,622.6,519,622.6z"/>
	<path class="st1" d="M529.5,636.4c-1.9,0-3.4-0.6-4.5-1.8c-1.1-1.2-1.6-2.9-1.6-5c0-2.2,0.6-3.9,1.7-5.1c1.1-1.2,2.6-1.8,4.6-1.8
		c1.1,0,2.2,0.2,3.3,0.6l-0.3,1.1c-1.1-0.4-2.1-0.6-3-0.6c-1.6,0-2.9,0.5-3.7,1.5s-1.3,2.5-1.3,4.3c0,1.8,0.4,3.2,1.3,4.2
		c0.8,1,2,1.5,3.5,1.5c1.2,0,2.3-0.2,3.4-0.6v1.1C532,636.2,530.9,636.4,529.5,636.4z"/>
	<path class="st1" d="M546.4,636.1v-8.6c0-1.3-0.3-2.3-0.8-2.9c-0.6-0.6-1.4-0.9-2.6-0.9c-1.6,0-2.7,0.4-3.5,1.2
		c-0.7,0.8-1.1,2.1-1.1,3.9v7.3h-1.2v-19h1.2v6l-0.1,1.7h0.1c0.5-0.8,1.1-1.4,1.9-1.7c0.8-0.4,1.7-0.5,2.8-0.5c3,0,4.5,1.6,4.5,4.8
		v8.7H546.4z"/>
	<path class="st1" d="M558.3,636.4c-1.9,0-3.4-0.6-4.5-1.8c-1.1-1.2-1.6-2.9-1.6-5c0-2.1,0.5-3.8,1.6-5.1c1-1.3,2.4-1.9,4.2-1.9
		c1.6,0,2.8,0.5,3.7,1.6c0.9,1.1,1.4,2.6,1.4,4.4v1h-9.6c0,1.8,0.4,3.2,1.3,4.2c0.8,1,2,1.4,3.6,1.4c0.8,0,1.4-0.1,2-0.2
		c0.6-0.1,1.3-0.3,2.2-0.7v1.1c-0.7,0.3-1.4,0.5-2.1,0.7C559.7,636.3,559,636.4,558.3,636.4z M557.9,623.7c-1.3,0-2.3,0.4-3.1,1.3
		c-0.8,0.8-1.2,2.1-1.4,3.6h8.2c0-1.5-0.3-2.7-1-3.6C560,624.1,559.1,623.7,557.9,623.7z"/>
	<path class="st1" d="M572.8,622.6c0.6,0,1.2,0.1,1.8,0.2l-0.2,1.2c-0.6-0.1-1.1-0.2-1.7-0.2c-1.1,0-2.1,0.5-2.8,1.4
		s-1.1,2.2-1.1,3.6v7.3h-1.2v-13.3h1l0.1,2.4h0.1c0.5-1,1.1-1.7,1.7-2.1C571.2,622.8,571.9,622.6,572.8,622.6z"/>
	<path class="st1" d="M596.4,631.5c0,1.5-0.5,2.7-1.6,3.5c-1.1,0.9-2.5,1.3-4.4,1.3c-2.2,0-3.9-0.2-5-0.7v-1.2
		c1.3,0.5,2.9,0.8,4.9,0.8c1.5,0,2.6-0.3,3.5-1c0.9-0.7,1.3-1.6,1.3-2.6c0-0.7-0.1-1.2-0.4-1.7s-0.7-0.8-1.4-1.2s-1.6-0.8-2.8-1.2
		c-1.8-0.6-3.1-1.3-3.8-2c-0.7-0.7-1-1.7-1-2.9c0-1.3,0.5-2.4,1.6-3.3c1-0.8,2.4-1.3,4-1.3c1.7,0,3.3,0.3,4.7,1l-0.5,1.1
		c-1.5-0.6-2.9-0.9-4.2-0.9c-1.3,0-2.4,0.3-3.1,0.9s-1.2,1.4-1.2,2.5c0,0.7,0.1,1.2,0.4,1.6c0.2,0.4,0.6,0.8,1.2,1.1
		c0.5,0.3,1.5,0.7,2.8,1.2c1.4,0.5,2.4,0.9,3.1,1.4c0.7,0.5,1.2,1,1.5,1.5C596.3,630,596.4,630.7,596.4,631.5z"/>
	<path class="st1" d="M606.5,636.4c-1.9,0-3.4-0.6-4.5-1.8c-1.1-1.2-1.6-2.9-1.6-5c0-2.1,0.5-3.8,1.6-5.1c1-1.3,2.4-1.9,4.2-1.9
		c1.6,0,2.8,0.5,3.7,1.6c0.9,1.1,1.4,2.6,1.4,4.4v1h-9.6c0,1.8,0.4,3.2,1.3,4.2c0.8,1,2,1.4,3.6,1.4c0.8,0,1.4-0.1,2-0.2
		c0.6-0.1,1.3-0.3,2.2-0.7v1.1c-0.7,0.3-1.4,0.5-2.1,0.7C608,636.3,607.3,636.4,606.5,636.4z M606.2,623.7c-1.3,0-2.3,0.4-3.1,1.3
		c-0.8,0.8-1.2,2.1-1.4,3.6h8.2c0-1.5-0.3-2.7-1-3.6C608.3,624.1,607.4,623.7,606.2,623.7z"/>
	<path class="st1" d="M632.4,636.1v-8.7c0-1.3-0.3-2.2-0.8-2.8c-0.5-0.6-1.3-0.9-2.3-0.9c-1.4,0-2.4,0.4-3,1.1c-0.7,0.7-1,1.9-1,3.5
		v7.8h-1.2v-9.1c0-2.2-1-3.4-3.1-3.4c-1.4,0-2.4,0.4-3,1.2s-1,2.1-1,3.9v7.3h-1.2v-13.3h1l0.3,1.8h0.1c0.4-0.7,0.9-1.2,1.6-1.5
		c0.7-0.4,1.4-0.5,2.2-0.5c2.1,0,3.4,0.8,4,2.4h0c0.4-0.8,1-1.3,1.7-1.7s1.6-0.6,2.5-0.6c1.4,0,2.5,0.4,3.3,1.2
		c0.7,0.8,1.1,2,1.1,3.7v8.7H632.4z"/>
	<path class="st1" d="M638.7,619.2c0-0.8,0.3-1.2,0.8-1.2c0.3,0,0.4,0.1,0.6,0.3c0.1,0.2,0.2,0.5,0.2,0.9c0,0.4-0.1,0.7-0.2,0.9
		c-0.1,0.2-0.3,0.3-0.6,0.3C638.9,620.4,638.7,620,638.7,619.2z M640.1,636.1h-1.2v-13.3h1.2V636.1z"/>
	<path class="st1" d="M651,622.6c1.9,0,3.3,0.6,4.2,1.8c0.9,1.2,1.4,2.9,1.4,5.1c0,2.2-0.5,3.9-1.5,5.1c-1,1.2-2.4,1.8-4.2,1.8
		c-0.9,0-1.8-0.2-2.6-0.6s-1.4-0.9-1.8-1.7h-0.1l-0.3,2h-0.8v-19h1.2v4.8c0,0.7,0,1.4,0,2l0,1h0.1c0.5-0.8,1.1-1.4,1.8-1.8
		S650,622.6,651,622.6z M651,623.7c-1.6,0-2.7,0.4-3.4,1.3s-1,2.4-1,4.4v0.2c0,2,0.4,3.4,1.1,4.3c0.7,0.9,1.8,1.3,3.3,1.3
		c1.4,0,2.5-0.5,3.3-1.5c0.7-1,1.1-2.5,1.1-4.3C655.4,625.6,653.9,623.7,651,623.7z"/>
	<path class="st1" d="M672.4,629.5c0,2.2-0.5,3.9-1.6,5.1c-1,1.2-2.5,1.8-4.3,1.8c-1.2,0-2.2-0.3-3.1-0.8c-0.9-0.6-1.6-1.4-2-2.4
		c-0.5-1-0.7-2.3-0.7-3.6c0-2.2,0.5-3.9,1.6-5.1c1-1.2,2.5-1.8,4.3-1.8c1.8,0,3.3,0.6,4.3,1.8C671.9,625.7,672.4,627.3,672.4,629.5z
		 M662,629.5c0,1.8,0.4,3.2,1.2,4.3c0.8,1,1.9,1.5,3.4,1.5s2.6-0.5,3.4-1.5c0.8-1,1.2-2.4,1.2-4.3c0-1.8-0.4-3.3-1.2-4.3
		c-0.8-1-1.9-1.5-3.4-1.5s-2.6,0.5-3.4,1.5C662.4,626.2,662,627.6,662,629.5z"/>
	<path class="st1" d="M678.4,636.1h-1.2v-19h1.2V636.1z"/>
	<path class="st1" d="M688.7,622.6c1,0,1.8,0.2,2.5,0.5c0.7,0.3,1.3,0.9,1.9,1.8h0.1c0-1-0.1-2-0.1-3v-4.8h1.2v19h-0.8l-0.3-2h-0.1
		c-1,1.5-2.5,2.3-4.3,2.3c-1.8,0-3.2-0.6-4.2-1.7s-1.5-2.8-1.5-5c0-2.3,0.5-4,1.4-5.3C685.5,623.2,686.9,622.6,688.7,622.6z
		 M688.7,623.7c-1.4,0-2.5,0.5-3.3,1.5c-0.7,1-1.1,2.5-1.1,4.4c0,3.8,1.5,5.6,4.4,5.6c1.5,0,2.6-0.4,3.3-1.3c0.7-0.9,1-2.3,1-4.3
		v-0.2c0-2.1-0.3-3.5-1-4.4C691.4,624.2,690.3,623.7,688.7,623.7z"/>
</g>
<g>
	<path class="st1" d="M506.2,234.1h-7.3l-2.5,6.3H495l7.2-17.9h0.8l7,17.9h-1.4L506.2,234.1z M499.4,233h6.4l-2.4-6.4
		c-0.2-0.5-0.4-1.2-0.7-2.1c-0.2,0.8-0.5,1.5-0.7,2.1L499.4,233z"/>
	<path class="st1" d="M519,226.9c0.6,0,1.2,0.1,1.8,0.2l-0.2,1.2c-0.6-0.1-1.1-0.2-1.7-0.2c-1.1,0-2.1,0.5-2.8,1.4s-1.1,2.2-1.1,3.6
		v7.3h-1.2v-13.3h1l0.1,2.4h0.1c0.5-1,1.1-1.7,1.7-2.1C517.4,227.1,518.2,226.9,519,226.9z"/>
	<path class="st1" d="M529.5,240.6c-1.9,0-3.4-0.6-4.5-1.8c-1.1-1.2-1.6-2.9-1.6-5c0-2.2,0.6-3.9,1.7-5.1c1.1-1.2,2.6-1.8,4.6-1.8
		c1.1,0,2.2,0.2,3.3,0.6l-0.3,1.1c-1.1-0.4-2.1-0.6-3-0.6c-1.6,0-2.9,0.5-3.7,1.5s-1.3,2.5-1.3,4.3c0,1.8,0.4,3.2,1.3,4.2
		c0.8,1,2,1.5,3.5,1.5c1.2,0,2.3-0.2,3.4-0.6v1.1C532,240.4,530.9,240.6,529.5,240.6z"/>
	<path class="st1" d="M546.4,240.4v-8.6c0-1.3-0.3-2.3-0.8-2.9c-0.6-0.6-1.4-0.9-2.6-0.9c-1.6,0-2.7,0.4-3.5,1.2
		c-0.7,0.8-1.1,2.1-1.1,3.9v7.3h-1.2v-19h1.2v6l-0.1,1.7h0.1c0.5-0.8,1.1-1.4,1.9-1.7c0.8-0.4,1.7-0.5,2.8-0.5c3,0,4.5,1.6,4.5,4.8
		v8.7H546.4z"/>
	<path class="st1" d="M558.3,240.6c-1.9,0-3.4-0.6-4.5-1.8c-1.1-1.2-1.6-2.9-1.6-5c0-2.1,0.5-3.8,1.6-5.1c1-1.3,2.4-1.9,4.2-1.9
		c1.6,0,2.8,0.5,3.7,1.6c0.9,1.1,1.4,2.6,1.4,4.4v1h-9.6c0,1.8,0.4,3.2,1.3,4.2c0.8,1,2,1.4,3.6,1.4c0.8,0,1.4-0.1,2-0.2
		c0.6-0.1,1.3-0.3,2.2-0.7v1.1c-0.7,0.3-1.4,0.5-2.1,0.7C559.7,240.6,559,240.6,558.3,240.6z M557.9,227.9c-1.3,0-2.3,0.4-3.1,1.3
		c-0.8,0.8-1.2,2.1-1.4,3.6h8.2c0-1.5-0.3-2.7-1-3.6C560,228.4,559.1,227.9,557.9,227.9z"/>
	<path class="st1" d="M572.8,226.9c0.6,0,1.2,0.1,1.8,0.2l-0.2,1.2c-0.6-0.1-1.1-0.2-1.7-0.2c-1.1,0-2.1,0.5-2.8,1.4
		s-1.1,2.2-1.1,3.6v7.3h-1.2v-13.3h1l0.1,2.4h0.1c0.5-1,1.1-1.7,1.7-2.1C571.2,227.1,571.9,226.9,572.8,226.9z"/>
	<path class="st1" d="M586.6,222.5h4.9c2.2,0,3.8,0.4,4.9,1.1s1.5,1.9,1.5,3.4c0,1-0.3,1.9-0.9,2.6c-0.6,0.7-1.6,1.1-2.8,1.3v0.1
		c1.4,0.2,2.5,0.7,3.1,1.3c0.7,0.7,1,1.6,1,2.9c0,1.6-0.5,2.9-1.6,3.8c-1.1,0.9-2.6,1.3-4.6,1.3h-5.5V222.5z M587.8,230.5h3.9
		c1.7,0,2.9-0.3,3.7-0.8c0.8-0.6,1.1-1.4,1.1-2.6s-0.4-2.1-1.3-2.6s-2.1-0.8-3.8-0.8h-3.6V230.5z M587.8,231.6v7.7h4.2
		c3.3,0,5-1.3,5-4c0-2.4-1.7-3.7-5.2-3.7H587.8z"/>
	<path class="st1" d="M614.1,233.7c0,2.2-0.5,3.9-1.6,5.1c-1,1.2-2.5,1.8-4.3,1.8c-1.2,0-2.2-0.3-3.1-0.8c-0.9-0.6-1.6-1.4-2-2.4
		c-0.5-1-0.7-2.3-0.7-3.6c0-2.2,0.5-3.9,1.6-5.1c1-1.2,2.5-1.8,4.3-1.8c1.8,0,3.3,0.6,4.3,1.8C613.6,229.9,614.1,231.6,614.1,233.7z
		 M603.7,233.7c0,1.8,0.4,3.2,1.2,4.3c0.8,1,1.9,1.5,3.4,1.5s2.6-0.5,3.4-1.5c0.8-1,1.2-2.4,1.2-4.3c0-1.8-0.4-3.3-1.2-4.3
		c-0.8-1-1.9-1.5-3.4-1.5s-2.6,0.5-3.4,1.5C604.1,230.5,603.7,231.9,603.7,233.7z"/>
	<path class="st1" d="M629.9,233.7c0,2.2-0.5,3.9-1.6,5.1c-1,1.2-2.5,1.8-4.3,1.8c-1.2,0-2.2-0.3-3.1-0.8c-0.9-0.6-1.6-1.4-2-2.4
		c-0.5-1-0.7-2.3-0.7-3.6c0-2.2,0.5-3.9,1.6-5.1c1-1.2,2.5-1.8,4.3-1.8c1.8,0,3.3,0.6,4.3,1.8C629.4,229.9,629.9,231.6,629.9,233.7z
		 M619.4,233.7c0,1.8,0.4,3.2,1.2,4.3c0.8,1,1.9,1.5,3.4,1.5s2.6-0.5,3.4-1.5c0.8-1,1.2-2.4,1.2-4.3c0-1.8-0.4-3.3-1.2-4.3
		c-0.8-1-1.9-1.5-3.4-1.5s-2.6,0.5-3.4,1.5C619.8,230.5,619.4,231.9,619.4,233.7z"/>
	<path class="st1" d="M635.8,234.6l6.8-7.4h1.5l-5.2,5.7l5.7,7.6H643l-5-6.7l-2.2,2v4.7h-1.2v-19h1.2v9.5L635.8,234.6L635.8,234.6z"
		/>
</g>
<g>
	<path class="st2" d="M496.1,328.6h3.4l10.9-28.7h-3.9v-2.6h13.8v2.6h-3.9l10.9,28.7h3.4v2.6H520v-2.6h4l-3.6-9.6h-14.4l-3.6,9.6
		h4.1v2.6h-10.6V328.6z M519.5,316.5l-6.2-16.9l-6.3,16.9H519.5z"/>
	<path class="st2" d="M535.3,325.3c0-3.9,3.5-6.5,8.2-6.5c2.4,0,5.6,0.8,6.6,1.2v-3.6c0-1.2-0.4-2.3-1-3.1c-1-1.1-2.6-1.8-4.9-1.8
		c-2.1,0-3.1,0.6-3.9,1.1c0.2,0.4,0.4,0.8,0.4,1.4c0,1.1-0.8,2-2,2c-1.2,0-2-0.9-2-2.1c0-2.4,2.9-4.8,7.8-4.8c2.9,0,5.2,0.9,6.6,2.4
		c1.1,1.1,1.6,2.6,1.6,4.3v13h3.6v2.4h-6v-2.9c-1.8,1.9-4.7,3.3-7.6,3.3C538.2,331.6,535.3,328.9,535.3,325.3z M550.1,325.7V322
		c-1.8-0.6-4.2-1.1-6.5-1.1c-3.8,0-5.7,1.9-5.7,4.2s1.8,4.1,5.2,4.1C546.1,329.3,548.5,327.6,550.1,325.7z"/>
	<path class="st2" d="M574.4,328.6h4.5v-28.7h-4.5v-2.6H588c7.9,0,11,4.2,11,8.4c0,4.1-2.6,7-6.4,8.1c4.6,1.2,7.4,3.8,7.4,8.2
		c0,5.2-4.2,9.2-11.3,9.2h-14.2V328.6z M587.3,312.6c6,0,8.8-2.7,8.8-6.7c0-3.8-2.8-6.1-8.2-6.1h-6v12.8H587.3z M588.7,328.6
		c5.5,0,8.3-2.9,8.3-6.6c0-4.5-3.7-6.9-9.8-6.9h-5.4v13.5H588.7z"/>
	<path class="st2" d="M610.1,328.8l-1,2.3h-1.5v-35.3H604v-2.4h6.2v19.1c2-2,4.1-3.5,7.9-3.5c5.6,0,10.5,4.5,10.5,11.3
		c0,6.2-4.5,11.2-11.1,11.2C614.7,331.6,611.9,330.5,610.1,328.8z M625.8,320.4c0-5.3-3.3-8.9-8-8.9c-3.1,0-5.7,1.5-7.6,3.7v11.4
		c1.8,1.4,4.2,2.7,7.4,2.7C622.2,329.2,625.8,325.6,625.8,320.4z"/>
	<path class="st2" d="M648.2,314.5c0-10.6,8.1-17.8,16.9-17.8c6.8,0,12.5,4.4,12.5,8.4c0,1.6-1.1,2.9-2.7,2.9c-1.3,0-2.3-1-2.3-2.3
		c0-1.1,0.8-2,1.7-2.2c-0.9-1.8-4.3-4.2-9.2-4.2c-8.2,0-14,7.3-14,15.1c0,7.5,5.8,14.7,14.2,14.7c4.1,0,7.6-1.4,10.8-4.3l1.6,2.1
		c-3.5,3.3-8.1,4.8-12.4,4.8C654.9,331.8,648.2,323.2,648.2,314.5z"/>
	<path class="st2" d="M683,320.5c0-6.2,4.8-11.4,10.7-11.4c4.5,0,8.4,2.9,8.4,6.1c0,1.3-1,2.6-2.4,2.6c-0.8,0-1.9-0.5-1.9-2
		c0-0.7,0.4-1.3,1.2-1.8c-0.7-1.7-3.2-2.6-5.4-2.6c-3.6,0-7.9,3.1-7.9,9.1c0,4.9,3.5,8.6,8.9,8.6c2.4,0,4.6-0.8,7-2.4l-0.3,2.7
		c-2.1,1.5-5.2,2.2-7.1,2.2C687.8,331.6,683,326.6,683,320.5z"/>
	<path class="st2" d="M721,328.6h4.5v-28.7H721v-2.6h12.6c11.6,0,19.5,6.6,19.5,16.6c0,10.1-7.3,17.3-19.4,17.3H721V328.6z
		 M733.9,328.6c10.8,0,16.1-6.1,16.1-14.8c0-8.4-6.4-13.9-16.5-13.9h-5.1v28.7H733.9z"/>
	<path class="st2" d="M758.8,320.5c0-6.1,4.1-11.4,10.9-11.4c2.6,0,5.2,1,7.1,2.8v-16.1h-4.5v-2.4h7.1v35.3h3.6v2.4h-6.1v-3.3
		c-1.9,2.3-4.3,3.8-7.7,3.8C763.5,331.6,758.8,327.2,758.8,320.5z M776.8,325.5v-11.3c-1.8-1.5-4-2.8-7.2-2.8c-4.8,0-8,4-8,9
		c-0.1,5.2,3.2,8.8,7.8,8.8C772.5,329.2,774.9,327.7,776.8,325.5z"/>
	<path class="st2" d="M801,328.6h4.5v-28.7H801v-2.6h24.3v7.7h-2.8v-5.1h-14v12.7H820v2.6h-11.5v13.4h14v-5.1h2.8v7.7H801V328.6z"/>
	<path class="st2" d="M834,321c0.4,5.5,3.7,8.2,8.9,8.2c3,0,4.9-0.9,7.5-2.4l-0.3,2.7c-2.2,1.4-5,2.2-7.6,2.2
		c-6.9,0-11.3-4.6-11.3-11.2c0-5.9,3.9-11.3,10.5-11.3c6.2,0,9.6,4.9,9.6,10.1c0,0.8-0.1,1.2-0.2,1.7H834z M834.1,318.6h14.6
		c-0.3-4.2-2.7-7.2-7.2-7.2C837.7,311.5,834.6,314.3,834.1,318.6z"/>
	<path class="st2" d="M870.2,328.6h4.5v-28.7h-4.5v-2.6h23.9v7.7h-2.8v-5.1h-13.6v13.3h11.3v2.6h-11.3v12.8h4.8v2.6h-12.3V328.6z"/>
	<path class="st2" d="M907.5,295.5c-0.8,0.1-1.4,0.4-2,1c-0.8,0.9-1.3,2.4-1.3,4.6v8.4h5.6v2.4h-5.6v16.9h4.2v2.4H898v-2.4h3.6
		v-16.9h-3.9v-2.4h3.9v-7.6c0-3.3,0.6-5.6,2.1-7.1c1.1-1.1,2.5-1.9,4.5-1.9c2.1,0,3.6,0.9,3.6,2.6c0,1.2-0.8,2-1.9,2
		C908.6,297.6,907.8,296.7,907.5,295.5z"/>
	<path class="st2" d="M928.4,314.6c0-10.9,8.3-17.9,17.5-17.9c7.5,0,12.5,4.3,12.5,7.7c0,1.6-1,2.7-2.5,2.7c-1.3,0-2.3-1-2.3-2.3
		c0-0.9,0.5-1.6,1.1-2c-1.4-1.7-4.8-3.5-9-3.5c-8.7,0-14.4,6.9-14.4,15.3c0,8.8,6.2,14.6,13.8,14.6c4,0,7.6-1.3,10.9-3.7v-7.8h-9.8
		v-2.5h12.7v16h-2.8v-3.1c-3.2,2.3-6.6,3.7-11.2,3.7C936.4,331.8,928.4,325.3,928.4,314.6z"/>
	<path class="st2" d="M987.2,332.2c0,2.7-0.7,4.7-2,6.2c-1.9,2.3-5,3.1-8.3,3.1c-3.2,0-5.6-1-6.8-2.2c-0.7-0.7-1.1-1.5-1.1-2.4
		c0-1.4,1-2.4,2.3-2.4c1.1,0,1.8,0.9,1.8,1.9c0,0.6-0.2,1.1-0.6,1.7c0.5,0.4,2.2,1,4.7,1c2.3,0,4.5-0.6,6-2.3c0.8-1,1.4-2.4,1.4-4.4
		v-4.7c-1.9,2-4.2,3.5-7.7,3.5c-5.8,0-10.5-4.6-10.5-10.9c0-5.7,4.2-11.2,11-11.2c2.9,0,5.4,1.1,7.3,2.9v-2.5h6.1v2.4h-3.6V332.2z
		 M969.2,320.2c0,4.8,3.3,8.6,7.9,8.6c3.2,0,5.6-1.5,7.5-3.7v-10.9c-1.8-1.5-4-2.8-7.3-2.8C972.4,311.5,969.2,315.5,969.2,320.2z"/>
	<path class="st2" d="M1009.1,328.6h4.5v-28.7h-4.5v-2.6h12v2.6h-4.5v12.6h20.2v-12.6h-4.5v-2.6h12v2.6h-4.5v28.7h4.5v2.6h-12v-2.6
		h4.5V315h-20.2v13.5h4.5v2.6h-12V328.6z"/>
	<path class="st2" d="M1049.6,295.8v-2.4h6.2v20.2c2.1-2.6,5.2-4.6,8.3-4.6c2.7,0,4.5,0.9,5.6,2.3c1,1.3,1.4,3,1.4,5v12.3h3.6v2.4
		h-9.8v-2.4h3.6v-12c0-1.7-0.4-2.9-1.1-3.8c-0.8-1-2.2-1.5-3.8-1.5c-3.1,0-5.8,2-7.8,4.4v12.8h3.6v2.4h-9.8v-2.4h3.6v-33H1049.6z"/>
	<path class="st2" d="M1092.9,328.6h4.8v-28.7h-4.8v-2.6h12.5v2.6h-4.8v28.7h4.8v2.6h-12.5V328.6z"/>
	<path class="st2" d="M1111.1,328.8h3.8v-16.9h-3.8v-2.4h6.4v19.3h3.9v2.4h-10.3V328.8z M1113.4,300.5c0-1.3,1.1-2.5,2.4-2.5
		c1.3,0,2.4,1.1,2.4,2.5s-1.1,2.5-2.4,2.5C1114.5,302.9,1113.4,301.8,1113.4,300.5z"/>
	<path class="st2" d="M1138.8,323.6c0-2.2,1.2-3.8,2.9-3.8c1.1,0,2.3,0.9,2.3,2.3c0,1.1-0.8,2.2-2.2,2.3c-0.1,1.8,2.1,4.6,6.1,4.6
		c2,0,3.7-0.7,4.9-2c1.5-1.5,2.2-4.1,2.2-7.5v-19.7h-5.3v-2.6h12.5v2.6h-4.2v19.7c0,4-0.9,7.4-2.9,9.5c-1.8,1.8-4.1,2.7-7.1,2.7
		C1142.9,331.8,1138.8,328.2,1138.8,323.6z"/>
	<path class="st2" d="M1163.4,336.3c1.1,0,1.8,0.8,1.8,1.9c0,0.3-0.1,0.7-0.2,1c0.3,0.1,0.6,0.1,0.9,0.1c1.6,0,2.8-1.1,3.4-3.3
		c0.4-1.2,0.6-2.9,0.6-4.9v-19.1h-4.2v-2.4h6.8v21.1c0,2.6-0.3,4.6-0.8,6.2c-1.1,3.2-3.2,4.6-5.9,4.6c-2.6,0-4.3-1.3-4.3-3
		C1161.4,337.4,1162.1,336.3,1163.4,336.3z M1168.3,300.5c0-1.3,1.1-2.5,2.4-2.5c1.3,0,2.4,1.1,2.4,2.5s-1.1,2.5-2.4,2.5
		C1169.4,302.9,1168.3,301.8,1168.3,300.5z"/>
	<path class="st2" d="M1193.2,328.6h4.5v-28.7h-4.5v-2.6h12v2.6h-4.5v16.2l16.2-16.2h-4.8v-2.6h12.3v2.6h-3.9l-11.7,11.7l11.7,17
		h4.2v2.6h-6.1l-11.9-17.7l-5.9,5.9v9.2h4.5v2.6h-12V328.6z"/>
	<path class="st2" d="M1229,328.8h3.6v-33h-3.6v-2.4h6.2v27.3l10.3-9h-4.8v-2.3h12v2.4h-3.8l-7.7,6.6l7.3,10.3h4.2v2.4h-5.6
		l-7.7-11.3l-4.2,3.6v5.4h3.9v2.4H1229V328.8z"/>
	<path class="st2" d="M1270.2,328.6h4.5v-28.7h-4.5v-2.6h12.3v2.6h-4.8v28.7h12.8v-5.4h2.8v7.9h-23.1V328.6z"/>
	<path class="st2" d="M1298.8,328.8h3.8v-33h-3.8v-2.4h6.4v35.3h3.9v2.4h-10.3V328.8z"/>
	<path class="st2" d="M1327.2,328.6h4.6l1.3-28.7h-4.7v-2.6h7.8l11.4,24.9l11.4-24.9h7.7v2.6h-4.7l1.3,28.7h4.6v2.6h-11.8v-2.6h4.4
		l-0.9-26.5l-11.5,24.7h-1.1l-11.5-24.7l-0.9,26.5h4.4v2.6h-11.8V328.6z"/>
	<path class="st2" d="M1373.7,328.8h3.6v-16.9h-3.6v-2.4h6.1v4.3c2-2.6,5-4.7,8.1-4.7c2.8,0,4.6,1,5.5,2.7c0.3,0.6,0.5,1.2,0.7,1.9
		c2.5-2.6,5.5-4.6,8.3-4.6c3.2,0,4.9,1.2,5.8,3.1c0.5,1.2,0.7,2.6,0.7,4.2v12.3h3.6v2.4h-9.8v-2.4h3.6v-12c0-1.3-0.2-2.3-0.5-3.1
		c-0.6-1.5-1.8-2.2-3.8-2.2c-2.9,0-5.3,1.8-7.6,4.3v12.9h3.6v2.4h-9.8v-2.4h3.7v-12c0-1.3-0.2-2.3-0.5-3.1c-0.6-1.5-1.8-2.2-3.8-2.2
		c-3.1,0-5.5,2-7.6,4.4v12.8h3.6v2.4h-9.8V328.8z"/>
	<path class="st2" d="M505,372.3v26.3h4.5v2.6h-11.8v-2.6h4.5v-28.7h-4.5v-2.6h7.1l20.9,27.9v-25.3h-4.5v-2.6h11.7v2.6h-4.4v31.5
		h-1.6L505,372.3z"/>
	<path class="st2" d="M542.5,383.8c2-2.6,5.3-4.7,8.3-4.7c2.9,0,4.8,1,5.8,2.8c0.7,1.2,1,2.8,1,4.6v12.3h3.6v2.4h-9.8v-2.4h3.6v-12
		c0-1.3-0.2-2.3-0.6-3.1c-0.7-1.4-2.1-2.1-4.1-2.1c-3.1,0-5.8,2-7.8,4.4v12.8h3.6v2.4h-9.8v-2.4h3.6v-16.9h-3.6v-2.4h6.1V383.8z"/>
	<path class="st2" d="M579.9,384.3c0-9.9,7.3-17.6,17.2-17.6c9.7,0,16.9,7.7,16.9,17.5c0,9.9-7.3,17.6-17.2,17.6
		C587.1,401.8,579.9,394.1,579.9,384.3z M611,384.3c0-8.3-5.8-14.9-14.1-14.9c-8.3,0-14.1,6.5-14.1,14.8c0,8.3,5.8,14.9,14.1,14.9
		C605.2,399.1,611,392.6,611,384.3z"/>
	<path class="st2" d="M619.9,390.4c0-6.2,4.4-11.2,11-11.2s11,5,11,11.2c0,6.2-4.4,11.2-11,11.2S619.9,396.6,619.9,390.4z
		 M639.1,390.4c0-5.2-3.3-8.9-8.2-8.9c-4.8,0-8.2,3.7-8.2,8.9c0,5.2,3.3,8.9,8.2,8.9C635.7,399.2,639.1,395.6,639.1,390.4z"/>
	<path class="st2" d="M660.9,398.6h4.5v-28.7h-4.5v-2.6h12.7c7.1,0,12.4,4.1,12.4,10.5c0,6.5-4.8,10.7-12.2,10.7
		c-2,0-4.3-0.1-5.5-0.1v10.2h4.8v2.6h-12.3V398.6z M683.1,377.9c0-5.1-4.1-8-9.3-8h-5.5v16c1.2,0.1,3.5,0.1,5.6,0.1
		C679.6,386,683.1,382.9,683.1,377.9z"/>
	<path class="st2" d="M691.1,408.9h3.6v-27h-3.6v-2.4h6.1v3.3c1.9-2.3,4.3-3.8,7.7-3.8c5.7,0,10.4,4.4,10.4,11.1
		c0,6.1-4.1,11.4-10.9,11.4c-2.6,0-5.2-1-7.1-2.7v10h4.5v2.4h-10.7V408.9z M712.5,390.3c0.1-5.2-3.2-8.8-7.8-8.8
		c-3.1,0-5.5,1.5-7.4,3.7v11.4c1.8,1.5,4,2.7,7.2,2.7C709.4,399.2,712.5,395.3,712.5,390.3z"/>
	<path class="st2" d="M755.2,403.4c-1.6-1-3.5-1.5-5.4-1.9c-3.5-0.6-6.7-1.9-9.1-3.9c-3.6-3.1-5.8-8-5.8-13.3
		c0-9.9,7.3-17.6,17.2-17.6c9.7,0,16.9,7.7,16.9,17.5c0,8.2-4.9,15.2-13.1,16.8c1.2,0.4,2.3,1.1,3.3,1.8c2.7,1.8,4.4,2.8,6.9,2.8
		c1.6,0,2.6-0.4,3.9-1.2l1.1,2.4c-1.6,1-3.1,1.5-5,1.5C761.4,408.4,758.1,405.2,755.2,403.4z M766,384.3c0-8.3-5.8-14.9-14.1-14.9
		s-14.1,6.5-14.1,14.8c0,4.6,1.8,8.7,4.7,11.4c2.4,2.2,5.6,3.6,9.4,3.6C760.2,399.1,766,392.6,766,384.3z"/>
	<path class="st2" d="M788.7,408.9h4.5v-10.8c-2,2-4.1,3.5-7.9,3.5c-5.6,0-10.5-4.5-10.5-11.3c0-6.2,4.5-11.2,11.1-11.2
		c2.8,0,5.5,1.1,7.4,2.7l1-2.3h1.5v29.4h3.6v2.4h-10.7V408.9z M793.2,395.6v-11.4c-1.8-1.4-4.2-2.7-7.4-2.7c-4.7,0-8.2,3.6-8.2,8.8
		c0,5.3,3.3,8.9,8,8.9C788.8,399.2,791.3,397.7,793.2,395.6z"/>
	<path class="st2" d="M816.3,398.6h4.5v-28.7h-4.5v-2.6H829c7.4,0,11.9,3.9,11.9,9.6c0,4.7-3.1,8-7.7,9.3l7.9,12.4h4.2v2.6h-6.2
		l-9-14.3c-0.6,0.1-1.3,0.1-2,0.1c-1.4,0-3.3-0.1-4.4-0.1v11.7h4.5v2.6h-12V398.6z M838,377c0-4.6-3.6-7.1-9.1-7.1h-5.1v14.4
		c1.2,0.1,3,0.1,4.5,0.1C833.8,384.4,838,381.9,838,377z"/>
	<path class="st2" d="M865.3,381.6c0,1.2-0.9,2.2-2.1,2.2c-1.1,0-2-0.8-2.3-1.8c-1.7,0.5-3.7,2.5-4.8,4.8v12h4.2v2.4h-10.5v-2.4h3.6
		v-16.9h-3.6v-2.4h6.1v4.9c1.5-3,4.3-5.3,6.4-5.3C864.2,379.2,865.3,380.3,865.3,381.6z"/>
	<path class="st2" d="M882.8,395.1c0-1.8,1.1-2.9,2.4-2.9s2.2,0.9,2.2,2.1c0,1-0.5,1.8-1,2.4c1.1,1.3,3.9,2.4,7.4,2.4
		c4.8,0,7.8-2.6,7.8-6.6c0-3.8-3.4-5.5-7.4-7.1c-5.7-2.2-10-4.4-10-10c0-5.1,4-8.7,10.1-8.7c5.3,0,9.6,3.1,9.6,6.4
		c0,1.6-1.1,2.6-2.3,2.6c-1.3,0-2.3-1-2.3-2.3c0-0.8,0.5-1.6,0.9-2.1c-0.9-1.2-3.9-2-6-2c-4.4,0-7.1,2.5-7.1,5.9
		c0,3.9,3.3,5.6,8,7.4c5.4,2.1,9.5,4.2,9.5,9.7c0,5.8-4.6,9.4-10.8,9.4C887.1,401.8,882.8,398.1,882.8,395.1z"/>
	<path class="st2" d="M924.7,385.7c-1.1,0-2.1-0.8-2.1-2c0-0.4,0.1-0.9,0.4-1.3c-0.8-0.6-2.3-0.9-4.2-0.9c-3.3,0-5.3,1.8-5.3,3.6
		c0,2.2,2.3,2.8,6,3.8c4,1,8,2.2,8,6.5c0,3.9-3.9,6.3-8.4,6.3c-3.1,0-6.1-0.9-7.6-2.4c-0.7-0.7-1.2-1.6-1.2-2.6
		c0-1.1,0.8-2.1,1.9-2.1c1.3,0,2,0.9,2,1.9c0,0.5-0.2,1-0.5,1.5c0.6,0.7,2.6,1.5,5.3,1.5c3.3,0,5.9-1.5,5.9-3.9
		c0-2.4-2.5-3.2-5.5-3.9c-4.9-1.2-8.5-2.3-8.5-6.4c0-3.2,3.2-6,7.9-6c3,0,5.4,0.9,6.6,2.1c0.7,0.7,1.1,1.5,1.1,2.4
		C926.5,384.9,925.8,385.7,924.7,385.7z"/>
	<path class="st2" d="M954,398.6h4.8v-28.8h-9.5v5.5h-2.8v-7.9h27.7v7.9h-2.8v-5.5h-9.5v28.8h4.8v2.6H954V398.6z"/>
	<path class="st2" d="M981.7,399.2c-0.4-0.7-0.5-1.8-0.5-2.8v-14.5h-3.9v-2.4h3.9V374l2.6-0.9v6.5h6.7v2.4h-6.7v14.3
		c0,0.7,0.1,1.3,0.3,1.8c0.4,0.8,1.2,1.1,2.7,1.1c1.2,0,2.8-0.7,4-1.4l-0.4,2.7c-1,0.5-2.4,1.2-4.4,1.2
		C983.9,401.6,982.5,400.8,981.7,399.2z"/>
	<path class="st2" d="M1011,369.9h-3.5v-2.6h10.6v2.6h-4l10.5,27.1l10.5-27.1h-4.2v-2.6h10.6v2.6h-3.5l-12.7,31.9h-1.8L1011,369.9z"
		/>
	<path class="st2" d="M1044.7,381.9h-3v-2.4h9.6v2.4h-3.6l7,15.7l7-15.7h-3.8v-2.4h9.6v2.4h-3l-9.4,20.1h-1L1044.7,381.9z"/>
	<path class="st2" d="M1086.8,369.9h-4.1v-2.6h11.3v2.6h-4.2l7.8,26.4l8.6-24.6h1.6l8.6,24.6l7.7-26.4h-4.3v-2.6h11.2v2.6h-4.1
		l-9.6,31.9h-1.8l-8.6-24.5l-8.7,24.5h-1.8L1086.8,369.9z"/>
	<path class="st2" d="M1134.6,381.9h-3.2v-2.4h9.5v2.3h-3.6l4.4,15.1l6.4-14.9h1l6.4,14.8l4.4-15.1h-3.7v-2.3h9.5v2.4h-3.2
		l-6.2,20.2h-1l-6.7-15.5l-6.7,15.5h-1L1134.6,381.9z"/>
	<path class="st2" d="M1182.4,398.6h3.5l11-14.7l-10.3-14h-3.6v-2.6h10.7v2.5h-3.8l8.8,12.3l8.9-12.3h-4v-2.5h10.7v2.6h-3.6
		l-10.4,14l11.1,14.7h3.5v2.6h-10.7v-2.5h3.9l-9.5-13.1l-9.6,13.1h4v2.5h-10.7V398.6z"/>
	<path class="st2" d="M1220.1,398.8h2.9l7-8.7l-6.5-8.2h-3.2v-2.4h8.8v2.2h-2.8l5.1,6.9l5.2-6.9h-2.9v-2.2h8.8v2.4h-3.2l-6.5,8.1
		l7,8.8h3v2.4h-9.1V399h3.2l-5.6-7.4l-5.7,7.4h3.4v2.2h-9.1V398.8z"/>
	<path class="st2" d="M1267.9,398.6h5v-11.3l-10.2-17.5h-3.7v-2.6h10.8v2.6h-3.7l8.4,14.9l8.5-14.9h-3.9v-2.6h10.8v2.6h-3.8
		l-10.2,17.4v11.3h5v2.6h-13V398.6z"/>
	<path class="st2" d="M1293.4,411.5c-1.7,0-3.3-0.9-3.3-2.6c0-1.2,0.8-2,1.9-2c1.2,0,2,1,2.3,2.1c0.9-0.4,1.9-1.2,3-3
		c0.6-0.9,1.2-2.2,2-3.7l1.1-2.4l-8.3-18h-3.1v-2.4h9.6v2.4h-3.5c0,0,6.7,15.1,6.6,15.1l6.7-15.1h-3.7v-2.4h9.4v2.4h-3.1l-10.3,22.2
		c-0.6,1.3-1.2,2.4-1.8,3.3C1297.3,410.1,1295.6,411.5,1293.4,411.5z"/>
	<path class="st2" d="M1330.7,400l21.5-30.2h-17.5v5.3h-2.8v-7.7h24.6v1.2l-21.5,30.2h19v-5.3h2.8v7.7h-26.1V400z"/>
	<path class="st2" d="M1362.2,400.4l14.3-18.5h-10.9v4.3h-2.4v-6.6h17.7v0.8l-14.3,18.5h12.1v-4.3h2.4v6.6h-18.8V400.4z"/>
	<path class="st2" d="M498.4,468.9h6.2v-20.5l-5.6,1.5l-0.6-2.4l7.9-2.2h1.1v23.6h6.1v2.4h-15V468.9z"/>
	<path class="st2" d="M535.5,449.8c-0.2,0.2-0.3,0.4-0.4,0.6c0.8,0.2,1.5,1,1.5,1.9c0,1.2-0.9,2.2-2.1,2.2c-1.3,0-2.3-1.1-2.3-2.8
		c0-0.9,0.4-1.9,0.9-2.7c1.4-2.2,4.5-3.9,8-3.9c6,0,9,3.6,9,7.4c0,4.2-3.7,6.6-7.6,9.2c-2.9,1.9-6,4-7.8,7.2h13.7v-4.5h2.5v6.9
		h-19.3l-0.2-1.3c2-4.9,6-7.7,10-10.3c3.3-2.2,6-4,6-7.2c0-2.9-2.3-4.9-6.5-4.9C538.6,447.5,536.6,448.5,535.5,449.8z"/>
	<path class="st2" d="M572.7,468.5c1.2,0,2,0.9,2,1.9c0,0.8-0.5,1.8-1.5,2.1c0.2,0.4,0.4,0.6,0.6,0.8c1.2,1.2,3.6,1.9,6.2,1.9
		c4.7,0,7.9-2.8,7.9-6.3c0-2.6-1.5-4.6-4-5.7c-1.6-0.8-3.8-1.2-6-1.2h-1v-2.4h1.1c2.2,0,4.4-0.6,6.1-1.6c2-1.2,3.3-2.9,3.3-4.9
		c0-3.5-2.8-5.4-7-5.4c-2.9,0-4.8,0.9-5.8,2.1c-0.2,0.2-0.4,0.4-0.5,0.7c0.9,0.2,1.6,1.1,1.6,1.9c0,1.2-1,2-2.1,2
		c-1.2,0-2.3-1.1-2.3-2.7c0-0.9,0.3-1.8,0.9-2.7c1.4-2.2,4.4-3.8,8.3-3.8c5.7,0,9.4,3.7,9.4,7.9c0,2.6-1.8,5.1-4.3,6.5
		c-1,0.6-2.2,1-3.3,1.1c1.1,0.2,2.2,0.6,3.2,1c3,1.4,4.9,4,4.9,7.1c0,5.5-4.7,9-10.6,9c-3.8,0-7.2-1.5-8.8-3.8
		c-0.6-0.8-0.9-1.8-0.9-2.7C570.2,469.7,571.4,468.5,572.7,468.5z"/>
	<path class="st2" d="M622.8,468h-14.7l-0.4-1l16.3-21.9l2.1,1.5l-14.1,19.1h10.9v-7.9l2.6-1.1v9h6.1v2.4h-6.1v9.4h-2.6V468z"/>
	<path class="st2" d="M650.8,469.8c1.1,0,2.1,0.8,2.1,2c0,0.7-0.4,1.4-1,1.8c0.2,0.2,0.4,0.4,0.7,0.6c1.1,0.7,2.7,1.1,5,1.1
		c4.5,0,7.9-3.2,7.9-7.6c0-4.4-3.1-7.5-7.7-7.5c-2.9,0-5.3,0.7-7.2,1.4l-1.1-0.7l1.8-15.6h15.2v2.6h-13l-1.2,10.7
		c1.6-0.5,3.5-0.9,5.7-0.9c6,0,10.4,4,10.4,9.8s-4.7,10-10.6,10c-3.3,0-6.1-0.9-7.7-2.3c-0.9-0.8-1.4-1.9-1.4-3
		C648.5,471.1,649.4,469.8,650.8,469.8z"/>
	<path class="st2" d="M689.9,456.2c1.4-2.6,4.7-4.7,8.4-4.7c6,0,10.2,4.4,10.2,9.6c0,5.9-4.3,10.6-10.5,10.6c-3,0-5.7-1.1-7.5-2.9
		c-2.4-2.5-3.3-6.2-3.3-10.9c0-14.3,6.7-19.4,12.5-19.4c2.2,0,4.7,0.8,6.1,2.3c0.8,0.8,1.2,1.7,1.2,2.8c0,1.8-1.2,2.7-2.4,2.7
		c-1.3,0-2.1-0.9-2.1-2.1c0-0.8,0.4-1.3,0.9-1.6c-0.8-1-2.3-1.5-4.1-1.5C694.4,440.9,690.2,446.4,689.9,456.2z M705.8,461.1
		c0-4.1-2.8-7.2-7.4-7.2c-4.9,0-8.1,3.8-8.1,7.8c0,2,0.7,3.8,2.2,5.3c1.3,1.3,3.2,2.2,5.7,2.2C702.8,469.2,705.8,465.8,705.8,461.1z
		"/>
	<path class="st2" d="M729.6,476.5l13-28.7H729v4.9h-2.6v-7.2h19.3l0.4,0.8L732,477.5L729.6,476.5z"/>
	<path class="st2" d="M764,462.7c0-3.8,2.9-7,6.3-8.1c-3.6-1.4-5.6-4.8-5.6-7.4c0-5.3,4.3-8.8,9.5-8.8c5.3,0,9.5,3.5,9.5,8.8
		c0,2.9-2.2,6-5.6,7.4c3.3,1.1,6.3,4.3,6.3,8.1c0,5.2-4.4,9-10.2,9C768.3,471.7,764,467.8,764,462.7z M781.4,462.6
		c0-4-3.3-6.7-7.3-6.7c-3.9,0-7.2,2.8-7.2,6.7c0,3.8,3.2,6.6,7.2,6.6C778.2,469.2,781.4,466.4,781.4,462.6z M780.9,447.2
		c0-3.6-2.9-6.3-6.7-6.3c-3.8,0-6.7,2.8-6.7,6.3c0,3.4,3,6.2,6.7,6.2C777.8,453.4,780.9,450.6,780.9,447.2z"/>
	<path class="st2" d="M805.2,475.3c-0.7-0.8-1.1-1.6-1.1-2.7c0-1.8,1.2-2.7,2.4-2.7c1.3,0,2.1,0.9,2.1,2.1c0,0.8-0.4,1.3-0.9,1.6
		c0.8,1,2.2,1.5,4.1,1.5c5.5,0,9.6-5.2,9.9-14.6c-1.4,2.6-4.7,4.5-8.4,4.5c-6,0-10.2-4.3-10.2-9.5c0-5.9,4.3-10.6,10.5-10.6
		c3,0,5.6,1.1,7.5,2.9c2.4,2.4,3.3,6.2,3.3,10.9c0,14.4-7.1,18.8-12.9,18.8C809.1,477.7,806.6,476.8,805.2,475.3z M813.5,447.5
		c-4.7,0-7.7,3.3-7.7,8.1c0,4.1,2.8,7,7.4,7c4.9,0,8.1-3.7,8.1-7.7c0-2-0.7-3.8-2.2-5.3C817.8,448.3,815.9,447.5,813.5,447.5z"/>
	<path class="st2" d="M843.6,458.3c0-7.6,4.7-13.3,11.4-13.3c6.6,0,11.4,5.7,11.4,13.3c0,7.6-4.7,13.3-11.4,13.3
		C848.4,471.7,843.6,465.9,843.6,458.3z M863.7,458.3c0-6.3-3.5-10.8-8.6-10.8c-5.1,0-8.6,4.5-8.6,10.8c0,6.4,3.5,10.9,8.6,10.9
		C860.2,469.2,863.7,464.7,863.7,458.3z"/>
</g>
<g>
	<path class="st2" d="M495.9,722.7h3.1l9.4-25.6h-3.8V693h17v4.1h-3.8l9.4,25.6h3.1v4.2h-12.1v-4.1h3.9l-2.5-7.2h-13.4l-2.5,7.2h4.1
		v4.1h-12.1V722.7z M518.4,711.7l-5.4-14.8l-5.4,14.8H518.4z"/>
	<path class="st2" d="M534.6,721c0-4.1,3.6-6.7,8.7-6.7c2.3,0,4.9,0.5,6.1,0.9v-2.5c0-1.3-0.4-2.3-1-3.1c-0.9-1.1-2.5-1.7-4.6-1.7
		c-1.4,0-2.2,0.3-2.9,0.7c0.2,0.4,0.3,0.8,0.3,1.2c0,1.4-1.1,2.5-2.6,2.5c-1.5,0-2.6-1.1-2.6-2.6c0-2.6,2.9-5.4,8.6-5.4
		c3.5,0,6,1,7.5,2.8c1.1,1.3,1.7,3.1,1.7,5.1v11h3.5v3.7h-7.6v-2.7c-1.8,1.7-4.6,3.1-7.6,3.1C537.8,727.3,534.6,725,534.6,721z
		 M549.4,721.3v-3.6c-1.5-0.4-3.4-0.8-5.4-0.8c-3.1,0-4.9,1.5-4.9,3.7c0,2,1.5,3.3,4.1,3.3C545.6,724,547.7,722.8,549.4,721.3z"/>
	<path class="st2" d="M574,722.7h4.1v-25.6H574V693h13.5c8.2,0,11.8,4,11.8,8.7c0,4-2.5,6.6-6,7.8c4.4,1.2,7,3.8,7,8
		c0,5.5-4.4,9.4-12.2,9.4H574V722.7z M587.3,707.8c4.8,0,7.4-2.2,7.4-5.6c0-3.2-2.6-5.2-7.2-5.2h-4.7v10.7H587.3z M588.3,722.8
		c4.6,0,7.4-2.2,7.4-5.6c0-3.7-3-5.7-8-5.7h-4.8v11.3H588.3z"/>
	<path class="st2" d="M611.2,724.7L610,727h-2.9V693h-3.5v-3.8h7.9v18.2c1.8-1.8,3.9-3.1,7.1-3.1c5.8,0,10.5,4.7,10.5,11.5
		c0,6.4-4.6,11.5-11,11.5C615.4,727.3,613.1,726.3,611.2,724.7z M624.6,715.8c0-4.7-2.9-7.6-6.8-7.6c-2.5,0-4.6,1.2-6.2,2.8v10.4
		c1.6,1.2,3.6,2.1,6.1,2.1C621.5,723.5,624.6,720.6,624.6,715.8z"/>
	<path class="st2" d="M647.5,710.1c0-10.4,8-17.7,17.5-17.7c7.4,0,12.9,4.2,12.9,8.3c0,2.2-1.4,3.7-3.3,3.7c-1.9,0-3.3-1.2-3.3-3.1
		c0-0.9,0.4-1.6,0.9-2c-0.9-1.1-3.5-2.6-7.3-2.6c-7.3,0-12.6,6-12.6,13.3c0,7.1,5.2,13.2,12.8,13.2c4,0,7.3-1.6,10.1-4.4l2.9,3.2
		c-3.3,3.5-8.1,5.5-13.1,5.5C654.7,727.5,647.5,719.9,647.5,710.1z"/>
	<path class="st2" d="M682.7,715.7c0-6,4.8-11.4,11.1-11.4c5.5,0,9.5,3.6,9.5,7c0,2-1.3,3.3-3.1,3.3c-1.4,0-2.8-1.1-2.8-2.8
		c0-0.7,0.4-1.4,0.9-1.9c-0.5-1-2.4-2-4.5-2c-3,0-6.6,2.5-6.6,7.9c0,4.6,3.3,7.7,7.9,7.7c2.6,0,4.9-0.8,7.6-2.4l-0.4,4.1
		c-2.3,1.4-4.9,2.1-7.6,2.1C687.8,727.3,682.7,722.6,682.7,715.7z"/>
	<path class="st2" d="M721.4,722.7h4.1v-25.6h-4.1V693h12.7c12.1,0,19.5,6.5,19.5,16.6c0,10.3-7.1,17.3-19.8,17.3h-12.4V722.7z
		 M734.4,722.7c9.5,0,14.4-5.3,14.4-13.1c0-7.8-5.8-12.4-14.8-12.4h-3.8v25.6H734.4z"/>
	<path class="st2" d="M758.9,715.9c0-6.3,4.5-11.6,10.8-11.6c2.8,0,5.1,1,6.6,2.4V693h-3.8v-3.8h8.2v34h3.5v3.7h-7.8v-2.8
		c-1.8,1.9-4,3.2-7.1,3.2C763.4,727.3,758.9,722.7,758.9,715.9z M776.3,720.6v-10.3c-1.6-1.2-3.5-2.2-6.1-2.2c-3.8,0-6.7,3-6.8,7.7
		c0,4.6,2.9,7.6,6.7,7.6C772.6,723.5,774.6,722.3,776.3,720.6z"/>
	<path class="st2" d="M801.2,722.7h4.1v-25.6h-4.1V693h24.9v8.9h-4.4v-4.7H810v10.5h10.7v4H810v11.1h11.6V718h4.5v8.9h-24.9V722.7z"
		/>
	<path class="st2" d="M835.9,717.2c0.6,4.2,3.7,6.3,8,6.3c2.8,0,5.3-0.9,7.9-2.4l-0.4,4.1c-2.3,1.4-5.2,2.1-8.2,2.1
		c-7.2,0-12-4.6-12-11.4c0-6.2,4.3-11.6,11-11.6c6.9,0,10.5,4.9,10.5,10.6c0,0.8-0.1,1.7-0.2,2.4H835.9z M835.9,713.9h12.4
		c-0.2-3.6-2.4-6-6.1-6C839.2,708,836.5,709.9,835.9,713.9z"/>
	<path class="st2" d="M870.4,722.7h4.1v-25.6h-4.1V693H895v8.9h-4.5v-4.7h-11.3v11.1h10.5v4.1h-10.5v10.4h4.6v4.2h-13.4V722.7z"/>
	<path class="st2" d="M909.6,692.7c-0.6,0.2-1.1,0.5-1.5,1c-0.7,1-1.1,2.4-1.1,4.5v6.5h5.8v3.8H907v14.7h4.3v3.7h-12.2v-3.7h3.5
		v-14.7h-3.9v-3.8h3.9V699c0-3.8,0.7-6.2,2.6-8.1c1.4-1.4,3.2-2.2,5.5-2.2c2.6,0,4.4,1.3,4.4,3.3c0,1.7-1.2,2.7-2.6,2.7
		C911,694.8,910.1,693.9,909.6,692.7z"/>
	<path class="st2" d="M930.1,710.2c0-10.6,8-17.8,17.7-17.8c7.7,0,12.9,4.2,12.9,8c0,2.2-1.4,3.6-3.2,3.6c-1.9,0-3.3-1.3-3.3-3.1
		c0-0.8,0.3-1.4,0.7-1.9c-1.2-1.1-3.7-2.3-7.2-2.3c-7.4,0-12.7,5.7-12.7,13.4c0,8,5.7,13.2,12.2,13.2c3.7,0,6.6-1,9.3-2.8v-6.6h-9
		v-4H961v16.9h-4.5v-2.7c-2.7,2-5.9,3.3-10,3.3C938.1,727.5,930.1,721,930.1,710.2z"/>
	<path class="st2" d="M989.6,727.4c0,2.7-0.7,4.9-2.1,6.5c-1.9,2.3-4.9,3.3-8.4,3.3c-3.7,0-6.6-1.1-8-2.6c-0.8-0.8-1.2-1.7-1.2-2.7
		c0-1.5,1.1-2.9,2.8-2.9c1.5,0,2.6,1.1,2.6,2.5c0,0.4-0.1,0.9-0.3,1.2c0.8,0.3,2.1,0.7,3.9,0.7c2.1,0,4-0.6,5.2-2.1
		c0.7-0.9,1.1-2.3,1.1-4.1v-3.9c-1.8,1.8-3.8,3.1-7,3.1c-5.7,0-10.4-4.5-10.4-11c0-6.1,4.5-11.3,10.7-11.3c2.9,0,5.2,1.1,6.8,2.6
		v-2.2h7.7v3.8h-3.5V727.4z M972.3,715.6c0,4.4,2.8,7.3,6.7,7.3c2.4,0,4.4-1.1,6-2.8v-9.7c-1.5-1.2-3.4-2.2-5.9-2.2
		C975.2,708.2,972.3,711.1,972.3,715.6z"/>
	<path class="st2" d="M1010.2,722.7h4.1v-25.6h-4.1V693h13.1v4.2h-4.3v10.4h17.5v-10.4h-4.3V693h13.1v4.2h-4.1v25.6h4.1v4.2h-13.1
		v-4.2h4.3v-11.1H1019v11.1h4.3v4.2h-13.1V722.7z"/>
	<path class="st2" d="M1049.9,693v-3.8h7.9v19.2c2.1-2.3,4.7-4.1,7.9-4.1c2.5,0,4.4,0.9,5.6,2.4c1,1.3,1.5,3,1.5,5.1v11.4h3.5v3.7
		H1065v-3.7h3.3v-10.5c0-1.4-0.3-2.4-0.9-3.1c-0.7-0.8-1.7-1.2-3-1.2c-2.4,0-4.7,1.4-6.6,3.3v11.5h3.3v3.7h-11.2v-3.7h3.5V693
		H1049.9z"/>
	<path class="st2" d="M1093.1,722.7h4.4v-25.6h-4.4V693h13.4v4.2h-4.4v25.6h4.4v4.2h-13.4V722.7z"/>
	<path class="st2" d="M1111.4,723.2h3.6v-14.7h-3.6v-3.8h8v18.5h3.6v3.7h-11.6V723.2z M1113.5,696.8c0-1.8,1.5-3.2,3.2-3.2
		c1.7,0,3.2,1.4,3.2,3.2c0,1.8-1.5,3.2-3.2,3.2C1114.9,700,1113.5,698.6,1113.5,696.8z"/>
	<path class="st2" d="M1139.8,719.1c0-2.5,1.4-4.2,3.5-4.2c1.6,0,3,1.3,3,3c0,1.1-0.7,2.1-1.5,2.5c0.3,1.3,2,2.8,5.1,2.8
		c1.6,0,3-0.5,4.1-1.5c1.2-1.3,1.8-3.3,1.8-6.2v-18.3h-5.2V693h13.7v4.2h-3.9v18.4c0,4-1,7.2-3,9.2c-1.9,1.9-4.4,2.8-7.5,2.8
		C1144.2,727.5,1139.8,723.9,1139.8,719.1z"/>
	<path class="st2" d="M1165.5,730.8c1.5,0,2.6,1.2,2.6,2.7v0.2c1.4-0.1,2.4-1.1,3-2.8c0.4-1.2,0.5-2.6,0.5-4.1v-18.3h-4.2v-3.8h8.7
		v21.7c0,2.6-0.4,4.6-1.1,6.2c-1.3,3.1-4,4.6-7,4.6c-3.3,0-5-1.8-5-3.7C1162.8,732.1,1164,730.8,1165.5,730.8z M1169.8,696.8
		c0-1.8,1.5-3.2,3.2-3.2c1.7,0,3.2,1.4,3.2,3.2c0,1.8-1.5,3.2-3.2,3.2C1171.3,700,1169.8,698.6,1169.8,696.8z"/>
	<path class="st2" d="M1195.4,722.7h4.1v-25.6h-4.1V693h13.1v4.1h-4.3v13.4l13.3-13.4h-4.3V693h13.9v4.2h-3.8l-10.4,10.3l9.9,15.3
		h4.3v4.2h-7.3l-10.4-16.3l-5.3,5.3v6.9h4.3v4.2h-13.1V722.7z"/>
	<path class="st2" d="M1231.2,723.2h3.5V693h-3.5v-3.8h7.9v26.1l8-7h-3.8v-3.6h12.8v3.8h-4l-6.2,5.3l6.3,9.3h3.9v3.8h-6.5l-7-10.6
		l-3.6,3.1v3.9h3.2v3.7h-11.1V723.2z"/>
	<path class="st2" d="M1273.1,722.7h4.1v-25.6h-4.1V693h13.4v4.2h-4.6v25.6h10.7v-5h4.5v9.1h-24V722.7z"/>
	<path class="st2" d="M1301.8,723.2h3.6V693h-3.6v-3.8h8v34h3.6v3.7h-11.6V723.2z"/>
	<path class="st2" d="M1330.5,722.7h4.2l1.2-25.6h-4.4V693h8.7l10.8,21.3l10.8-21.3h8.6v4.2h-4.4l1.1,25.6h4.3v4.2h-13.1v-4.2h4.2
		l-0.8-21.1l-10.4,20.1h-0.9l-10.4-20.1l-0.8,21.1h4.2v4.2h-13V722.7z"/>
	<path class="st2" d="M1376.2,723.2h3.5v-14.7h-3.5v-3.8h7.7v3.9c1.9-2.2,4.6-4.3,7.8-4.3c2.6,0,4.3,1,5.4,2.5
		c0.3,0.5,0.5,1,0.7,1.5c2.3-2.3,5-4.1,7.8-4.1c3.2,0,5.2,1.2,6.2,3.2c0.6,1.2,0.9,2.6,0.9,4.2v11.5h3.5v3.7H1405v-3.7h3.3v-10.5
		c0-1-0.2-1.9-0.4-2.5c-0.5-1.2-1.5-1.8-3.1-1.8c-2.3,0-4.4,1.3-6.3,3.2v11.6h3.2v3.7h-11v-3.7h3.3v-10.5c0-1-0.1-1.9-0.4-2.5
		c-0.6-1.2-1.5-1.8-3.1-1.8c-2.4,0-4.5,1.4-6.4,3.3v11.5h3.2v3.7h-11.1V723.2z"/>
	<path class="st2" d="M505.9,771.4v21.4h4.3v4.2h-13v-4.2h4.1v-25.6h-4.1v-4.2h8.1l18.3,23.9v-19.7h-4.3v-4.2h12.8v4.2h-4v29.8
		l-2.6,0.1L505.9,771.4z"/>
	<path class="st2" d="M543.3,778.6c2.1-2.3,4.9-4.3,8.1-4.3c2.8,0,4.7,1.1,5.8,2.8c0.7,1.2,1.1,2.8,1.1,4.6v11.4h3.5v3.7h-11.2v-3.7
		h3.3v-10.5c0-1.1-0.2-2-0.5-2.6c-0.6-1.2-1.7-1.8-3.3-1.8c-2.4,0-4.7,1.4-6.6,3.3v11.5h3.3v3.7h-11.1v-3.7h3.5v-14.7h-3.5v-3.8h7.7
		V778.6z"/>
	<path class="st2" d="M579.2,780c0-9.9,7.2-17.6,17.4-17.6c10,0,17.1,7.7,17.1,17.6c0,9.9-7.2,17.6-17.4,17.6
		C586.3,797.6,579.2,789.9,579.2,780z M608.9,780c0-7.6-5.2-13.2-12.4-13.2c-7.3,0-12.5,5.6-12.5,13.2c0,7.6,5.2,13.2,12.5,13.2
		C603.7,793.2,608.9,787.6,608.9,780z"/>
	<path class="st2" d="M618.9,785.9c0-6.2,4.5-11.5,11.6-11.5c7.1,0,11.6,5.3,11.6,11.5c0,6.2-4.6,11.5-11.6,11.5
		C623.4,797.4,618.9,792.1,618.9,785.9z M637.5,785.9c0-4.5-2.9-7.8-7-7.8c-4.2,0-7.1,3.2-7.1,7.8s2.9,7.7,7.1,7.7
		C634.6,793.6,637.5,790.4,637.5,785.9z"/>
	<path class="st2" d="M659.9,792.8h4.1v-25.6h-4.1v-4.2h13.3c7.2,0,12.7,4.2,12.7,10.9c0,7.3-5.3,11.2-13,11.2
		c-1.8,0-3.3-0.1-4.2-0.1v7.7h4.4v4.2h-13.2V792.8z M681.1,773.9c0-4.2-3.5-6.7-8-6.7h-4.4v13.7c0.9,0.1,2.3,0.1,4.5,0.1
		C678.1,781,681.1,778.4,681.1,773.9z"/>
	<path class="st2" d="M690.3,803.3h3.5v-24.8h-3.5v-3.8h7.7v2.9c1.9-1.9,3.9-3.3,7.1-3.3c5.8,0,10.4,4.6,10.4,11.4
		c0,6.4-4.5,11.6-10.8,11.6c-2.5,0-4.7-0.9-6.5-2.4v8.3h4v3.7h-11.8V803.3z M710.8,785.8c0-4.6-2.8-7.6-6.6-7.6
		c-2.5,0-4.4,1.2-6.1,2.8v10.4c1.5,1.2,3.5,2.1,6,2.1C707.9,793.5,710.8,790.5,710.8,785.8z"/>
	<path class="st2" d="M753.2,799.2c-1.4-0.9-3.1-1.5-4.8-1.8c-3.8-0.6-7-2.2-9.6-4.6c-3.1-2.9-5.1-7.5-5.1-12.7
		c0-9.9,7.2-17.6,17.4-17.6c10,0,17.1,7.7,17.1,17.6c0,8.6-5.2,14.6-12,16.4c0.8,0.3,1.7,0.7,2.5,1.2c2.1,1.3,3.3,2.1,5.3,2.1
		c1.3,0,2.5-0.3,4.4-1.5l2.3,3.7c-2.1,2-4.4,2.3-6.3,2.3C759.6,804.1,756.1,801,753.2,799.2z M763.4,780c0-7.6-5.2-13.2-12.4-13.2
		c-7.3,0-12.5,5.6-12.5,13.2c0,4,1.5,7.5,3.9,9.9c2.2,2.1,5.1,3.3,8.6,3.3C758.2,793.2,763.4,787.6,763.4,780z"/>
	<path class="st2" d="M786.6,803.2h4.3v-9c-1.8,1.7-3.9,3.1-7.2,3.1c-5.8,0-10.5-4.7-10.5-11.5c0-6.4,4.6-11.5,10.9-11.5
		c2.8,0,5.2,1.1,7.1,2.6l1.1-2.3h2.9v28.6h3.5v3.8h-12.2V803.2z M790.9,790.7v-10.4c-1.6-1.2-3.7-2.1-6.2-2.1
		c-3.8,0-6.9,2.9-6.9,7.7c0,4.7,3,7.6,6.8,7.6C787.1,793.5,789.2,792.3,790.9,790.7z"/>
	<path class="st2" d="M814.4,792.8h4.1v-25.6h-4.1v-4.2h13c7.6,0,12.8,3.6,12.8,10c0,4.5-2.9,7.8-6.9,9.3l6.3,10.5h4v4.2h-7.2
		l-7.7-13.4c-0.7,0.1-1.3,0.1-2,0.1c-1.2,0-2.6-0.1-3.5-0.1v9.3h4.3v4.2h-13.1V792.8z M835.4,773.2c0-4-3.2-6-8.2-6h-3.9v12.3
		c0.9,0.1,2.1,0.1,3.8,0.1C831.8,779.6,835.4,777.3,835.4,773.2z"/>
	<path class="st2" d="M865.8,777.6c0,1.6-1.3,3-2.8,3c-1.5,0-2.5-0.9-2.9-1.9c-1.6,0.5-3.6,2.4-4.6,4.5v10.1h4.1v3.7h-11.9v-3.7h3.5
		v-14.7h-3.5v-3.8h7.7v5c1.8-3,4.3-5.5,6.9-5.5C864.6,774.3,865.8,775.8,865.8,777.6z"/>
	<path class="st2" d="M882.6,790.2c0-2.2,1.3-3.6,3.1-3.6c1.9,0,3.1,1.4,3.1,2.8c0,0.9-0.3,1.6-0.7,2.2c1.2,1,3.5,1.8,6.2,1.8
		c4.1,0,6.7-2,6.7-5.4c0-3.2-3.1-4.7-6.7-6c-6.1-2.3-10.5-4.3-10.5-10.4c0-5.3,4.2-9.3,10.8-9.3c5.9,0,10.6,3.2,10.6,7
		c0,2.1-1.3,3.3-3,3.3c-2,0-3.1-1.4-3.1-3c0-0.8,0.3-1.3,0.6-1.8c-0.9-0.8-2.9-1.4-5-1.4c-3.8,0-6,2-6,4.8c0,3.2,3,4.6,6.9,6.1
		c5.8,2.2,10.2,4.3,10.2,10.3c0,6.2-4.8,9.8-11.5,9.8C887.5,797.6,882.6,793.8,882.6,790.2z"/>
	<path class="st2" d="M926.4,782c-1.5,0-2.7-1-2.7-2.5c0-0.4,0.1-0.8,0.2-1.1c-0.9-0.4-2.2-0.7-3.6-0.7c-2.8,0-4.4,1.4-4.4,2.8
		c0,1.6,1.7,2.3,5.3,3.2c4.8,1.2,8.3,2.5,8.3,6.7c0,4.4-4.2,6.9-9.1,6.9c-3.3,0-6.7-1.1-8.2-2.6c-0.8-0.8-1.2-1.8-1.2-2.9
		c0-1.4,1-2.7,2.5-2.7c1.4,0,2.6,1,2.6,2.6c0,0.4-0.1,0.8-0.2,1.1c0.8,0.5,2.5,1,4.5,1c2.7,0,4.8-1,4.8-3c0-1.6-1.6-2.4-4.9-3.2
		c-5.7-1.4-8.7-2.8-8.7-6.8c0-3.4,3-6.6,8.7-6.6c2.9,0,5.8,0.9,7.2,2.4c0.8,0.8,1.1,1.7,1.1,2.7C928.7,781,927.8,782,926.4,782z"/>
	<path class="st2" d="M954.6,792.8h4.4v-25.7h-7.6v5.4h-4.4v-9.4h28.7v9.4h-4.4v-5.4h-7.6v25.7h4.4v4.2h-13.5V792.8z"/>
	<path class="st2" d="M983.9,794.6c-0.4-0.9-0.7-2-0.7-3.2v-12.8h-4.2v-3.8h4.2v-5.1l4.4-1.8v6.9h6.7v3.8h-6.7v12
		c0,0.7,0.1,1.2,0.3,1.7c0.4,0.7,1.2,1.1,2.5,1.1c1.3,0,2.9-0.6,4.2-1.2l-0.5,4c-1.3,0.7-2.9,1.3-5,1.3
		C986.8,797.4,984.9,796.5,983.9,794.6z"/>
	<path class="st2" d="M1014,767.2h-3.2v-4.2h12.3v4.2h-3.7l8.6,22l8.6-22h-3.9v-4.2h12.3v4.2h-3.2l-12.5,30.2h-2.7L1014,767.2z"/>
	<path class="st2" d="M1047.7,778.6h-2.8v-3.8h10.8v3.7h-3.4l6,13.3l6-13.3h-3.6v-3.7h10.8v3.8h-2.8l-9.1,19h-2.8L1047.7,778.6z"/>
	<path class="st2" d="M1090.3,767.2h-3.8v-4.2h13.1v4.2h-4.3l6.4,21.2l8.4-21.7h2.5l8.4,21.7l6.2-21.2h-4.5v-4.2h13.1v4.2h-3.8
		l-9.3,30.2h-2.6l-8.9-22.3l-9,22.3h-2.7L1090.3,767.2z"/>
	<path class="st2" d="M1139.7,778.6h-3.2v-3.8h10.8v3.7h-3.3l3.6,12.7l5.7-14h2.7l5.8,14l3.6-12.7h-3.7v-3.7h10.7v3.8h-3.2
		l-5.8,19.3h-2.8l-6.1-14.4l-6,14.4h-2.8L1139.7,778.6z"/>
	<path class="st2" d="M1187.9,792.8h3.6l10.5-13.2l-9.6-12.3h-3.8v-4.2h12.8v4.1h-3.7l7.1,9.8l7.2-9.8h-4v-4.1h12.8v4.2h-3.8
		l-9.6,12.3l10.3,13.3h3.6v4.2h-12.6v-4.1h3.6l-7.7-10.8l-8,10.8h3.9v4.1h-12.6V792.8z"/>
	<path class="st2" d="M1225.4,793.1h2.9l7-7.4l-6.6-7.2h-2.9v-3.8h10.4v3.6h-2.8l4.5,5.4l4.5-5.4h-2.9v-3.6h10.3v3.8h-2.9l-6.5,7
		l7.1,7.6h2.9v3.8h-10.5v-3.6h2.9l-5-5.8l-4.9,5.8h2.9v3.6h-10.3V793.1z"/>
	<path class="st2" d="M1274.4,792.8h4.6v-9.1l-9.8-16.4h-3.6v-4.2h12v4.2h-3.2l7.1,12.5l7.1-12.5h-3.5v-4.2h12v4.2h-3.6l-9.8,16.4
		v9.2h4.6v4.2h-13.9V792.8z"/>
	<path class="st2" d="M1301.6,807.2c-2.5,0-4.2-1.4-4.2-3.1c0-1.6,1.1-2.5,2.4-2.5c1.3,0,2.1,0.9,2.4,1.9c0.7-0.3,1.4-0.8,2.3-2
		c0.4-0.7,0.9-1.5,1.4-2.5l1.5-3.1l-8.2-17.2h-2.9v-3.8h10.8v3.7h-3.4c0,0,5.8,13.2,5.8,13.2l5.9-13.2h-3.6v-3.7h10.7v3.8h-2.9
		l-10.5,22.3c-0.6,1.1-1.1,2.1-1.8,3C1305.8,806,1303.9,807.2,1301.6,807.2z"/>
	<path class="st2" d="M1338.7,794.5l20.1-27.5h-14.9v5.5h-4.1v-9.4h25.7v2.5l-20.1,27.5h16.3v-5.5h4.1v9.4h-27V794.5z"/>
	<path class="st2" d="M1370.5,794.6l13.9-16.3h-9.2v4.3h-3.9v-7.8h19v2.3l-13.9,16.3h10.3v-4.2h3.8v7.8h-20V794.6z"/>
	<path class="st2" d="M498.1,863.3h6.2v-18.2l-5.4,1.3l-1-3.8l8.8-2.3h2.1v22.9h6.1v3.7h-16.7V863.3z"/>
	<path class="st2" d="M537.8,845.7c0.6,0.5,1,1.2,1,2c0,1.6-1.3,2.9-2.9,2.9c-1.6,0-3-1.4-3-3.6c0-0.9,0.4-2,1.1-2.9
		c1.6-2.2,5-4.1,9.2-4.1c6.4,0,10,3.8,10,7.7c0,4.4-3.6,6.7-8,9.4c-3.5,2.1-5.9,3.8-7.4,6.2h12.5V859h3.8v8h-21.2l-0.7-2.2
		c2-4.8,6.1-7.9,10.6-10.7c3.3-2.1,5.9-3.8,5.9-6.3c0-2.3-2.3-4-5.7-4C540.6,843.9,538.6,844.6,537.8,845.7z"/>
	<path class="st2" d="M574.7,862.8c1.5,0,2.8,1.3,2.8,2.8c0,0.8-0.4,1.6-1,2.2c1.3,1.3,3.5,2,6,2c4,0,6.8-2.4,6.8-5.7
		c0-2.2-1.2-4.1-3.6-5.2c-1.4-0.6-3.3-1-5.6-1h-1.3v-3.7h1.5c2.2,0,4.2-0.5,5.8-1.3c1.8-1,3-2.5,3-4.4c0-3-2.7-4.6-6.2-4.6
		c-2.6,0-4.2,0.7-5.2,1.6c0.7,0.5,1.1,1.3,1.1,2.1c0,1.6-1.3,2.8-2.9,2.8c-1.6,0-3-1.4-3-3.5c0-0.9,0.3-1.9,1-2.9
		c1.4-2.1,4.5-4,9.2-4c6.2,0,10.5,3.7,10.5,8.3c0,2.7-1.7,5-4.2,6.4c-1,0.6-2.1,1-3.3,1.1c1.1,0.2,2.2,0.6,3.1,1.1
		c2.7,1.4,4.7,3.8,4.7,7.2c0,5.6-4.9,9.3-11.3,9.3c-4.4,0-8.1-1.8-9.8-4.2c-0.6-0.9-1-2-1-3C571.6,864.4,573,862.8,574.7,862.8z"/>
	<path class="st2" d="M626.2,864.3h-14.8l-0.9-2.1l16.9-22.5l3.2,2.6l-13.7,18.3h9.3v-6.7l4.3-1.7v8.4h5.5v3.7h-5.5v8.9h-4.3V864.3z
		"/>
	<path class="st2" d="M655.6,864.1c1.6,0,2.9,1.2,2.9,2.8c0,0.6-0.3,1.3-0.8,1.8c1.1,0.6,2.7,0.9,4.6,0.9c4.4,0,7.2-3,7.2-6.8
		c0-3.7-2.5-6.4-7.2-6.4c-2.3,0-4.7,0.6-6.6,1.5l-2-1.1l2-16.3h16.6v4.2H659l-1,8.6c1.3-0.4,3.1-0.7,4.9-0.7
		c6.4,0,11.1,3.9,11.1,10.3c0,6.2-4.9,10.7-11.4,10.7c-3.9,0-6.9-1.1-8.5-2.6c-1-1-1.6-2.2-1.6-3.4
		C652.6,865.6,653.9,864.1,655.6,864.1z"/>
	<path class="st2" d="M696.6,850.8c1.3-2.3,4.6-4.2,8.1-4.2c6.4,0,11,4.5,11,10.1c0,6-4.8,10.7-11.6,10.7c-3.3,0-6.1-1-8.2-3.2
		c-2.4-2.5-3.6-6.3-3.6-11.3c0-13,6.5-19,13.4-19c2.9,0,5.6,1,7.2,2.6c0.9,0.8,1.4,1.9,1.4,3.1c0,2-1.5,3.3-3,3.3
		c-1.9,0-3-1.3-3-2.9c0-0.6,0.2-1.1,0.4-1.4c-0.8-0.6-1.9-0.9-3.3-0.9C701.3,837.6,696.8,842.2,696.6,850.8z M711.2,856.7
		c0-3.5-2.6-6.3-6.8-6.3c-4.3,0-7.4,3-7.4,6.7c0,1.8,0.7,3.4,2,4.6c1.2,1.2,3,2,5.1,2C708.4,863.7,711.2,860.6,711.2,856.7z"/>
	<path class="st2" d="M736.6,871.4l13.3-27.3h-12.8v5.4h-4v-9.1h21.2l1,2.2l-14.9,30.6L736.6,871.4z"/>
	<path class="st2" d="M772.7,858.1c0-3.6,2.5-6.5,6-7.9c-3.2-1.5-5.3-4.4-5.3-7.3c0-5.2,4.5-9.1,10.5-9.1c6,0,10.6,3.9,10.6,9.1
		c0,3-2.2,5.8-5.3,7.3c3.5,1.3,6,4.3,6,7.9c0,5.2-4.5,9.3-11.3,9.3C777.2,867.4,772.7,863.3,772.7,858.1z M790.6,857.8
		c0-3.2-2.7-5.8-6.6-5.8c-3.9,0-6.6,2.6-6.6,5.8c0,3.2,2.7,5.8,6.6,5.8C787.9,863.6,790.6,861.1,790.6,857.8z M789.9,843.2
		c0-3.2-2.5-5.5-6-5.5c-3.5,0-5.9,2.3-5.9,5.5c0,3,2.6,5.4,5.9,5.4S789.9,846.2,789.9,843.2z"/>
	<path class="st2" d="M815.6,870.8c-0.8-0.9-1.3-1.9-1.3-3c0-2,1.5-3.3,3-3.3c1.9,0,3,1.3,3,2.9c0,0.6-0.2,1.1-0.5,1.4
		c0.8,0.5,1.9,0.8,3.3,0.8c4.3,0,8.6-4.4,8.9-12.8c-1.4,2.3-4.6,4.1-8.1,4.1c-6.4,0-11-4.4-11-10c0-6,4.8-10.8,11.6-10.8
		c3.3,0,6.1,1,8.1,3.1c2.5,2.5,3.8,6.4,3.8,11.5c0,13-6.7,18.8-13.7,18.8C819.9,873.4,817.2,872.5,815.6,870.8z M824.6,843.8
		c-4.2,0-7.1,3-7.1,7c0,3.5,2.7,6.2,6.8,6.2c4.3,0,7.4-3,7.4-6.6c0-1.8-0.7-3.5-2-4.6C828.5,844.6,826.7,843.8,824.6,843.8z"/>
	<path class="st2" d="M854.9,853.7c0-7.8,5.2-13.7,12.3-13.7s12.3,5.9,12.3,13.7c0,7.9-5.2,13.7-12.3,13.7S854.9,861.5,854.9,853.7z
		 M875,853.7c0-5.7-3.1-9.9-7.7-9.9c-4.6,0-7.7,4.2-7.7,9.9c0,5.8,3.1,9.9,7.7,9.9C871.8,863.6,875,859.5,875,853.7z"/>
</g>
</svg>
