<!--?xml version="1.0" encoding="utf-8"?-->
<!-- Generator: Adobe Illustrator 22.0.1, SVG Export Plug-In . SVG Version: 6.00 Build 0)  -->
<svg version="1.1" xmlns="http://www.w3.org/2000/svg" xmlns:xlink="http://www.w3.org/1999/xlink" width="1280" x="0px" y="0px" viewBox="0 0 1920 1080" style="" xml:space="preserve" class="">
<style type="text/css">
	.st0{fill:#262626;}
	.st1{fill:#8ECCCE;}
	.st2{fill:none;stroke:#F6CFB2;stroke-width:130;stroke-miterlimit:10;}
	.st3{fill:none;stroke:#151616;stroke-width:130;stroke-miterlimit:10;}
	.st4{fill:none;stroke:#FFF8F4;stroke-width:130;stroke-miterlimit:10;}
</style>
<g id="fill">
	<path class="st0 NtlHjxWU_0" width="1920" height="1080" d="M1 0.9 L1921 0.9 L1921 1080.9 L1 1080.9 Z"></path>
	<g>
		<path class="st1 NtlHjxWU_1" d="M374.7,691.7h-1.3V683H363v8.8h-1.2v-17.8h1.2v7.9h10.4v-7.9h1.3V691.7z"></path>
		<path class="st1 NtlHjxWU_2" d="M390.4,691.7h-9.8v-17.8h9.8v1.1h-8.5v6.8h8v1.1h-8v7.7h8.5V691.7z"></path>
		<path class="st1 NtlHjxWU_3" d="M407.3,691.7h-1.4l-5.3-8.3l-5.4,8.3h-1.4l6-9.3l-5.5-8.5h1.4l4.8,7.6l4.9-7.6h1.3l-5.5,8.5L407.3,691.7z"></path>
		<path class="st1 NtlHjxWU_4" d="M423.5,679.5h-3.1v12.2h-1.2v-12.2h-2.5v-0.7l2.5-0.5v-1c0-1.6,0.3-2.8,0.9-3.6c0.6-0.8,1.6-1.1,2.9-1.1
			c0.7,0,1.5,0.1,2.2,0.3l-0.3,1.1c-0.7-0.2-1.3-0.3-1.9-0.3c-0.9,0-1.6,0.3-2,0.8c-0.4,0.6-0.6,1.5-0.6,2.7v1.2h3.1V679.5z"></path>
		<path class="st1 NtlHjxWU_5" d="M432.1,681c1.9,0,3.4,0.5,4.5,1.4c1.1,0.9,1.6,2.2,1.6,3.8c0,1.8-0.6,3.3-1.7,4.3s-2.7,1.5-4.7,1.5
			c-0.9,0-1.7-0.1-2.5-0.3c-0.8-0.2-1.5-0.4-2-0.8v-1.3c0.9,0.4,1.7,0.8,2.3,0.9s1.4,0.3,2.2,0.3c1.6,0,2.8-0.4,3.8-1.2
			s1.4-1.9,1.4-3.4c0-1.3-0.5-2.4-1.4-3.1c-0.9-0.8-2.2-1.1-3.7-1.1c-1.1,0-2.2,0.2-3.3,0.5l-0.7-0.5l0.7-8.2h8.6v1.2h-7.4l-0.5,6.3
			C430.4,681.1,431.4,681,432.1,681z"></path>
		<path class="st1 NtlHjxWU_6" d="M448.5,692c-1.9,0-3.4-0.6-4.5-1.8c-1.1-1.2-1.6-2.9-1.6-5c0-2.2,0.6-3.9,1.7-5.1s2.6-1.8,4.6-1.8
			c1.1,0,2.2,0.2,3.3,0.6l-0.3,1.1c-1.1-0.4-2.1-0.6-3-0.6c-1.6,0-2.9,0.5-3.7,1.5c-0.8,1-1.3,2.5-1.3,4.3c0,1.8,0.4,3.2,1.3,4.2
			c0.8,1,2,1.5,3.5,1.5c1.2,0,2.3-0.2,3.4-0.6v1.1C451,691.8,449.9,692,448.5,692z"></path>
		<path class="st1 NtlHjxWU_7" d="M462,679.5h-3.1v12.2h-1.2v-12.2h-2.5v-0.7l2.5-0.5v-1c0-1.6,0.3-2.8,0.9-3.6c0.6-0.8,1.6-1.1,2.9-1.1
			c0.7,0,1.5,0.1,2.2,0.3l-0.3,1.1c-0.7-0.2-1.3-0.3-1.9-0.3c-0.9,0-1.6,0.3-2,0.8c-0.4,0.6-0.6,1.5-0.6,2.7v1.2h3.1V679.5z"></path>
		<path class="st1 NtlHjxWU_8" d="M472.3,678.2c1.9,0,3.3,0.6,4.2,1.8c0.9,1.2,1.4,2.9,1.4,5.1c0,2.2-0.5,3.9-1.5,5.1c-1,1.2-2.4,1.8-4.2,1.8
			c-0.9,0-1.8-0.2-2.6-0.6s-1.4-0.9-1.8-1.7h-0.1l-0.3,2h-0.8v-19h1.2v4.8c0,0.7,0,1.4,0,2l0,1h0.1c0.5-0.8,1.1-1.4,1.8-1.8
			C470.5,678.4,471.3,678.2,472.3,678.2z M472.3,679.3c-1.6,0-2.7,0.4-3.4,1.3c-0.7,0.9-1,2.4-1,4.4v0.2c0,2,0.4,3.4,1.1,4.3
			c0.7,0.9,1.8,1.3,3.3,1.3c1.4,0,2.5-0.5,3.3-1.5s1.1-2.5,1.1-4.3C476.6,681.2,475.2,679.3,472.3,679.3z"></path>
		<path class="st1 NtlHjxWU_9" d="M486.8,691.7h-1.2v-13c0-1.2,0-2.4,0.1-3.7c-0.1,0.1-0.2,0.2-0.4,0.4c-0.1,0.1-1.4,1.1-3.8,3l-0.7-0.9
			l4.8-3.6h1V691.7z"></path>
		<path class="st1 NtlHjxWU_10" d="M372.5,715c0,1.7-0.6,3-1.8,4s-2.8,1.4-5,1.4H363v7.4h-1.2v-17.8h4.4C370.4,709.9,372.5,711.6,372.5,715z
			 M363,719.3h2.5c2,0,3.5-0.3,4.4-1c0.9-0.7,1.3-1.7,1.3-3.2c0-1.4-0.4-2.4-1.3-3.1c-0.8-0.7-2.2-1-3.9-1h-3V719.3z"></path>
		<path class="st1 NtlHjxWU_11" d="M384.7,721.4h-7.3l-2.5,6.3h-1.4l7.2-17.9h0.8l7,17.9h-1.4L384.7,721.4z M377.9,720.3h6.4l-2.4-6.4
			c-0.2-0.5-0.4-1.2-0.7-2.1c-0.2,0.8-0.5,1.5-0.7,2.1L377.9,720.3z"></path>
		<path class="st1 NtlHjxWU_12" d="M405.6,727.7h-1.3l-10.6-15.8h-0.1c0.1,1.9,0.1,3.3,0.1,4.3v11.6h-1.2v-17.8h1.2l10.6,15.8h0.1
			c-0.1-1.5-0.1-2.9-0.1-4.2v-11.6h1.2V727.7z"></path>
		<path class="st1 NtlHjxWU_13" d="M416.6,727.7h-1.3v-16.7h-5.8v-1.2h12.9v1.2h-5.8V727.7z"></path>
		<path class="st1 NtlHjxWU_14" d="M440.6,718.8c0,2.8-0.7,5.1-2.1,6.7c-1.4,1.6-3.4,2.5-5.9,2.5c-2.5,0-4.4-0.8-5.8-2.5
			c-1.4-1.6-2.1-3.9-2.1-6.7c0-2.8,0.7-5.1,2.1-6.7c1.4-1.6,3.4-2.4,5.9-2.4c2.5,0,4.4,0.8,5.8,2.5
			C439.9,713.7,440.6,715.9,440.6,718.8z M426,718.8c0,2.6,0.6,4.5,1.7,5.9c1.1,1.4,2.8,2.1,4.9,2.1c2.1,0,3.8-0.7,4.9-2.1
			c1.1-1.4,1.7-3.4,1.7-5.9c0-2.6-0.6-4.5-1.7-5.9c-1.1-1.4-2.8-2.1-4.9-2.1c-2.1,0-3.8,0.7-4.9,2.1
			C426.6,714.3,426,716.2,426,718.8z"></path>
		<path class="st1 NtlHjxWU_15" d="M458.7,727.7h-1.3l-10.6-15.8h-0.1c0.1,1.9,0.1,3.3,0.1,4.3v11.6h-1.2v-17.8h1.2l10.6,15.8h0.1
			c-0.1-1.5-0.1-2.9-0.1-4.2v-11.6h1.2V727.7z"></path>
		<path class="st1 NtlHjxWU_16" d="M474.4,727.7h-9.8v-17.8h9.8v1.1h-8.5v6.8h8v1.1h-8v7.7h8.5V727.7z"></path>
		<path class="st1 NtlHjxWU_17" d="M498.8,723.2h-3.1v4.6h-1.1v-4.6h-9.2v-0.8l8.8-12.6h1.5v12.3h3.1V723.2z M494.6,722.1V717
			c0-2.5,0.1-4.5,0.2-6.2h-0.1c-0.2,0.3-0.7,1.1-1.5,2.3l-6.3,9H494.6z"></path>
		<path class="st1 NtlHjxWU_18" d="M503.6,727.7l7.3-16.7h-10.1v-1.2h11.5v0.9l-7.4,17H503.6z"></path>
		<path class="st1 NtlHjxWU_19" d="M520.9,717c1.9,0,3.4,0.5,4.5,1.4c1.1,0.9,1.6,2.2,1.6,3.8c0,1.8-0.6,3.3-1.7,4.3s-2.7,1.5-4.7,1.5
			c-0.9,0-1.7-0.1-2.5-0.3c-0.8-0.2-1.5-0.4-2-0.8v-1.3c0.9,0.4,1.7,0.8,2.3,0.9s1.4,0.3,2.2,0.3c1.6,0,2.8-0.4,3.8-1.2
			s1.4-1.9,1.4-3.4c0-1.3-0.5-2.4-1.4-3.1c-0.9-0.8-2.2-1.1-3.7-1.1c-1.1,0-2.2,0.2-3.3,0.5l-0.7-0.5l0.7-8.2h8.6v1.2h-7.4l-0.5,6.3
			C519.2,717.1,520.1,717,520.9,717z"></path>
		<path class="st1 NtlHjxWU_20" d="M547.7,710.8c-2.2,0-4,0.7-5.3,2.1c-1.3,1.4-1.9,3.4-1.9,5.9c0,2.5,0.6,4.5,1.8,5.9c1.2,1.4,2.9,2.1,5.2,2.1
			c1.5,0,2.9-0.2,4.1-0.6v1.1c-1.2,0.4-2.7,0.6-4.4,0.6c-2.5,0-4.5-0.8-5.9-2.4c-1.4-1.6-2.2-3.9-2.2-6.8c0-1.8,0.3-3.4,1-4.8
			c0.7-1.4,1.7-2.5,3-3.2c1.3-0.8,2.8-1.1,4.5-1.1c1.7,0,3.3,0.3,4.7,1l-0.5,1.1C550.5,711.1,549.1,710.8,547.7,710.8z"></path>
	</g>
	<g>
		<path class="st1 NtlHjxWU_21" d="M236.3,682.6c0,2.9-0.8,5.2-2.5,6.8c-1.7,1.6-4.1,2.3-7.2,2.3h-5.1v-17.8h5.6c2.9,0,5.2,0.8,6.8,2.3
			C235.5,677.7,236.3,679.9,236.3,682.6z M232.3,682.7c0-3.8-1.7-5.8-5.1-5.8h-2v11.6h1.6C230.5,688.6,232.3,686.6,232.3,682.7z"></path>
		<path class="st1 NtlHjxWU_22" d="M240.5,674.6c0-1.2,0.7-1.8,2-1.8c1.4,0,2,0.6,2,1.8c0,0.6-0.2,1-0.5,1.3c-0.3,0.3-0.8,0.5-1.5,0.5
			C241.2,676.4,240.5,675.8,240.5,674.6z M244.4,691.7h-3.7v-13.6h3.7V691.7z"></path>
		<path class="st1 NtlHjxWU_23" d="M261.4,678.1v1.9l-2.1,0.6c0.4,0.6,0.6,1.3,0.6,2.1c0,1.5-0.5,2.6-1.5,3.4s-2.4,1.2-4.3,1.2l-0.7,0l-0.5-0.1
			c-0.4,0.3-0.6,0.6-0.6,1c0,0.5,0.7,0.8,2.1,0.8h2.3c1.5,0,2.6,0.3,3.4,1c0.8,0.6,1.2,1.6,1.2,2.8c0,1.6-0.7,2.8-2,3.7
			c-1.3,0.9-3.2,1.3-5.7,1.3c-1.9,0-3.4-0.3-4.4-1c-1-0.7-1.5-1.6-1.5-2.8c0-0.8,0.3-1.5,0.8-2.1c0.5-0.6,1.3-0.9,2.3-1.2
			c-0.4-0.2-0.7-0.4-1-0.8s-0.4-0.8-0.4-1.2c0-0.5,0.2-1,0.5-1.3s0.7-0.7,1.3-1c-0.7-0.3-1.3-0.8-1.7-1.5c-0.4-0.7-0.6-1.5-0.6-2.4
			c0-1.5,0.5-2.6,1.5-3.5c1-0.8,2.4-1.2,4.2-1.2c0.4,0,0.8,0,1.4,0.1c0.5,0.1,0.9,0.1,1,0.2H261.4z M250.8,693.7
			c0,0.5,0.2,0.9,0.7,1.2s1.2,0.4,2.1,0.4c1.3,0,2.4-0.2,3.1-0.5c0.8-0.4,1.1-0.9,1.1-1.5c0-0.5-0.2-0.9-0.7-1.1
			c-0.4-0.2-1.1-0.3-2.1-0.3h-1.9c-0.7,0-1.3,0.2-1.7,0.5C251.1,692.7,250.8,693.1,250.8,693.7z M252.2,682.6c0,0.7,0.2,1.3,0.5,1.8
			s0.9,0.6,1.5,0.6c0.7,0,1.2-0.2,1.5-0.6c0.3-0.4,0.5-1,0.5-1.8c0-1.6-0.7-2.5-2-2.5C252.9,680.1,252.2,680.9,252.2,682.6z"></path>
		<path class="st1 NtlHjxWU_24" d="M264.6,674.6c0-1.2,0.7-1.8,2-1.8c1.4,0,2,0.6,2,1.8c0,0.6-0.2,1-0.5,1.3c-0.3,0.3-0.8,0.5-1.5,0.5
			C265.3,676.4,264.6,675.8,264.6,674.6z M268.5,691.7h-3.7v-13.6h3.7V691.7z"></path>
		<path class="st1 NtlHjxWU_25" d="M279.1,689c0.7,0,1.4-0.1,2.3-0.4v2.8c-0.9,0.4-2.1,0.6-3.4,0.6c-1.5,0-2.6-0.4-3.3-1.1c-0.7-0.8-1-1.9-1-3.4
			v-6.6H272v-1.6l2.1-1.2l1.1-2.9h2.4v2.9h3.8v2.8h-3.8v6.6c0,0.5,0.1,0.9,0.4,1.2S278.6,689,279.1,689z"></path>
		<path class="st1 NtlHjxWU_26" d="M294.2,691.7l-0.7-1.9h-0.1c-0.6,0.8-1.3,1.3-1.9,1.6s-1.5,0.5-2.6,0.5c-1.3,0-2.3-0.4-3.1-1.1
			c-0.8-0.7-1.1-1.8-1.1-3.2c0-1.4,0.5-2.5,1.5-3.2c1-0.7,2.5-1.1,4.6-1.1l2.4-0.1v-0.6c0-1.4-0.7-2.1-2.1-2.1c-1.1,0-2.4,0.3-3.8,1
			l-1.2-2.5c1.6-0.8,3.3-1.2,5.2-1.2c1.8,0,3.2,0.4,4.2,1.2c1,0.8,1.5,2,1.5,3.6v9.1H294.2z M293.1,685.4l-1.4,0
			c-1.1,0-1.9,0.2-2.4,0.6c-0.5,0.4-0.8,0.9-0.8,1.6c0,1.1,0.6,1.6,1.8,1.6c0.9,0,1.6-0.2,2.1-0.7s0.8-1.2,0.8-2V685.4z"></path>
		<path class="st1 NtlHjxWU_27" d="M305.3,691.7h-3.7v-19h3.7V691.7z"></path>
		<path class="st1 NtlHjxWU_28" d="M256.1,715.5c0,1.9-0.6,3.4-1.8,4.4s-2.9,1.5-5.1,1.5h-1.6v6.3h-3.8v-17.8h5.7c2.2,0,3.8,0.5,4.9,1.4
			C255.5,712.2,256.1,713.6,256.1,715.5z M247.5,718.3h1.2c1.2,0,2-0.2,2.6-0.7c0.6-0.5,0.9-1.1,0.9-2c0-0.9-0.2-1.5-0.7-2
			c-0.5-0.4-1.2-0.6-2.3-0.6h-1.7V718.3z"></path>
		<path class="st1 NtlHjxWU_29" d="M267.7,713.8c0.5,0,0.9,0,1.3,0.1l-0.3,3.5c-0.3-0.1-0.7-0.1-1.1-0.1c-1.2,0-2.1,0.3-2.8,0.9
			c-0.7,0.6-1,1.5-1,2.6v6.9H260v-13.6h2.8l0.5,2.3h0.2c0.4-0.8,1-1.4,1.7-1.8C266,714.1,266.8,713.8,267.7,713.8z"></path>
		<path class="st1 NtlHjxWU_30" d="M272.3,710.6c0-1.2,0.7-1.8,2-1.8c1.4,0,2,0.6,2,1.8c0,0.6-0.2,1-0.5,1.3c-0.3,0.3-0.8,0.5-1.5,0.5
			C272.9,712.4,272.3,711.8,272.3,710.6z M276.1,727.7h-3.7v-13.6h3.7V727.7z"></path>
		<path class="st1 NtlHjxWU_31" d="M293.6,727.7h-3.7v-8c0-1-0.2-1.7-0.5-2.2s-0.9-0.7-1.7-0.7c-1,0-1.8,0.3-2.3,1s-0.7,1.8-0.7,3.5v6.4H281
			v-13.6h2.8l0.5,1.7h0.2c0.4-0.7,1-1.2,1.7-1.5c0.7-0.3,1.6-0.5,2.5-0.5c1.6,0,2.8,0.4,3.6,1.3c0.8,0.9,1.2,2.1,1.2,3.7V727.7z"></path>
		<path class="st1 NtlHjxWU_32" d="M304.1,725c0.7,0,1.4-0.1,2.3-0.4v2.8c-0.9,0.4-2.1,0.6-3.4,0.6c-1.5,0-2.6-0.4-3.3-1.1c-0.7-0.8-1-1.9-1-3.4
			v-6.6H297v-1.6l2.1-1.2l1.1-2.9h2.4v2.9h3.8v2.8h-3.8v6.6c0,0.5,0.1,0.9,0.4,1.2S303.7,725,304.1,725z"></path>
	</g>
	<g>
		<path class="st1 NtlHjxWU_33" d="M774.7,691.7h-1.3V683H763v8.8h-1.2v-17.8h1.2v7.9h10.4v-7.9h1.3V691.7z"></path>
		<path class="st1 NtlHjxWU_34" d="M790.4,691.7h-9.8v-17.8h9.8v1.1h-8.5v6.8h8v1.1h-8v7.7h8.5V691.7z"></path>
		<path class="st1 NtlHjxWU_35" d="M807.3,691.7h-1.4l-5.3-8.3l-5.4,8.3h-1.4l6-9.3l-5.5-8.5h1.4l4.8,7.6l4.9-7.6h1.3l-5.5,8.5L807.3,691.7z"></path>
		<path class="st1 NtlHjxWU_36" d="M824.6,691.7h-1.2v-13c0-1.2,0-2.4,0.1-3.7c-0.1,0.1-0.2,0.2-0.4,0.4c-0.1,0.1-1.4,1.1-3.8,3l-0.7-0.9
			l4.8-3.6h1V691.7z"></path>
		<path class="st1 NtlHjxWU_37" d="M843.9,687.2h-3.1v4.6h-1.1v-4.6h-9.2v-0.8l8.8-12.6h1.5v12.3h3.1V687.2z M839.7,686.1V681
			c0-2.5,0.1-4.5,0.2-6.2h-0.1c-0.2,0.3-0.7,1.1-1.5,2.3l-6.3,9H839.7z"></path>
		<path class="st1 NtlHjxWU_38" d="M852.3,691.7h-1.2v-13c0-1.2,0-2.4,0.1-3.7c-0.1,0.1-0.2,0.2-0.4,0.4c-0.1,0.1-1.4,1.1-3.8,3l-0.7-0.9
			l4.8-3.6h1V691.7z"></path>
		<path class="st1 NtlHjxWU_39" d="M863.8,681c1.9,0,3.4,0.5,4.5,1.4c1.1,0.9,1.6,2.2,1.6,3.8c0,1.8-0.6,3.3-1.7,4.3s-2.7,1.5-4.7,1.5
			c-0.9,0-1.7-0.1-2.5-0.3c-0.8-0.2-1.5-0.4-2-0.8v-1.3c0.9,0.4,1.7,0.8,2.3,0.9s1.4,0.3,2.2,0.3c1.6,0,2.8-0.4,3.8-1.2
			s1.4-1.9,1.4-3.4c0-1.3-0.5-2.4-1.4-3.1c-0.9-0.8-2.2-1.1-3.7-1.1c-1.1,0-2.2,0.2-3.3,0.5l-0.7-0.5l0.7-8.2h8.6v1.2h-7.4l-0.5,6.3
			C862.1,681.1,863.1,681,863.8,681z"></path>
		<path class="st1 NtlHjxWU_40" d="M879,691.7h-1.2v-13c0-1.2,0-2.4,0.1-3.7c-0.1,0.1-0.2,0.2-0.4,0.4c-0.1,0.1-1.4,1.1-3.8,3l-0.7-0.9l4.8-3.6
			h1V691.7z"></path>
		<path class="st1 NtlHjxWU_41" d="M890.4,681c1.9,0,3.4,0.5,4.5,1.4c1.1,0.9,1.6,2.2,1.6,3.8c0,1.8-0.6,3.3-1.7,4.3s-2.7,1.5-4.7,1.5
			c-0.9,0-1.7-0.1-2.5-0.3c-0.8-0.2-1.5-0.4-2-0.8v-1.3c0.9,0.4,1.7,0.8,2.3,0.9s1.4,0.3,2.2,0.3c1.6,0,2.8-0.4,3.8-1.2
			s1.4-1.9,1.4-3.4c0-1.3-0.5-2.4-1.4-3.1c-0.9-0.8-2.2-1.1-3.7-1.1c-1.1,0-2.2,0.2-3.3,0.5l-0.7-0.5l0.7-8.2h8.6v1.2H888l-0.5,6.3
			C888.7,681.1,889.7,681,890.4,681z"></path>
		<path class="st1 NtlHjxWU_42" d="M772.5,715c0,1.7-0.6,3-1.8,4s-2.8,1.4-5,1.4H763v7.4h-1.2v-17.8h4.4C770.4,709.9,772.5,711.6,772.5,715z
			 M763,719.3h2.5c2,0,3.5-0.3,4.4-1c0.9-0.7,1.3-1.7,1.3-3.2c0-1.4-0.4-2.4-1.3-3.1c-0.8-0.7-2.2-1-3.9-1h-3V719.3z"></path>
		<path class="st1 NtlHjxWU_43" d="M784.7,721.4h-7.3l-2.5,6.3h-1.4l7.2-17.9h0.8l7,17.9h-1.4L784.7,721.4z M777.9,720.3h6.4l-2.4-6.4
			c-0.2-0.5-0.4-1.2-0.7-2.1c-0.2,0.8-0.5,1.5-0.7,2.1L777.9,720.3z"></path>
		<path class="st1 NtlHjxWU_44" d="M805.6,727.7h-1.3l-10.6-15.8h-0.1c0.1,1.9,0.1,3.3,0.1,4.3v11.6h-1.2v-17.8h1.2l10.6,15.8h0.1
			c-0.1-1.5-0.1-2.9-0.1-4.2v-11.6h1.2V727.7z"></path>
		<path class="st1 NtlHjxWU_45" d="M816.6,727.7h-1.3v-16.7h-5.8v-1.2h12.9v1.2h-5.8V727.7z"></path>
		<path class="st1 NtlHjxWU_46" d="M840.6,718.8c0,2.8-0.7,5.1-2.1,6.7c-1.4,1.6-3.4,2.5-5.9,2.5c-2.5,0-4.4-0.8-5.8-2.5
			c-1.4-1.6-2.1-3.9-2.1-6.7c0-2.8,0.7-5.1,2.1-6.7c1.4-1.6,3.4-2.4,5.9-2.4c2.5,0,4.4,0.8,5.8,2.5
			C839.9,713.7,840.6,715.9,840.6,718.8z M826,718.8c0,2.6,0.6,4.5,1.7,5.9c1.1,1.4,2.8,2.1,4.9,2.1c2.1,0,3.8-0.7,4.9-2.1
			c1.1-1.4,1.7-3.4,1.7-5.9c0-2.6-0.6-4.5-1.7-5.9c-1.1-1.4-2.8-2.1-4.9-2.1c-2.1,0-3.8,0.7-4.9,2.1
			C826.6,714.3,826,716.2,826,718.8z"></path>
		<path class="st1 NtlHjxWU_47" d="M858.7,727.7h-1.3l-10.6-15.8h-0.1c0.1,1.9,0.1,3.3,0.1,4.3v11.6h-1.2v-17.8h1.2l10.6,15.8h0.1
			c-0.1-1.5-0.1-2.9-0.1-4.2v-11.6h1.2V727.7z"></path>
		<path class="st1 NtlHjxWU_48" d="M874.4,727.7h-9.8v-17.8h9.8v1.1h-8.5v6.8h8v1.1h-8v7.7h8.5V727.7z"></path>
		<path class="st1 NtlHjxWU_49" d="M887.4,709.9h4.9c2.2,0,3.8,0.4,4.9,1.1c1,0.7,1.5,1.9,1.5,3.4c0,1-0.3,1.9-0.9,2.6c-0.6,0.7-1.6,1.1-2.8,1.3
			v0.1c1.4,0.2,2.5,0.7,3.1,1.3c0.7,0.7,1,1.6,1,2.9c0,1.6-0.5,2.9-1.6,3.8c-1.1,0.9-2.6,1.3-4.6,1.3h-5.5V709.9z M888.7,717.8h3.9
			c1.7,0,2.9-0.3,3.7-0.8c0.8-0.6,1.1-1.4,1.1-2.6c0-1.2-0.4-2.1-1.3-2.6s-2.1-0.8-3.8-0.8h-3.6V717.8z M888.7,718.9v7.7h4.2
			c3.3,0,5-1.3,5-4c0-2.4-1.7-3.7-5.2-3.7H888.7z"></path>
		<path class="st1 NtlHjxWU_50" d="M905.2,727.7H904v-19h1.2V727.7z"></path>
		<path class="st1 NtlHjxWU_51" d="M918.6,727.7l-0.3-2.1h-0.1c-0.7,0.9-1.4,1.5-2.1,1.8c-0.7,0.4-1.5,0.5-2.5,0.5c-1.3,0-2.3-0.3-3-1
			c-0.7-0.7-1.1-1.6-1.1-2.8c0-1.3,0.5-2.3,1.6-3c1.1-0.7,2.6-1.1,4.7-1.1l2.5-0.1v-0.9c0-1.3-0.3-2.2-0.8-2.9s-1.3-1-2.5-1
			c-1.2,0-2.5,0.3-3.8,1l-0.5-1c1.5-0.7,2.9-1,4.3-1c1.5,0,2.5,0.4,3.3,1.1c0.7,0.8,1.1,1.9,1.1,3.5v8.8H918.6z M913.7,726.9
			c1.4,0,2.5-0.4,3.4-1.2c0.8-0.8,1.2-1.9,1.2-3.4V721l-2.3,0.1c-1.9,0.1-3.2,0.4-4,0.9c-0.8,0.5-1.2,1.3-1.2,2.3
			c0,0.8,0.3,1.5,0.8,1.9C912.1,726.6,912.8,726.9,913.7,726.9z"></path>
		<path class="st1 NtlHjxWU_52" d="M930.1,728c-1.9,0-3.4-0.6-4.5-1.8c-1.1-1.2-1.6-2.9-1.6-5c0-2.2,0.6-3.9,1.7-5.1s2.6-1.8,4.6-1.8
			c1.1,0,2.2,0.2,3.3,0.6l-0.3,1.1c-1.1-0.4-2.1-0.6-3-0.6c-1.6,0-2.9,0.5-3.7,1.5c-0.8,1-1.3,2.5-1.3,4.3c0,1.8,0.4,3.2,1.3,4.2
			c0.8,1,2,1.5,3.5,1.5c1.2,0,2.3-0.2,3.4-0.6v1.1C932.6,727.8,931.5,728,930.1,728z"></path>
		<path class="st1 NtlHjxWU_53" d="M938.9,721.9l6.8-7.4h1.5l-5.2,5.7l5.7,7.6h-1.5l-5-6.7l-2.2,2v4.7h-1.2v-19h1.2v9.5L938.9,721.9L938.9,721.9
			z"></path>
		<path class="st1 NtlHjxWU_54" d="M966.8,710.8c-2.2,0-4,0.7-5.3,2.1c-1.3,1.4-1.9,3.4-1.9,5.9c0,2.5,0.6,4.5,1.8,5.9c1.2,1.4,2.9,2.1,5.2,2.1
			c1.5,0,2.9-0.2,4.1-0.6v1.1c-1.2,0.4-2.7,0.6-4.4,0.6c-2.5,0-4.5-0.8-5.9-2.4c-1.4-1.6-2.2-3.9-2.2-6.8c0-1.8,0.3-3.4,1-4.8
			c0.7-1.4,1.7-2.5,3-3.2c1.3-0.8,2.8-1.1,4.5-1.1c1.7,0,3.3,0.3,4.7,1l-0.5,1.1C969.6,711.1,968.2,710.8,966.8,710.8z"></path>
	</g>
	<g>
		<path class="st1 NtlHjxWU_55" d="M1174.7,691.7h-1.3V683H1163v8.8h-1.2v-17.8h1.2v7.9h10.4v-7.9h1.3V691.7z"></path>
		<path class="st1 NtlHjxWU_56" d="M1190.4,691.7h-9.8v-17.8h9.8v1.1h-8.5v6.8h8v1.1h-8v7.7h8.5V691.7z"></path>
		<path class="st1 NtlHjxWU_57" d="M1207.3,691.7h-1.4l-5.3-8.3l-5.4,8.3h-1.4l6-9.3l-5.5-8.5h1.4l4.8,7.6l4.9-7.6h1.3l-5.5,8.5L1207.3,691.7z"></path>
		<path class="st1 NtlHjxWU_58" d="M1223.5,679.5h-3.1v12.2h-1.2v-12.2h-2.5v-0.7l2.5-0.5v-1c0-1.6,0.3-2.8,0.9-3.6s1.6-1.1,2.9-1.1
			c0.7,0,1.5,0.1,2.2,0.3l-0.3,1.1c-0.7-0.2-1.3-0.3-1.9-0.3c-0.9,0-1.6,0.3-2,0.8c-0.4,0.6-0.6,1.5-0.6,2.7v1.2h3.1V679.5z
			 M1231,679.5h-3.1v12.2h-1.2v-12.2h-2.5v-0.7l2.5-0.5v-1c0-1.6,0.3-2.8,0.9-3.6c0.6-0.8,1.6-1.1,2.9-1.1c0.7,0,1.5,0.1,2.2,0.3
			l-0.3,1.1c-0.7-0.2-1.3-0.3-1.9-0.3c-0.9,0-1.6,0.3-2,0.8c-0.4,0.6-0.6,1.5-0.6,2.7v1.2h3.1V679.5z"></path>
		<path class="st1 NtlHjxWU_59" d="M1240.8,679.5h-3.1v12.2h-1.2v-12.2h-2.5v-0.7l2.5-0.5v-1c0-1.6,0.3-2.8,0.9-3.6c0.6-0.8,1.6-1.1,2.9-1.1
			c0.7,0,1.5,0.1,2.2,0.3l-0.3,1.1c-0.7-0.2-1.3-0.3-1.9-0.3c-0.9,0-1.6,0.3-2,0.8c-0.4,0.6-0.6,1.5-0.6,2.7v1.2h3.1V679.5z"></path>
		<path class="st1 NtlHjxWU_60" d="M1247.8,691.7l7.3-16.7H1245v-1.2h11.5v0.9l-7.4,17H1247.8z"></path>
		<path class="st1 NtlHjxWU_61" d="M1266.1,679.5h-3.1v12.2h-1.2v-12.2h-2.5v-0.7l2.5-0.5v-1c0-1.6,0.3-2.8,0.9-3.6s1.6-1.1,2.9-1.1
			c0.7,0,1.5,0.1,2.2,0.3l-0.3,1.1c-0.7-0.2-1.3-0.3-1.9-0.3c-0.9,0-1.6,0.3-2,0.8c-0.4,0.6-0.6,1.5-0.6,2.7v1.2h3.1V679.5z"></path>
		<path class="st1 NtlHjxWU_62" d="M1280.4,678.1c0,1.1-0.3,2-1,2.8c-0.7,0.8-1.6,1.2-2.8,1.5v0.1c1.4,0.2,2.5,0.6,3.3,1.4
			c0.7,0.7,1.1,1.7,1.1,3c0,1.7-0.6,3-1.7,3.9s-2.8,1.4-4.9,1.4c-1.8,0-3.4-0.3-4.8-1v-1.2c0.7,0.4,1.5,0.6,2.3,0.8
			c0.9,0.2,1.7,0.3,2.4,0.3c1.8,0,3.1-0.4,4.1-1.1c0.9-0.7,1.4-1.8,1.4-3.1c0-1.2-0.5-2.1-1.4-2.7s-2.3-1-4.1-1h-1.9v-1.2h2
			c1.5,0,2.7-0.4,3.5-1.1s1.3-1.7,1.3-2.9c0-1-0.4-1.8-1.1-2.4c-0.7-0.6-1.6-0.9-2.8-0.9c-0.9,0-1.7,0.1-2.4,0.4s-1.6,0.7-2.5,1.3
			l-0.6-0.8c0.7-0.6,1.5-1,2.5-1.4s2-0.5,3-0.5c1.6,0,2.9,0.4,3.8,1.2C1280,675.6,1280.4,676.7,1280.4,678.1z"></path>
		<path class="st1 NtlHjxWU_63" d="M1172.5,715c0,1.7-0.6,3-1.8,4s-2.8,1.4-5,1.4h-2.8v7.4h-1.2v-17.8h4.4C1170.4,709.9,1172.5,711.6,1172.5,715
			z M1163,719.3h2.5c2,0,3.5-0.3,4.4-1c0.9-0.7,1.3-1.7,1.3-3.2c0-1.4-0.4-2.4-1.3-3.1c-0.8-0.7-2.2-1-3.9-1h-3V719.3z"></path>
		<path class="st1 NtlHjxWU_64" d="M1184.7,721.4h-7.3l-2.5,6.3h-1.4l7.2-17.9h0.8l7,17.9h-1.4L1184.7,721.4z M1177.9,720.3h6.4l-2.4-6.4
			c-0.2-0.5-0.4-1.2-0.7-2.1c-0.2,0.8-0.5,1.5-0.7,2.1L1177.9,720.3z"></path>
		<path class="st1 NtlHjxWU_65" d="M1205.6,727.7h-1.3l-10.6-15.8h-0.1c0.1,1.9,0.1,3.3,0.1,4.3v11.6h-1.2v-17.8h1.2l10.6,15.8h0.1
			c-0.1-1.5-0.1-2.9-0.1-4.2v-11.6h1.2V727.7z"></path>
		<path class="st1 NtlHjxWU_66" d="M1216.6,727.7h-1.3v-16.7h-5.8v-1.2h12.9v1.2h-5.8V727.7z"></path>
		<path class="st1 NtlHjxWU_67" d="M1240.6,718.8c0,2.8-0.7,5.1-2.1,6.7c-1.4,1.6-3.4,2.5-5.9,2.5c-2.5,0-4.4-0.8-5.8-2.5
			c-1.4-1.6-2.1-3.9-2.1-6.7c0-2.8,0.7-5.1,2.1-6.7c1.4-1.6,3.4-2.4,5.9-2.4c2.5,0,4.4,0.8,5.8,2.5
			C1239.9,713.7,1240.6,715.9,1240.6,718.8z M1226,718.8c0,2.6,0.6,4.5,1.7,5.9c1.1,1.4,2.8,2.1,4.9,2.1c2.1,0,3.8-0.7,4.9-2.1
			c1.1-1.4,1.7-3.4,1.7-5.9c0-2.6-0.6-4.5-1.7-5.9s-2.8-2.1-4.9-2.1c-2.1,0-3.8,0.7-4.9,2.1C1226.6,714.3,1226,716.2,1226,718.8z"></path>
		<path class="st1 NtlHjxWU_68" d="M1258.7,727.7h-1.3l-10.6-15.8h-0.1c0.1,1.9,0.1,3.3,0.1,4.3v11.6h-1.2v-17.8h1.2l10.6,15.8h0.1
			c-0.1-1.5-0.1-2.9-0.1-4.2v-11.6h1.2V727.7z"></path>
		<path class="st1 NtlHjxWU_69" d="M1274.4,727.7h-9.8v-17.8h9.8v1.1h-8.5v6.8h8v1.1h-8v7.7h8.5V727.7z"></path>
		<path class="st1 NtlHjxWU_70" d="M1286.5,720.1c0-2.3,0.3-4.3,0.9-5.9c0.6-1.6,1.5-2.8,2.7-3.5c1.2-0.8,2.6-1.1,4.2-1.1c0.8,0,1.5,0.1,2.1,0.3
			v1.1c-0.6-0.2-1.3-0.3-2.1-0.3c-2,0-3.6,0.7-4.7,2.2c-1.1,1.4-1.7,3.6-1.9,6.3h0.2c0.6-0.8,1.3-1.4,2.1-1.8
			c0.8-0.4,1.6-0.6,2.5-0.6c1.7,0,3,0.5,3.9,1.4c0.9,1,1.4,2.3,1.4,3.9c0,1.8-0.5,3.3-1.5,4.3s-2.3,1.6-4,1.6
			c-1.8,0-3.2-0.7-4.3-2.1C1287,724.5,1286.5,722.6,1286.5,720.1z M1292.4,726.9c1.3,0,2.4-0.4,3.1-1.3c0.7-0.8,1.1-2,1.1-3.6
			c0-1.4-0.4-2.4-1.1-3.2c-0.7-0.8-1.7-1.1-3-1.1c-0.8,0-1.6,0.2-2.3,0.5c-0.7,0.4-1.3,0.9-1.7,1.5c-0.4,0.6-0.6,1.2-0.6,1.9
			c0,0.9,0.2,1.8,0.6,2.6s0.9,1.5,1.6,2C1290.8,726.7,1291.5,726.9,1292.4,726.9z"></path>
		<path class="st1 NtlHjxWU_71" d="M1302,720.1c0-2.3,0.3-4.3,0.9-5.9c0.6-1.6,1.5-2.8,2.7-3.5c1.2-0.8,2.6-1.1,4.2-1.1c0.8,0,1.5,0.1,2.1,0.3
			v1.1c-0.6-0.2-1.3-0.3-2.1-0.3c-2,0-3.6,0.7-4.7,2.2c-1.1,1.4-1.7,3.6-1.9,6.3h0.2c0.6-0.8,1.3-1.4,2.1-1.8
			c0.8-0.4,1.6-0.6,2.5-0.6c1.7,0,3,0.5,3.9,1.4c0.9,1,1.4,2.3,1.4,3.9c0,1.8-0.5,3.3-1.5,4.3c-1,1.1-2.3,1.6-4,1.6
			c-1.8,0-3.2-0.7-4.3-2.1S1302,722.6,1302,720.1z M1307.8,726.9c1.3,0,2.4-0.4,3.1-1.3c0.7-0.8,1.1-2,1.1-3.6
			c0-1.4-0.4-2.4-1.1-3.2c-0.7-0.8-1.7-1.1-3-1.1c-0.8,0-1.6,0.2-2.3,0.5c-0.7,0.4-1.3,0.9-1.7,1.5c-0.4,0.6-0.6,1.2-0.6,1.9
			c0,0.9,0.2,1.8,0.6,2.6c0.4,0.8,0.9,1.5,1.6,2S1307,726.9,1307.8,726.9z"></path>
		<path class="st1 NtlHjxWU_72" d="M1327.7,714.1c0,1.1-0.3,2-1,2.8c-0.7,0.8-1.6,1.2-2.8,1.5v0.1c1.4,0.2,2.5,0.6,3.3,1.4
			c0.8,0.7,1.1,1.7,1.1,3c0,1.7-0.6,3-1.7,3.9c-1.1,0.9-2.8,1.4-4.9,1.4c-1.8,0-3.4-0.3-4.7-1v-1.2c0.7,0.4,1.4,0.6,2.3,0.8
			c0.8,0.2,1.7,0.3,2.4,0.3c1.8,0,3.1-0.4,4.1-1.1c0.9-0.7,1.4-1.8,1.4-3.1c0-1.2-0.5-2.1-1.4-2.7s-2.3-1-4.1-1h-1.9v-1.2h2
			c1.5,0,2.7-0.4,3.5-1.1c0.9-0.7,1.3-1.7,1.3-2.9c0-1-0.4-1.8-1.1-2.4c-0.7-0.6-1.6-0.9-2.8-0.9c-0.9,0-1.7,0.1-2.4,0.4
			s-1.6,0.7-2.5,1.3l-0.6-0.8c0.7-0.6,1.5-1,2.5-1.4s2-0.5,3-0.5c1.6,0,2.9,0.4,3.8,1.2C1327.2,711.6,1327.7,712.7,1327.7,714.1z"></path>
		<path class="st1 NtlHjxWU_73" d="M1349.1,710.8c-2.2,0-4,0.7-5.3,2.1c-1.3,1.4-1.9,3.4-1.9,5.9c0,2.5,0.6,4.5,1.8,5.9c1.2,1.4,2.9,2.1,5.2,2.1
			c1.5,0,2.9-0.2,4.1-0.6v1.1c-1.2,0.4-2.7,0.6-4.4,0.6c-2.5,0-4.5-0.8-5.9-2.4c-1.4-1.6-2.2-3.9-2.2-6.8c0-1.8,0.3-3.4,1-4.8
			c0.7-1.4,1.7-2.5,3-3.2c1.3-0.8,2.8-1.1,4.5-1.1c1.7,0,3.3,0.3,4.7,1l-0.5,1.1C1351.9,711.1,1350.5,710.8,1349.1,710.8z"></path>
	</g>
	<g>
		<path class="st1 NtlHjxWU_74" d="M373.8,386.5c0,1.9-0.6,3.4-1.8,4.4c-1.2,1-2.9,1.5-5.1,1.5h-1.6v6.3h-3.8V381h5.7c2.2,0,3.8,0.5,4.9,1.4
			C373.2,383.3,373.8,384.7,373.8,386.5z M365.3,389.4h1.2c1.2,0,2-0.2,2.6-0.7s0.9-1.1,0.9-2c0-0.9-0.2-1.5-0.7-2
			c-0.5-0.4-1.2-0.6-2.3-0.6h-1.7V389.4z"></path>
		<path class="st1 NtlHjxWU_75" d="M385.4,384.9c0.5,0,0.9,0,1.3,0.1l-0.3,3.5c-0.3-0.1-0.7-0.1-1.1-0.1c-1.2,0-2.1,0.3-2.8,0.9
			c-0.7,0.6-1,1.5-1,2.6v6.9h-3.7v-13.6h2.8l0.5,2.3h0.2c0.4-0.8,1-1.4,1.7-1.8C383.7,385.1,384.5,384.9,385.4,384.9z"></path>
		<path class="st1 NtlHjxWU_76" d="M390,381.6c0-1.2,0.7-1.8,2-1.8c1.4,0,2,0.6,2,1.8c0,0.6-0.2,1-0.5,1.3c-0.3,0.3-0.8,0.5-1.5,0.5
			C390.6,383.5,390,382.9,390,381.6z M393.8,398.8h-3.7v-13.6h3.7V398.8z"></path>
		<path class="st1 NtlHjxWU_77" d="M410.9,398.8h-3.7v-8c0-1-0.2-1.7-0.5-2.2c-0.3-0.5-0.8-0.7-1.6-0.7c-1,0-1.6,0.4-2.1,1.1
			c-0.4,0.7-0.6,1.9-0.6,3.5v6.4h-3.7v-13.6h2.8l0.5,1.7h0.2c0.4-0.6,0.9-1.1,1.6-1.5c0.7-0.4,1.5-0.5,2.4-0.5c2,0,3.4,0.7,4.2,2
			h0.3c0.4-0.6,0.9-1.1,1.6-1.5c0.7-0.3,1.5-0.5,2.4-0.5c1.5,0,2.7,0.4,3.5,1.2c0.8,0.8,1.2,2.1,1.2,3.8v8.9h-3.7v-8
			c0-1-0.2-1.7-0.5-2.2c-0.3-0.5-0.8-0.7-1.6-0.7c-0.9,0-1.6,0.3-2,1c-0.5,0.7-0.7,1.7-0.7,3.1V398.8z"></path>
		<path class="st1 NtlHjxWU_78" d="M432.9,398.8l-0.7-1.9h-0.1c-0.6,0.8-1.3,1.3-1.9,1.6c-0.7,0.3-1.5,0.5-2.6,0.5c-1.3,0-2.3-0.4-3.1-1.1
			s-1.1-1.8-1.1-3.2c0-1.4,0.5-2.5,1.5-3.2c1-0.7,2.5-1.1,4.6-1.1l2.4-0.1v-0.6c0-1.4-0.7-2.1-2.1-2.1c-1.1,0-2.4,0.3-3.8,1
			l-1.2-2.5c1.6-0.8,3.3-1.2,5.2-1.2c1.8,0,3.2,0.4,4.2,1.2c1,0.8,1.5,2,1.5,3.6v9.1H432.9z M431.8,392.5l-1.4,0
			c-1.1,0-1.9,0.2-2.4,0.6s-0.8,0.9-0.8,1.6c0,1,0.6,1.6,1.8,1.6c0.9,0,1.6-0.2,2.1-0.7s0.8-1.2,0.8-2V392.5z"></path>
		<path class="st1 NtlHjxWU_79" d="M447.9,384.9c0.5,0,0.9,0,1.3,0.1l-0.3,3.5c-0.3-0.1-0.7-0.1-1.1-0.1c-1.2,0-2.1,0.3-2.8,0.9
			c-0.7,0.6-1,1.5-1,2.6v6.9h-3.7v-13.6h2.8l0.5,2.3h0.2c0.4-0.8,1-1.4,1.7-1.8C446.3,385.1,447.1,384.9,447.9,384.9z"></path>
		<path class="st1 NtlHjxWU_80" d="M451.7,385.2h4.1l2.6,7.7c0.2,0.7,0.4,1.5,0.5,2.4h0.1c0.1-0.8,0.3-1.6,0.5-2.4l2.5-7.7h4l-5.8,15.4
			c-0.5,1.4-1.3,2.5-2.3,3.2c-1,0.7-2.1,1.1-3.4,1.1c-0.6,0-1.3-0.1-1.9-0.2v-3c0.4,0.1,0.9,0.2,1.5,0.2c0.7,0,1.2-0.2,1.7-0.6
			c0.5-0.4,0.9-1,1.2-1.8l0.2-0.7L451.7,385.2z"></path>
		<path class="st1 NtlHjxWU_81" d="M484.7,383.9c-1.4,0-2.5,0.5-3.3,1.6c-0.8,1.1-1.2,2.6-1.2,4.5c0,4,1.5,6,4.5,6c1.3,0,2.8-0.3,4.6-0.9v3.2
			c-1.5,0.6-3.1,0.9-4.9,0.9c-2.6,0-4.6-0.8-6-2.4c-1.4-1.6-2.1-3.8-2.1-6.8c0-1.9,0.3-3.5,1-4.9s1.6-2.5,2.9-3.2
			c1.3-0.7,2.7-1.1,4.4-1.1c1.7,0,3.5,0.4,5.2,1.3l-1.2,3.1c-0.7-0.3-1.3-0.6-2-0.8S485.4,383.9,484.7,383.9z"></path>
		<path class="st1 NtlHjxWU_82" d="M506.1,392c0,2.2-0.6,4-1.8,5.2s-2.8,1.9-4.9,1.9c-1.3,0-2.5-0.3-3.5-0.9c-1-0.6-1.8-1.4-2.3-2.5
			s-0.8-2.3-0.8-3.8c0-2.2,0.6-4,1.7-5.2c1.2-1.2,2.8-1.9,4.9-1.9c1.3,0,2.5,0.3,3.5,0.9c1,0.6,1.8,1.4,2.3,2.5
			S506.1,390.5,506.1,392z M496.7,392c0,1.4,0.2,2.4,0.7,3.1c0.4,0.7,1.2,1,2.2,1c1,0,1.7-0.3,2.1-1c0.4-0.7,0.7-1.7,0.7-3.1
			c0-1.4-0.2-2.4-0.7-3s-1.2-1-2.2-1c-1,0-1.7,0.3-2.1,1C496.9,389.6,496.7,390.6,496.7,392z"></path>
		<path class="st1 NtlHjxWU_83" d="M514,398.8h-3.7v-19h3.7V398.8z"></path>
		<path class="st1 NtlHjxWU_84" d="M531.4,392c0,2.2-0.6,4-1.8,5.2s-2.8,1.9-4.9,1.9c-1.3,0-2.5-0.3-3.5-0.9c-1-0.6-1.8-1.4-2.3-2.5
			s-0.8-2.3-0.8-3.8c0-2.2,0.6-4,1.7-5.2c1.2-1.2,2.8-1.9,4.9-1.9c1.3,0,2.5,0.3,3.5,0.9c1,0.6,1.8,1.4,2.3,2.5
			S531.4,390.5,531.4,392z M522,392c0,1.4,0.2,2.4,0.7,3.1c0.4,0.7,1.2,1,2.2,1c1,0,1.7-0.3,2.1-1c0.4-0.7,0.7-1.7,0.7-3.1
			c0-1.4-0.2-2.4-0.7-3s-1.2-1-2.2-1c-1,0-1.7,0.3-2.1,1C522.2,389.6,522,390.6,522,392z"></path>
		<path class="st1 NtlHjxWU_85" d="M543.2,384.9c0.5,0,0.9,0,1.3,0.1l-0.3,3.5c-0.3-0.1-0.7-0.1-1.1-0.1c-1.2,0-2.1,0.3-2.8,0.9
			c-0.7,0.6-1,1.5-1,2.6v6.9h-3.7v-13.6h2.8l0.5,2.3h0.2c0.4-0.8,1-1.4,1.7-1.8C541.5,385.1,542.3,384.9,543.2,384.9z"></path>
		<path class="st1 NtlHjxWU_86" d="M377.3,434.8h-2.1l-3.6-12c-0.2-0.5-0.4-1.2-0.6-2c-0.2-0.8-0.3-1.3-0.3-1.5c-0.2,1.1-0.5,2.3-0.9,3.5
			l-3.5,11.9h-2.1l-4.7-17.8h2.2l2.8,11c0.4,1.5,0.7,2.9,0.9,4.2c0.2-1.5,0.5-2.9,1-4.4l3.2-10.9h2.2l3.4,11c0.4,1.3,0.7,2.7,1,4.3
			c0.2-1.2,0.4-2.6,0.9-4.2l2.8-11h2.2L377.3,434.8z"></path>
		<path class="st1 NtlHjxWU_87" d="M390.7,435.1c-2,0-3.5-0.6-4.7-1.8c-1.1-1.2-1.7-2.9-1.7-5c0-2.2,0.5-3.9,1.6-5.1c1.1-1.3,2.5-1.9,4.3-1.9
			c1.7,0,3,0.6,4,1.7s1.5,2.6,1.5,4.4v1.3h-9.2c0,1.6,0.4,2.8,1.2,3.6c0.8,0.8,1.8,1.2,3.2,1.2c1.4,0,2.9-0.3,4.3-0.9v1.8
			c-0.7,0.3-1.4,0.5-2,0.7C392.4,435,391.6,435.1,390.7,435.1z M390.2,422.9c-1.1,0-1.9,0.3-2.6,1c-0.6,0.7-1,1.7-1.1,2.9h7
			c0-1.3-0.3-2.3-0.9-2.9C392.1,423.2,391.2,422.9,390.2,422.9z"></path>
		<path class="st1 NtlHjxWU_88" d="M408.3,434.8l-0.4-1.9h-0.1c-0.7,0.8-1.3,1.4-2,1.7c-0.7,0.3-1.5,0.4-2.5,0.4c-1.3,0-2.4-0.3-3.1-1
			s-1.1-1.7-1.1-2.9c0-2.7,2.2-4.1,6.5-4.2l2.3-0.1V426c0-1.1-0.2-1.8-0.7-2.3c-0.5-0.5-1.2-0.8-2.2-0.8c-1.1,0-2.4,0.3-3.8,1
			l-0.6-1.6c0.7-0.4,1.4-0.6,2.2-0.8c0.8-0.2,1.6-0.3,2.4-0.3c1.6,0,2.8,0.4,3.5,1.1c0.8,0.7,1.2,1.8,1.2,3.4v9.1H408.3z
			 M403.7,433.4c1.3,0,2.3-0.3,3-1c0.7-0.7,1.1-1.7,1.1-2.9v-1.2l-2,0.1c-1.6,0.1-2.8,0.3-3.5,0.8c-0.7,0.4-1.1,1.1-1.1,2.1
			c0,0.7,0.2,1.3,0.7,1.7S402.9,433.4,403.7,433.4z"></path>
		<path class="st1 NtlHjxWU_89" d="M419.4,433.4c0.4,0,0.7,0,1-0.1c0.3-0.1,0.6-0.1,0.8-0.2v1.5c-0.2,0.1-0.5,0.2-1,0.3
			c-0.4,0.1-0.8,0.1-1.2,0.1c-2.6,0-3.9-1.4-3.9-4.1v-8h-1.9v-1l1.9-0.8l0.9-2.9h1.2v3.1h3.9v1.6h-3.9v7.9c0,0.8,0.2,1.4,0.6,1.9
			C418.2,433.2,418.8,433.4,419.4,433.4z"></path>
	</g>
	<g>
		<path class="st1 NtlHjxWU_90" d="M772,393.9c0,1.6-0.6,2.9-1.7,3.8c-1.2,0.9-2.8,1.4-4.8,1.4c-1.9,0-3.6-0.4-5.1-1.1v-3.5
			c1.2,0.5,2.2,0.9,3.1,1.1c0.8,0.2,1.6,0.3,2.3,0.3c0.8,0,1.5-0.2,1.9-0.5c0.4-0.3,0.7-0.8,0.7-1.4c0-0.3-0.1-0.7-0.3-0.9
			c-0.2-0.3-0.5-0.5-0.9-0.8c-0.4-0.3-1.1-0.7-2.3-1.2c-1.1-0.5-1.9-1-2.5-1.5s-1-1-1.3-1.6c-0.3-0.6-0.5-1.4-0.5-2.2
			c0-1.6,0.5-2.8,1.6-3.7s2.5-1.4,4.4-1.4c0.9,0,1.8,0.1,2.7,0.3c0.8,0.2,1.7,0.5,2.6,0.9l-1.2,2.9c-1-0.4-1.7-0.7-2.4-0.8
			c-0.6-0.2-1.2-0.2-1.8-0.2c-0.7,0-1.3,0.2-1.6,0.5c-0.4,0.3-0.6,0.8-0.6,1.3c0,0.3,0.1,0.6,0.2,0.9c0.2,0.2,0.4,0.5,0.7,0.7
			c0.3,0.2,1.1,0.6,2.4,1.3c1.7,0.8,2.8,1.6,3.4,2.4C771.7,391.7,772,392.7,772,393.9z"></path>
		<path class="st1 NtlHjxWU_91" d="M782.5,399.1c-2.2,0-3.9-0.6-5.2-1.8c-1.2-1.2-1.9-2.9-1.9-5.2c0-2.3,0.6-4.1,1.7-5.3
			c1.1-1.2,2.7-1.9,4.7-1.9c1.9,0,3.4,0.5,4.5,1.6s1.6,2.6,1.6,4.6v1.8h-8.8c0,1.1,0.4,1.9,0.9,2.5s1.4,0.9,2.5,0.9
			c0.8,0,1.6-0.1,2.3-0.3s1.5-0.4,2.3-0.8v2.9c-0.7,0.3-1.3,0.6-2.1,0.7C784.4,399,783.5,399.1,782.5,399.1z M782,387.6
			c-0.8,0-1.4,0.3-1.9,0.8c-0.4,0.5-0.7,1.2-0.8,2.1h5.2c0-0.9-0.3-1.6-0.7-2.1C783.4,387.8,782.7,387.6,782,387.6z"></path>
		<path class="st1 NtlHjxWU_92" d="M797.9,399.1c-4.2,0-6.4-2.3-6.4-7c0-2.3,0.6-4.1,1.7-5.3s2.8-1.8,5-1.8c1.6,0,3,0.3,4.2,0.9l-1.1,2.9
			c-0.6-0.2-1.1-0.4-1.6-0.6c-0.5-0.2-1-0.2-1.5-0.2c-1.9,0-2.9,1.4-2.9,4.1c0,2.7,1,4,2.9,4c0.7,0,1.4-0.1,2-0.3s1.2-0.5,1.8-0.9
			v3.2c-0.6,0.4-1.2,0.6-1.8,0.8S798.8,399.1,797.9,399.1z"></path>
		<path class="st1 NtlHjxWU_93" d="M818.5,392c0,2.2-0.6,4-1.8,5.2s-2.8,1.9-4.9,1.9c-1.3,0-2.5-0.3-3.5-0.9c-1-0.6-1.8-1.4-2.3-2.5
			s-0.8-2.3-0.8-3.8c0-2.2,0.6-4,1.7-5.2c1.2-1.2,2.8-1.9,4.9-1.9c1.3,0,2.5,0.3,3.5,0.9c1,0.6,1.8,1.4,2.3,2.5
			S818.5,390.5,818.5,392z M809.1,392c0,1.4,0.2,2.4,0.7,3.1c0.4,0.7,1.2,1,2.2,1c1,0,1.7-0.3,2.1-1c0.4-0.7,0.7-1.7,0.7-3.1
			c0-1.4-0.2-2.4-0.7-3s-1.2-1-2.2-1c-1,0-1.7,0.3-2.1,1C809.3,389.6,809.1,390.6,809.1,392z"></path>
		<path class="st1 NtlHjxWU_94" d="M835.2,398.8h-3.7v-8c0-1-0.2-1.7-0.5-2.2s-0.9-0.7-1.7-0.7c-1,0-1.8,0.3-2.3,1c-0.5,0.7-0.7,1.8-0.7,3.5v6.4
			h-3.7v-13.6h2.8l0.5,1.7h0.2c0.4-0.7,1-1.2,1.7-1.5c0.7-0.3,1.6-0.5,2.5-0.5c1.6,0,2.8,0.4,3.6,1.3c0.8,0.9,1.2,2.1,1.2,3.7V398.8
			z"></path>
		<path class="st1 NtlHjxWU_95" d="M844.5,399.1c-1.6,0-2.9-0.6-3.8-1.9c-0.9-1.2-1.4-3-1.4-5.2c0-2.2,0.5-4,1.4-5.2c0.9-1.2,2.2-1.9,3.9-1.9
			c1.7,0,3,0.7,3.9,2h0.1c-0.2-1-0.3-1.9-0.3-2.7v-4.4h3.7v19h-2.9l-0.7-1.8h-0.2C847.5,398.4,846.2,399.1,844.5,399.1z
			 M845.8,396.1c1,0,1.7-0.3,2.1-0.8c0.4-0.6,0.7-1.5,0.7-2.8V392c0-1.5-0.2-2.5-0.7-3.1c-0.5-0.6-1.2-1-2.2-1
			c-0.8,0-1.5,0.4-1.9,1.1c-0.5,0.7-0.7,1.7-0.7,3.1c0,1.3,0.2,2.3,0.7,3C844.3,395.8,844.9,396.1,845.8,396.1z"></path>
		<path class="st1 NtlHjxWU_96" d="M865.6,398.8l-0.7-1.9h-0.1c-0.6,0.8-1.3,1.3-1.9,1.6c-0.7,0.3-1.5,0.5-2.6,0.5c-1.3,0-2.3-0.4-3.1-1.1
			s-1.1-1.8-1.1-3.2c0-1.4,0.5-2.5,1.5-3.2c1-0.7,2.5-1.1,4.6-1.1l2.4-0.1v-0.6c0-1.4-0.7-2.1-2.1-2.1c-1.1,0-2.4,0.3-3.8,1
			l-1.2-2.5c1.6-0.8,3.3-1.2,5.2-1.2c1.8,0,3.2,0.4,4.2,1.2c1,0.8,1.5,2,1.5,3.6v9.1H865.6z M864.5,392.5l-1.4,0
			c-1.1,0-1.9,0.2-2.4,0.6s-0.8,0.9-0.8,1.6c0,1,0.6,1.6,1.8,1.6c0.9,0,1.6-0.2,2.1-0.7s0.8-1.2,0.8-2V392.5z"></path>
		<path class="st1 NtlHjxWU_97" d="M880.7,384.9c0.5,0,0.9,0,1.3,0.1l-0.3,3.5c-0.3-0.1-0.7-0.1-1.1-0.1c-1.2,0-2.1,0.3-2.8,0.9
			c-0.7,0.6-1,1.5-1,2.6v6.9H873v-13.6h2.8l0.5,2.3h0.2c0.4-0.8,1-1.4,1.7-1.8C879,385.1,879.8,384.9,880.7,384.9z"></path>
		<path class="st1 NtlHjxWU_98" d="M884.4,385.2h4.1l2.6,7.7c0.2,0.7,0.4,1.5,0.5,2.4h0.1c0.1-0.8,0.3-1.6,0.5-2.4l2.5-7.7h4l-5.8,15.4
			c-0.5,1.4-1.3,2.5-2.3,3.2c-1,0.7-2.1,1.1-3.4,1.1c-0.6,0-1.3-0.1-1.9-0.2v-3c0.4,0.1,0.9,0.2,1.5,0.2c0.7,0,1.2-0.2,1.7-0.6
			c0.5-0.4,0.9-1,1.2-1.8l0.2-0.7L884.4,385.2z"></path>
		<path class="st1 NtlHjxWU_99" d="M917.5,383.9c-1.4,0-2.5,0.5-3.3,1.6c-0.8,1.1-1.2,2.6-1.2,4.5c0,4,1.5,6,4.5,6c1.3,0,2.8-0.3,4.6-0.9v3.2
			c-1.5,0.6-3.1,0.9-4.9,0.9c-2.6,0-4.6-0.8-6-2.4c-1.4-1.6-2.1-3.8-2.1-6.8c0-1.9,0.3-3.5,1-4.9s1.6-2.5,2.9-3.2
			c1.3-0.7,2.7-1.1,4.4-1.1c1.7,0,3.5,0.4,5.2,1.3l-1.2,3.1c-0.7-0.3-1.3-0.6-2-0.8S918.1,383.9,917.5,383.9z"></path>
		<path class="st1 NtlHjxWU_100" d="M938.9,392c0,2.2-0.6,4-1.8,5.2s-2.8,1.9-4.9,1.9c-1.3,0-2.5-0.3-3.5-0.9c-1-0.6-1.8-1.4-2.3-2.5
			s-0.8-2.3-0.8-3.8c0-2.2,0.6-4,1.7-5.2c1.2-1.2,2.8-1.9,4.9-1.9c1.3,0,2.5,0.3,3.5,0.9c1,0.6,1.8,1.4,2.3,2.5
			S938.9,390.5,938.9,392z M929.4,392c0,1.4,0.2,2.4,0.7,3.1c0.4,0.7,1.2,1,2.2,1c1,0,1.7-0.3,2.1-1c0.4-0.7,0.7-1.7,0.7-3.1
			c0-1.4-0.2-2.4-0.7-3s-1.2-1-2.2-1c-1,0-1.7,0.3-2.1,1C929.6,389.6,929.4,390.6,929.4,392z"></path>
		<path class="st1 NtlHjxWU_101" d="M946.7,398.8H943v-19h3.7V398.8z"></path>
		<path class="st1 NtlHjxWU_102" d="M964.1,392c0,2.2-0.6,4-1.8,5.2s-2.8,1.9-4.9,1.9c-1.3,0-2.5-0.3-3.5-0.9c-1-0.6-1.8-1.4-2.3-2.5
			s-0.8-2.3-0.8-3.8c0-2.2,0.6-4,1.7-5.2c1.2-1.2,2.8-1.9,4.9-1.9c1.3,0,2.5,0.3,3.5,0.9c1,0.6,1.8,1.4,2.3,2.5
			S964.1,390.5,964.1,392z M954.7,392c0,1.4,0.2,2.4,0.7,3.1c0.4,0.7,1.2,1,2.2,1c1,0,1.7-0.3,2.1-1c0.4-0.7,0.7-1.7,0.7-3.1
			c0-1.4-0.2-2.4-0.7-3s-1.2-1-2.2-1c-1,0-1.7,0.3-2.1,1C954.9,389.6,954.7,390.6,954.7,392z"></path>
		<path class="st1 NtlHjxWU_103" d="M975.9,384.9c0.5,0,0.9,0,1.3,0.1l-0.3,3.5c-0.3-0.1-0.7-0.1-1.1-0.1c-1.2,0-2.1,0.3-2.8,0.9
			c-0.7,0.6-1,1.5-1,2.6v6.9h-3.7v-13.6h2.8l0.5,2.3h0.2c0.4-0.8,1-1.4,1.7-1.8C974.3,385.1,975.1,384.9,975.9,384.9z"></path>
		<path class="st1 NtlHjxWU_104" d="M990.5,394.8c0,1.4-0.5,2.5-1.5,3.2s-2.4,1.1-4.4,1.1c-1,0-1.8-0.1-2.5-0.2c-0.7-0.1-1.4-0.3-2-0.6v-3.1
			c0.7,0.3,1.5,0.6,2.3,0.8c0.9,0.2,1.6,0.3,2.3,0.3c1.4,0,2-0.4,2-1.2c0-0.3-0.1-0.5-0.3-0.7c-0.2-0.2-0.5-0.4-0.9-0.6
			c-0.4-0.2-1-0.5-1.8-0.8c-1-0.4-1.8-0.8-2.3-1.2c-0.5-0.4-0.8-0.8-1.1-1.3s-0.3-1.1-0.3-1.8c0-1.2,0.5-2.1,1.4-2.8
			c0.9-0.7,2.3-1,4-1c1.6,0,3.2,0.4,4.8,1.1l-1.1,2.7c-0.7-0.3-1.3-0.5-1.9-0.7s-1.2-0.3-1.8-0.3c-1.1,0-1.6,0.3-1.6,0.9
			c0,0.3,0.2,0.6,0.5,0.9s1.1,0.6,2.3,1.1c1.1,0.4,1.8,0.8,2.3,1.2c0.5,0.4,0.9,0.8,1.1,1.3S990.5,394.1,990.5,394.8z"></path>
		<path class="st1 NtlHjxWU_105" d="M777.3,434.8h-2.1l-3.6-12c-0.2-0.5-0.4-1.2-0.6-2c-0.2-0.8-0.3-1.3-0.3-1.5c-0.2,1.1-0.5,2.3-0.9,3.5
			l-3.5,11.9h-2.1l-4.7-17.8h2.2l2.8,11c0.4,1.5,0.7,2.9,0.9,4.2c0.2-1.5,0.5-2.9,1-4.4l3.2-10.9h2.2l3.4,11c0.4,1.3,0.7,2.7,1,4.3
			c0.2-1.2,0.4-2.6,0.9-4.2l2.8-11h2.2L777.3,434.8z"></path>
		<path class="st1 NtlHjxWU_106" d="M796.6,428.1c0,2.2-0.5,3.9-1.6,5.1c-1.1,1.2-2.6,1.8-4.6,1.8c-1.2,0-2.3-0.3-3.2-0.8
			c-0.9-0.6-1.6-1.4-2.1-2.4c-0.5-1-0.8-2.3-0.8-3.7c0-2.2,0.5-3.9,1.6-5.1c1.1-1.2,2.6-1.8,4.5-1.8c1.9,0,3.4,0.6,4.5,1.9
			C796.1,424.3,796.6,426,796.6,428.1z M786.4,428.1c0,1.7,0.3,3,1,3.9c0.7,0.9,1.7,1.3,3,1.3s2.3-0.4,3-1.3c0.7-0.9,1-2.2,1-3.9
			c0-1.7-0.3-3-1-3.9c-0.7-0.9-1.7-1.3-3-1.3c-1.3,0-2.3,0.4-3,1.3S786.4,426.4,786.4,428.1z"></path>
		<path class="st1 NtlHjxWU_107" d="M812.9,428.1c0,2.2-0.5,3.9-1.6,5.1c-1.1,1.2-2.6,1.8-4.6,1.8c-1.2,0-2.3-0.3-3.2-0.8
			c-0.9-0.6-1.6-1.4-2.1-2.4c-0.5-1-0.8-2.3-0.8-3.7c0-2.2,0.5-3.9,1.6-5.1c1.1-1.2,2.6-1.8,4.5-1.8c1.9,0,3.4,0.6,4.5,1.9
			C812.3,424.3,812.9,426,812.9,428.1z M802.7,428.1c0,1.7,0.3,3,1,3.9c0.7,0.9,1.7,1.3,3,1.3s2.3-0.4,3-1.3c0.7-0.9,1-2.2,1-3.9
			c0-1.7-0.3-3-1-3.9c-0.7-0.9-1.7-1.3-3-1.3c-1.3,0-2.3,0.4-3,1.3S802.7,426.4,802.7,428.1z"></path>
		<path class="st1 NtlHjxWU_108" d="M826.6,433h-0.1c-0.9,1.4-2.3,2-4.2,2c-1.7,0-3.1-0.6-4.1-1.8c-1-1.2-1.5-2.9-1.5-5.1c0-2.2,0.5-3.9,1.5-5.1
			s2.3-1.8,4.1-1.8c1.8,0,3.2,0.7,4.2,2h0.2l-0.1-1l0-0.9v-5.4h2v19h-1.6L826.6,433z M822.6,433.4c1.4,0,2.4-0.4,3-1.1
			c0.6-0.8,0.9-2,0.9-3.6v-0.4c0-1.9-0.3-3.2-0.9-4.1c-0.6-0.8-1.6-1.2-3-1.2c-1.2,0-2.1,0.5-2.7,1.4c-0.6,0.9-0.9,2.2-0.9,3.9
			c0,1.7,0.3,3,0.9,3.9S821.4,433.4,822.6,433.4z"></path>
		<path class="st1 NtlHjxWU_109" d="M842.5,431.2c0,1.2-0.5,2.2-1.4,2.9c-0.9,0.7-2.2,1-3.9,1c-1.8,0-3.2-0.3-4.2-0.8v-1.9
			c0.6,0.3,1.3,0.6,2.1,0.8s1.4,0.3,2.1,0.3c1.1,0,1.9-0.2,2.4-0.5c0.6-0.3,0.9-0.9,0.9-1.5c0-0.5-0.2-1-0.7-1.3
			c-0.5-0.4-1.3-0.8-2.6-1.3c-1.2-0.5-2.1-0.9-2.7-1.2c-0.5-0.3-0.9-0.7-1.2-1.2c-0.3-0.4-0.4-1-0.4-1.6c0-1.1,0.4-2,1.3-2.6
			c0.9-0.6,2.1-0.9,3.6-0.9c1.4,0,2.8,0.3,4.2,0.9l-0.7,1.6c-1.3-0.6-2.6-0.8-3.6-0.8c-1,0-1.7,0.2-2.2,0.5s-0.7,0.7-0.7,1.2
			c0,0.4,0.1,0.7,0.3,0.9c0.2,0.3,0.5,0.5,0.9,0.7c0.4,0.2,1.2,0.6,2.3,1c1.6,0.6,2.7,1.2,3.2,1.7S842.5,430.3,842.5,431.2z"></path>
		<path class="st1 NtlHjxWU_110" d="M863.8,434.8v-8.7c0-1.1-0.2-1.9-0.7-2.4c-0.5-0.5-1.2-0.8-2.1-0.8c-1.3,0-2.2,0.4-2.8,1.1s-0.9,1.8-0.9,3.3
			v7.5h-2v-8.7c0-1.1-0.2-1.9-0.7-2.4c-0.5-0.5-1.2-0.8-2.1-0.8c-1.3,0-2.2,0.4-2.8,1.1c-0.6,0.8-0.9,2-0.9,3.7v7h-2v-13.4h1.6
			l0.3,1.8h0.1c0.4-0.7,0.9-1.2,1.6-1.5c0.7-0.4,1.5-0.5,2.3-0.5c2.1,0,3.5,0.8,4.1,2.3h0.1c0.4-0.7,1-1.3,1.7-1.7s1.6-0.6,2.6-0.6
			c1.5,0,2.6,0.4,3.4,1.2s1.1,2,1.1,3.7v8.7H863.8z"></path>
		<path class="st1 NtlHjxWU_111" d="M882.6,428.1c0,2.2-0.5,3.9-1.6,5.1c-1.1,1.2-2.6,1.8-4.6,1.8c-1.2,0-2.3-0.3-3.2-0.8
			c-0.9-0.6-1.6-1.4-2.1-2.4c-0.5-1-0.8-2.3-0.8-3.7c0-2.2,0.5-3.9,1.6-5.1c1.1-1.2,2.6-1.8,4.5-1.8c1.9,0,3.4,0.6,4.5,1.9
			C882.1,424.3,882.6,426,882.6,428.1z M872.4,428.1c0,1.7,0.3,3,1,3.9c0.7,0.9,1.7,1.3,3,1.3s2.3-0.4,3-1.3c0.7-0.9,1-2.2,1-3.9
			c0-1.7-0.3-3-1-3.9c-0.7-0.9-1.7-1.3-3-1.3c-1.3,0-2.3,0.4-3,1.3S872.4,426.4,872.4,428.1z"></path>
		<path class="st1 NtlHjxWU_112" d="M889.2,428c0.3-0.5,0.9-1.1,1.6-2l4.3-4.6h2.4l-5.4,5.7l5.8,7.7h-2.5l-4.7-6.3l-1.5,1.3v5h-2v-19h2v10.1
			C889.2,426.3,889.2,427,889.2,428L889.2,428z"></path>
		<path class="st1 NtlHjxWU_113" d="M906.4,435.1c-2,0-3.5-0.6-4.7-1.8c-1.1-1.2-1.7-2.9-1.7-5c0-2.2,0.5-3.9,1.6-5.1c1.1-1.3,2.5-1.9,4.3-1.9
			c1.7,0,3,0.6,4,1.7s1.5,2.6,1.5,4.4v1.3h-9.2c0,1.6,0.4,2.8,1.2,3.6c0.8,0.8,1.8,1.2,3.2,1.2c1.4,0,2.9-0.3,4.3-0.9v1.8
			c-0.7,0.3-1.4,0.5-2,0.7C908.1,435,907.3,435.1,906.4,435.1z M905.9,422.9c-1.1,0-1.9,0.3-2.6,1c-0.6,0.7-1,1.7-1.1,2.9h7
			c0-1.3-0.3-2.3-0.9-2.9C907.7,423.2,906.9,422.9,905.9,422.9z"></path>
	</g>
	<g>
		<path class="st1 NtlHjxWU_114" d="M1171.7,430c0,1.6-0.6,2.8-1.7,3.7c-1.1,0.9-2.7,1.3-4.6,1.3c-2.1,0-3.7-0.3-4.9-0.8v-2
			c0.7,0.3,1.5,0.6,2.4,0.7c0.9,0.2,1.7,0.3,2.6,0.3c1.4,0,2.4-0.3,3.1-0.8c0.7-0.5,1-1.3,1-2.2c0-0.6-0.1-1.1-0.4-1.5
			c-0.3-0.4-0.7-0.8-1.2-1.1c-0.6-0.3-1.5-0.7-2.7-1.1c-1.7-0.6-2.8-1.3-3.6-2.1c-0.7-0.8-1.1-1.9-1.1-3.2c0-1.4,0.5-2.5,1.6-3.3
			c1-0.8,2.4-1.2,4.1-1.2c1.8,0,3.4,0.3,4.9,1l-0.6,1.8c-1.5-0.6-2.9-0.9-4.3-0.9c-1.1,0-2,0.2-2.6,0.7c-0.6,0.5-0.9,1.1-0.9,2
			c0,0.6,0.1,1.1,0.3,1.5c0.2,0.4,0.6,0.8,1.2,1.1c0.5,0.3,1.4,0.7,2.5,1.1c1.9,0.7,3.2,1.4,3.9,2.1
			C1171.4,427.8,1171.7,428.8,1171.7,430z"></path>
		<path class="st1 NtlHjxWU_115" d="M1182,435c-2,0-3.5-0.6-4.7-1.8s-1.7-2.9-1.7-5c0-2.2,0.5-3.9,1.6-5.1c1.1-1.3,2.5-1.9,4.3-1.9
			c1.7,0,3,0.6,4,1.7s1.5,2.6,1.5,4.4v1.3h-9.2c0,1.6,0.4,2.8,1.2,3.6c0.8,0.8,1.8,1.2,3.2,1.2c1.4,0,2.9-0.3,4.3-0.9v1.8
			c-0.7,0.3-1.4,0.5-2,0.7C1183.7,434.9,1182.9,435,1182,435z M1181.5,422.8c-1.1,0-1.9,0.3-2.6,1c-0.6,0.7-1,1.7-1.1,2.9h7
			c0-1.3-0.3-2.3-0.9-2.9C1183.3,423.1,1182.5,422.8,1181.5,422.8z"></path>
		<path class="st1 NtlHjxWU_116" d="M1199.6,434.7l-0.4-1.9h-0.1c-0.7,0.8-1.3,1.4-2,1.7s-1.5,0.4-2.5,0.4c-1.3,0-2.4-0.3-3.1-1
			c-0.8-0.7-1.1-1.7-1.1-2.9c0-2.7,2.2-4.1,6.5-4.2l2.3-0.1v-0.8c0-1.1-0.2-1.8-0.7-2.3c-0.5-0.5-1.2-0.8-2.2-0.8
			c-1.1,0-2.4,0.3-3.8,1l-0.6-1.6c0.7-0.4,1.4-0.6,2.2-0.8c0.8-0.2,1.6-0.3,2.4-0.3c1.6,0,2.8,0.4,3.5,1.1c0.8,0.7,1.2,1.8,1.2,3.4
			v9.1H1199.6z M1195,433.3c1.3,0,2.3-0.3,3-1c0.7-0.7,1.1-1.7,1.1-2.9v-1.2l-2,0.1c-1.6,0.1-2.8,0.3-3.5,0.8
			c-0.7,0.4-1.1,1.1-1.1,2.1c0,0.7,0.2,1.3,0.7,1.7S1194.2,433.3,1195,433.3z"></path>
		<path class="st1 NtlHjxWU_117" d="M1214.9,431.1c0,1.2-0.5,2.2-1.4,2.9c-0.9,0.7-2.2,1-3.9,1c-1.8,0-3.2-0.3-4.2-0.8v-1.9
			c0.6,0.3,1.3,0.6,2.1,0.8s1.4,0.3,2.1,0.3c1.1,0,1.9-0.2,2.4-0.5c0.6-0.3,0.9-0.9,0.9-1.5c0-0.5-0.2-1-0.7-1.3s-1.3-0.8-2.6-1.3
			c-1.2-0.5-2.1-0.9-2.7-1.2c-0.5-0.3-0.9-0.7-1.2-1.2c-0.3-0.4-0.4-1-0.4-1.6c0-1.1,0.4-2,1.3-2.6s2.1-0.9,3.7-0.9
			c1.4,0,2.8,0.3,4.2,0.9l-0.7,1.6c-1.3-0.6-2.6-0.8-3.6-0.8c-1,0-1.7,0.2-2.2,0.5s-0.7,0.7-0.7,1.2c0,0.4,0.1,0.7,0.3,0.9
			c0.2,0.3,0.5,0.5,0.9,0.7s1.2,0.6,2.3,1c1.6,0.6,2.7,1.2,3.2,1.7C1214.6,429.5,1214.9,430.2,1214.9,431.1z"></path>
		<path class="st1 NtlHjxWU_118" d="M1228.3,434.7v-8.7c0-1.1-0.2-1.9-0.7-2.4s-1.3-0.8-2.3-0.8c-1.4,0-2.4,0.4-3.1,1.1c-0.6,0.8-1,2-1,3.8v7h-2
			v-19h2v5.8c0,0.7,0,1.3-0.1,1.7h0.1c0.4-0.6,1-1.1,1.7-1.5c0.7-0.4,1.6-0.6,2.5-0.6c1.6,0,2.9,0.4,3.7,1.2c0.8,0.8,1.2,2,1.2,3.7
			v8.7H1228.3z"></path>
		<path class="st1 NtlHjxWU_119" d="M1241.2,435c-2,0-3.5-0.6-4.7-1.8c-1.1-1.2-1.7-2.9-1.7-5c0-2.2,0.5-3.9,1.6-5.1s2.5-1.9,4.3-1.9
			c1.7,0,3,0.6,4,1.7s1.5,2.6,1.5,4.4v1.3h-9.2c0,1.6,0.4,2.8,1.2,3.6c0.8,0.8,1.8,1.2,3.2,1.2c1.4,0,2.9-0.3,4.3-0.9v1.8
			c-0.7,0.3-1.4,0.5-2,0.7C1242.9,434.9,1242.1,435,1241.2,435z M1240.6,422.8c-1.1,0-1.9,0.3-2.6,1c-0.6,0.7-1,1.7-1.1,2.9h7
			c0-1.3-0.3-2.3-0.9-2.9C1242.5,423.1,1241.7,422.8,1240.6,422.8z"></path>
		<path class="st1 NtlHjxWU_120" d="M1252.7,434.7h-2v-19h2V434.7z"></path>
		<path class="st1 NtlHjxWU_121" d="M1259.9,434.7h-2v-19h2V434.7z"></path>
	</g>
</g>
<g id="strokes">
	<path class="st2 NtlHjxWU_122" d="M359,554L759,554"></path>
	<path class="st3 NtlHjxWU_123" d="M759,554L1159,554"></path>
	<path class="st4 NtlHjxWU_124" d="M1159,554L1559,554"></path>
</g>
<style>.NtlHjxWU_0{stroke-dasharray:6000 6002;stroke-dashoffset:6001;animation:NtlHjxWU_draw_0 2200ms ease-in-out 0ms infinite,NtlHjxWU_fade 2200ms linear 0ms infinite;}.NtlHjxWU_1{stroke-dasharray:95 97;stroke-dashoffset:96;animation:NtlHjxWU_draw_1 2200ms ease-in-out 0ms infinite,NtlHjxWU_fade 2200ms linear 0ms infinite;}.NtlHjxWU_2{stroke-dasharray:89 91;stroke-dashoffset:90;animation:NtlHjxWU_draw_2 2200ms ease-in-out 0ms infinite,NtlHjxWU_fade 2200ms linear 0ms infinite;}.NtlHjxWU_3{stroke-dasharray:86 88;stroke-dashoffset:87;animation:NtlHjxWU_draw_3 2200ms ease-in-out 0ms infinite,NtlHjxWU_fade 2200ms linear 0ms infinite;}.NtlHjxWU_4{stroke-dasharray:59 61;stroke-dashoffset:60;animation:NtlHjxWU_draw_4 2200ms ease-in-out 0ms infinite,NtlHjxWU_fade 2200ms linear 0ms infinite;}.NtlHjxWU_5{stroke-dasharray:84 86;stroke-dashoffset:85;animation:NtlHjxWU_draw_5 2200ms ease-in-out 0ms infinite,NtlHjxWU_fade 2200ms linear 0ms infinite;}.NtlHjxWU_6{stroke-dasharray:54 56;stroke-dashoffset:55;animation:NtlHjxWU_draw_6 2200ms ease-in-out 0ms infinite,NtlHjxWU_fade 2200ms linear 0ms infinite;}.NtlHjxWU_7{stroke-dasharray:59 61;stroke-dashoffset:60;animation:NtlHjxWU_draw_7 2200ms ease-in-out 0ms infinite,NtlHjxWU_fade 2200ms linear 0ms infinite;}.NtlHjxWU_8{stroke-dasharray:95 97;stroke-dashoffset:96;animation:NtlHjxWU_draw_8 2200ms ease-in-out 0ms infinite,NtlHjxWU_fade 2200ms linear 0ms infinite;}.NtlHjxWU_9{stroke-dasharray:50 52;stroke-dashoffset:51;animation:NtlHjxWU_draw_9 2200ms ease-in-out 0ms infinite,NtlHjxWU_fade 2200ms linear 0ms infinite;}.NtlHjxWU_10{stroke-dasharray:83 85;stroke-dashoffset:84;animation:NtlHjxWU_draw_10 2200ms ease-in-out 0ms infinite,NtlHjxWU_fade 2200ms linear 0ms infinite;}.NtlHjxWU_11{stroke-dasharray:88 90;stroke-dashoffset:89;animation:NtlHjxWU_draw_11 2200ms ease-in-out 0ms infinite,NtlHjxWU_fade 2200ms linear 0ms infinite;}.NtlHjxWU_12{stroke-dasharray:111 113;stroke-dashoffset:112;animation:NtlHjxWU_draw_12 2200ms ease-in-out 0ms infinite,NtlHjxWU_fade 2200ms linear 0ms infinite;}.NtlHjxWU_13{stroke-dasharray:62 64;stroke-dashoffset:63;animation:NtlHjxWU_draw_13 2200ms ease-in-out 0ms infinite,NtlHjxWU_fade 2200ms linear 0ms infinite;}.NtlHjxWU_14{stroke-dasharray:103 105;stroke-dashoffset:104;animation:NtlHjxWU_draw_14 2200ms ease-in-out 0ms infinite,NtlHjxWU_fade 2200ms linear 0ms infinite;}.NtlHjxWU_15{stroke-dasharray:111 113;stroke-dashoffset:112;animation:NtlHjxWU_draw_15 2200ms ease-in-out 0ms infinite,NtlHjxWU_fade 2200ms linear 0ms infinite;}.NtlHjxWU_16{stroke-dasharray:89 91;stroke-dashoffset:90;animation:NtlHjxWU_draw_16 2200ms ease-in-out 0ms infinite,NtlHjxWU_fade 2200ms linear 0ms infinite;}.NtlHjxWU_17{stroke-dasharray:90 92;stroke-dashoffset:91;animation:NtlHjxWU_draw_17 2200ms ease-in-out 0ms infinite,NtlHjxWU_fade 2200ms linear 0ms infinite;}.NtlHjxWU_18{stroke-dasharray:62 64;stroke-dashoffset:63;animation:NtlHjxWU_draw_18 2200ms ease-in-out 0ms infinite,NtlHjxWU_fade 2200ms linear 0ms infinite;}.NtlHjxWU_19{stroke-dasharray:84 86;stroke-dashoffset:85;animation:NtlHjxWU_draw_19 2200ms ease-in-out 0ms infinite,NtlHjxWU_fade 2200ms linear 0ms infinite;}.NtlHjxWU_20{stroke-dasharray:73 75;stroke-dashoffset:74;animation:NtlHjxWU_draw_20 2200ms ease-in-out 0ms infinite,NtlHjxWU_fade 2200ms linear 0ms infinite;}.NtlHjxWU_21{stroke-dasharray:92 94;stroke-dashoffset:93;animation:NtlHjxWU_draw_21 2200ms ease-in-out 0ms infinite,NtlHjxWU_fade 2200ms linear 0ms infinite;}.NtlHjxWU_22{stroke-dasharray:47 49;stroke-dashoffset:48;animation:NtlHjxWU_draw_22 2200ms ease-in-out 0ms infinite,NtlHjxWU_fade 2200ms linear 0ms infinite;}.NtlHjxWU_23{stroke-dasharray:110 112;stroke-dashoffset:111;animation:NtlHjxWU_draw_23 2200ms ease-in-out 0ms infinite,NtlHjxWU_fade 2200ms linear 0ms infinite;}.NtlHjxWU_24{stroke-dasharray:47 49;stroke-dashoffset:48;animation:NtlHjxWU_draw_24 2200ms ease-in-out 0ms infinite,NtlHjxWU_fade 2200ms linear 0ms infinite;}.NtlHjxWU_25{stroke-dasharray:57 59;stroke-dashoffset:58;animation:NtlHjxWU_draw_25 2200ms ease-in-out 0ms infinite,NtlHjxWU_fade 2200ms linear 0ms infinite;}.NtlHjxWU_26{stroke-dasharray:76 78;stroke-dashoffset:77;animation:NtlHjxWU_draw_26 2200ms ease-in-out 0ms infinite,NtlHjxWU_fade 2200ms linear 0ms infinite;}.NtlHjxWU_27{stroke-dasharray:46 48;stroke-dashoffset:47;animation:NtlHjxWU_draw_27 2200ms ease-in-out 0ms infinite,NtlHjxWU_fade 2200ms linear 0ms infinite;}.NtlHjxWU_28{stroke-dasharray:74 76;stroke-dashoffset:75;animation:NtlHjxWU_draw_28 2200ms ease-in-out 0ms infinite,NtlHjxWU_fade 2200ms linear 0ms infinite;}.NtlHjxWU_29{stroke-dasharray:47 49;stroke-dashoffset:48;animation:NtlHjxWU_draw_29 2200ms ease-in-out 0ms infinite,NtlHjxWU_fade 2200ms linear 0ms infinite;}.NtlHjxWU_30{stroke-dasharray:47 49;stroke-dashoffset:48;animation:NtlHjxWU_draw_30 2200ms ease-in-out 0ms infinite,NtlHjxWU_fade 2200ms linear 0ms infinite;}.NtlHjxWU_31{stroke-dasharray:73 75;stroke-dashoffset:74;animation:NtlHjxWU_draw_31 2200ms ease-in-out 0ms infinite,NtlHjxWU_fade 2200ms linear 0ms infinite;}.NtlHjxWU_32{stroke-dasharray:57 59;stroke-dashoffset:58;animation:NtlHjxWU_draw_32 2200ms ease-in-out 0ms infinite,NtlHjxWU_fade 2200ms linear 0ms infinite;}.NtlHjxWU_33{stroke-dasharray:95 97;stroke-dashoffset:96;animation:NtlHjxWU_draw_33 2200ms ease-in-out 0ms infinite,NtlHjxWU_fade 2200ms linear 0ms infinite;}.NtlHjxWU_34{stroke-dasharray:89 91;stroke-dashoffset:90;animation:NtlHjxWU_draw_34 2200ms ease-in-out 0ms infinite,NtlHjxWU_fade 2200ms linear 0ms infinite;}.NtlHjxWU_35{stroke-dasharray:86 88;stroke-dashoffset:87;animation:NtlHjxWU_draw_35 2200ms ease-in-out 0ms infinite,NtlHjxWU_fade 2200ms linear 0ms infinite;}.NtlHjxWU_36{stroke-dasharray:50 52;stroke-dashoffset:51;animation:NtlHjxWU_draw_36 2200ms ease-in-out 0ms infinite,NtlHjxWU_fade 2200ms linear 0ms infinite;}.NtlHjxWU_37{stroke-dasharray:90 92;stroke-dashoffset:91;animation:NtlHjxWU_draw_37 2200ms ease-in-out 0ms infinite,NtlHjxWU_fade 2200ms linear 0ms infinite;}.NtlHjxWU_38{stroke-dasharray:50 52;stroke-dashoffset:51;animation:NtlHjxWU_draw_38 2200ms ease-in-out 0ms infinite,NtlHjxWU_fade 2200ms linear 0ms infinite;}.NtlHjxWU_39{stroke-dasharray:84 86;stroke-dashoffset:85;animation:NtlHjxWU_draw_39 2200ms ease-in-out 0ms infinite,NtlHjxWU_fade 2200ms linear 0ms infinite;}.NtlHjxWU_40{stroke-dasharray:50 52;stroke-dashoffset:51;animation:NtlHjxWU_draw_40 2200ms ease-in-out 0ms infinite,NtlHjxWU_fade 2200ms linear 0ms infinite;}.NtlHjxWU_41{stroke-dasharray:84 86;stroke-dashoffset:85;animation:NtlHjxWU_draw_41 2200ms ease-in-out 0ms infinite,NtlHjxWU_fade 2200ms linear 0ms infinite;}.NtlHjxWU_42{stroke-dasharray:83 85;stroke-dashoffset:84;animation:NtlHjxWU_draw_42 2200ms ease-in-out 0ms infinite,NtlHjxWU_fade 2200ms linear 0ms infinite;}.NtlHjxWU_43{stroke-dasharray:88 90;stroke-dashoffset:89;animation:NtlHjxWU_draw_43 2200ms ease-in-out 0ms infinite,NtlHjxWU_fade 2200ms linear 0ms infinite;}.NtlHjxWU_44{stroke-dasharray:111 113;stroke-dashoffset:112;animation:NtlHjxWU_draw_44 2200ms ease-in-out 0ms infinite,NtlHjxWU_fade 2200ms linear 0ms infinite;}.NtlHjxWU_45{stroke-dasharray:62 64;stroke-dashoffset:63;animation:NtlHjxWU_draw_45 2200ms ease-in-out 0ms infinite,NtlHjxWU_fade 2200ms linear 0ms infinite;}.NtlHjxWU_46{stroke-dasharray:103 105;stroke-dashoffset:104;animation:NtlHjxWU_draw_46 2200ms ease-in-out 0ms infinite,NtlHjxWU_fade 2200ms linear 0ms infinite;}.NtlHjxWU_47{stroke-dasharray:111 113;stroke-dashoffset:112;animation:NtlHjxWU_draw_47 2200ms ease-in-out 0ms infinite,NtlHjxWU_fade 2200ms linear 0ms infinite;}.NtlHjxWU_48{stroke-dasharray:89 91;stroke-dashoffset:90;animation:NtlHjxWU_draw_48 2200ms ease-in-out 0ms infinite,NtlHjxWU_fade 2200ms linear 0ms infinite;}.NtlHjxWU_49{stroke-dasharray:118 120;stroke-dashoffset:119;animation:NtlHjxWU_draw_49 2200ms ease-in-out 0ms infinite,NtlHjxWU_fade 2200ms linear 0ms infinite;}.NtlHjxWU_50{stroke-dasharray:41 43;stroke-dashoffset:42;animation:NtlHjxWU_draw_50 2200ms ease-in-out 0ms infinite,NtlHjxWU_fade 2200ms linear 0ms infinite;}.NtlHjxWU_51{stroke-dasharray:81 83;stroke-dashoffset:82;animation:NtlHjxWU_draw_51 2200ms ease-in-out 0ms infinite,NtlHjxWU_fade 2200ms linear 0ms infinite;}.NtlHjxWU_52{stroke-dasharray:54 56;stroke-dashoffset:55;animation:NtlHjxWU_draw_52 2200ms ease-in-out 0ms infinite,NtlHjxWU_fade 2200ms linear 0ms infinite;}.NtlHjxWU_53{stroke-dasharray:81 83;stroke-dashoffset:82;animation:NtlHjxWU_draw_53 2200ms ease-in-out 0ms infinite,NtlHjxWU_fade 2200ms linear 0ms infinite;}.NtlHjxWU_54{stroke-dasharray:73 75;stroke-dashoffset:74;animation:NtlHjxWU_draw_54 2200ms ease-in-out 0ms infinite,NtlHjxWU_fade 2200ms linear 0ms infinite;}.NtlHjxWU_55{stroke-dasharray:95 97;stroke-dashoffset:96;animation:NtlHjxWU_draw_55 2200ms ease-in-out 0ms infinite,NtlHjxWU_fade 2200ms linear 0ms infinite;}.NtlHjxWU_56{stroke-dasharray:89 91;stroke-dashoffset:90;animation:NtlHjxWU_draw_56 2200ms ease-in-out 0ms infinite,NtlHjxWU_fade 2200ms linear 0ms infinite;}.NtlHjxWU_57{stroke-dasharray:86 88;stroke-dashoffset:87;animation:NtlHjxWU_draw_57 2200ms ease-in-out 0ms infinite,NtlHjxWU_fade 2200ms linear 0ms infinite;}.NtlHjxWU_58{stroke-dasharray:117 119;stroke-dashoffset:118;animation:NtlHjxWU_draw_58 2200ms ease-in-out 0ms infinite,NtlHjxWU_fade 2200ms linear 0ms infinite;}.NtlHjxWU_59{stroke-dasharray:59 61;stroke-dashoffset:60;animation:NtlHjxWU_draw_59 2200ms ease-in-out 0ms infinite,NtlHjxWU_fade 2200ms linear 0ms infinite;}.NtlHjxWU_60{stroke-dasharray:62 64;stroke-dashoffset:63;animation:NtlHjxWU_draw_60 2200ms ease-in-out 0ms infinite,NtlHjxWU_fade 2200ms linear 0ms infinite;}.NtlHjxWU_61{stroke-dasharray:59 61;stroke-dashoffset:60;animation:NtlHjxWU_draw_61 2200ms ease-in-out 0ms infinite,NtlHjxWU_fade 2200ms linear 0ms infinite;}.NtlHjxWU_62{stroke-dasharray:87 89;stroke-dashoffset:88;animation:NtlHjxWU_draw_62 2200ms ease-in-out 0ms infinite,NtlHjxWU_fade 2200ms linear 0ms infinite;}.NtlHjxWU_63{stroke-dasharray:83 85;stroke-dashoffset:84;animation:NtlHjxWU_draw_63 2200ms ease-in-out 0ms infinite,NtlHjxWU_fade 2200ms linear 0ms infinite;}.NtlHjxWU_64{stroke-dasharray:88 90;stroke-dashoffset:89;animation:NtlHjxWU_draw_64 2200ms ease-in-out 0ms infinite,NtlHjxWU_fade 2200ms linear 0ms infinite;}.NtlHjxWU_65{stroke-dasharray:111 113;stroke-dashoffset:112;animation:NtlHjxWU_draw_65 2200ms ease-in-out 0ms infinite,NtlHjxWU_fade 2200ms linear 0ms infinite;}.NtlHjxWU_66{stroke-dasharray:62 64;stroke-dashoffset:63;animation:NtlHjxWU_draw_66 2200ms ease-in-out 0ms infinite,NtlHjxWU_fade 2200ms linear 0ms infinite;}.NtlHjxWU_67{stroke-dasharray:103 105;stroke-dashoffset:104;animation:NtlHjxWU_draw_67 2200ms ease-in-out 0ms infinite,NtlHjxWU_fade 2200ms linear 0ms infinite;}.NtlHjxWU_68{stroke-dasharray:111 113;stroke-dashoffset:112;animation:NtlHjxWU_draw_68 2200ms ease-in-out 0ms infinite,NtlHjxWU_fade 2200ms linear 0ms infinite;}.NtlHjxWU_69{stroke-dasharray:89 91;stroke-dashoffset:90;animation:NtlHjxWU_draw_69 2200ms ease-in-out 0ms infinite,NtlHjxWU_fade 2200ms linear 0ms infinite;}.NtlHjxWU_70{stroke-dasharray:96 98;stroke-dashoffset:97;animation:NtlHjxWU_draw_70 2200ms ease-in-out 0ms infinite,NtlHjxWU_fade 2200ms linear 0ms infinite;}.NtlHjxWU_71{stroke-dasharray:96 98;stroke-dashoffset:97;animation:NtlHjxWU_draw_71 2200ms ease-in-out 0ms infinite,NtlHjxWU_fade 2200ms linear 0ms infinite;}.NtlHjxWU_72{stroke-dasharray:87 89;stroke-dashoffset:88;animation:NtlHjxWU_draw_72 2200ms ease-in-out 0ms infinite,NtlHjxWU_fade 2200ms linear 0ms infinite;}.NtlHjxWU_73{stroke-dasharray:73 75;stroke-dashoffset:74;animation:NtlHjxWU_draw_73 2200ms ease-in-out 0ms infinite,NtlHjxWU_fade 2200ms linear 0ms infinite;}.NtlHjxWU_74{stroke-dasharray:74 76;stroke-dashoffset:75;animation:NtlHjxWU_draw_74 2200ms ease-in-out 0ms infinite,NtlHjxWU_fade 2200ms linear 0ms infinite;}.NtlHjxWU_75{stroke-dasharray:47 49;stroke-dashoffset:48;animation:NtlHjxWU_draw_75 2200ms ease-in-out 0ms infinite,NtlHjxWU_fade 2200ms linear 0ms infinite;}.NtlHjxWU_76{stroke-dasharray:47 49;stroke-dashoffset:48;animation:NtlHjxWU_draw_76 2200ms ease-in-out 0ms infinite,NtlHjxWU_fade 2200ms linear 0ms infinite;}.NtlHjxWU_77{stroke-dasharray:110 112;stroke-dashoffset:111;animation:NtlHjxWU_draw_77 2200ms ease-in-out 0ms infinite,NtlHjxWU_fade 2200ms linear 0ms infinite;}.NtlHjxWU_78{stroke-dasharray:76 78;stroke-dashoffset:77;animation:NtlHjxWU_draw_78 2200ms ease-in-out 0ms infinite,NtlHjxWU_fade 2200ms linear 0ms infinite;}.NtlHjxWU_79{stroke-dasharray:47 49;stroke-dashoffset:48;animation:NtlHjxWU_draw_79 2200ms ease-in-out 0ms infinite,NtlHjxWU_fade 2200ms linear 0ms infinite;}.NtlHjxWU_80{stroke-dasharray:80 82;stroke-dashoffset:81;animation:NtlHjxWU_draw_80 2200ms ease-in-out 0ms infinite,NtlHjxWU_fade 2200ms linear 0ms infinite;}.NtlHjxWU_81{stroke-dasharray:71 73;stroke-dashoffset:72;animation:NtlHjxWU_draw_81 2200ms ease-in-out 0ms infinite,NtlHjxWU_fade 2200ms linear 0ms infinite;}.NtlHjxWU_82{stroke-dasharray:67 69;stroke-dashoffset:68;animation:NtlHjxWU_draw_82 2200ms ease-in-out 0ms infinite,NtlHjxWU_fade 2200ms linear 0ms infinite;}.NtlHjxWU_83{stroke-dasharray:46 48;stroke-dashoffset:47;animation:NtlHjxWU_draw_83 2200ms ease-in-out 0ms infinite,NtlHjxWU_fade 2200ms linear 0ms infinite;}.NtlHjxWU_84{stroke-dasharray:67 69;stroke-dashoffset:68;animation:NtlHjxWU_draw_84 2200ms ease-in-out 0ms infinite,NtlHjxWU_fade 2200ms linear 0ms infinite;}.NtlHjxWU_85{stroke-dasharray:47 49;stroke-dashoffset:48;animation:NtlHjxWU_draw_85 2200ms ease-in-out 0ms infinite,NtlHjxWU_fade 2200ms linear 0ms infinite;}.NtlHjxWU_86{stroke-dasharray:144 146;stroke-dashoffset:145;animation:NtlHjxWU_draw_86 2200ms ease-in-out 0ms infinite,NtlHjxWU_fade 2200ms linear 0ms infinite;}.NtlHjxWU_87{stroke-dasharray:78 80;stroke-dashoffset:79;animation:NtlHjxWU_draw_87 2200ms ease-in-out 0ms infinite,NtlHjxWU_fade 2200ms linear 0ms infinite;}.NtlHjxWU_88{stroke-dasharray:79 81;stroke-dashoffset:80;animation:NtlHjxWU_draw_88 2200ms ease-in-out 0ms infinite,NtlHjxWU_fade 2200ms linear 0ms infinite;}.NtlHjxWU_89{stroke-dasharray:54 56;stroke-dashoffset:55;animation:NtlHjxWU_draw_89 2200ms ease-in-out 0ms infinite,NtlHjxWU_fade 2200ms linear 0ms infinite;}.NtlHjxWU_90{stroke-dasharray:77 79;stroke-dashoffset:78;animation:NtlHjxWU_draw_90 2200ms ease-in-out 0ms infinite,NtlHjxWU_fade 2200ms linear 0ms infinite;}.NtlHjxWU_91{stroke-dasharray:75 77;stroke-dashoffset:76;animation:NtlHjxWU_draw_91 2200ms ease-in-out 0ms infinite,NtlHjxWU_fade 2200ms linear 0ms infinite;}.NtlHjxWU_92{stroke-dasharray:56 58;stroke-dashoffset:57;animation:NtlHjxWU_draw_92 2200ms ease-in-out 0ms infinite,NtlHjxWU_fade 2200ms linear 0ms infinite;}.NtlHjxWU_93{stroke-dasharray:67 69;stroke-dashoffset:68;animation:NtlHjxWU_draw_93 2200ms ease-in-out 0ms infinite,NtlHjxWU_fade 2200ms linear 0ms infinite;}.NtlHjxWU_94{stroke-dasharray:73 75;stroke-dashoffset:74;animation:NtlHjxWU_draw_94 2200ms ease-in-out 0ms infinite,NtlHjxWU_fade 2200ms linear 0ms infinite;}.NtlHjxWU_95{stroke-dasharray:87 89;stroke-dashoffset:88;animation:NtlHjxWU_draw_95 2200ms ease-in-out 0ms infinite,NtlHjxWU_fade 2200ms linear 0ms infinite;}.NtlHjxWU_96{stroke-dasharray:76 78;stroke-dashoffset:77;animation:NtlHjxWU_draw_96 2200ms ease-in-out 0ms infinite,NtlHjxWU_fade 2200ms linear 0ms infinite;}.NtlHjxWU_97{stroke-dasharray:47 49;stroke-dashoffset:48;animation:NtlHjxWU_draw_97 2200ms ease-in-out 0ms infinite,NtlHjxWU_fade 2200ms linear 0ms infinite;}.NtlHjxWU_98{stroke-dasharray:80 82;stroke-dashoffset:81;animation:NtlHjxWU_draw_98 2200ms ease-in-out 0ms infinite,NtlHjxWU_fade 2200ms linear 0ms infinite;}.NtlHjxWU_99{stroke-dasharray:71 73;stroke-dashoffset:72;animation:NtlHjxWU_draw_99 2200ms ease-in-out 0ms infinite,NtlHjxWU_fade 2200ms linear 0ms infinite;}.NtlHjxWU_100{stroke-dasharray:67 69;stroke-dashoffset:68;animation:NtlHjxWU_draw_100 2200ms ease-in-out 0ms infinite,NtlHjxWU_fade 2200ms linear 0ms infinite;}.NtlHjxWU_101{stroke-dasharray:46 48;stroke-dashoffset:47;animation:NtlHjxWU_draw_101 2200ms ease-in-out 0ms infinite,NtlHjxWU_fade 2200ms linear 0ms infinite;}.NtlHjxWU_102{stroke-dasharray:67 69;stroke-dashoffset:68;animation:NtlHjxWU_draw_102 2200ms ease-in-out 0ms infinite,NtlHjxWU_fade 2200ms linear 0ms infinite;}.NtlHjxWU_103{stroke-dasharray:47 49;stroke-dashoffset:48;animation:NtlHjxWU_draw_103 2200ms ease-in-out 0ms infinite,NtlHjxWU_fade 2200ms linear 0ms infinite;}.NtlHjxWU_104{stroke-dasharray:65 67;stroke-dashoffset:66;animation:NtlHjxWU_draw_104 2200ms ease-in-out 0ms infinite,NtlHjxWU_fade 2200ms linear 0ms infinite;}.NtlHjxWU_105{stroke-dasharray:144 146;stroke-dashoffset:145;animation:NtlHjxWU_draw_105 2200ms ease-in-out 0ms infinite,NtlHjxWU_fade 2200ms linear 0ms infinite;}.NtlHjxWU_106{stroke-dasharray:72 74;stroke-dashoffset:73;animation:NtlHjxWU_draw_106 2200ms ease-in-out 0ms infinite,NtlHjxWU_fade 2200ms linear 0ms infinite;}.NtlHjxWU_107{stroke-dasharray:72 74;stroke-dashoffset:73;animation:NtlHjxWU_draw_107 2200ms ease-in-out 0ms infinite,NtlHjxWU_fade 2200ms linear 0ms infinite;}.NtlHjxWU_108{stroke-dasharray:92 94;stroke-dashoffset:93;animation:NtlHjxWU_draw_108 2200ms ease-in-out 0ms infinite,NtlHjxWU_fade 2200ms linear 0ms infinite;}.NtlHjxWU_109{stroke-dasharray:65 67;stroke-dashoffset:66;animation:NtlHjxWU_draw_109 2200ms ease-in-out 0ms infinite,NtlHjxWU_fade 2200ms linear 0ms infinite;}.NtlHjxWU_110{stroke-dasharray:110 112;stroke-dashoffset:111;animation:NtlHjxWU_draw_110 2200ms ease-in-out 0ms infinite,NtlHjxWU_fade 2200ms linear 0ms infinite;}.NtlHjxWU_111{stroke-dasharray:72 74;stroke-dashoffset:73;animation:NtlHjxWU_draw_111 2200ms ease-in-out 0ms infinite,NtlHjxWU_fade 2200ms linear 0ms infinite;}.NtlHjxWU_112{stroke-dasharray:82 84;stroke-dashoffset:83;animation:NtlHjxWU_draw_112 2200ms ease-in-out 0ms infinite,NtlHjxWU_fade 2200ms linear 0ms infinite;}.NtlHjxWU_113{stroke-dasharray:78 80;stroke-dashoffset:79;animation:NtlHjxWU_draw_113 2200ms ease-in-out 0ms infinite,NtlHjxWU_fade 2200ms linear 0ms infinite;}.NtlHjxWU_114{stroke-dasharray:79 81;stroke-dashoffset:80;animation:NtlHjxWU_draw_114 2200ms ease-in-out 0ms infinite,NtlHjxWU_fade 2200ms linear 0ms infinite;}.NtlHjxWU_115{stroke-dasharray:78 80;stroke-dashoffset:79;animation:NtlHjxWU_draw_115 2200ms ease-in-out 0ms infinite,NtlHjxWU_fade 2200ms linear 0ms infinite;}.NtlHjxWU_116{stroke-dasharray:79 81;stroke-dashoffset:80;animation:NtlHjxWU_draw_116 2200ms ease-in-out 0ms infinite,NtlHjxWU_fade 2200ms linear 0ms infinite;}.NtlHjxWU_117{stroke-dasharray:65 67;stroke-dashoffset:66;animation:NtlHjxWU_draw_117 2200ms ease-in-out 0ms infinite,NtlHjxWU_fade 2200ms linear 0ms infinite;}.NtlHjxWU_118{stroke-dasharray:83 85;stroke-dashoffset:84;animation:NtlHjxWU_draw_118 2200ms ease-in-out 0ms infinite,NtlHjxWU_fade 2200ms linear 0ms infinite;}.NtlHjxWU_119{stroke-dasharray:78 80;stroke-dashoffset:79;animation:NtlHjxWU_draw_119 2200ms ease-in-out 0ms infinite,NtlHjxWU_fade 2200ms linear 0ms infinite;}.NtlHjxWU_120{stroke-dasharray:42 44;stroke-dashoffset:43;animation:NtlHjxWU_draw_120 2200ms ease-in-out 0ms infinite,NtlHjxWU_fade 2200ms linear 0ms infinite;}.NtlHjxWU_121{stroke-dasharray:42 44;stroke-dashoffset:43;animation:NtlHjxWU_draw_121 2200ms ease-in-out 0ms infinite,NtlHjxWU_fade 2200ms linear 0ms infinite;}.NtlHjxWU_122{stroke-dasharray:400 402;stroke-dashoffset:401;animation:NtlHjxWU_draw_122 2200ms ease-in-out 0ms infinite,NtlHjxWU_fade 2200ms linear 0ms infinite;}.NtlHjxWU_123{stroke-dasharray:400 402;stroke-dashoffset:401;animation:NtlHjxWU_draw_123 2200ms ease-in-out 0ms infinite,NtlHjxWU_fade 2200ms linear 0ms infinite;}.NtlHjxWU_124{stroke-dasharray:400 402;stroke-dashoffset:401;animation:NtlHjxWU_draw_124 2200ms ease-in-out 0ms infinite,NtlHjxWU_fade 2200ms linear 0ms infinite;}@keyframes NtlHjxWU_draw{100%{stroke-dashoffset:0;}}@keyframes NtlHjxWU_fade{0%{stroke-opacity:1;}86.36363636363636%{stroke-opacity:1;}100%{stroke-opacity:0;}}@keyframes NtlHjxWU_draw_0{4.545454545454546%{stroke-dashoffset: 6001}28.787878787878785%{ stroke-dashoffset: 0;}100%{ stroke-dashoffset: 0;}}@keyframes NtlHjxWU_draw_1{4.643206256109482%{stroke-dashoffset: 96}28.885630498533722%{ stroke-dashoffset: 0;}100%{ stroke-dashoffset: 0;}}@keyframes NtlHjxWU_draw_2{4.740957966764419%{stroke-dashoffset: 90}28.983382209188658%{ stroke-dashoffset: 0;}100%{ stroke-dashoffset: 0;}}@keyframes NtlHjxWU_draw_3{4.838709677419355%{stroke-dashoffset: 87}29.081133919843595%{ stroke-dashoffset: 0;}100%{ stroke-dashoffset: 0;}}@keyframes NtlHjxWU_draw_4{4.936461388074291%{stroke-dashoffset: 60}29.17888563049853%{ stroke-dashoffset: 0;}100%{ stroke-dashoffset: 0;}}@keyframes NtlHjxWU_draw_5{5.034213098729228%{stroke-dashoffset: 85}29.276637341153467%{ stroke-dashoffset: 0;}100%{ stroke-dashoffset: 0;}}@keyframes NtlHjxWU_draw_6{5.131964809384164%{stroke-dashoffset: 55}29.374389051808404%{ stroke-dashoffset: 0;}100%{ stroke-dashoffset: 0;}}@keyframes NtlHjxWU_draw_7{5.2297165200391005%{stroke-dashoffset: 60}29.47214076246334%{ stroke-dashoffset: 0;}100%{ stroke-dashoffset: 0;}}@keyframes NtlHjxWU_draw_8{5.327468230694037%{stroke-dashoffset: 96}29.569892473118276%{ stroke-dashoffset: 0;}100%{ stroke-dashoffset: 0;}}@keyframes NtlHjxWU_draw_9{5.425219941348973%{stroke-dashoffset: 51}29.667644183773213%{ stroke-dashoffset: 0;}100%{ stroke-dashoffset: 0;}}@keyframes NtlHjxWU_draw_10{5.52297165200391%{stroke-dashoffset: 84}29.76539589442815%{ stroke-dashoffset: 0;}100%{ stroke-dashoffset: 0;}}@keyframes NtlHjxWU_draw_11{5.620723362658846%{stroke-dashoffset: 89}29.863147605083086%{ stroke-dashoffset: 0;}100%{ stroke-dashoffset: 0;}}@keyframes NtlHjxWU_draw_12{5.718475073313783%{stroke-dashoffset: 112}29.960899315738022%{ stroke-dashoffset: 0;}100%{ stroke-dashoffset: 0;}}@keyframes NtlHjxWU_draw_13{5.81622678396872%{stroke-dashoffset: 63}30.058651026392962%{ stroke-dashoffset: 0;}100%{ stroke-dashoffset: 0;}}@keyframes NtlHjxWU_draw_14{5.913978494623657%{stroke-dashoffset: 104}30.156402737047895%{ stroke-dashoffset: 0;}100%{ stroke-dashoffset: 0;}}@keyframes NtlHjxWU_draw_15{6.0117302052785915%{stroke-dashoffset: 112}30.25415444770283%{ stroke-dashoffset: 0;}100%{ stroke-dashoffset: 0;}}@keyframes NtlHjxWU_draw_16{6.109481915933529%{stroke-dashoffset: 90}30.351906158357767%{ stroke-dashoffset: 0;}100%{ stroke-dashoffset: 0;}}@keyframes NtlHjxWU_draw_17{6.207233626588465%{stroke-dashoffset: 91}30.449657869012704%{ stroke-dashoffset: 0;}100%{ stroke-dashoffset: 0;}}@keyframes NtlHjxWU_draw_18{6.3049853372434015%{stroke-dashoffset: 63}30.547409579667644%{ stroke-dashoffset: 0;}100%{ stroke-dashoffset: 0;}}@keyframes NtlHjxWU_draw_19{6.40273704789834%{stroke-dashoffset: 85}30.645161290322577%{ stroke-dashoffset: 0;}100%{ stroke-dashoffset: 0;}}@keyframes NtlHjxWU_draw_20{6.500488758553274%{stroke-dashoffset: 74}30.742913000977513%{ stroke-dashoffset: 0;}100%{ stroke-dashoffset: 0;}}@keyframes NtlHjxWU_draw_21{6.598240469208212%{stroke-dashoffset: 93}30.840664711632453%{ stroke-dashoffset: 0;}100%{ stroke-dashoffset: 0;}}@keyframes NtlHjxWU_draw_22{6.695992179863147%{stroke-dashoffset: 48}30.938416422287386%{ stroke-dashoffset: 0;}100%{ stroke-dashoffset: 0;}}@keyframes NtlHjxWU_draw_23{6.793743890518085%{stroke-dashoffset: 111}31.036168132942326%{ stroke-dashoffset: 0;}100%{ stroke-dashoffset: 0;}}@keyframes NtlHjxWU_draw_24{6.8914956011730215%{stroke-dashoffset: 48}31.13391984359726%{ stroke-dashoffset: 0;}100%{ stroke-dashoffset: 0;}}@keyframes NtlHjxWU_draw_25{6.989247311827958%{stroke-dashoffset: 58}31.231671554252195%{ stroke-dashoffset: 0;}100%{ stroke-dashoffset: 0;}}@keyframes NtlHjxWU_draw_26{7.086999022482894%{stroke-dashoffset: 77}31.329423264907135%{ stroke-dashoffset: 0;}100%{ stroke-dashoffset: 0;}}@keyframes NtlHjxWU_draw_27{7.184750733137831%{stroke-dashoffset: 47}31.427174975562068%{ stroke-dashoffset: 0;}100%{ stroke-dashoffset: 0;}}@keyframes NtlHjxWU_draw_28{7.282502443792767%{stroke-dashoffset: 75}31.524926686217007%{ stroke-dashoffset: 0;}100%{ stroke-dashoffset: 0;}}@keyframes NtlHjxWU_draw_29{7.380254154447703%{stroke-dashoffset: 48}31.622678396871944%{ stroke-dashoffset: 0;}100%{ stroke-dashoffset: 0;}}@keyframes NtlHjxWU_draw_30{7.47800586510264%{stroke-dashoffset: 48}31.720430107526877%{ stroke-dashoffset: 0;}100%{ stroke-dashoffset: 0;}}@keyframes NtlHjxWU_draw_31{7.575757575757576%{stroke-dashoffset: 74}31.818181818181817%{ stroke-dashoffset: 0;}100%{ stroke-dashoffset: 0;}}@keyframes NtlHjxWU_draw_32{7.6735092864125125%{stroke-dashoffset: 58}31.91593352883675%{ stroke-dashoffset: 0;}100%{ stroke-dashoffset: 0;}}@keyframes NtlHjxWU_draw_33{7.77126099706745%{stroke-dashoffset: 96}32.01368523949169%{ stroke-dashoffset: 0;}100%{ stroke-dashoffset: 0;}}@keyframes NtlHjxWU_draw_34{7.869012707722385%{stroke-dashoffset: 90}32.111436950146626%{ stroke-dashoffset: 0;}100%{ stroke-dashoffset: 0;}}@keyframes NtlHjxWU_draw_35{7.966764418377322%{stroke-dashoffset: 87}32.20918866080156%{ stroke-dashoffset: 0;}100%{ stroke-dashoffset: 0;}}@keyframes NtlHjxWU_draw_36{8.06451612903226%{stroke-dashoffset: 51}32.3069403714565%{ stroke-dashoffset: 0;}100%{ stroke-dashoffset: 0;}}@keyframes NtlHjxWU_draw_37{8.162267839687194%{stroke-dashoffset: 91}32.40469208211143%{ stroke-dashoffset: 0;}100%{ stroke-dashoffset: 0;}}@keyframes NtlHjxWU_draw_38{8.260019550342133%{stroke-dashoffset: 51}32.50244379276637%{ stroke-dashoffset: 0;}100%{ stroke-dashoffset: 0;}}@keyframes NtlHjxWU_draw_39{8.357771260997067%{stroke-dashoffset: 85}32.60019550342131%{ stroke-dashoffset: 0;}100%{ stroke-dashoffset: 0;}}@keyframes NtlHjxWU_draw_40{8.455522971652005%{stroke-dashoffset: 51}32.69794721407624%{ stroke-dashoffset: 0;}100%{ stroke-dashoffset: 0;}}@keyframes NtlHjxWU_draw_41{8.553274682306942%{stroke-dashoffset: 85}32.795698924731184%{ stroke-dashoffset: 0;}100%{ stroke-dashoffset: 0;}}@keyframes NtlHjxWU_draw_42{8.651026392961878%{stroke-dashoffset: 84}32.89345063538612%{ stroke-dashoffset: 0;}100%{ stroke-dashoffset: 0;}}@keyframes NtlHjxWU_draw_43{8.748778103616814%{stroke-dashoffset: 89}32.99120234604106%{ stroke-dashoffset: 0;}100%{ stroke-dashoffset: 0;}}@keyframes NtlHjxWU_draw_44{8.84652981427175%{stroke-dashoffset: 112}33.08895405669599%{ stroke-dashoffset: 0;}100%{ stroke-dashoffset: 0;}}@keyframes NtlHjxWU_draw_45{8.944281524926687%{stroke-dashoffset: 63}33.18670576735093%{ stroke-dashoffset: 0;}100%{ stroke-dashoffset: 0;}}@keyframes NtlHjxWU_draw_46{9.042033235581624%{stroke-dashoffset: 104}33.28445747800586%{ stroke-dashoffset: 0;}100%{ stroke-dashoffset: 0;}}@keyframes NtlHjxWU_draw_47{9.13978494623656%{stroke-dashoffset: 112}33.3822091886608%{ stroke-dashoffset: 0;}100%{ stroke-dashoffset: 0;}}@keyframes NtlHjxWU_draw_48{9.237536656891496%{stroke-dashoffset: 90}33.479960899315735%{ stroke-dashoffset: 0;}100%{ stroke-dashoffset: 0;}}@keyframes NtlHjxWU_draw_49{9.335288367546433%{stroke-dashoffset: 119}33.577712609970675%{ stroke-dashoffset: 0;}100%{ stroke-dashoffset: 0;}}@keyframes NtlHjxWU_draw_50{9.433040078201369%{stroke-dashoffset: 42}33.67546432062561%{ stroke-dashoffset: 0;}100%{ stroke-dashoffset: 0;}}@keyframes NtlHjxWU_draw_51{9.530791788856305%{stroke-dashoffset: 82}33.77321603128055%{ stroke-dashoffset: 0;}100%{ stroke-dashoffset: 0;}}@keyframes NtlHjxWU_draw_52{9.628543499511242%{stroke-dashoffset: 55}33.87096774193548%{ stroke-dashoffset: 0;}100%{ stroke-dashoffset: 0;}}@keyframes NtlHjxWU_draw_53{9.726295210166178%{stroke-dashoffset: 82}33.96871945259042%{ stroke-dashoffset: 0;}100%{ stroke-dashoffset: 0;}}@keyframes NtlHjxWU_draw_54{9.824046920821115%{stroke-dashoffset: 74}34.06647116324535%{ stroke-dashoffset: 0;}100%{ stroke-dashoffset: 0;}}@keyframes NtlHjxWU_draw_55{9.921798631476051%{stroke-dashoffset: 96}34.16422287390029%{ stroke-dashoffset: 0;}100%{ stroke-dashoffset: 0;}}@keyframes NtlHjxWU_draw_56{10.019550342130987%{stroke-dashoffset: 90}34.261974584555226%{ stroke-dashoffset: 0;}100%{ stroke-dashoffset: 0;}}@keyframes NtlHjxWU_draw_57{10.117302052785924%{stroke-dashoffset: 87}34.359726295210166%{ stroke-dashoffset: 0;}100%{ stroke-dashoffset: 0;}}@keyframes NtlHjxWU_draw_58{10.21505376344086%{stroke-dashoffset: 118}34.4574780058651%{ stroke-dashoffset: 0;}100%{ stroke-dashoffset: 0;}}@keyframes NtlHjxWU_draw_59{10.312805474095796%{stroke-dashoffset: 60}34.55522971652004%{ stroke-dashoffset: 0;}100%{ stroke-dashoffset: 0;}}@keyframes NtlHjxWU_draw_60{10.410557184750735%{stroke-dashoffset: 63}34.65298142717497%{ stroke-dashoffset: 0;}100%{ stroke-dashoffset: 0;}}@keyframes NtlHjxWU_draw_61{10.508308895405671%{stroke-dashoffset: 60}34.75073313782991%{ stroke-dashoffset: 0;}100%{ stroke-dashoffset: 0;}}@keyframes NtlHjxWU_draw_62{10.606060606060606%{stroke-dashoffset: 88}34.848484848484844%{ stroke-dashoffset: 0;}100%{ stroke-dashoffset: 0;}}@keyframes NtlHjxWU_draw_63{10.703812316715542%{stroke-dashoffset: 84}34.946236559139784%{ stroke-dashoffset: 0;}100%{ stroke-dashoffset: 0;}}@keyframes NtlHjxWU_draw_64{10.80156402737048%{stroke-dashoffset: 89}35.04398826979472%{ stroke-dashoffset: 0;}100%{ stroke-dashoffset: 0;}}@keyframes NtlHjxWU_draw_65{10.899315738025416%{stroke-dashoffset: 112}35.14173998044966%{ stroke-dashoffset: 0;}100%{ stroke-dashoffset: 0;}}@keyframes NtlHjxWU_draw_66{10.997067448680353%{stroke-dashoffset: 63}35.23949169110459%{ stroke-dashoffset: 0;}100%{ stroke-dashoffset: 0;}}@keyframes NtlHjxWU_draw_67{11.094819159335287%{stroke-dashoffset: 104}35.33724340175953%{ stroke-dashoffset: 0;}100%{ stroke-dashoffset: 0;}}@keyframes NtlHjxWU_draw_68{11.192570869990226%{stroke-dashoffset: 112}35.43499511241446%{ stroke-dashoffset: 0;}100%{ stroke-dashoffset: 0;}}@keyframes NtlHjxWU_draw_69{11.290322580645162%{stroke-dashoffset: 90}35.5327468230694%{ stroke-dashoffset: 0;}100%{ stroke-dashoffset: 0;}}@keyframes NtlHjxWU_draw_70{11.388074291300098%{stroke-dashoffset: 97}35.630498533724335%{ stroke-dashoffset: 0;}100%{ stroke-dashoffset: 0;}}@keyframes NtlHjxWU_draw_71{11.485826001955035%{stroke-dashoffset: 97}35.728250244379275%{ stroke-dashoffset: 0;}100%{ stroke-dashoffset: 0;}}@keyframes NtlHjxWU_draw_72{11.583577712609971%{stroke-dashoffset: 88}35.82600195503421%{ stroke-dashoffset: 0;}100%{ stroke-dashoffset: 0;}}@keyframes NtlHjxWU_draw_73{11.681329423264907%{stroke-dashoffset: 74}35.92375366568915%{ stroke-dashoffset: 0;}100%{ stroke-dashoffset: 0;}}@keyframes NtlHjxWU_draw_74{11.779081133919842%{stroke-dashoffset: 75}36.02150537634408%{ stroke-dashoffset: 0;}100%{ stroke-dashoffset: 0;}}@keyframes NtlHjxWU_draw_75{11.87683284457478%{stroke-dashoffset: 48}36.11925708699902%{ stroke-dashoffset: 0;}100%{ stroke-dashoffset: 0;}}@keyframes NtlHjxWU_draw_76{11.974584555229718%{stroke-dashoffset: 48}36.21700879765396%{ stroke-dashoffset: 0;}100%{ stroke-dashoffset: 0;}}@keyframes NtlHjxWU_draw_77{12.072336265884655%{stroke-dashoffset: 111}36.31476050830889%{ stroke-dashoffset: 0;}100%{ stroke-dashoffset: 0;}}@keyframes NtlHjxWU_draw_78{12.17008797653959%{stroke-dashoffset: 77}36.412512218963826%{ stroke-dashoffset: 0;}100%{ stroke-dashoffset: 0;}}@keyframes NtlHjxWU_draw_79{12.267839687194524%{stroke-dashoffset: 48}36.510263929618766%{ stroke-dashoffset: 0;}100%{ stroke-dashoffset: 0;}}@keyframes NtlHjxWU_draw_80{12.365591397849462%{stroke-dashoffset: 81}36.6080156402737%{ stroke-dashoffset: 0;}100%{ stroke-dashoffset: 0;}}@keyframes NtlHjxWU_draw_81{12.463343108504402%{stroke-dashoffset: 72}36.70576735092864%{ stroke-dashoffset: 0;}100%{ stroke-dashoffset: 0;}}@keyframes NtlHjxWU_draw_82{12.561094819159335%{stroke-dashoffset: 68}36.80351906158357%{ stroke-dashoffset: 0;}100%{ stroke-dashoffset: 0;}}@keyframes NtlHjxWU_draw_83{12.658846529814271%{stroke-dashoffset: 47}36.90127077223851%{ stroke-dashoffset: 0;}100%{ stroke-dashoffset: 0;}}@keyframes NtlHjxWU_draw_84{12.756598240469211%{stroke-dashoffset: 68}36.99902248289345%{ stroke-dashoffset: 0;}100%{ stroke-dashoffset: 0;}}@keyframes NtlHjxWU_draw_85{12.854349951124144%{stroke-dashoffset: 48}37.096774193548384%{ stroke-dashoffset: 0;}100%{ stroke-dashoffset: 0;}}@keyframes NtlHjxWU_draw_86{12.952101661779084%{stroke-dashoffset: 145}37.194525904203324%{ stroke-dashoffset: 0;}100%{ stroke-dashoffset: 0;}}@keyframes NtlHjxWU_draw_87{13.04985337243402%{stroke-dashoffset: 79}37.29227761485826%{ stroke-dashoffset: 0;}100%{ stroke-dashoffset: 0;}}@keyframes NtlHjxWU_draw_88{13.147605083088953%{stroke-dashoffset: 80}37.39002932551319%{ stroke-dashoffset: 0;}100%{ stroke-dashoffset: 0;}}@keyframes NtlHjxWU_draw_89{13.245356793743893%{stroke-dashoffset: 55}37.48778103616813%{ stroke-dashoffset: 0;}100%{ stroke-dashoffset: 0;}}@keyframes NtlHjxWU_draw_90{13.34310850439883%{stroke-dashoffset: 78}37.58553274682307%{ stroke-dashoffset: 0;}100%{ stroke-dashoffset: 0;}}@keyframes NtlHjxWU_draw_91{13.440860215053766%{stroke-dashoffset: 76}37.683284457478%{ stroke-dashoffset: 0;}100%{ stroke-dashoffset: 0;}}@keyframes NtlHjxWU_draw_92{13.538611925708702%{stroke-dashoffset: 57}37.78103616813294%{ stroke-dashoffset: 0;}100%{ stroke-dashoffset: 0;}}@keyframes NtlHjxWU_draw_93{13.636363636363635%{stroke-dashoffset: 68}37.878787878787875%{ stroke-dashoffset: 0;}100%{ stroke-dashoffset: 0;}}@keyframes NtlHjxWU_draw_94{13.734115347018575%{stroke-dashoffset: 74}37.976539589442815%{ stroke-dashoffset: 0;}100%{ stroke-dashoffset: 0;}}@keyframes NtlHjxWU_draw_95{13.831867057673513%{stroke-dashoffset: 88}38.07429130009775%{ stroke-dashoffset: 0;}100%{ stroke-dashoffset: 0;}}@keyframes NtlHjxWU_draw_96{13.929618768328448%{stroke-dashoffset: 77}38.17204301075269%{ stroke-dashoffset: 0;}100%{ stroke-dashoffset: 0;}}@keyframes NtlHjxWU_draw_97{14.027370478983384%{stroke-dashoffset: 48}38.26979472140762%{ stroke-dashoffset: 0;}100%{ stroke-dashoffset: 0;}}@keyframes NtlHjxWU_draw_98{14.125122189638317%{stroke-dashoffset: 81}38.367546432062554%{ stroke-dashoffset: 0;}100%{ stroke-dashoffset: 0;}}@keyframes NtlHjxWU_draw_99{14.222873900293257%{stroke-dashoffset: 72}38.465298142717494%{ stroke-dashoffset: 0;}100%{ stroke-dashoffset: 0;}}@keyframes NtlHjxWU_draw_100{14.320625610948195%{stroke-dashoffset: 68}38.56304985337243%{ stroke-dashoffset: 0;}100%{ stroke-dashoffset: 0;}}@keyframes NtlHjxWU_draw_101{14.41837732160313%{stroke-dashoffset: 47}38.660801564027366%{ stroke-dashoffset: 0;}100%{ stroke-dashoffset: 0;}}@keyframes NtlHjxWU_draw_102{14.516129032258066%{stroke-dashoffset: 68}38.758553274682306%{ stroke-dashoffset: 0;}100%{ stroke-dashoffset: 0;}}@keyframes NtlHjxWU_draw_103{14.613880742913002%{stroke-dashoffset: 48}38.85630498533724%{ stroke-dashoffset: 0;}100%{ stroke-dashoffset: 0;}}@keyframes NtlHjxWU_draw_104{14.711632453567939%{stroke-dashoffset: 66}38.95405669599218%{ stroke-dashoffset: 0;}100%{ stroke-dashoffset: 0;}}@keyframes NtlHjxWU_draw_105{14.809384164222877%{stroke-dashoffset: 145}39.05180840664711%{ stroke-dashoffset: 0;}100%{ stroke-dashoffset: 0;}}@keyframes NtlHjxWU_draw_106{14.907135874877811%{stroke-dashoffset: 73}39.14956011730205%{ stroke-dashoffset: 0;}100%{ stroke-dashoffset: 0;}}@keyframes NtlHjxWU_draw_107{15.004887585532748%{stroke-dashoffset: 73}39.247311827956985%{ stroke-dashoffset: 0;}100%{ stroke-dashoffset: 0;}}@keyframes NtlHjxWU_draw_108{15.102639296187684%{stroke-dashoffset: 93}39.345063538611925%{ stroke-dashoffset: 0;}100%{ stroke-dashoffset: 0;}}@keyframes NtlHjxWU_draw_109{15.20039100684262%{stroke-dashoffset: 66}39.44281524926686%{ stroke-dashoffset: 0;}100%{ stroke-dashoffset: 0;}}@keyframes NtlHjxWU_draw_110{15.298142717497559%{stroke-dashoffset: 111}39.5405669599218%{ stroke-dashoffset: 0;}100%{ stroke-dashoffset: 0;}}@keyframes NtlHjxWU_draw_111{15.395894428152495%{stroke-dashoffset: 73}39.63831867057673%{ stroke-dashoffset: 0;}100%{ stroke-dashoffset: 0;}}@keyframes NtlHjxWU_draw_112{15.49364613880743%{stroke-dashoffset: 83}39.73607038123167%{ stroke-dashoffset: 0;}100%{ stroke-dashoffset: 0;}}@keyframes NtlHjxWU_draw_113{15.591397849462368%{stroke-dashoffset: 79}39.8338220918866%{ stroke-dashoffset: 0;}100%{ stroke-dashoffset: 0;}}@keyframes NtlHjxWU_draw_114{15.689149560117302%{stroke-dashoffset: 80}39.93157380254154%{ stroke-dashoffset: 0;}100%{ stroke-dashoffset: 0;}}@keyframes NtlHjxWU_draw_115{15.78690127077224%{stroke-dashoffset: 79}40.029325513196476%{ stroke-dashoffset: 0;}100%{ stroke-dashoffset: 0;}}@keyframes NtlHjxWU_draw_116{15.884652981427177%{stroke-dashoffset: 80}40.127077223851416%{ stroke-dashoffset: 0;}100%{ stroke-dashoffset: 0;}}@keyframes NtlHjxWU_draw_117{15.982404692082111%{stroke-dashoffset: 66}40.22482893450635%{ stroke-dashoffset: 0;}100%{ stroke-dashoffset: 0;}}@keyframes NtlHjxWU_draw_118{16.08015640273705%{stroke-dashoffset: 84}40.32258064516129%{ stroke-dashoffset: 0;}100%{ stroke-dashoffset: 0;}}@keyframes NtlHjxWU_draw_119{16.177908113391986%{stroke-dashoffset: 79}40.42033235581622%{ stroke-dashoffset: 0;}100%{ stroke-dashoffset: 0;}}@keyframes NtlHjxWU_draw_120{16.275659824046922%{stroke-dashoffset: 43}40.51808406647116%{ stroke-dashoffset: 0;}100%{ stroke-dashoffset: 0;}}@keyframes NtlHjxWU_draw_121{16.37341153470186%{stroke-dashoffset: 43}40.615835777126094%{ stroke-dashoffset: 0;}100%{ stroke-dashoffset: 0;}}@keyframes NtlHjxWU_draw_122{16.471163245356795%{stroke-dashoffset: 401}40.71358748778104%{ stroke-dashoffset: 0;}100%{ stroke-dashoffset: 0;}}@keyframes NtlHjxWU_draw_123{16.56891495601173%{stroke-dashoffset: 401}40.81133919843597%{ stroke-dashoffset: 0;}100%{ stroke-dashoffset: 0;}}@keyframes NtlHjxWU_draw_124{16.666666666666668%{stroke-dashoffset: 401}40.909090909090914%{ stroke-dashoffset: 0;}100%{ stroke-dashoffset: 0;}}</style></svg>
