<!--?xml version="1.0" encoding="utf-8"?-->
<!-- Generator: Adobe Illustrator 22.0.1, SVG Export Plug-In . SVG Version: 6.00 Build 0)  -->
<svg version="1.1" xmlns="http://www.w3.org/2000/svg" xmlns:xlink="http://www.w3.org/1999/xlink" width="1280" x="0px" y="0px" viewBox="0 0 1920 1080" style="" xml:space="preserve">
<style type="text/css">
	.st0{fill:#262626;}
	.st1{fill:#8ECCCE;}
	.st2{fill:none;stroke:#997C3A;stroke-width:130;stroke-miterlimit:10;}
	.st3{fill:none;stroke:#151616;stroke-width:130;stroke-miterlimit:10;}
	.st4{fill:none;stroke:#FFF8F4;stroke-width:130;stroke-miterlimit:10;}
</style>
<g id="fill">
	<path class="st0 kQJdlcfY_0" width="1920" height="1080" d="M1 0 L1921 0 L1921 1080 L1 1080 Z"></path>
	<g>
		<path class="st1 kQJdlcfY_1" d="M374.7,690.9h-1.3v-8.8H363v8.8h-1.2V673h1.2v7.9h10.4V673h1.3V690.9z"></path>
		<path class="st1 kQJdlcfY_2" d="M390.4,690.9h-9.8V673h9.8v1.1h-8.5v6.8h8v1.1h-8v7.7h8.5V690.9z"></path>
		<path class="st1 kQJdlcfY_3" d="M407.3,690.9h-1.4l-5.3-8.3l-5.4,8.3h-1.4l6-9.3l-5.5-8.5h1.4l4.8,7.6l4.9-7.6h1.3l-5.5,8.5L407.3,690.9z"></path>
		<path class="st1 kQJdlcfY_4" d="M429,680.6c0,2.3-0.3,4.3-0.9,5.9c-0.6,1.6-1.5,2.7-2.7,3.5c-1.2,0.8-2.6,1.1-4.3,1.1c-0.8,0-1.6-0.1-2.3-0.3
			v-1c0.3,0.1,0.8,0.2,1.3,0.3s0.9,0.1,1.1,0.1c2,0,3.6-0.7,4.7-2.2c1.1-1.5,1.8-3.6,1.9-6.4h-0.1c-0.6,0.8-1.3,1.4-2.1,1.8
			c-0.8,0.4-1.7,0.6-2.6,0.6c-1.7,0-2.9-0.5-3.9-1.4s-1.4-2.2-1.4-3.9c0-1.8,0.5-3.2,1.5-4.3c1-1.1,2.3-1.7,3.9-1.7
			c1.2,0,2.2,0.3,3.1,0.9c0.9,0.6,1.6,1.5,2,2.7C428.7,677.6,429,679,429,680.6z M423.1,673.8c-1.3,0-2.3,0.4-3.1,1.3
			c-0.8,0.9-1.1,2.1-1.1,3.6c0,1.4,0.4,2.5,1.1,3.2s1.7,1.1,3,1.1c0.8,0,1.6-0.2,2.3-0.6c0.7-0.4,1.3-0.9,1.7-1.5
			c0.4-0.6,0.6-1.2,0.6-1.8c0-1-0.2-1.8-0.6-2.7c-0.4-0.8-0.9-1.5-1.6-1.9C424.8,674.1,424,673.8,423.1,673.8z"></path>
		<path class="st1 kQJdlcfY_5" d="M438.8,672.7c1.5,0,2.7,0.4,3.7,1.2c0.9,0.8,1.4,1.8,1.4,3.1c0,0.9-0.3,1.7-0.9,2.4c-0.6,0.7-1.5,1.3-2.8,1.9
			c1.6,0.6,2.7,1.3,3.3,2.1c0.6,0.8,1,1.7,1,2.8c0,1.5-0.5,2.6-1.5,3.5c-1,0.9-2.4,1.3-4.1,1.3c-1.8,0-3.2-0.4-4.1-1.2
			c-1-0.8-1.4-2-1.4-3.6c0-1.1,0.3-2,1-2.8c0.7-0.8,1.7-1.5,3.1-2.1c-1.3-0.6-2.2-1.3-2.8-2s-0.8-1.5-0.8-2.5c0-0.9,0.2-1.6,0.6-2.3
			c0.4-0.6,1-1.1,1.8-1.5C436.9,672.9,437.8,672.7,438.8,672.7z M434.4,686.5c0,1.1,0.4,2,1.1,2.6c0.8,0.6,1.8,0.9,3.2,0.9
			c1.3,0,2.4-0.3,3.2-1c0.8-0.7,1.2-1.5,1.2-2.7c0-1-0.3-1.8-1-2.5c-0.6-0.6-1.9-1.3-3.7-2c-1.5,0.6-2.6,1.2-3.2,1.9
			C434.7,684.5,434.4,685.4,434.4,686.5z M438.7,673.8c-1.1,0-2.1,0.3-2.8,0.8c-0.7,0.6-1,1.3-1,2.3c0,0.6,0.1,1.1,0.4,1.5
			c0.3,0.4,0.6,0.8,1.1,1.2c0.5,0.4,1.3,0.8,2.4,1.2c1.3-0.5,2.3-1.1,2.9-1.7c0.6-0.6,0.9-1.4,0.9-2.2c0-1-0.3-1.8-1-2.3
			S439.9,673.8,438.7,673.8z"></path>
		<path class="st1 kQJdlcfY_6" d="M450.6,690.9l7.3-16.7h-10.1V673h11.5v0.9l-7.4,17H450.6z"></path>
		<path class="st1 kQJdlcfY_7" d="M469.4,677.3c1.9,0,3.3,0.6,4.2,1.8c0.9,1.2,1.4,2.9,1.4,5.1c0,2.2-0.5,3.9-1.5,5.1c-1,1.2-2.4,1.8-4.2,1.8
			c-0.9,0-1.8-0.2-2.6-0.6s-1.4-0.9-1.8-1.7h-0.1l-0.3,2h-0.8v-19h1.2v4.8c0,0.7,0,1.4,0,2l0,1h0.1c0.5-0.8,1.1-1.4,1.8-1.8
			C467.6,677.5,468.4,677.3,469.4,677.3z M469.4,678.4c-1.6,0-2.7,0.4-3.4,1.3c-0.7,0.9-1,2.4-1,4.4v0.2c0,2,0.4,3.4,1.1,4.3
			c0.7,0.9,1.8,1.3,3.3,1.3c1.4,0,2.5-0.5,3.3-1.5c0.7-1,1.1-2.5,1.1-4.3C473.8,680.4,472.3,678.4,469.4,678.4z"></path>
		<path class="st1 kQJdlcfY_8" d="M489.3,677.2c0,1.1-0.3,2-1,2.8c-0.7,0.8-1.6,1.2-2.8,1.5v0.1c1.4,0.2,2.5,0.6,3.3,1.4s1.1,1.7,1.1,3
			c0,1.7-0.6,3-1.7,3.9c-1.1,0.9-2.8,1.4-4.9,1.4c-1.8,0-3.4-0.3-4.7-1v-1.2c0.7,0.4,1.5,0.6,2.3,0.8c0.9,0.2,1.7,0.3,2.4,0.3
			c1.8,0,3.1-0.4,4.1-1.1c0.9-0.7,1.4-1.8,1.4-3.1c0-1.2-0.5-2.1-1.4-2.7s-2.3-1-4.1-1h-1.9V681h2c1.5,0,2.7-0.4,3.5-1.1
			c0.9-0.7,1.3-1.7,1.3-2.9c0-1-0.4-1.8-1.1-2.4c-0.7-0.6-1.6-0.9-2.8-0.9c-0.9,0-1.7,0.1-2.4,0.4s-1.6,0.7-2.5,1.3l-0.6-0.8
			c0.7-0.6,1.5-1,2.5-1.4c1-0.3,2-0.5,3-0.5c1.6,0,2.9,0.4,3.8,1.2C488.8,674.7,489.3,675.8,489.3,677.2z"></path>
		<path class="st1 kQJdlcfY_9" d="M505.1,680.6c0,2.3-0.3,4.3-0.9,5.9c-0.6,1.6-1.5,2.7-2.7,3.5c-1.2,0.8-2.6,1.1-4.3,1.1
			c-0.8,0-1.6-0.1-2.3-0.3v-1c0.3,0.1,0.8,0.2,1.3,0.3s0.9,0.1,1.1,0.1c2,0,3.6-0.7,4.7-2.2c1.1-1.5,1.8-3.6,1.9-6.4h-0.1
			c-0.6,0.8-1.3,1.4-2.1,1.8c-0.8,0.4-1.7,0.6-2.6,0.6c-1.7,0-2.9-0.5-3.9-1.4s-1.4-2.2-1.4-3.9c0-1.8,0.5-3.2,1.5-4.3
			c1-1.1,2.3-1.7,3.9-1.7c1.2,0,2.2,0.3,3.1,0.9c0.9,0.6,1.6,1.5,2,2.7C504.8,677.6,505.1,679,505.1,680.6z M499.3,673.8
			c-1.3,0-2.3,0.4-3.1,1.3c-0.8,0.9-1.1,2.1-1.1,3.6c0,1.4,0.4,2.5,1.1,3.2s1.7,1.1,3,1.1c0.8,0,1.6-0.2,2.3-0.6
			c0.7-0.4,1.3-0.9,1.7-1.5c0.4-0.6,0.6-1.2,0.6-1.8c0-1-0.2-1.8-0.6-2.7c-0.4-0.8-0.9-1.5-1.6-1.9
			C500.9,674.1,500.1,673.8,499.3,673.8z"></path>
		<path class="st1 kQJdlcfY_10" d="M372.5,714.2c0,1.7-0.6,3-1.8,4c-1.2,0.9-2.8,1.4-5,1.4H363v7.4h-1.2V709h4.4
			C370.4,709,372.5,710.7,372.5,714.2z M363,718.4h2.5c2,0,3.5-0.3,4.4-1c0.9-0.7,1.3-1.7,1.3-3.2c0-1.4-0.4-2.4-1.3-3.1
			c-0.8-0.7-2.2-1-3.9-1h-3V718.4z"></path>
		<path class="st1 kQJdlcfY_11" d="M384.7,720.6h-7.3l-2.5,6.3h-1.4l7.2-17.9h0.8l7,17.9h-1.4L384.7,720.6z M377.9,719.4h6.4l-2.4-6.4
			c-0.2-0.5-0.4-1.2-0.7-2.1c-0.2,0.8-0.5,1.5-0.7,2.1L377.9,719.4z"></path>
		<path class="st1 kQJdlcfY_12" d="M405.6,726.9h-1.3L393.7,711h-0.1c0.1,1.9,0.1,3.3,0.1,4.3v11.6h-1.2V709h1.2l10.6,15.8h0.1
			c-0.1-1.5-0.1-2.9-0.1-4.2V709h1.2V726.9z"></path>
		<path class="st1 kQJdlcfY_13" d="M416.6,726.9h-1.3v-16.7h-5.8V709h12.9v1.2h-5.8V726.9z"></path>
		<path class="st1 kQJdlcfY_14" d="M440.6,717.9c0,2.8-0.7,5.1-2.1,6.7s-3.4,2.5-5.9,2.5c-2.5,0-4.4-0.8-5.8-2.5s-2.1-3.9-2.1-6.7
			c0-2.8,0.7-5.1,2.1-6.7c1.4-1.6,3.4-2.4,5.9-2.4c2.5,0,4.4,0.8,5.8,2.5C439.9,712.8,440.6,715.1,440.6,717.9z M426,717.9
			c0,2.6,0.6,4.5,1.7,5.9s2.8,2.1,4.9,2.1c2.1,0,3.8-0.7,4.9-2.1c1.1-1.4,1.7-3.4,1.7-5.9c0-2.6-0.6-4.5-1.7-5.9
			c-1.1-1.4-2.8-2.1-4.9-2.1c-2.1,0-3.8,0.7-4.9,2.1C426.6,713.4,426,715.4,426,717.9z"></path>
		<path class="st1 kQJdlcfY_15" d="M458.7,726.9h-1.3L446.8,711h-0.1c0.1,1.9,0.1,3.3,0.1,4.3v11.6h-1.2V709h1.2l10.6,15.8h0.1
			c-0.1-1.5-0.1-2.9-0.1-4.2V709h1.2V726.9z"></path>
		<path class="st1 kQJdlcfY_16" d="M474.4,726.9h-9.8V709h9.8v1.1h-8.5v6.8h8v1.1h-8v7.7h8.5V726.9z"></path>
		<path class="st1 kQJdlcfY_17" d="M489,726.9l7.3-16.7h-10.1V709h11.5v0.9l-7.4,17H489z"></path>
		<path class="st1 kQJdlcfY_18" d="M506.3,716.1c1.9,0,3.4,0.5,4.5,1.4c1.1,0.9,1.6,2.2,1.6,3.8c0,1.8-0.6,3.3-1.7,4.3c-1.1,1-2.7,1.5-4.7,1.5
			c-0.9,0-1.7-0.1-2.5-0.3c-0.8-0.2-1.5-0.4-2-0.8v-1.3c0.9,0.4,1.7,0.8,2.3,0.9c0.7,0.2,1.4,0.3,2.2,0.3c1.6,0,2.8-0.4,3.8-1.2
			c0.9-0.8,1.4-1.9,1.4-3.3c0-1.3-0.5-2.4-1.4-3.1c-0.9-0.8-2.2-1.1-3.7-1.1c-1.1,0-2.2,0.2-3.3,0.5l-0.7-0.5l0.7-8.2h8.6v1.2h-7.4
			l-0.5,6.3C504.6,716.3,505.6,716.1,506.3,716.1z"></path>
		<path class="st1 kQJdlcfY_19" d="M521.2,716.1c1.9,0,3.4,0.5,4.5,1.4c1.1,0.9,1.6,2.2,1.6,3.8c0,1.8-0.6,3.3-1.7,4.3c-1.1,1-2.7,1.5-4.7,1.5
			c-0.9,0-1.7-0.1-2.5-0.3c-0.8-0.2-1.5-0.4-2-0.8v-1.3c0.9,0.4,1.7,0.8,2.3,0.9c0.7,0.2,1.4,0.3,2.2,0.3c1.6,0,2.8-0.4,3.8-1.2
			c0.9-0.8,1.4-1.9,1.4-3.3c0-1.3-0.5-2.4-1.4-3.1c-0.9-0.8-2.2-1.1-3.7-1.1c-1.1,0-2.2,0.2-3.3,0.5l-0.7-0.5l0.7-8.2h8.6v1.2h-7.4
			l-0.5,6.3C519.5,716.3,520.5,716.1,521.2,716.1z"></path>
		<path class="st1 kQJdlcfY_20" d="M533.7,726.9l7.3-16.7h-10.1V709h11.5v0.9l-7.4,17H533.7z"></path>
		<path class="st1 kQJdlcfY_21" d="M563,709.9c-2.2,0-4,0.7-5.3,2.1s-1.9,3.4-1.9,5.9c0,2.5,0.6,4.5,1.8,5.9c1.2,1.4,2.9,2.1,5.2,2.1
			c1.5,0,2.9-0.2,4.1-0.6v1.1c-1.2,0.4-2.7,0.6-4.4,0.6c-2.5,0-4.5-0.8-5.9-2.4s-2.2-3.9-2.2-6.8c0-1.8,0.3-3.4,1-4.8
			c0.7-1.4,1.7-2.5,3-3.2c1.3-0.8,2.8-1.1,4.5-1.1c1.7,0,3.3,0.3,4.7,1l-0.5,1.1C565.8,710.2,564.4,709.9,563,709.9z"></path>
	</g>
	<g>
		<path class="st1 kQJdlcfY_22" d="M236.3,681.8c0,2.9-0.8,5.2-2.5,6.8c-1.7,1.6-4.1,2.3-7.2,2.3h-5.1V673h5.6c2.9,0,5.2,0.8,6.8,2.3
			C235.5,676.9,236.3,679,236.3,681.8z M232.3,681.9c0-3.8-1.7-5.8-5.1-5.8h-2v11.6h1.6C230.5,687.7,232.3,685.8,232.3,681.9z"></path>
		<path class="st1 kQJdlcfY_23" d="M240.5,673.7c0-1.2,0.7-1.8,2-1.8c1.4,0,2,0.6,2,1.8c0,0.6-0.2,1-0.5,1.3c-0.3,0.3-0.8,0.5-1.5,0.5
			C241.2,675.5,240.5,674.9,240.5,673.7z M244.4,690.9h-3.7v-13.6h3.7V690.9z"></path>
		<path class="st1 kQJdlcfY_24" d="M261.4,677.2v1.9l-2.1,0.5c0.4,0.6,0.6,1.3,0.6,2.1c0,1.5-0.5,2.6-1.5,3.4c-1,0.8-2.4,1.2-4.3,1.2l-0.7,0
			l-0.5-0.1c-0.4,0.3-0.6,0.6-0.6,1c0,0.5,0.7,0.8,2.1,0.8h2.3c1.5,0,2.6,0.3,3.4,1c0.8,0.6,1.2,1.6,1.2,2.8c0,1.6-0.7,2.8-2,3.7
			c-1.3,0.9-3.2,1.3-5.7,1.3c-1.9,0-3.4-0.3-4.4-1c-1-0.7-1.5-1.6-1.5-2.8c0-0.8,0.3-1.5,0.8-2.1c0.5-0.6,1.3-0.9,2.3-1.2
			c-0.4-0.2-0.7-0.4-1-0.8c-0.3-0.4-0.4-0.8-0.4-1.2c0-0.5,0.2-1,0.5-1.3s0.7-0.7,1.3-1c-0.7-0.3-1.3-0.8-1.7-1.5
			c-0.4-0.7-0.6-1.5-0.6-2.4c0-1.5,0.5-2.6,1.5-3.5c1-0.8,2.4-1.2,4.2-1.2c0.4,0,0.8,0,1.4,0.1c0.5,0.1,0.9,0.1,1,0.2H261.4z
			 M250.8,692.8c0,0.5,0.2,0.9,0.7,1.2s1.2,0.4,2.1,0.4c1.3,0,2.4-0.2,3.1-0.5c0.8-0.4,1.1-0.9,1.1-1.5c0-0.5-0.2-0.9-0.7-1.1
			c-0.4-0.2-1.1-0.3-2.1-0.3h-1.9c-0.7,0-1.3,0.2-1.7,0.5S250.8,692.3,250.8,692.8z M252.2,681.7c0,0.7,0.2,1.3,0.5,1.8
			s0.9,0.6,1.5,0.6c0.7,0,1.2-0.2,1.5-0.6c0.3-0.4,0.5-1,0.5-1.8c0-1.6-0.7-2.5-2-2.5C252.9,679.2,252.2,680,252.2,681.7z"></path>
		<path class="st1 kQJdlcfY_25" d="M264.6,673.7c0-1.2,0.7-1.8,2-1.8c1.4,0,2,0.6,2,1.8c0,0.6-0.2,1-0.5,1.3c-0.3,0.3-0.8,0.5-1.5,0.5
			C265.3,675.5,264.6,674.9,264.6,673.7z M268.5,690.9h-3.7v-13.6h3.7V690.9z"></path>
		<path class="st1 kQJdlcfY_26" d="M279.1,688.1c0.7,0,1.4-0.1,2.3-0.4v2.8c-0.9,0.4-2.1,0.6-3.4,0.6c-1.5,0-2.6-0.4-3.3-1.1
			c-0.7-0.8-1-1.9-1-3.4V680H272v-1.6l2.1-1.2l1.1-2.9h2.4v2.9h3.8v2.8h-3.8v6.6c0,0.5,0.1,0.9,0.4,1.2S278.6,688.1,279.1,688.1z"></path>
		<path class="st1 kQJdlcfY_27" d="M294.2,690.9l-0.7-1.9h-0.1c-0.6,0.8-1.3,1.3-1.9,1.6c-0.7,0.3-1.5,0.5-2.6,0.5c-1.3,0-2.3-0.4-3.1-1.1
			c-0.8-0.8-1.1-1.8-1.1-3.2c0-1.4,0.5-2.5,1.5-3.2c1-0.7,2.5-1.1,4.6-1.1l2.4-0.1v-0.6c0-1.4-0.7-2.1-2.1-2.1c-1.1,0-2.4,0.3-3.8,1
			l-1.2-2.5c1.6-0.8,3.3-1.2,5.2-1.2c1.8,0,3.2,0.4,4.2,1.2s1.5,2,1.5,3.6v9.1H294.2z M293.1,684.5l-1.4,0c-1.1,0-1.9,0.2-2.4,0.6
			c-0.5,0.4-0.8,0.9-0.8,1.6c0,1,0.6,1.6,1.8,1.6c0.9,0,1.6-0.2,2.1-0.7s0.8-1.2,0.8-2V684.5z"></path>
		<path class="st1 kQJdlcfY_28" d="M305.3,690.9h-3.7v-19h3.7V690.9z"></path>
		<path class="st1 kQJdlcfY_29" d="M256.1,714.6c0,1.9-0.6,3.4-1.8,4.4c-1.2,1-2.9,1.5-5.1,1.5h-1.6v6.3h-3.8V709h5.7c2.2,0,3.8,0.5,4.9,1.4
			C255.5,711.4,256.1,712.7,256.1,714.6z M247.5,717.4h1.2c1.2,0,2-0.2,2.6-0.7c0.6-0.5,0.9-1.1,0.9-2c0-0.9-0.2-1.5-0.7-2
			c-0.5-0.4-1.2-0.6-2.3-0.6h-1.7V717.4z"></path>
		<path class="st1 kQJdlcfY_30" d="M267.7,713c0.5,0,0.9,0,1.3,0.1l-0.3,3.5c-0.3-0.1-0.7-0.1-1.1-0.1c-1.2,0-2.1,0.3-2.8,0.9
			c-0.7,0.6-1,1.5-1,2.6v6.9H260v-13.6h2.8l0.5,2.3h0.2c0.4-0.8,1-1.4,1.7-1.8C266,713.2,266.8,713,267.7,713z"></path>
		<path class="st1 kQJdlcfY_31" d="M272.3,709.7c0-1.2,0.7-1.8,2-1.8c1.4,0,2,0.6,2,1.8c0,0.6-0.2,1-0.5,1.3c-0.3,0.3-0.8,0.5-1.5,0.5
			C272.9,711.5,272.3,710.9,272.3,709.7z M276.1,726.9h-3.7v-13.6h3.7V726.9z"></path>
		<path class="st1 kQJdlcfY_32" d="M293.6,726.9h-3.7v-8c0-1-0.2-1.7-0.5-2.2s-0.9-0.7-1.7-0.7c-1,0-1.8,0.3-2.3,1c-0.5,0.7-0.7,1.8-0.7,3.5v6.4
			H281v-13.6h2.8l0.5,1.7h0.2c0.4-0.7,1-1.2,1.7-1.5c0.7-0.3,1.6-0.5,2.5-0.5c1.6,0,2.8,0.4,3.6,1.3c0.8,0.9,1.2,2.1,1.2,3.7V726.9z
			"></path>
		<path class="st1 kQJdlcfY_33" d="M304.1,724.1c0.7,0,1.4-0.1,2.3-0.4v2.8c-0.9,0.4-2.1,0.6-3.4,0.6c-1.5,0-2.6-0.4-3.3-1.1
			c-0.7-0.8-1-1.9-1-3.4V716H297v-1.6l2.1-1.2l1.1-2.9h2.4v2.9h3.8v2.8h-3.8v6.6c0,0.5,0.1,0.9,0.4,1.2S303.7,724.1,304.1,724.1z"></path>
	</g>
	<g>
		<path class="st1 kQJdlcfY_34" d="M774.7,690.9h-1.3v-8.8H763v8.8h-1.2V673h1.2v7.9h10.4V673h1.3V690.9z"></path>
		<path class="st1 kQJdlcfY_35" d="M790.4,690.9h-9.8V673h9.8v1.1h-8.5v6.8h8v1.1h-8v7.7h8.5V690.9z"></path>
		<path class="st1 kQJdlcfY_36" d="M807.3,690.9h-1.4l-5.3-8.3l-5.4,8.3h-1.4l6-9.3l-5.5-8.5h1.4l4.8,7.6l4.9-7.6h1.3l-5.5,8.5L807.3,690.9z"></path>
		<path class="st1 kQJdlcfY_37" d="M824.6,690.9h-1.2v-13c0-1.2,0-2.4,0.1-3.7c-0.1,0.1-0.2,0.2-0.4,0.4c-0.1,0.1-1.4,1.1-3.8,3l-0.7-0.9
			l4.8-3.6h1V690.9z"></path>
		<path class="st1 kQJdlcfY_38" d="M843.9,686.3h-3.1v4.6h-1.1v-4.6h-9.2v-0.8l8.8-12.6h1.5v12.3h3.1V686.3z M839.7,685.3v-5.1
			c0-2.5,0.1-4.5,0.2-6.2h-0.1c-0.2,0.3-0.7,1.1-1.5,2.3l-6.3,9H839.7z"></path>
		<path class="st1 kQJdlcfY_39" d="M852.3,690.9h-1.2v-13c0-1.2,0-2.4,0.1-3.7c-0.1,0.1-0.2,0.2-0.4,0.4c-0.1,0.1-1.4,1.1-3.8,3l-0.7-0.9
			l4.8-3.6h1V690.9z"></path>
		<path class="st1 kQJdlcfY_40" d="M863.8,680.1c1.9,0,3.4,0.5,4.5,1.4c1.1,0.9,1.6,2.2,1.6,3.8c0,1.8-0.6,3.3-1.7,4.3c-1.1,1-2.7,1.5-4.7,1.5
			c-0.9,0-1.7-0.1-2.5-0.3c-0.8-0.2-1.5-0.4-2-0.8v-1.3c0.9,0.4,1.7,0.8,2.3,0.9c0.7,0.2,1.4,0.3,2.2,0.3c1.6,0,2.8-0.4,3.8-1.2
			c0.9-0.8,1.4-1.9,1.4-3.3c0-1.3-0.5-2.4-1.4-3.1c-0.9-0.8-2.2-1.1-3.7-1.1c-1.1,0-2.2,0.2-3.3,0.5l-0.7-0.5l0.7-8.2h8.6v1.2h-7.4
			l-0.5,6.3C862.1,680.3,863.1,680.1,863.8,680.1z"></path>
		<path class="st1 kQJdlcfY_41" d="M879,690.9h-1.2v-13c0-1.2,0-2.4,0.1-3.7c-0.1,0.1-0.2,0.2-0.4,0.4c-0.1,0.1-1.4,1.1-3.8,3l-0.7-0.9l4.8-3.6
			h1V690.9z"></path>
		<path class="st1 kQJdlcfY_42" d="M890.4,680.1c1.9,0,3.4,0.5,4.5,1.4c1.1,0.9,1.6,2.2,1.6,3.8c0,1.8-0.6,3.3-1.7,4.3c-1.1,1-2.7,1.5-4.7,1.5
			c-0.9,0-1.7-0.1-2.5-0.3c-0.8-0.2-1.5-0.4-2-0.8v-1.3c0.9,0.4,1.7,0.8,2.3,0.9c0.7,0.2,1.4,0.3,2.2,0.3c1.6,0,2.8-0.4,3.8-1.2
			c0.9-0.8,1.4-1.9,1.4-3.3c0-1.3-0.5-2.4-1.4-3.1c-0.9-0.8-2.2-1.1-3.7-1.1c-1.1,0-2.2,0.2-3.3,0.5l-0.7-0.5l0.7-8.2h8.6v1.2H888
			l-0.5,6.3C888.7,680.3,889.7,680.1,890.4,680.1z"></path>
		<path class="st1 kQJdlcfY_43" d="M772.5,714.2c0,1.7-0.6,3-1.8,4c-1.2,0.9-2.8,1.4-5,1.4H763v7.4h-1.2V709h4.4
			C770.4,709,772.5,710.7,772.5,714.2z M763,718.4h2.5c2,0,3.5-0.3,4.4-1c0.9-0.7,1.3-1.7,1.3-3.2c0-1.4-0.4-2.4-1.3-3.1
			c-0.8-0.7-2.2-1-3.9-1h-3V718.4z"></path>
		<path class="st1 kQJdlcfY_44" d="M784.7,720.6h-7.3l-2.5,6.3h-1.4l7.2-17.9h0.8l7,17.9h-1.4L784.7,720.6z M777.9,719.4h6.4l-2.4-6.4
			c-0.2-0.5-0.4-1.2-0.7-2.1c-0.2,0.8-0.5,1.5-0.7,2.1L777.9,719.4z"></path>
		<path class="st1 kQJdlcfY_45" d="M805.6,726.9h-1.3L793.7,711h-0.1c0.1,1.9,0.1,3.3,0.1,4.3v11.6h-1.2V709h1.2l10.6,15.8h0.1
			c-0.1-1.5-0.1-2.9-0.1-4.2V709h1.2V726.9z"></path>
		<path class="st1 kQJdlcfY_46" d="M816.6,726.9h-1.3v-16.7h-5.8V709h12.9v1.2h-5.8V726.9z"></path>
		<path class="st1 kQJdlcfY_47" d="M840.6,717.9c0,2.8-0.7,5.1-2.1,6.7s-3.4,2.5-5.9,2.5c-2.5,0-4.4-0.8-5.8-2.5s-2.1-3.9-2.1-6.7
			c0-2.8,0.7-5.1,2.1-6.7c1.4-1.6,3.4-2.4,5.9-2.4c2.5,0,4.4,0.8,5.8,2.5C839.9,712.8,840.6,715.1,840.6,717.9z M826,717.9
			c0,2.6,0.6,4.5,1.7,5.9s2.8,2.1,4.9,2.1c2.1,0,3.8-0.7,4.9-2.1c1.1-1.4,1.7-3.4,1.7-5.9c0-2.6-0.6-4.5-1.7-5.9
			c-1.1-1.4-2.8-2.1-4.9-2.1c-2.1,0-3.8,0.7-4.9,2.1C826.6,713.4,826,715.4,826,717.9z"></path>
		<path class="st1 kQJdlcfY_48" d="M858.7,726.9h-1.3L846.8,711h-0.1c0.1,1.9,0.1,3.3,0.1,4.3v11.6h-1.2V709h1.2l10.6,15.8h0.1
			c-0.1-1.5-0.1-2.9-0.1-4.2V709h1.2V726.9z"></path>
		<path class="st1 kQJdlcfY_49" d="M874.4,726.9h-9.8V709h9.8v1.1h-8.5v6.8h8v1.1h-8v7.7h8.5V726.9z"></path>
		<path class="st1 kQJdlcfY_50" d="M887.4,709h4.9c2.2,0,3.8,0.4,4.9,1.1c1,0.8,1.5,1.9,1.5,3.4c0,1-0.3,1.9-0.9,2.6c-0.6,0.7-1.6,1.1-2.8,1.3
			v0.1c1.4,0.2,2.5,0.7,3.1,1.3c0.7,0.7,1,1.6,1,2.9c0,1.6-0.5,2.9-1.6,3.8c-1.1,0.9-2.6,1.3-4.6,1.3h-5.5V709z M888.7,717h3.9
			c1.7,0,2.9-0.3,3.7-0.8s1.1-1.4,1.1-2.6c0-1.2-0.4-2.1-1.3-2.6s-2.1-0.8-3.8-0.8h-3.6V717z M888.7,718.1v7.7h4.2c3.3,0,5-1.3,5-4
			c0-2.4-1.7-3.7-5.2-3.7H888.7z"></path>
		<path class="st1 kQJdlcfY_51" d="M905.2,726.9H904v-19h1.2V726.9z"></path>
		<path class="st1 kQJdlcfY_52" d="M918.6,726.9l-0.3-2.1h-0.1c-0.7,0.9-1.4,1.5-2.1,1.8s-1.5,0.5-2.5,0.5c-1.3,0-2.3-0.3-3-1
			c-0.7-0.7-1.1-1.6-1.1-2.8c0-1.3,0.5-2.3,1.6-3c1.1-0.7,2.6-1.1,4.7-1.1l2.5-0.1v-0.9c0-1.3-0.3-2.2-0.8-2.9c-0.5-0.6-1.3-1-2.5-1
			c-1.2,0-2.5,0.3-3.8,1l-0.5-1.1c1.5-0.7,2.9-1,4.3-1c1.5,0,2.5,0.4,3.3,1.1c0.7,0.8,1.1,1.9,1.1,3.5v8.8H918.6z M913.7,726
			c1.4,0,2.5-0.4,3.4-1.2c0.8-0.8,1.2-1.9,1.2-3.4v-1.3l-2.3,0.1c-1.9,0.1-3.2,0.4-4,0.9c-0.8,0.5-1.2,1.3-1.2,2.3
			c0,0.8,0.3,1.5,0.8,1.9C912.1,725.8,912.8,726,913.7,726z"></path>
		<path class="st1 kQJdlcfY_53" d="M930.1,727.1c-1.9,0-3.4-0.6-4.5-1.8c-1.1-1.2-1.6-2.9-1.6-5c0-2.2,0.6-3.9,1.7-5.1c1.1-1.2,2.6-1.8,4.6-1.8
			c1.1,0,2.2,0.2,3.3,0.6l-0.3,1.1c-1.1-0.4-2.1-0.6-3-0.6c-1.6,0-2.9,0.5-3.7,1.5c-0.8,1-1.3,2.5-1.3,4.3c0,1.8,0.4,3.2,1.3,4.2
			s2,1.5,3.5,1.5c1.2,0,2.3-0.2,3.4-0.6v1.1C932.6,726.9,931.5,727.1,930.1,727.1z"></path>
		<path class="st1 kQJdlcfY_54" d="M938.9,721l6.8-7.4h1.5l-5.2,5.7l5.7,7.6h-1.5l-5-6.7l-2.2,2v4.7h-1.2v-19h1.2v9.5L938.9,721L938.9,721z"></path>
		<path class="st1 kQJdlcfY_55" d="M966.8,709.9c-2.2,0-4,0.7-5.3,2.1s-1.9,3.4-1.9,5.9c0,2.5,0.6,4.5,1.8,5.9c1.2,1.4,2.9,2.1,5.2,2.1
			c1.5,0,2.9-0.2,4.1-0.6v1.1c-1.2,0.4-2.7,0.6-4.4,0.6c-2.5,0-4.5-0.8-5.9-2.4s-2.2-3.9-2.2-6.8c0-1.8,0.3-3.4,1-4.8
			c0.7-1.4,1.7-2.5,3-3.2c1.3-0.8,2.8-1.1,4.5-1.1c1.7,0,3.3,0.3,4.7,1l-0.5,1.1C969.6,710.2,968.2,709.9,966.8,709.9z"></path>
	</g>
	<g>
		<path class="st1 kQJdlcfY_56" d="M1174.7,690.9h-1.3v-8.8H1163v8.8h-1.2V673h1.2v7.9h10.4V673h1.3V690.9z"></path>
		<path class="st1 kQJdlcfY_57" d="M1190.4,690.9h-9.8V673h9.8v1.1h-8.5v6.8h8v1.1h-8v7.7h8.5V690.9z"></path>
		<path class="st1 kQJdlcfY_58" d="M1207.3,690.9h-1.4l-5.3-8.3l-5.4,8.3h-1.4l6-9.3l-5.5-8.5h1.4l4.8,7.6l4.9-7.6h1.3l-5.5,8.5L1207.3,690.9z"></path>
		<path class="st1 kQJdlcfY_59" d="M1223.5,678.7h-3.1v12.2h-1.2v-12.2h-2.5v-0.7l2.5-0.5v-1c0-1.6,0.3-2.8,0.9-3.6c0.6-0.8,1.6-1.1,2.9-1.1
			c0.7,0,1.5,0.1,2.2,0.3l-0.3,1c-0.7-0.2-1.3-0.3-1.9-0.3c-0.9,0-1.6,0.3-2,0.8c-0.4,0.6-0.6,1.5-0.6,2.7v1.2h3.1V678.7z
			 M1231,678.7h-3.1v12.2h-1.2v-12.2h-2.5v-0.7l2.5-0.5v-1c0-1.6,0.3-2.8,0.9-3.6c0.6-0.8,1.6-1.1,2.9-1.1c0.7,0,1.5,0.1,2.2,0.3
			l-0.3,1c-0.7-0.2-1.3-0.3-1.9-0.3c-0.9,0-1.6,0.3-2,0.8c-0.4,0.6-0.6,1.5-0.6,2.7v1.2h3.1V678.7z"></path>
		<path class="st1 kQJdlcfY_60" d="M1240.8,678.7h-3.1v12.2h-1.2v-12.2h-2.5v-0.7l2.5-0.5v-1c0-1.6,0.3-2.8,0.9-3.6c0.6-0.8,1.6-1.1,2.9-1.1
			c0.7,0,1.5,0.1,2.2,0.3l-0.3,1c-0.7-0.2-1.3-0.3-1.9-0.3c-0.9,0-1.6,0.3-2,0.8c-0.4,0.6-0.6,1.5-0.6,2.7v1.2h3.1V678.7z"></path>
		<path class="st1 kQJdlcfY_61" d="M1247.8,690.9l7.3-16.7H1245V673h11.5v0.9l-7.4,17H1247.8z"></path>
		<path class="st1 kQJdlcfY_62" d="M1266.1,678.7h-3.1v12.2h-1.2v-12.2h-2.5v-0.7l2.5-0.5v-1c0-1.6,0.3-2.8,0.9-3.6c0.6-0.8,1.6-1.1,2.9-1.1
			c0.7,0,1.5,0.1,2.2,0.3l-0.3,1c-0.7-0.2-1.3-0.3-1.9-0.3c-0.9,0-1.6,0.3-2,0.8c-0.4,0.6-0.6,1.5-0.6,2.7v1.2h3.1V678.7z"></path>
		<path class="st1 kQJdlcfY_63" d="M1280.4,677.2c0,1.1-0.3,2-1,2.8c-0.7,0.8-1.6,1.2-2.8,1.5v0.1c1.4,0.2,2.5,0.6,3.3,1.4s1.1,1.7,1.1,3
			c0,1.7-0.6,3-1.7,3.9c-1.1,0.9-2.8,1.4-4.9,1.4c-1.8,0-3.4-0.3-4.7-1v-1.2c0.7,0.4,1.5,0.6,2.3,0.8c0.9,0.2,1.7,0.3,2.4,0.3
			c1.8,0,3.1-0.4,4.1-1.1c0.9-0.7,1.4-1.8,1.4-3.1c0-1.2-0.5-2.1-1.4-2.7s-2.3-1-4.1-1h-1.9V681h2c1.5,0,2.7-0.4,3.5-1.1
			c0.9-0.7,1.3-1.7,1.3-2.9c0-1-0.4-1.8-1.1-2.4c-0.7-0.6-1.6-0.9-2.8-0.9c-0.9,0-1.7,0.1-2.4,0.4s-1.6,0.7-2.5,1.3l-0.6-0.8
			c0.7-0.6,1.5-1,2.5-1.4c1-0.3,2-0.5,3-0.5c1.6,0,2.9,0.4,3.8,1.2C1280,674.7,1280.4,675.8,1280.4,677.2z"></path>
		<path class="st1 kQJdlcfY_64" d="M1172.5,714.2c0,1.7-0.6,3-1.8,4c-1.2,0.9-2.8,1.4-5,1.4h-2.8v7.4h-1.2V709h4.4
			C1170.4,709,1172.5,710.7,1172.5,714.2z M1163,718.4h2.5c2,0,3.5-0.3,4.4-1c0.9-0.7,1.3-1.7,1.3-3.2c0-1.4-0.4-2.4-1.3-3.1
			c-0.8-0.7-2.2-1-3.9-1h-3V718.4z"></path>
		<path class="st1 kQJdlcfY_65" d="M1184.7,720.6h-7.3l-2.5,6.3h-1.4l7.2-17.9h0.8l7,17.9h-1.4L1184.7,720.6z M1177.9,719.4h6.4l-2.4-6.4
			c-0.2-0.5-0.4-1.2-0.7-2.1c-0.2,0.8-0.5,1.5-0.7,2.1L1177.9,719.4z"></path>
		<path class="st1 kQJdlcfY_66" d="M1205.6,726.9h-1.3l-10.6-15.8h-0.1c0.1,1.9,0.1,3.3,0.1,4.3v11.6h-1.2V709h1.2l10.6,15.8h0.1
			c-0.1-1.5-0.1-2.9-0.1-4.2V709h1.2V726.9z"></path>
		<path class="st1 kQJdlcfY_67" d="M1216.6,726.9h-1.3v-16.7h-5.8V709h12.9v1.2h-5.8V726.9z"></path>
		<path class="st1 kQJdlcfY_68" d="M1240.6,717.9c0,2.8-0.7,5.1-2.1,6.7s-3.4,2.5-5.9,2.5c-2.5,0-4.4-0.8-5.8-2.5s-2.1-3.9-2.1-6.7
			c0-2.8,0.7-5.1,2.1-6.7c1.4-1.6,3.4-2.4,5.9-2.4c2.5,0,4.4,0.8,5.8,2.5C1239.9,712.8,1240.6,715.1,1240.6,717.9z M1226,717.9
			c0,2.6,0.6,4.5,1.7,5.9s2.8,2.1,4.9,2.1c2.1,0,3.8-0.7,4.9-2.1c1.1-1.4,1.7-3.4,1.7-5.9c0-2.6-0.6-4.5-1.7-5.9
			c-1.1-1.4-2.8-2.1-4.9-2.1c-2.1,0-3.8,0.7-4.9,2.1C1226.6,713.4,1226,715.4,1226,717.9z"></path>
		<path class="st1 kQJdlcfY_69" d="M1258.7,726.9h-1.3l-10.6-15.8h-0.1c0.1,1.9,0.1,3.3,0.1,4.3v11.6h-1.2V709h1.2l10.6,15.8h0.1
			c-0.1-1.5-0.1-2.9-0.1-4.2V709h1.2V726.9z"></path>
		<path class="st1 kQJdlcfY_70" d="M1274.4,726.9h-9.8V709h9.8v1.1h-8.5v6.8h8v1.1h-8v7.7h8.5V726.9z"></path>
		<path class="st1 kQJdlcfY_71" d="M1286.5,719.3c0-2.3,0.3-4.3,0.9-5.9c0.6-1.6,1.5-2.8,2.7-3.5c1.2-0.8,2.6-1.1,4.2-1.1c0.8,0,1.5,0.1,2.1,0.3
			v1.1c-0.6-0.2-1.3-0.3-2.1-0.3c-2,0-3.6,0.7-4.7,2.2c-1.1,1.4-1.7,3.6-1.9,6.3h0.2c0.6-0.8,1.3-1.4,2.1-1.8
			c0.8-0.4,1.6-0.6,2.5-0.6c1.7,0,3,0.5,3.9,1.4c0.9,1,1.4,2.3,1.4,3.9c0,1.8-0.5,3.3-1.5,4.3c-1,1.1-2.3,1.6-4,1.6
			c-1.8,0-3.2-0.7-4.3-2.1C1287,723.7,1286.5,721.7,1286.5,719.3z M1292.4,726c1.3,0,2.4-0.4,3.1-1.3c0.7-0.8,1.1-2,1.1-3.6
			c0-1.4-0.4-2.4-1.1-3.2s-1.7-1.1-3-1.1c-0.8,0-1.6,0.2-2.3,0.5c-0.7,0.4-1.3,0.9-1.7,1.5c-0.4,0.6-0.6,1.2-0.6,1.9
			c0,0.9,0.2,1.8,0.6,2.6c0.4,0.8,0.9,1.5,1.6,2C1290.8,725.8,1291.5,726,1292.4,726z"></path>
		<path class="st1 kQJdlcfY_72" d="M1302,719.3c0-2.3,0.3-4.3,0.9-5.9c0.6-1.6,1.5-2.8,2.7-3.5c1.2-0.8,2.6-1.1,4.2-1.1c0.8,0,1.5,0.1,2.1,0.3
			v1.1c-0.6-0.2-1.3-0.3-2.1-0.3c-2,0-3.6,0.7-4.7,2.2c-1.1,1.4-1.7,3.6-1.9,6.3h0.2c0.6-0.8,1.3-1.4,2.1-1.8
			c0.8-0.4,1.6-0.6,2.5-0.6c1.7,0,3,0.5,3.9,1.4c0.9,1,1.4,2.3,1.4,3.9c0,1.8-0.5,3.3-1.5,4.3c-1,1.1-2.3,1.6-4,1.6
			c-1.8,0-3.2-0.7-4.3-2.1C1302.5,723.7,1302,721.7,1302,719.3z M1307.8,726c1.3,0,2.4-0.4,3.1-1.3c0.7-0.8,1.1-2,1.1-3.6
			c0-1.4-0.4-2.4-1.1-3.2s-1.7-1.1-3-1.1c-0.8,0-1.6,0.2-2.3,0.5c-0.7,0.4-1.3,0.9-1.7,1.5c-0.4,0.6-0.6,1.2-0.6,1.9
			c0,0.9,0.2,1.8,0.6,2.6c0.4,0.8,0.9,1.5,1.6,2C1306.3,725.8,1307,726,1307.8,726z"></path>
		<path class="st1 kQJdlcfY_73" d="M1327.7,713.2c0,1.1-0.3,2-1,2.8c-0.7,0.8-1.6,1.2-2.8,1.5v0.1c1.4,0.2,2.5,0.6,3.3,1.4s1.1,1.7,1.1,3
			c0,1.7-0.6,3-1.7,3.9c-1.1,0.9-2.8,1.4-4.9,1.4c-1.8,0-3.4-0.3-4.7-1v-1.2c0.7,0.4,1.5,0.6,2.3,0.8c0.9,0.2,1.7,0.3,2.4,0.3
			c1.8,0,3.1-0.4,4.1-1.1c0.9-0.7,1.4-1.8,1.4-3.1c0-1.2-0.5-2.1-1.4-2.7s-2.3-1-4.1-1h-1.9V717h2c1.5,0,2.7-0.4,3.5-1.1
			c0.9-0.7,1.3-1.7,1.3-2.9c0-1-0.4-1.8-1.1-2.4c-0.7-0.6-1.6-0.9-2.8-0.9c-0.9,0-1.7,0.1-2.4,0.4s-1.6,0.7-2.5,1.3l-0.6-0.8
			c0.7-0.6,1.5-1,2.5-1.4c1-0.3,2-0.5,3-0.5c1.6,0,2.9,0.4,3.8,1.2C1327.2,710.7,1327.7,711.8,1327.7,713.2z"></path>
		<path class="st1 kQJdlcfY_74" d="M1349.1,709.9c-2.2,0-4,0.7-5.3,2.1s-1.9,3.4-1.9,5.9c0,2.5,0.6,4.5,1.8,5.9c1.2,1.4,2.9,2.1,5.2,2.1
			c1.5,0,2.9-0.2,4.1-0.6v1.1c-1.2,0.4-2.7,0.6-4.4,0.6c-2.5,0-4.5-0.8-5.9-2.4s-2.2-3.9-2.2-6.8c0-1.8,0.3-3.4,1-4.8
			c0.7-1.4,1.7-2.5,3-3.2c1.3-0.8,2.8-1.1,4.5-1.1c1.7,0,3.3,0.3,4.7,1l-0.5,1.1C1351.9,710.2,1350.5,709.9,1349.1,709.9z"></path>
	</g>
	<g>
		<path class="st1 kQJdlcfY_75" d="M373.8,385.7c0,1.9-0.6,3.4-1.8,4.4c-1.2,1-2.9,1.5-5.1,1.5h-1.6v6.3h-3.8v-17.8h5.7c2.2,0,3.8,0.5,4.9,1.4
			C373.2,382.4,373.8,383.8,373.8,385.7z M365.3,388.5h1.2c1.2,0,2-0.2,2.6-0.7s0.9-1.1,0.9-2c0-0.9-0.2-1.5-0.7-2
			c-0.5-0.4-1.2-0.6-2.3-0.6h-1.7V388.5z"></path>
		<path class="st1 kQJdlcfY_76" d="M385.4,384c0.5,0,0.9,0,1.3,0.1l-0.3,3.5c-0.3-0.1-0.7-0.1-1.1-0.1c-1.2,0-2.1,0.3-2.8,0.9
			c-0.7,0.6-1,1.5-1,2.6v6.9h-3.7v-13.6h2.8l0.5,2.3h0.2c0.4-0.8,1-1.4,1.7-1.8C383.7,384.3,384.5,384,385.4,384z"></path>
		<path class="st1 kQJdlcfY_77" d="M390,380.8c0-1.2,0.7-1.8,2-1.8c1.4,0,2,0.6,2,1.8c0,0.6-0.2,1-0.5,1.3c-0.3,0.3-0.8,0.5-1.5,0.5
			C390.6,382.6,390,382,390,380.8z M393.8,398h-3.7v-13.6h3.7V398z"></path>
		<path class="st1 kQJdlcfY_78" d="M410.9,398h-3.7v-8c0-1-0.2-1.7-0.5-2.2c-0.3-0.5-0.8-0.7-1.6-0.7c-1,0-1.6,0.4-2.1,1.1
			c-0.4,0.7-0.6,1.9-0.6,3.5v6.4h-3.7v-13.6h2.8l0.5,1.7h0.2c0.4-0.6,0.9-1.1,1.6-1.5c0.7-0.4,1.5-0.5,2.4-0.5c2,0,3.4,0.7,4.2,2
			h0.3c0.4-0.6,0.9-1.1,1.6-1.5c0.7-0.3,1.5-0.5,2.4-0.5c1.5,0,2.7,0.4,3.5,1.2c0.8,0.8,1.2,2.1,1.2,3.8v8.9h-3.7v-8
			c0-1-0.2-1.7-0.5-2.2c-0.3-0.5-0.8-0.7-1.6-0.7c-0.9,0-1.6,0.3-2,1c-0.5,0.7-0.7,1.7-0.7,3.1V398z"></path>
		<path class="st1 kQJdlcfY_79" d="M432.9,398l-0.7-1.9h-0.1c-0.6,0.8-1.3,1.3-1.9,1.6c-0.7,0.3-1.5,0.5-2.6,0.5c-1.3,0-2.3-0.4-3.1-1.1
			s-1.1-1.8-1.1-3.2c0-1.4,0.5-2.5,1.5-3.2c1-0.7,2.5-1.1,4.6-1.1l2.4-0.1v-0.6c0-1.4-0.7-2.1-2.1-2.1c-1.1,0-2.4,0.3-3.8,1
			l-1.2-2.5c1.6-0.8,3.3-1.2,5.2-1.2c1.8,0,3.2,0.4,4.2,1.2c1,0.8,1.5,2,1.5,3.6v9.1H432.9z M431.8,391.6l-1.4,0
			c-1.1,0-1.9,0.2-2.4,0.6s-0.8,0.9-0.8,1.6c0,1,0.6,1.6,1.8,1.6c0.9,0,1.6-0.2,2.1-0.7s0.8-1.2,0.8-2V391.6z"></path>
		<path class="st1 kQJdlcfY_80" d="M447.9,384c0.5,0,0.9,0,1.3,0.1l-0.3,3.5c-0.3-0.1-0.7-0.1-1.1-0.1c-1.2,0-2.1,0.3-2.8,0.9
			c-0.7,0.6-1,1.5-1,2.6v6.9h-3.7v-13.6h2.8l0.5,2.3h0.2c0.4-0.8,1-1.4,1.7-1.8C446.3,384.3,447.1,384,447.9,384z"></path>
		<path class="st1 kQJdlcfY_81" d="M451.7,384.3h4.1l2.6,7.7c0.2,0.7,0.4,1.5,0.5,2.4h0.1c0.1-0.8,0.3-1.6,0.5-2.4l2.5-7.7h4l-5.8,15.4
			c-0.5,1.4-1.3,2.5-2.3,3.2c-1,0.7-2.1,1.1-3.4,1.1c-0.6,0-1.3-0.1-1.9-0.2v-3c0.4,0.1,0.9,0.2,1.5,0.2c0.7,0,1.2-0.2,1.7-0.6
			c0.5-0.4,0.9-1,1.2-1.8l0.2-0.7L451.7,384.3z"></path>
		<path class="st1 kQJdlcfY_82" d="M484.7,383c-1.4,0-2.5,0.5-3.3,1.6c-0.8,1.1-1.2,2.6-1.2,4.5c0,4,1.5,6,4.5,6c1.3,0,2.8-0.3,4.6-0.9v3.2
			c-1.5,0.6-3.1,0.9-4.9,0.9c-2.6,0-4.6-0.8-6-2.4c-1.4-1.6-2.1-3.8-2.1-6.8c0-1.9,0.3-3.5,1-4.9s1.6-2.5,2.9-3.2
			c1.3-0.7,2.7-1.1,4.4-1.1c1.7,0,3.5,0.4,5.2,1.3l-1.2,3.1c-0.7-0.3-1.3-0.6-2-0.8S485.4,383,484.7,383z"></path>
		<path class="st1 kQJdlcfY_83" d="M506.1,391.1c0,2.2-0.6,4-1.8,5.2s-2.8,1.9-4.9,1.9c-1.3,0-2.5-0.3-3.5-0.9c-1-0.6-1.8-1.4-2.3-2.5
			s-0.8-2.3-0.8-3.8c0-2.2,0.6-4,1.7-5.2c1.2-1.2,2.8-1.9,4.9-1.9c1.3,0,2.5,0.3,3.5,0.9c1,0.6,1.8,1.4,2.3,2.5
			S506.1,389.7,506.1,391.1z M496.7,391.1c0,1.4,0.2,2.4,0.7,3.1c0.4,0.7,1.2,1,2.2,1c1,0,1.7-0.3,2.1-1c0.4-0.7,0.7-1.7,0.7-3.1
			c0-1.4-0.2-2.4-0.7-3s-1.2-1-2.2-1c-1,0-1.7,0.3-2.1,1C496.9,388.7,496.7,389.7,496.7,391.1z"></path>
		<path class="st1 kQJdlcfY_84" d="M514,398h-3.7v-19h3.7V398z"></path>
		<path class="st1 kQJdlcfY_85" d="M531.4,391.1c0,2.2-0.6,4-1.8,5.2s-2.8,1.9-4.9,1.9c-1.3,0-2.5-0.3-3.5-0.9c-1-0.6-1.8-1.4-2.3-2.5
			s-0.8-2.3-0.8-3.8c0-2.2,0.6-4,1.7-5.2c1.2-1.2,2.8-1.9,4.9-1.9c1.3,0,2.5,0.3,3.5,0.9c1,0.6,1.8,1.4,2.3,2.5
			S531.4,389.7,531.4,391.1z M522,391.1c0,1.4,0.2,2.4,0.7,3.1c0.4,0.7,1.2,1,2.2,1c1,0,1.7-0.3,2.1-1c0.4-0.7,0.7-1.7,0.7-3.1
			c0-1.4-0.2-2.4-0.7-3s-1.2-1-2.2-1c-1,0-1.7,0.3-2.1,1C522.2,388.7,522,389.7,522,391.1z"></path>
		<path class="st1 kQJdlcfY_86" d="M543.2,384c0.5,0,0.9,0,1.3,0.1l-0.3,3.5c-0.3-0.1-0.7-0.1-1.1-0.1c-1.2,0-2.1,0.3-2.8,0.9
			c-0.7,0.6-1,1.5-1,2.6v6.9h-3.7v-13.6h2.8l0.5,2.3h0.2c0.4-0.8,1-1.4,1.7-1.8C541.5,384.3,542.3,384,543.2,384z"></path>
		<path class="st1 kQJdlcfY_87" d="M369.5,424.6h6.1v8.7c-0.9,0.3-1.9,0.5-2.9,0.7c-1,0.2-2.1,0.2-3.4,0.2c-2.7,0-4.8-0.8-6.3-2.4
			c-1.5-1.6-2.3-3.9-2.3-6.8c0-1.9,0.4-3.5,1.1-4.9c0.7-1.4,1.8-2.5,3.2-3.2s3-1.1,4.9-1.1c1.9,0,3.7,0.4,5.3,1.1l-0.8,1.8
			c-1.6-0.7-3.2-1-4.7-1c-2.2,0-3.9,0.6-5.1,1.9s-1.8,3.1-1.8,5.4c0,2.4,0.6,4.2,1.8,5.5c1.2,1.2,2.9,1.9,5.2,1.9
			c1.2,0,2.4-0.1,3.6-0.4v-5.5h-4V424.6z"></path>
		<path class="st1 kQJdlcfY_88" d="M392.4,427.2c0,2.2-0.5,3.9-1.6,5.1c-1.1,1.2-2.6,1.8-4.6,1.8c-1.2,0-2.3-0.3-3.2-0.8
			c-0.9-0.6-1.6-1.4-2.1-2.4c-0.5-1-0.8-2.3-0.8-3.7c0-2.2,0.5-3.9,1.6-5.1c1.1-1.2,2.6-1.8,4.5-1.8c1.9,0,3.4,0.6,4.5,1.9
			C391.8,423.4,392.4,425.1,392.4,427.2z M382.2,427.2c0,1.7,0.3,3,1,3.9c0.7,0.9,1.7,1.3,3,1.3s2.3-0.4,3-1.3c0.7-0.9,1-2.2,1-3.9
			c0-1.7-0.3-3-1-3.9c-0.7-0.9-1.7-1.3-3-1.3c-1.3,0-2.3,0.4-3,1.3S382.2,425.5,382.2,427.2z"></path>
		<path class="st1 kQJdlcfY_89" d="M399,434h-2v-19h2V434z"></path>
		<path class="st1 kQJdlcfY_90" d="M413.5,432.2h-0.1c-0.9,1.4-2.3,2-4.2,2c-1.7,0-3.1-0.6-4.1-1.8c-1-1.2-1.5-2.9-1.5-5.1
			c0-2.2,0.5-3.9,1.5-5.1s2.3-1.8,4.1-1.8c1.8,0,3.2,0.7,4.2,2h0.2l-0.1-1l0-0.9V415h2v19h-1.6L413.5,432.2z M409.4,432.5
			c1.4,0,2.4-0.4,3-1.1c0.6-0.8,0.9-2,0.9-3.6v-0.4c0-1.9-0.3-3.2-0.9-4.1c-0.6-0.8-1.6-1.2-3-1.2c-1.2,0-2.1,0.5-2.7,1.4
			c-0.6,0.9-0.9,2.2-0.9,3.9c0,1.7,0.3,3,0.9,3.9S408.2,432.5,409.4,432.5z"></path>
	</g>
	<g>
		<path class="st1 kQJdlcfY_91" d="M772,393c0,1.6-0.6,2.9-1.7,3.8c-1.2,0.9-2.8,1.4-4.8,1.4c-1.9,0-3.6-0.4-5.1-1.1v-3.5
			c1.2,0.5,2.2,0.9,3.1,1.1c0.8,0.2,1.6,0.3,2.3,0.3c0.8,0,1.5-0.2,1.9-0.5c0.4-0.3,0.7-0.8,0.7-1.4c0-0.3-0.1-0.7-0.3-0.9
			c-0.2-0.3-0.5-0.5-0.9-0.8c-0.4-0.3-1.1-0.7-2.3-1.2c-1.1-0.5-1.9-1-2.5-1.5s-1-1-1.3-1.6c-0.3-0.6-0.5-1.4-0.5-2.2
			c0-1.6,0.5-2.8,1.6-3.7s2.5-1.4,4.4-1.4c0.9,0,1.8,0.1,2.7,0.3c0.8,0.2,1.7,0.5,2.6,0.9l-1.2,2.9c-1-0.4-1.7-0.7-2.4-0.8
			c-0.6-0.2-1.2-0.2-1.8-0.2c-0.7,0-1.3,0.2-1.6,0.5c-0.4,0.3-0.6,0.8-0.6,1.3c0,0.3,0.1,0.6,0.2,0.9c0.2,0.2,0.4,0.5,0.7,0.7
			c0.3,0.2,1.1,0.6,2.4,1.3c1.7,0.8,2.8,1.6,3.4,2.4C771.7,390.8,772,391.8,772,393z"></path>
		<path class="st1 kQJdlcfY_92" d="M782.5,398.2c-2.2,0-3.9-0.6-5.2-1.8c-1.2-1.2-1.9-2.9-1.9-5.2c0-2.3,0.6-4.1,1.7-5.3
			c1.1-1.2,2.7-1.9,4.7-1.9c1.9,0,3.4,0.5,4.5,1.6s1.6,2.6,1.6,4.6v1.8h-8.8c0,1.1,0.4,1.9,0.9,2.5s1.4,0.9,2.5,0.9
			c0.8,0,1.6-0.1,2.3-0.3s1.5-0.4,2.3-0.8v2.9c-0.7,0.3-1.3,0.6-2.1,0.7C784.4,398.1,783.5,398.2,782.5,398.2z M782,386.7
			c-0.8,0-1.4,0.3-1.9,0.8c-0.4,0.5-0.7,1.2-0.8,2.1h5.2c0-0.9-0.3-1.6-0.7-2.1C783.4,386.9,782.7,386.7,782,386.7z"></path>
		<path class="st1 kQJdlcfY_93" d="M797.9,398.2c-4.2,0-6.4-2.3-6.4-7c0-2.3,0.6-4.1,1.7-5.3s2.8-1.8,5-1.8c1.6,0,3,0.3,4.2,0.9l-1.1,2.9
			c-0.6-0.2-1.1-0.4-1.6-0.6c-0.5-0.2-1-0.2-1.5-0.2c-1.9,0-2.9,1.4-2.9,4.1c0,2.7,1,4,2.9,4c0.7,0,1.4-0.1,2-0.3s1.2-0.5,1.8-0.9
			v3.2c-0.6,0.4-1.2,0.6-1.8,0.8S798.8,398.2,797.9,398.2z"></path>
		<path class="st1 kQJdlcfY_94" d="M818.5,391.1c0,2.2-0.6,4-1.8,5.2s-2.8,1.9-4.9,1.9c-1.3,0-2.5-0.3-3.5-0.9c-1-0.6-1.8-1.4-2.3-2.5
			s-0.8-2.3-0.8-3.8c0-2.2,0.6-4,1.7-5.2c1.2-1.2,2.8-1.9,4.9-1.9c1.3,0,2.5,0.3,3.5,0.9c1,0.6,1.8,1.4,2.3,2.5
			S818.5,389.7,818.5,391.1z M809.1,391.1c0,1.4,0.2,2.4,0.7,3.1c0.4,0.7,1.2,1,2.2,1c1,0,1.7-0.3,2.1-1c0.4-0.7,0.7-1.7,0.7-3.1
			c0-1.4-0.2-2.4-0.7-3s-1.2-1-2.2-1c-1,0-1.7,0.3-2.1,1C809.3,388.7,809.1,389.7,809.1,391.1z"></path>
		<path class="st1 kQJdlcfY_95" d="M835.2,398h-3.7v-8c0-1-0.2-1.7-0.5-2.2s-0.9-0.7-1.7-0.7c-1,0-1.8,0.3-2.3,1c-0.5,0.7-0.7,1.8-0.7,3.5v6.4
			h-3.7v-13.6h2.8l0.5,1.7h0.2c0.4-0.7,1-1.2,1.7-1.5c0.7-0.3,1.6-0.5,2.5-0.5c1.6,0,2.8,0.4,3.6,1.3c0.8,0.9,1.2,2.1,1.2,3.7V398z"></path>
		<path class="st1 kQJdlcfY_96" d="M844.5,398.2c-1.6,0-2.9-0.6-3.8-1.9c-0.9-1.2-1.4-3-1.4-5.2c0-2.2,0.5-4,1.4-5.2c0.9-1.2,2.2-1.9,3.9-1.9
			c1.7,0,3,0.7,3.9,2h0.1c-0.2-1-0.3-1.9-0.3-2.7V379h3.7v19h-2.9l-0.7-1.8h-0.2C847.5,397.5,846.2,398.2,844.5,398.2z M845.8,395.2
			c1,0,1.7-0.3,2.1-0.8c0.4-0.6,0.7-1.5,0.7-2.8v-0.4c0-1.5-0.2-2.5-0.7-3.1c-0.5-0.6-1.2-1-2.2-1c-0.8,0-1.5,0.4-1.9,1.1
			c-0.5,0.7-0.7,1.7-0.7,3.1c0,1.3,0.2,2.3,0.7,3C844.3,394.9,844.9,395.2,845.8,395.2z"></path>
		<path class="st1 kQJdlcfY_97" d="M865.6,398l-0.7-1.9h-0.1c-0.6,0.8-1.3,1.3-1.9,1.6c-0.7,0.3-1.5,0.5-2.6,0.5c-1.3,0-2.3-0.4-3.1-1.1
			s-1.1-1.8-1.1-3.2c0-1.4,0.5-2.5,1.5-3.2c1-0.7,2.5-1.1,4.6-1.1l2.4-0.1v-0.6c0-1.4-0.7-2.1-2.1-2.1c-1.1,0-2.4,0.3-3.8,1
			l-1.2-2.5c1.6-0.8,3.3-1.2,5.2-1.2c1.8,0,3.2,0.4,4.2,1.2c1,0.8,1.5,2,1.5,3.6v9.1H865.6z M864.5,391.6l-1.4,0
			c-1.1,0-1.9,0.2-2.4,0.6s-0.8,0.9-0.8,1.6c0,1,0.6,1.6,1.8,1.6c0.9,0,1.6-0.2,2.1-0.7s0.8-1.2,0.8-2V391.6z"></path>
		<path class="st1 kQJdlcfY_98" d="M880.7,384c0.5,0,0.9,0,1.3,0.1l-0.3,3.5c-0.3-0.1-0.7-0.1-1.1-0.1c-1.2,0-2.1,0.3-2.8,0.9
			c-0.7,0.6-1,1.5-1,2.6v6.9H873v-13.6h2.8l0.5,2.3h0.2c0.4-0.8,1-1.4,1.7-1.8C879,384.3,879.8,384,880.7,384z"></path>
		<path class="st1 kQJdlcfY_99" d="M884.4,384.3h4.1l2.6,7.7c0.2,0.7,0.4,1.5,0.5,2.4h0.1c0.1-0.8,0.3-1.6,0.5-2.4l2.5-7.7h4l-5.8,15.4
			c-0.5,1.4-1.3,2.5-2.3,3.2c-1,0.7-2.1,1.1-3.4,1.1c-0.6,0-1.3-0.1-1.9-0.2v-3c0.4,0.1,0.9,0.2,1.5,0.2c0.7,0,1.2-0.2,1.7-0.6
			c0.5-0.4,0.9-1,1.2-1.8l0.2-0.7L884.4,384.3z"></path>
		<path class="st1 kQJdlcfY_100" d="M917.5,383c-1.4,0-2.5,0.5-3.3,1.6c-0.8,1.1-1.2,2.6-1.2,4.5c0,4,1.5,6,4.5,6c1.3,0,2.8-0.3,4.6-0.9v3.2
			c-1.5,0.6-3.1,0.9-4.9,0.9c-2.6,0-4.6-0.8-6-2.4c-1.4-1.6-2.1-3.8-2.1-6.8c0-1.9,0.3-3.5,1-4.9s1.6-2.5,2.9-3.2
			c1.3-0.7,2.7-1.1,4.4-1.1c1.7,0,3.5,0.4,5.2,1.3l-1.2,3.1c-0.7-0.3-1.3-0.6-2-0.8S918.1,383,917.5,383z"></path>
		<path class="st1 kQJdlcfY_101" d="M938.9,391.1c0,2.2-0.6,4-1.8,5.2s-2.8,1.9-4.9,1.9c-1.3,0-2.5-0.3-3.5-0.9c-1-0.6-1.8-1.4-2.3-2.5
			s-0.8-2.3-0.8-3.8c0-2.2,0.6-4,1.7-5.2c1.2-1.2,2.8-1.9,4.9-1.9c1.3,0,2.5,0.3,3.5,0.9c1,0.6,1.8,1.4,2.3,2.5
			S938.9,389.7,938.9,391.1z M929.4,391.1c0,1.4,0.2,2.4,0.7,3.1c0.4,0.7,1.2,1,2.2,1c1,0,1.7-0.3,2.1-1c0.4-0.7,0.7-1.7,0.7-3.1
			c0-1.4-0.2-2.4-0.7-3s-1.2-1-2.2-1c-1,0-1.7,0.3-2.1,1C929.6,388.7,929.4,389.7,929.4,391.1z"></path>
		<path class="st1 kQJdlcfY_102" d="M946.7,398H943v-19h3.7V398z"></path>
		<path class="st1 kQJdlcfY_103" d="M964.1,391.1c0,2.2-0.6,4-1.8,5.2s-2.8,1.9-4.9,1.9c-1.3,0-2.5-0.3-3.5-0.9c-1-0.6-1.8-1.4-2.3-2.5
			s-0.8-2.3-0.8-3.8c0-2.2,0.6-4,1.7-5.2c1.2-1.2,2.8-1.9,4.9-1.9c1.3,0,2.5,0.3,3.5,0.9c1,0.6,1.8,1.4,2.3,2.5
			S964.1,389.7,964.1,391.1z M954.7,391.1c0,1.4,0.2,2.4,0.7,3.1c0.4,0.7,1.2,1,2.2,1c1,0,1.7-0.3,2.1-1c0.4-0.7,0.7-1.7,0.7-3.1
			c0-1.4-0.2-2.4-0.7-3s-1.2-1-2.2-1c-1,0-1.7,0.3-2.1,1C954.9,388.7,954.7,389.7,954.7,391.1z"></path>
		<path class="st1 kQJdlcfY_104" d="M975.9,384c0.5,0,0.9,0,1.3,0.1l-0.3,3.5c-0.3-0.1-0.7-0.1-1.1-0.1c-1.2,0-2.1,0.3-2.8,0.9
			c-0.7,0.6-1,1.5-1,2.6v6.9h-3.7v-13.6h2.8l0.5,2.3h0.2c0.4-0.8,1-1.4,1.7-1.8C974.3,384.3,975.1,384,975.9,384z"></path>
		<path class="st1 kQJdlcfY_105" d="M990.5,393.9c0,1.4-0.5,2.5-1.5,3.2s-2.4,1.1-4.4,1.1c-1,0-1.8-0.1-2.5-0.2c-0.7-0.1-1.4-0.3-2-0.6v-3.1
			c0.7,0.3,1.5,0.6,2.3,0.8c0.9,0.2,1.6,0.3,2.3,0.3c1.4,0,2-0.4,2-1.2c0-0.3-0.1-0.5-0.3-0.7c-0.2-0.2-0.5-0.4-0.9-0.6
			c-0.4-0.2-1-0.5-1.8-0.8c-1-0.4-1.8-0.8-2.3-1.2c-0.5-0.4-0.9-0.8-1.1-1.3c-0.2-0.5-0.3-1.1-0.3-1.8c0-1.2,0.5-2.1,1.4-2.8
			c0.9-0.7,2.3-1,4-1c1.6,0,3.2,0.4,4.8,1.1l-1.1,2.7c-0.7-0.3-1.3-0.5-1.9-0.7c-0.6-0.2-1.2-0.3-1.8-0.3c-1.1,0-1.6,0.3-1.6,0.9
			c0,0.3,0.2,0.6,0.5,0.9c0.4,0.2,1.1,0.6,2.3,1.1c1.1,0.4,1.8,0.8,2.3,1.2c0.5,0.4,0.9,0.8,1.1,1.3
			C990.4,392.6,990.5,393.2,990.5,393.9z"></path>
		<path class="st1 kQJdlcfY_106" d="M777.3,434h-2.1l-3.6-12c-0.2-0.5-0.4-1.2-0.6-2c-0.2-0.8-0.3-1.3-0.3-1.5c-0.2,1.1-0.5,2.3-0.9,3.5
			l-3.5,11.9h-2.1l-4.7-17.8h2.2l2.8,11c0.4,1.5,0.7,2.9,0.9,4.2c0.2-1.5,0.5-2.9,1-4.4l3.2-10.9h2.2l3.4,11c0.4,1.3,0.7,2.7,1,4.3
			c0.2-1.2,0.4-2.6,0.9-4.2l2.8-11h2.2L777.3,434z"></path>
		<path class="st1 kQJdlcfY_107" d="M796.6,427.2c0,2.2-0.5,3.9-1.6,5.1c-1.1,1.2-2.6,1.8-4.6,1.8c-1.2,0-2.3-0.3-3.2-0.8
			c-0.9-0.6-1.6-1.4-2.1-2.4c-0.5-1-0.8-2.3-0.8-3.7c0-2.2,0.5-3.9,1.6-5.1c1.1-1.2,2.6-1.8,4.5-1.8c1.9,0,3.4,0.6,4.5,1.9
			C796.1,423.4,796.6,425.1,796.6,427.2z M786.4,427.2c0,1.7,0.3,3,1,3.9c0.7,0.9,1.7,1.3,3,1.3s2.3-0.4,3-1.3c0.7-0.9,1-2.2,1-3.9
			c0-1.7-0.3-3-1-3.9c-0.7-0.9-1.7-1.3-3-1.3c-1.3,0-2.3,0.4-3,1.3S786.4,425.5,786.4,427.2z"></path>
		<path class="st1 kQJdlcfY_108" d="M812.9,427.2c0,2.2-0.5,3.9-1.6,5.1c-1.1,1.2-2.6,1.8-4.6,1.8c-1.2,0-2.3-0.3-3.2-0.8
			c-0.9-0.6-1.6-1.4-2.1-2.4c-0.5-1-0.8-2.3-0.8-3.7c0-2.2,0.5-3.9,1.6-5.1c1.1-1.2,2.6-1.8,4.5-1.8c1.9,0,3.4,0.6,4.5,1.9
			C812.3,423.4,812.9,425.1,812.9,427.2z M802.7,427.2c0,1.7,0.3,3,1,3.9c0.7,0.9,1.7,1.3,3,1.3s2.3-0.4,3-1.3c0.7-0.9,1-2.2,1-3.9
			c0-1.7-0.3-3-1-3.9c-0.7-0.9-1.7-1.3-3-1.3c-1.3,0-2.3,0.4-3,1.3S802.7,425.5,802.7,427.2z"></path>
		<path class="st1 kQJdlcfY_109" d="M826.7,432.2h-0.1c-0.9,1.4-2.3,2-4.2,2c-1.7,0-3.1-0.6-4.1-1.8c-1-1.2-1.5-2.9-1.5-5.1
			c0-2.2,0.5-3.9,1.5-5.1s2.3-1.8,4.1-1.8c1.8,0,3.2,0.7,4.2,2h0.2l-0.1-1l0-0.9V415h2v19h-1.6L826.7,432.2z M822.6,432.5
			c1.4,0,2.4-0.4,3-1.1c0.6-0.8,0.9-2,0.9-3.6v-0.4c0-1.9-0.3-3.2-0.9-4.1c-0.6-0.8-1.6-1.2-3-1.2c-1.2,0-2.1,0.5-2.7,1.4
			c-0.6,0.9-0.9,2.2-0.9,3.9c0,1.7,0.3,3,0.9,3.9S821.4,432.5,822.6,432.5z"></path>
		<path class="st1 kQJdlcfY_110" d="M842.5,430.3c0,1.2-0.5,2.2-1.4,2.9c-0.9,0.7-2.2,1-3.9,1c-1.8,0-3.2-0.3-4.2-0.8v-1.9
			c0.6,0.3,1.3,0.6,2.1,0.8s1.4,0.3,2.1,0.3c1.1,0,1.9-0.2,2.4-0.5c0.6-0.3,0.9-0.9,0.9-1.5c0-0.5-0.2-1-0.7-1.3
			c-0.5-0.4-1.3-0.8-2.6-1.3c-1.2-0.5-2.1-0.9-2.7-1.2c-0.5-0.3-0.9-0.7-1.2-1.2c-0.3-0.4-0.4-1-0.4-1.6c0-1.1,0.4-2,1.3-2.6
			c0.9-0.6,2.1-0.9,3.6-0.9c1.4,0,2.8,0.3,4.2,0.9l-0.7,1.6c-1.3-0.6-2.6-0.8-3.6-0.8c-1,0-1.7,0.2-2.2,0.5s-0.7,0.7-0.7,1.2
			c0,0.4,0.1,0.7,0.3,0.9c0.2,0.3,0.5,0.5,0.9,0.7c0.4,0.2,1.2,0.6,2.3,1c1.6,0.6,2.7,1.2,3.2,1.7S842.5,429.4,842.5,430.3z"></path>
		<path class="st1 kQJdlcfY_111" d="M863.8,434v-8.7c0-1.1-0.2-1.9-0.7-2.4c-0.5-0.5-1.2-0.8-2.1-0.8c-1.3,0-2.2,0.4-2.8,1.1s-0.9,1.8-0.9,3.3
			v7.5h-2v-8.7c0-1.1-0.2-1.9-0.7-2.4c-0.5-0.5-1.2-0.8-2.1-0.8c-1.3,0-2.2,0.4-2.8,1.1c-0.6,0.8-0.9,2-0.9,3.7v7h-2v-13.4h1.6
			l0.3,1.8h0.1c0.4-0.7,0.9-1.2,1.6-1.5c0.7-0.4,1.5-0.5,2.3-0.5c2.1,0,3.5,0.8,4.1,2.3h0.1c0.4-0.7,1-1.3,1.7-1.7s1.6-0.6,2.6-0.6
			c1.5,0,2.6,0.4,3.4,1.2s1.1,2,1.1,3.7v8.7H863.8z"></path>
		<path class="st1 kQJdlcfY_112" d="M882.6,427.2c0,2.2-0.5,3.9-1.6,5.1c-1.1,1.2-2.6,1.8-4.6,1.8c-1.2,0-2.3-0.3-3.2-0.8
			c-0.9-0.6-1.6-1.4-2.1-2.4c-0.5-1-0.8-2.3-0.8-3.7c0-2.2,0.5-3.9,1.6-5.1c1.1-1.2,2.6-1.8,4.5-1.8c1.9,0,3.4,0.6,4.5,1.9
			C882.1,423.4,882.6,425.1,882.6,427.2z M872.4,427.2c0,1.7,0.3,3,1,3.9c0.7,0.9,1.7,1.3,3,1.3s2.3-0.4,3-1.3c0.7-0.9,1-2.2,1-3.9
			c0-1.7-0.3-3-1-3.9c-0.7-0.9-1.7-1.3-3-1.3c-1.3,0-2.3,0.4-3,1.3S872.4,425.5,872.4,427.2z"></path>
		<path class="st1 kQJdlcfY_113" d="M889.2,427.1c0.3-0.5,0.9-1.1,1.6-2l4.3-4.6h2.4l-5.4,5.7l5.8,7.7h-2.5l-4.7-6.3l-1.5,1.3v5h-2v-19h2V425
			C889.2,425.5,889.2,426.2,889.2,427.1L889.2,427.1z"></path>
		<path class="st1 kQJdlcfY_114" d="M906.4,434.2c-2,0-3.5-0.6-4.7-1.8c-1.1-1.2-1.7-2.9-1.7-5c0-2.2,0.5-3.9,1.6-5.1c1.1-1.3,2.5-1.9,4.3-1.9
			c1.7,0,3,0.6,4,1.7s1.5,2.6,1.5,4.4v1.3h-9.2c0,1.6,0.4,2.8,1.2,3.6c0.8,0.8,1.8,1.2,3.2,1.2c1.4,0,2.9-0.3,4.3-0.9v1.8
			c-0.7,0.3-1.4,0.5-2,0.7C908.1,434.1,907.3,434.2,906.4,434.2z M905.9,422c-1.1,0-1.9,0.3-2.6,1c-0.6,0.7-1,1.7-1.1,2.9h7
			c0-1.3-0.3-2.3-0.9-2.9C907.7,422.4,906.9,422,905.9,422z"></path>
	</g>
	<g>
		<path class="st1 kQJdlcfY_115" d="M1171.7,429.1c0,1.6-0.6,2.8-1.7,3.7s-2.7,1.3-4.6,1.3c-2.1,0-3.7-0.3-4.9-0.8v-2c0.7,0.3,1.5,0.6,2.4,0.7
			c0.9,0.2,1.7,0.3,2.6,0.3c1.4,0,2.4-0.3,3.1-0.8c0.7-0.5,1-1.3,1-2.2c0-0.6-0.1-1.1-0.4-1.5c-0.2-0.4-0.7-0.8-1.2-1.1
			c-0.6-0.3-1.5-0.7-2.7-1.1c-1.7-0.6-2.8-1.3-3.6-2.1c-0.7-0.8-1.1-1.9-1.1-3.2c0-1.4,0.5-2.5,1.6-3.3c1-0.8,2.4-1.2,4.1-1.2
			c1.8,0,3.4,0.3,4.9,1l-0.6,1.8c-1.5-0.6-2.9-0.9-4.3-0.9c-1.1,0-2,0.2-2.6,0.7c-0.6,0.5-0.9,1.1-0.9,2c0,0.6,0.1,1.1,0.3,1.5
			c0.2,0.4,0.6,0.8,1.2,1.1c0.5,0.3,1.4,0.7,2.5,1.1c1.9,0.7,3.2,1.4,3.9,2.1C1171.4,426.9,1171.7,427.9,1171.7,429.1z"></path>
		<path class="st1 kQJdlcfY_116" d="M1182,434.1c-2,0-3.5-0.6-4.7-1.8c-1.1-1.2-1.7-2.9-1.7-5c0-2.2,0.5-3.9,1.6-5.1c1.1-1.3,2.5-1.9,4.3-1.9
			c1.7,0,3,0.6,4,1.7s1.5,2.6,1.5,4.4v1.3h-9.2c0,1.6,0.4,2.8,1.2,3.6c0.8,0.8,1.8,1.2,3.2,1.2c1.4,0,2.9-0.3,4.3-0.9v1.8
			c-0.7,0.3-1.4,0.5-2,0.7C1183.7,434,1182.9,434.1,1182,434.1z M1181.5,421.9c-1.1,0-1.9,0.3-2.6,1c-0.6,0.7-1,1.7-1.1,2.9h7
			c0-1.3-0.3-2.3-0.9-2.9C1183.3,422.3,1182.5,421.9,1181.5,421.9z"></path>
		<path class="st1 kQJdlcfY_117" d="M1199.6,433.9l-0.4-1.9h-0.1c-0.7,0.8-1.3,1.4-2,1.7c-0.7,0.3-1.5,0.4-2.5,0.4c-1.3,0-2.4-0.3-3.1-1
			s-1.1-1.7-1.1-2.9c0-2.7,2.2-4.1,6.5-4.2l2.3-0.1V425c0-1.1-0.2-1.8-0.7-2.3c-0.5-0.5-1.2-0.8-2.2-0.8c-1.1,0-2.4,0.3-3.8,1
			l-0.6-1.6c0.7-0.4,1.4-0.6,2.2-0.8c0.8-0.2,1.6-0.3,2.4-0.3c1.6,0,2.8,0.4,3.5,1.1c0.8,0.7,1.2,1.8,1.2,3.4v9.1H1199.6z
			 M1195,432.4c1.3,0,2.3-0.3,3-1c0.7-0.7,1.1-1.7,1.1-2.9v-1.2l-2,0.1c-1.6,0.1-2.8,0.3-3.5,0.8c-0.7,0.4-1.1,1.1-1.1,2.1
			c0,0.7,0.2,1.3,0.7,1.7S1194.2,432.4,1195,432.4z"></path>
		<path class="st1 kQJdlcfY_118" d="M1214.9,430.2c0,1.2-0.5,2.2-1.4,2.9c-0.9,0.7-2.2,1-3.9,1c-1.8,0-3.2-0.3-4.2-0.8v-1.9
			c0.6,0.3,1.3,0.6,2.1,0.8s1.4,0.3,2.1,0.3c1.1,0,1.9-0.2,2.4-0.5c0.6-0.3,0.9-0.9,0.9-1.5c0-0.5-0.2-1-0.7-1.3
			c-0.5-0.4-1.3-0.8-2.6-1.3c-1.2-0.5-2.1-0.9-2.7-1.2c-0.5-0.3-0.9-0.7-1.2-1.2c-0.3-0.4-0.4-1-0.4-1.6c0-1.1,0.4-2,1.3-2.6
			c0.9-0.6,2.1-0.9,3.6-0.9c1.4,0,2.8,0.3,4.2,0.9l-0.7,1.6c-1.3-0.6-2.6-0.8-3.6-0.8c-1,0-1.7,0.2-2.2,0.5s-0.7,0.7-0.7,1.2
			c0,0.4,0.1,0.7,0.3,0.9c0.2,0.3,0.5,0.5,0.9,0.7c0.4,0.2,1.2,0.6,2.3,1c1.6,0.6,2.7,1.2,3.2,1.7S1214.9,429.3,1214.9,430.2z"></path>
		<path class="st1 kQJdlcfY_119" d="M1228.3,433.9v-8.7c0-1.1-0.2-1.9-0.7-2.4c-0.5-0.5-1.3-0.8-2.3-0.8c-1.4,0-2.4,0.4-3.1,1.1
			c-0.6,0.8-1,2-1,3.8v7h-2v-19h2v5.8c0,0.7,0,1.3-0.1,1.7h0.1c0.4-0.6,1-1.1,1.7-1.5c0.7-0.4,1.6-0.6,2.5-0.6
			c1.6,0,2.9,0.4,3.7,1.2c0.8,0.8,1.2,2,1.2,3.7v8.7H1228.3z"></path>
		<path class="st1 kQJdlcfY_120" d="M1241.2,434.1c-2,0-3.5-0.6-4.7-1.8c-1.1-1.2-1.7-2.9-1.7-5c0-2.2,0.5-3.9,1.6-5.1c1.1-1.3,2.5-1.9,4.3-1.9
			c1.7,0,3,0.6,4,1.7s1.5,2.6,1.5,4.4v1.3h-9.2c0,1.6,0.4,2.8,1.2,3.6c0.8,0.8,1.8,1.2,3.2,1.2c1.4,0,2.9-0.3,4.3-0.9v1.8
			c-0.7,0.3-1.4,0.5-2,0.7C1242.9,434,1242.1,434.1,1241.2,434.1z M1240.6,421.9c-1.1,0-1.9,0.3-2.6,1c-0.6,0.7-1,1.7-1.1,2.9h7
			c0-1.3-0.3-2.3-0.9-2.9C1242.5,422.3,1241.7,421.9,1240.6,421.9z"></path>
		<path class="st1 kQJdlcfY_121" d="M1252.7,433.9h-2v-19h2V433.9z"></path>
		<path class="st1 kQJdlcfY_122" d="M1259.9,433.9h-2v-19h2V433.9z"></path>
	</g>
	<path class="st2 kQJdlcfY_123" d="M359,553.5L759,553.5"></path>
	<path class="st3 kQJdlcfY_124" d="M759,554L1159,554"></path>
	<path class="st4 kQJdlcfY_125" d="M1159,554L1559,554"></path>
</g>
<g id="strokes">
</g>
<style>.kQJdlcfY_0{stroke-dasharray:6000 6002;stroke-dashoffset:6001;animation:kQJdlcfY_draw_0 3950ms ease-out 0ms infinite,kQJdlcfY_fade 3950ms linear 0ms infinite;}.kQJdlcfY_1{stroke-dasharray:96 98;stroke-dashoffset:97;animation:kQJdlcfY_draw_1 3950ms ease-out 0ms infinite,kQJdlcfY_fade 3950ms linear 0ms infinite;}.kQJdlcfY_2{stroke-dasharray:89 91;stroke-dashoffset:90;animation:kQJdlcfY_draw_2 3950ms ease-out 0ms infinite,kQJdlcfY_fade 3950ms linear 0ms infinite;}.kQJdlcfY_3{stroke-dasharray:86 88;stroke-dashoffset:87;animation:kQJdlcfY_draw_3 3950ms ease-out 0ms infinite,kQJdlcfY_fade 3950ms linear 0ms infinite;}.kQJdlcfY_4{stroke-dasharray:96 98;stroke-dashoffset:97;animation:kQJdlcfY_draw_4 3950ms ease-out 0ms infinite,kQJdlcfY_fade 3950ms linear 0ms infinite;}.kQJdlcfY_5{stroke-dasharray:107 109;stroke-dashoffset:108;animation:kQJdlcfY_draw_5 3950ms ease-out 0ms infinite,kQJdlcfY_fade 3950ms linear 0ms infinite;}.kQJdlcfY_6{stroke-dasharray:62 64;stroke-dashoffset:63;animation:kQJdlcfY_draw_6 3950ms ease-out 0ms infinite,kQJdlcfY_fade 3950ms linear 0ms infinite;}.kQJdlcfY_7{stroke-dasharray:95 97;stroke-dashoffset:96;animation:kQJdlcfY_draw_7 3950ms ease-out 0ms infinite,kQJdlcfY_fade 3950ms linear 0ms infinite;}.kQJdlcfY_8{stroke-dasharray:87 89;stroke-dashoffset:88;animation:kQJdlcfY_draw_8 3950ms ease-out 0ms infinite,kQJdlcfY_fade 3950ms linear 0ms infinite;}.kQJdlcfY_9{stroke-dasharray:96 98;stroke-dashoffset:97;animation:kQJdlcfY_draw_9 3950ms ease-out 0ms infinite,kQJdlcfY_fade 3950ms linear 0ms infinite;}.kQJdlcfY_10{stroke-dasharray:83 85;stroke-dashoffset:84;animation:kQJdlcfY_draw_10 3950ms ease-out 0ms infinite,kQJdlcfY_fade 3950ms linear 0ms infinite;}.kQJdlcfY_11{stroke-dasharray:88 90;stroke-dashoffset:89;animation:kQJdlcfY_draw_11 3950ms ease-out 0ms infinite,kQJdlcfY_fade 3950ms linear 0ms infinite;}.kQJdlcfY_12{stroke-dasharray:111 113;stroke-dashoffset:112;animation:kQJdlcfY_draw_12 3950ms ease-out 0ms infinite,kQJdlcfY_fade 3950ms linear 0ms infinite;}.kQJdlcfY_13{stroke-dasharray:62 64;stroke-dashoffset:63;animation:kQJdlcfY_draw_13 3950ms ease-out 0ms infinite,kQJdlcfY_fade 3950ms linear 0ms infinite;}.kQJdlcfY_14{stroke-dasharray:103 105;stroke-dashoffset:104;animation:kQJdlcfY_draw_14 3950ms ease-out 0ms infinite,kQJdlcfY_fade 3950ms linear 0ms infinite;}.kQJdlcfY_15{stroke-dasharray:111 113;stroke-dashoffset:112;animation:kQJdlcfY_draw_15 3950ms ease-out 0ms infinite,kQJdlcfY_fade 3950ms linear 0ms infinite;}.kQJdlcfY_16{stroke-dasharray:89 91;stroke-dashoffset:90;animation:kQJdlcfY_draw_16 3950ms ease-out 0ms infinite,kQJdlcfY_fade 3950ms linear 0ms infinite;}.kQJdlcfY_17{stroke-dasharray:62 64;stroke-dashoffset:63;animation:kQJdlcfY_draw_17 3950ms ease-out 0ms infinite,kQJdlcfY_fade 3950ms linear 0ms infinite;}.kQJdlcfY_18{stroke-dasharray:84 86;stroke-dashoffset:85;animation:kQJdlcfY_draw_18 3950ms ease-out 0ms infinite,kQJdlcfY_fade 3950ms linear 0ms infinite;}.kQJdlcfY_19{stroke-dasharray:84 86;stroke-dashoffset:85;animation:kQJdlcfY_draw_19 3950ms ease-out 0ms infinite,kQJdlcfY_fade 3950ms linear 0ms infinite;}.kQJdlcfY_20{stroke-dasharray:62 64;stroke-dashoffset:63;animation:kQJdlcfY_draw_20 3950ms ease-out 0ms infinite,kQJdlcfY_fade 3950ms linear 0ms infinite;}.kQJdlcfY_21{stroke-dasharray:73 75;stroke-dashoffset:74;animation:kQJdlcfY_draw_21 3950ms ease-out 0ms infinite,kQJdlcfY_fade 3950ms linear 0ms infinite;}.kQJdlcfY_22{stroke-dasharray:92 94;stroke-dashoffset:93;animation:kQJdlcfY_draw_22 3950ms ease-out 0ms infinite,kQJdlcfY_fade 3950ms linear 0ms infinite;}.kQJdlcfY_23{stroke-dasharray:47 49;stroke-dashoffset:48;animation:kQJdlcfY_draw_23 3950ms ease-out 0ms infinite,kQJdlcfY_fade 3950ms linear 0ms infinite;}.kQJdlcfY_24{stroke-dasharray:110 112;stroke-dashoffset:111;animation:kQJdlcfY_draw_24 3950ms ease-out 0ms infinite,kQJdlcfY_fade 3950ms linear 0ms infinite;}.kQJdlcfY_25{stroke-dasharray:47 49;stroke-dashoffset:48;animation:kQJdlcfY_draw_25 3950ms ease-out 0ms infinite,kQJdlcfY_fade 3950ms linear 0ms infinite;}.kQJdlcfY_26{stroke-dasharray:57 59;stroke-dashoffset:58;animation:kQJdlcfY_draw_26 3950ms ease-out 0ms infinite,kQJdlcfY_fade 3950ms linear 0ms infinite;}.kQJdlcfY_27{stroke-dasharray:76 78;stroke-dashoffset:77;animation:kQJdlcfY_draw_27 3950ms ease-out 0ms infinite,kQJdlcfY_fade 3950ms linear 0ms infinite;}.kQJdlcfY_28{stroke-dasharray:46 48;stroke-dashoffset:47;animation:kQJdlcfY_draw_28 3950ms ease-out 0ms infinite,kQJdlcfY_fade 3950ms linear 0ms infinite;}.kQJdlcfY_29{stroke-dasharray:74 76;stroke-dashoffset:75;animation:kQJdlcfY_draw_29 3950ms ease-out 0ms infinite,kQJdlcfY_fade 3950ms linear 0ms infinite;}.kQJdlcfY_30{stroke-dasharray:47 49;stroke-dashoffset:48;animation:kQJdlcfY_draw_30 3950ms ease-out 0ms infinite,kQJdlcfY_fade 3950ms linear 0ms infinite;}.kQJdlcfY_31{stroke-dasharray:47 49;stroke-dashoffset:48;animation:kQJdlcfY_draw_31 3950ms ease-out 0ms infinite,kQJdlcfY_fade 3950ms linear 0ms infinite;}.kQJdlcfY_32{stroke-dasharray:73 75;stroke-dashoffset:74;animation:kQJdlcfY_draw_32 3950ms ease-out 0ms infinite,kQJdlcfY_fade 3950ms linear 0ms infinite;}.kQJdlcfY_33{stroke-dasharray:57 59;stroke-dashoffset:58;animation:kQJdlcfY_draw_33 3950ms ease-out 0ms infinite,kQJdlcfY_fade 3950ms linear 0ms infinite;}.kQJdlcfY_34{stroke-dasharray:96 98;stroke-dashoffset:97;animation:kQJdlcfY_draw_34 3950ms ease-out 0ms infinite,kQJdlcfY_fade 3950ms linear 0ms infinite;}.kQJdlcfY_35{stroke-dasharray:89 91;stroke-dashoffset:90;animation:kQJdlcfY_draw_35 3950ms ease-out 0ms infinite,kQJdlcfY_fade 3950ms linear 0ms infinite;}.kQJdlcfY_36{stroke-dasharray:86 88;stroke-dashoffset:87;animation:kQJdlcfY_draw_36 3950ms ease-out 0ms infinite,kQJdlcfY_fade 3950ms linear 0ms infinite;}.kQJdlcfY_37{stroke-dasharray:50 52;stroke-dashoffset:51;animation:kQJdlcfY_draw_37 3950ms ease-out 0ms infinite,kQJdlcfY_fade 3950ms linear 0ms infinite;}.kQJdlcfY_38{stroke-dasharray:90 92;stroke-dashoffset:91;animation:kQJdlcfY_draw_38 3950ms ease-out 0ms infinite,kQJdlcfY_fade 3950ms linear 0ms infinite;}.kQJdlcfY_39{stroke-dasharray:50 52;stroke-dashoffset:51;animation:kQJdlcfY_draw_39 3950ms ease-out 0ms infinite,kQJdlcfY_fade 3950ms linear 0ms infinite;}.kQJdlcfY_40{stroke-dasharray:84 86;stroke-dashoffset:85;animation:kQJdlcfY_draw_40 3950ms ease-out 0ms infinite,kQJdlcfY_fade 3950ms linear 0ms infinite;}.kQJdlcfY_41{stroke-dasharray:50 52;stroke-dashoffset:51;animation:kQJdlcfY_draw_41 3950ms ease-out 0ms infinite,kQJdlcfY_fade 3950ms linear 0ms infinite;}.kQJdlcfY_42{stroke-dasharray:84 86;stroke-dashoffset:85;animation:kQJdlcfY_draw_42 3950ms ease-out 0ms infinite,kQJdlcfY_fade 3950ms linear 0ms infinite;}.kQJdlcfY_43{stroke-dasharray:83 85;stroke-dashoffset:84;animation:kQJdlcfY_draw_43 3950ms ease-out 0ms infinite,kQJdlcfY_fade 3950ms linear 0ms infinite;}.kQJdlcfY_44{stroke-dasharray:88 90;stroke-dashoffset:89;animation:kQJdlcfY_draw_44 3950ms ease-out 0ms infinite,kQJdlcfY_fade 3950ms linear 0ms infinite;}.kQJdlcfY_45{stroke-dasharray:111 113;stroke-dashoffset:112;animation:kQJdlcfY_draw_45 3950ms ease-out 0ms infinite,kQJdlcfY_fade 3950ms linear 0ms infinite;}.kQJdlcfY_46{stroke-dasharray:62 64;stroke-dashoffset:63;animation:kQJdlcfY_draw_46 3950ms ease-out 0ms infinite,kQJdlcfY_fade 3950ms linear 0ms infinite;}.kQJdlcfY_47{stroke-dasharray:103 105;stroke-dashoffset:104;animation:kQJdlcfY_draw_47 3950ms ease-out 0ms infinite,kQJdlcfY_fade 3950ms linear 0ms infinite;}.kQJdlcfY_48{stroke-dasharray:111 113;stroke-dashoffset:112;animation:kQJdlcfY_draw_48 3950ms ease-out 0ms infinite,kQJdlcfY_fade 3950ms linear 0ms infinite;}.kQJdlcfY_49{stroke-dasharray:89 91;stroke-dashoffset:90;animation:kQJdlcfY_draw_49 3950ms ease-out 0ms infinite,kQJdlcfY_fade 3950ms linear 0ms infinite;}.kQJdlcfY_50{stroke-dasharray:118 120;stroke-dashoffset:119;animation:kQJdlcfY_draw_50 3950ms ease-out 0ms infinite,kQJdlcfY_fade 3950ms linear 0ms infinite;}.kQJdlcfY_51{stroke-dasharray:41 43;stroke-dashoffset:42;animation:kQJdlcfY_draw_51 3950ms ease-out 0ms infinite,kQJdlcfY_fade 3950ms linear 0ms infinite;}.kQJdlcfY_52{stroke-dasharray:81 83;stroke-dashoffset:82;animation:kQJdlcfY_draw_52 3950ms ease-out 0ms infinite,kQJdlcfY_fade 3950ms linear 0ms infinite;}.kQJdlcfY_53{stroke-dasharray:54 56;stroke-dashoffset:55;animation:kQJdlcfY_draw_53 3950ms ease-out 0ms infinite,kQJdlcfY_fade 3950ms linear 0ms infinite;}.kQJdlcfY_54{stroke-dasharray:81 83;stroke-dashoffset:82;animation:kQJdlcfY_draw_54 3950ms ease-out 0ms infinite,kQJdlcfY_fade 3950ms linear 0ms infinite;}.kQJdlcfY_55{stroke-dasharray:73 75;stroke-dashoffset:74;animation:kQJdlcfY_draw_55 3950ms ease-out 0ms infinite,kQJdlcfY_fade 3950ms linear 0ms infinite;}.kQJdlcfY_56{stroke-dasharray:96 98;stroke-dashoffset:97;animation:kQJdlcfY_draw_56 3950ms ease-out 0ms infinite,kQJdlcfY_fade 3950ms linear 0ms infinite;}.kQJdlcfY_57{stroke-dasharray:89 91;stroke-dashoffset:90;animation:kQJdlcfY_draw_57 3950ms ease-out 0ms infinite,kQJdlcfY_fade 3950ms linear 0ms infinite;}.kQJdlcfY_58{stroke-dasharray:86 88;stroke-dashoffset:87;animation:kQJdlcfY_draw_58 3950ms ease-out 0ms infinite,kQJdlcfY_fade 3950ms linear 0ms infinite;}.kQJdlcfY_59{stroke-dasharray:117 119;stroke-dashoffset:118;animation:kQJdlcfY_draw_59 3950ms ease-out 0ms infinite,kQJdlcfY_fade 3950ms linear 0ms infinite;}.kQJdlcfY_60{stroke-dasharray:59 61;stroke-dashoffset:60;animation:kQJdlcfY_draw_60 3950ms ease-out 0ms infinite,kQJdlcfY_fade 3950ms linear 0ms infinite;}.kQJdlcfY_61{stroke-dasharray:62 64;stroke-dashoffset:63;animation:kQJdlcfY_draw_61 3950ms ease-out 0ms infinite,kQJdlcfY_fade 3950ms linear 0ms infinite;}.kQJdlcfY_62{stroke-dasharray:59 61;stroke-dashoffset:60;animation:kQJdlcfY_draw_62 3950ms ease-out 0ms infinite,kQJdlcfY_fade 3950ms linear 0ms infinite;}.kQJdlcfY_63{stroke-dasharray:87 89;stroke-dashoffset:88;animation:kQJdlcfY_draw_63 3950ms ease-out 0ms infinite,kQJdlcfY_fade 3950ms linear 0ms infinite;}.kQJdlcfY_64{stroke-dasharray:83 85;stroke-dashoffset:84;animation:kQJdlcfY_draw_64 3950ms ease-out 0ms infinite,kQJdlcfY_fade 3950ms linear 0ms infinite;}.kQJdlcfY_65{stroke-dasharray:88 90;stroke-dashoffset:89;animation:kQJdlcfY_draw_65 3950ms ease-out 0ms infinite,kQJdlcfY_fade 3950ms linear 0ms infinite;}.kQJdlcfY_66{stroke-dasharray:111 113;stroke-dashoffset:112;animation:kQJdlcfY_draw_66 3950ms ease-out 0ms infinite,kQJdlcfY_fade 3950ms linear 0ms infinite;}.kQJdlcfY_67{stroke-dasharray:62 64;stroke-dashoffset:63;animation:kQJdlcfY_draw_67 3950ms ease-out 0ms infinite,kQJdlcfY_fade 3950ms linear 0ms infinite;}.kQJdlcfY_68{stroke-dasharray:103 105;stroke-dashoffset:104;animation:kQJdlcfY_draw_68 3950ms ease-out 0ms infinite,kQJdlcfY_fade 3950ms linear 0ms infinite;}.kQJdlcfY_69{stroke-dasharray:111 113;stroke-dashoffset:112;animation:kQJdlcfY_draw_69 3950ms ease-out 0ms infinite,kQJdlcfY_fade 3950ms linear 0ms infinite;}.kQJdlcfY_70{stroke-dasharray:89 91;stroke-dashoffset:90;animation:kQJdlcfY_draw_70 3950ms ease-out 0ms infinite,kQJdlcfY_fade 3950ms linear 0ms infinite;}.kQJdlcfY_71{stroke-dasharray:96 98;stroke-dashoffset:97;animation:kQJdlcfY_draw_71 3950ms ease-out 0ms infinite,kQJdlcfY_fade 3950ms linear 0ms infinite;}.kQJdlcfY_72{stroke-dasharray:96 98;stroke-dashoffset:97;animation:kQJdlcfY_draw_72 3950ms ease-out 0ms infinite,kQJdlcfY_fade 3950ms linear 0ms infinite;}.kQJdlcfY_73{stroke-dasharray:87 89;stroke-dashoffset:88;animation:kQJdlcfY_draw_73 3950ms ease-out 0ms infinite,kQJdlcfY_fade 3950ms linear 0ms infinite;}.kQJdlcfY_74{stroke-dasharray:73 75;stroke-dashoffset:74;animation:kQJdlcfY_draw_74 3950ms ease-out 0ms infinite,kQJdlcfY_fade 3950ms linear 0ms infinite;}.kQJdlcfY_75{stroke-dasharray:74 76;stroke-dashoffset:75;animation:kQJdlcfY_draw_75 3950ms ease-out 0ms infinite,kQJdlcfY_fade 3950ms linear 0ms infinite;}.kQJdlcfY_76{stroke-dasharray:47 49;stroke-dashoffset:48;animation:kQJdlcfY_draw_76 3950ms ease-out 0ms infinite,kQJdlcfY_fade 3950ms linear 0ms infinite;}.kQJdlcfY_77{stroke-dasharray:47 49;stroke-dashoffset:48;animation:kQJdlcfY_draw_77 3950ms ease-out 0ms infinite,kQJdlcfY_fade 3950ms linear 0ms infinite;}.kQJdlcfY_78{stroke-dasharray:110 112;stroke-dashoffset:111;animation:kQJdlcfY_draw_78 3950ms ease-out 0ms infinite,kQJdlcfY_fade 3950ms linear 0ms infinite;}.kQJdlcfY_79{stroke-dasharray:76 78;stroke-dashoffset:77;animation:kQJdlcfY_draw_79 3950ms ease-out 0ms infinite,kQJdlcfY_fade 3950ms linear 0ms infinite;}.kQJdlcfY_80{stroke-dasharray:47 49;stroke-dashoffset:48;animation:kQJdlcfY_draw_80 3950ms ease-out 0ms infinite,kQJdlcfY_fade 3950ms linear 0ms infinite;}.kQJdlcfY_81{stroke-dasharray:80 82;stroke-dashoffset:81;animation:kQJdlcfY_draw_81 3950ms ease-out 0ms infinite,kQJdlcfY_fade 3950ms linear 0ms infinite;}.kQJdlcfY_82{stroke-dasharray:71 73;stroke-dashoffset:72;animation:kQJdlcfY_draw_82 3950ms ease-out 0ms infinite,kQJdlcfY_fade 3950ms linear 0ms infinite;}.kQJdlcfY_83{stroke-dasharray:67 69;stroke-dashoffset:68;animation:kQJdlcfY_draw_83 3950ms ease-out 0ms infinite,kQJdlcfY_fade 3950ms linear 0ms infinite;}.kQJdlcfY_84{stroke-dasharray:46 48;stroke-dashoffset:47;animation:kQJdlcfY_draw_84 3950ms ease-out 0ms infinite,kQJdlcfY_fade 3950ms linear 0ms infinite;}.kQJdlcfY_85{stroke-dasharray:67 69;stroke-dashoffset:68;animation:kQJdlcfY_draw_85 3950ms ease-out 0ms infinite,kQJdlcfY_fade 3950ms linear 0ms infinite;}.kQJdlcfY_86{stroke-dasharray:47 49;stroke-dashoffset:48;animation:kQJdlcfY_draw_86 3950ms ease-out 0ms infinite,kQJdlcfY_fade 3950ms linear 0ms infinite;}.kQJdlcfY_87{stroke-dasharray:101 103;stroke-dashoffset:102;animation:kQJdlcfY_draw_87 3950ms ease-out 0ms infinite,kQJdlcfY_fade 3950ms linear 0ms infinite;}.kQJdlcfY_88{stroke-dasharray:72 74;stroke-dashoffset:73;animation:kQJdlcfY_draw_88 3950ms ease-out 0ms infinite,kQJdlcfY_fade 3950ms linear 0ms infinite;}.kQJdlcfY_89{stroke-dasharray:42 44;stroke-dashoffset:43;animation:kQJdlcfY_draw_89 3950ms ease-out 0ms infinite,kQJdlcfY_fade 3950ms linear 0ms infinite;}.kQJdlcfY_90{stroke-dasharray:92 94;stroke-dashoffset:93;animation:kQJdlcfY_draw_90 3950ms ease-out 0ms infinite,kQJdlcfY_fade 3950ms linear 0ms infinite;}.kQJdlcfY_91{stroke-dasharray:77 79;stroke-dashoffset:78;animation:kQJdlcfY_draw_91 3950ms ease-out 0ms infinite,kQJdlcfY_fade 3950ms linear 0ms infinite;}.kQJdlcfY_92{stroke-dasharray:75 77;stroke-dashoffset:76;animation:kQJdlcfY_draw_92 3950ms ease-out 0ms infinite,kQJdlcfY_fade 3950ms linear 0ms infinite;}.kQJdlcfY_93{stroke-dasharray:56 58;stroke-dashoffset:57;animation:kQJdlcfY_draw_93 3950ms ease-out 0ms infinite,kQJdlcfY_fade 3950ms linear 0ms infinite;}.kQJdlcfY_94{stroke-dasharray:67 69;stroke-dashoffset:68;animation:kQJdlcfY_draw_94 3950ms ease-out 0ms infinite,kQJdlcfY_fade 3950ms linear 0ms infinite;}.kQJdlcfY_95{stroke-dasharray:73 75;stroke-dashoffset:74;animation:kQJdlcfY_draw_95 3950ms ease-out 0ms infinite,kQJdlcfY_fade 3950ms linear 0ms infinite;}.kQJdlcfY_96{stroke-dasharray:87 89;stroke-dashoffset:88;animation:kQJdlcfY_draw_96 3950ms ease-out 0ms infinite,kQJdlcfY_fade 3950ms linear 0ms infinite;}.kQJdlcfY_97{stroke-dasharray:76 78;stroke-dashoffset:77;animation:kQJdlcfY_draw_97 3950ms ease-out 0ms infinite,kQJdlcfY_fade 3950ms linear 0ms infinite;}.kQJdlcfY_98{stroke-dasharray:47 49;stroke-dashoffset:48;animation:kQJdlcfY_draw_98 3950ms ease-out 0ms infinite,kQJdlcfY_fade 3950ms linear 0ms infinite;}.kQJdlcfY_99{stroke-dasharray:80 82;stroke-dashoffset:81;animation:kQJdlcfY_draw_99 3950ms ease-out 0ms infinite,kQJdlcfY_fade 3950ms linear 0ms infinite;}.kQJdlcfY_100{stroke-dasharray:71 73;stroke-dashoffset:72;animation:kQJdlcfY_draw_100 3950ms ease-out 0ms infinite,kQJdlcfY_fade 3950ms linear 0ms infinite;}.kQJdlcfY_101{stroke-dasharray:67 69;stroke-dashoffset:68;animation:kQJdlcfY_draw_101 3950ms ease-out 0ms infinite,kQJdlcfY_fade 3950ms linear 0ms infinite;}.kQJdlcfY_102{stroke-dasharray:46 48;stroke-dashoffset:47;animation:kQJdlcfY_draw_102 3950ms ease-out 0ms infinite,kQJdlcfY_fade 3950ms linear 0ms infinite;}.kQJdlcfY_103{stroke-dasharray:67 69;stroke-dashoffset:68;animation:kQJdlcfY_draw_103 3950ms ease-out 0ms infinite,kQJdlcfY_fade 3950ms linear 0ms infinite;}.kQJdlcfY_104{stroke-dasharray:47 49;stroke-dashoffset:48;animation:kQJdlcfY_draw_104 3950ms ease-out 0ms infinite,kQJdlcfY_fade 3950ms linear 0ms infinite;}.kQJdlcfY_105{stroke-dasharray:65 67;stroke-dashoffset:66;animation:kQJdlcfY_draw_105 3950ms ease-out 0ms infinite,kQJdlcfY_fade 3950ms linear 0ms infinite;}.kQJdlcfY_106{stroke-dasharray:144 146;stroke-dashoffset:145;animation:kQJdlcfY_draw_106 3950ms ease-out 0ms infinite,kQJdlcfY_fade 3950ms linear 0ms infinite;}.kQJdlcfY_107{stroke-dasharray:72 74;stroke-dashoffset:73;animation:kQJdlcfY_draw_107 3950ms ease-out 0ms infinite,kQJdlcfY_fade 3950ms linear 0ms infinite;}.kQJdlcfY_108{stroke-dasharray:72 74;stroke-dashoffset:73;animation:kQJdlcfY_draw_108 3950ms ease-out 0ms infinite,kQJdlcfY_fade 3950ms linear 0ms infinite;}.kQJdlcfY_109{stroke-dasharray:92 94;stroke-dashoffset:93;animation:kQJdlcfY_draw_109 3950ms ease-out 0ms infinite,kQJdlcfY_fade 3950ms linear 0ms infinite;}.kQJdlcfY_110{stroke-dasharray:65 67;stroke-dashoffset:66;animation:kQJdlcfY_draw_110 3950ms ease-out 0ms infinite,kQJdlcfY_fade 3950ms linear 0ms infinite;}.kQJdlcfY_111{stroke-dasharray:110 112;stroke-dashoffset:111;animation:kQJdlcfY_draw_111 3950ms ease-out 0ms infinite,kQJdlcfY_fade 3950ms linear 0ms infinite;}.kQJdlcfY_112{stroke-dasharray:72 74;stroke-dashoffset:73;animation:kQJdlcfY_draw_112 3950ms ease-out 0ms infinite,kQJdlcfY_fade 3950ms linear 0ms infinite;}.kQJdlcfY_113{stroke-dasharray:82 84;stroke-dashoffset:83;animation:kQJdlcfY_draw_113 3950ms ease-out 0ms infinite,kQJdlcfY_fade 3950ms linear 0ms infinite;}.kQJdlcfY_114{stroke-dasharray:78 80;stroke-dashoffset:79;animation:kQJdlcfY_draw_114 3950ms ease-out 0ms infinite,kQJdlcfY_fade 3950ms linear 0ms infinite;}.kQJdlcfY_115{stroke-dasharray:79 81;stroke-dashoffset:80;animation:kQJdlcfY_draw_115 3950ms ease-out 0ms infinite,kQJdlcfY_fade 3950ms linear 0ms infinite;}.kQJdlcfY_116{stroke-dasharray:78 80;stroke-dashoffset:79;animation:kQJdlcfY_draw_116 3950ms ease-out 0ms infinite,kQJdlcfY_fade 3950ms linear 0ms infinite;}.kQJdlcfY_117{stroke-dasharray:79 81;stroke-dashoffset:80;animation:kQJdlcfY_draw_117 3950ms ease-out 0ms infinite,kQJdlcfY_fade 3950ms linear 0ms infinite;}.kQJdlcfY_118{stroke-dasharray:65 67;stroke-dashoffset:66;animation:kQJdlcfY_draw_118 3950ms ease-out 0ms infinite,kQJdlcfY_fade 3950ms linear 0ms infinite;}.kQJdlcfY_119{stroke-dasharray:83 85;stroke-dashoffset:84;animation:kQJdlcfY_draw_119 3950ms ease-out 0ms infinite,kQJdlcfY_fade 3950ms linear 0ms infinite;}.kQJdlcfY_120{stroke-dasharray:78 80;stroke-dashoffset:79;animation:kQJdlcfY_draw_120 3950ms ease-out 0ms infinite,kQJdlcfY_fade 3950ms linear 0ms infinite;}.kQJdlcfY_121{stroke-dasharray:42 44;stroke-dashoffset:43;animation:kQJdlcfY_draw_121 3950ms ease-out 0ms infinite,kQJdlcfY_fade 3950ms linear 0ms infinite;}.kQJdlcfY_122{stroke-dasharray:42 44;stroke-dashoffset:43;animation:kQJdlcfY_draw_122 3950ms ease-out 0ms infinite,kQJdlcfY_fade 3950ms linear 0ms infinite;}.kQJdlcfY_123{stroke-dasharray:400 402;stroke-dashoffset:401;animation:kQJdlcfY_draw_123 3950ms ease-out 0ms infinite,kQJdlcfY_fade 3950ms linear 0ms infinite;}.kQJdlcfY_124{stroke-dasharray:400 402;stroke-dashoffset:401;animation:kQJdlcfY_draw_124 3950ms ease-out 0ms infinite,kQJdlcfY_fade 3950ms linear 0ms infinite;}.kQJdlcfY_125{stroke-dasharray:400 402;stroke-dashoffset:401;animation:kQJdlcfY_draw_125 3950ms ease-out 0ms infinite,kQJdlcfY_fade 3950ms linear 0ms infinite;}@keyframes kQJdlcfY_draw{100%{stroke-dashoffset:0;}}@keyframes kQJdlcfY_fade{0%{stroke-opacity:1;}89.87341772151899%{stroke-opacity:1;}100%{stroke-opacity:0;}}@keyframes kQJdlcfY_draw_0{1.2658227848101267%{stroke-dashoffset: 6001}26.582278481012654%{ stroke-dashoffset: 0;}100%{ stroke-dashoffset: 0;}}@keyframes kQJdlcfY_draw_1{1.3670886075949367%{stroke-dashoffset: 97}26.68354430379747%{ stroke-dashoffset: 0;}100%{ stroke-dashoffset: 0;}}@keyframes kQJdlcfY_draw_2{1.4683544303797469%{stroke-dashoffset: 90}26.784810126582276%{ stroke-dashoffset: 0;}100%{ stroke-dashoffset: 0;}}@keyframes kQJdlcfY_draw_3{1.569620253164557%{stroke-dashoffset: 87}26.88607594936709%{ stroke-dashoffset: 0;}100%{ stroke-dashoffset: 0;}}@keyframes kQJdlcfY_draw_4{1.6708860759493671%{stroke-dashoffset: 97}26.987341772151897%{ stroke-dashoffset: 0;}100%{ stroke-dashoffset: 0;}}@keyframes kQJdlcfY_draw_5{1.7721518987341773%{stroke-dashoffset: 108}27.088607594936708%{ stroke-dashoffset: 0;}100%{ stroke-dashoffset: 0;}}@keyframes kQJdlcfY_draw_6{1.8734177215189873%{stroke-dashoffset: 63}27.189873417721515%{ stroke-dashoffset: 0;}100%{ stroke-dashoffset: 0;}}@keyframes kQJdlcfY_draw_7{1.9746835443037976%{stroke-dashoffset: 96}27.29113924050633%{ stroke-dashoffset: 0;}100%{ stroke-dashoffset: 0;}}@keyframes kQJdlcfY_draw_8{2.0759493670886076%{stroke-dashoffset: 88}27.392405063291143%{ stroke-dashoffset: 0;}100%{ stroke-dashoffset: 0;}}@keyframes kQJdlcfY_draw_9{2.1772151898734178%{stroke-dashoffset: 97}27.49367088607595%{ stroke-dashoffset: 0;}100%{ stroke-dashoffset: 0;}}@keyframes kQJdlcfY_draw_10{2.278481012658228%{stroke-dashoffset: 84}27.59493670886076%{ stroke-dashoffset: 0;}100%{ stroke-dashoffset: 0;}}@keyframes kQJdlcfY_draw_11{2.3797468354430378%{stroke-dashoffset: 89}27.696202531645568%{ stroke-dashoffset: 0;}100%{ stroke-dashoffset: 0;}}@keyframes kQJdlcfY_draw_12{2.481012658227848%{stroke-dashoffset: 112}27.797468354430382%{ stroke-dashoffset: 0;}100%{ stroke-dashoffset: 0;}}@keyframes kQJdlcfY_draw_13{2.5822784810126582%{stroke-dashoffset: 63}27.89873417721519%{ stroke-dashoffset: 0;}100%{ stroke-dashoffset: 0;}}@keyframes kQJdlcfY_draw_14{2.6835443037974684%{stroke-dashoffset: 104}28.000000000000004%{ stroke-dashoffset: 0;}100%{ stroke-dashoffset: 0;}}@keyframes kQJdlcfY_draw_15{2.7848101265822782%{stroke-dashoffset: 112}28.10126582278481%{ stroke-dashoffset: 0;}100%{ stroke-dashoffset: 0;}}@keyframes kQJdlcfY_draw_16{2.8860759493670884%{stroke-dashoffset: 90}28.20253164556962%{ stroke-dashoffset: 0;}100%{ stroke-dashoffset: 0;}}@keyframes kQJdlcfY_draw_17{2.9873417721518987%{stroke-dashoffset: 63}28.303797468354432%{ stroke-dashoffset: 0;}100%{ stroke-dashoffset: 0;}}@keyframes kQJdlcfY_draw_18{3.088607594936709%{stroke-dashoffset: 85}28.405063291139243%{ stroke-dashoffset: 0;}100%{ stroke-dashoffset: 0;}}@keyframes kQJdlcfY_draw_19{3.189873417721519%{stroke-dashoffset: 85}28.50632911392405%{ stroke-dashoffset: 0;}100%{ stroke-dashoffset: 0;}}@keyframes kQJdlcfY_draw_20{3.2911392405063293%{stroke-dashoffset: 63}28.607594936708864%{ stroke-dashoffset: 0;}100%{ stroke-dashoffset: 0;}}@keyframes kQJdlcfY_draw_21{3.3924050632911396%{stroke-dashoffset: 74}28.70886075949367%{ stroke-dashoffset: 0;}100%{ stroke-dashoffset: 0;}}@keyframes kQJdlcfY_draw_22{3.4936708860759493%{stroke-dashoffset: 93}28.810126582278485%{ stroke-dashoffset: 0;}100%{ stroke-dashoffset: 0;}}@keyframes kQJdlcfY_draw_23{3.5949367088607596%{stroke-dashoffset: 48}28.911392405063292%{ stroke-dashoffset: 0;}100%{ stroke-dashoffset: 0;}}@keyframes kQJdlcfY_draw_24{3.6962025316455698%{stroke-dashoffset: 111}29.012658227848103%{ stroke-dashoffset: 0;}100%{ stroke-dashoffset: 0;}}@keyframes kQJdlcfY_draw_25{3.79746835443038%{stroke-dashoffset: 48}29.11392405063291%{ stroke-dashoffset: 0;}100%{ stroke-dashoffset: 0;}}@keyframes kQJdlcfY_draw_26{3.8987341772151898%{stroke-dashoffset: 58}29.215189873417724%{ stroke-dashoffset: 0;}100%{ stroke-dashoffset: 0;}}@keyframes kQJdlcfY_draw_27{4%{stroke-dashoffset: 77}29.31645569620253%{ stroke-dashoffset: 0;}100%{ stroke-dashoffset: 0;}}@keyframes kQJdlcfY_draw_28{4.10126582278481%{stroke-dashoffset: 47}29.417721518987346%{ stroke-dashoffset: 0;}100%{ stroke-dashoffset: 0;}}@keyframes kQJdlcfY_draw_29{4.2025316455696204%{stroke-dashoffset: 75}29.518987341772153%{ stroke-dashoffset: 0;}100%{ stroke-dashoffset: 0;}}@keyframes kQJdlcfY_draw_30{4.30379746835443%{stroke-dashoffset: 48}29.620253164556964%{ stroke-dashoffset: 0;}100%{ stroke-dashoffset: 0;}}@keyframes kQJdlcfY_draw_31{4.405063291139241%{stroke-dashoffset: 48}29.72151898734177%{ stroke-dashoffset: 0;}100%{ stroke-dashoffset: 0;}}@keyframes kQJdlcfY_draw_32{4.506329113924051%{stroke-dashoffset: 74}29.822784810126585%{ stroke-dashoffset: 0;}100%{ stroke-dashoffset: 0;}}@keyframes kQJdlcfY_draw_33{4.6075949367088604%{stroke-dashoffset: 58}29.924050632911392%{ stroke-dashoffset: 0;}100%{ stroke-dashoffset: 0;}}@keyframes kQJdlcfY_draw_34{4.708860759493671%{stroke-dashoffset: 97}30.025316455696206%{ stroke-dashoffset: 0;}100%{ stroke-dashoffset: 0;}}@keyframes kQJdlcfY_draw_35{4.810126582278481%{stroke-dashoffset: 90}30.126582278481013%{ stroke-dashoffset: 0;}100%{ stroke-dashoffset: 0;}}@keyframes kQJdlcfY_draw_36{4.911392405063291%{stroke-dashoffset: 87}30.227848101265824%{ stroke-dashoffset: 0;}100%{ stroke-dashoffset: 0;}}@keyframes kQJdlcfY_draw_37{5.012658227848101%{stroke-dashoffset: 51}30.32911392405063%{ stroke-dashoffset: 0;}100%{ stroke-dashoffset: 0;}}@keyframes kQJdlcfY_draw_38{5.113924050632911%{stroke-dashoffset: 91}30.430379746835445%{ stroke-dashoffset: 0;}100%{ stroke-dashoffset: 0;}}@keyframes kQJdlcfY_draw_39{5.215189873417722%{stroke-dashoffset: 51}30.531645569620252%{ stroke-dashoffset: 0;}100%{ stroke-dashoffset: 0;}}@keyframes kQJdlcfY_draw_40{5.3164556962025316%{stroke-dashoffset: 85}30.632911392405067%{ stroke-dashoffset: 0;}100%{ stroke-dashoffset: 0;}}@keyframes kQJdlcfY_draw_41{5.417721518987341%{stroke-dashoffset: 51}30.734177215189874%{ stroke-dashoffset: 0;}100%{ stroke-dashoffset: 0;}}@keyframes kQJdlcfY_draw_42{5.518987341772152%{stroke-dashoffset: 85}30.835443037974684%{ stroke-dashoffset: 0;}100%{ stroke-dashoffset: 0;}}@keyframes kQJdlcfY_draw_43{5.620253164556962%{stroke-dashoffset: 84}30.93670886075949%{ stroke-dashoffset: 0;}100%{ stroke-dashoffset: 0;}}@keyframes kQJdlcfY_draw_44{5.721518987341772%{stroke-dashoffset: 89}31.037974683544306%{ stroke-dashoffset: 0;}100%{ stroke-dashoffset: 0;}}@keyframes kQJdlcfY_draw_45{5.822784810126582%{stroke-dashoffset: 112}31.139240506329113%{ stroke-dashoffset: 0;}100%{ stroke-dashoffset: 0;}}@keyframes kQJdlcfY_draw_46{5.924050632911392%{stroke-dashoffset: 63}31.240506329113927%{ stroke-dashoffset: 0;}100%{ stroke-dashoffset: 0;}}@keyframes kQJdlcfY_draw_47{6.025316455696203%{stroke-dashoffset: 104}31.341772151898734%{ stroke-dashoffset: 0;}100%{ stroke-dashoffset: 0;}}@keyframes kQJdlcfY_draw_48{6.1265822784810124%{stroke-dashoffset: 112}31.443037974683545%{ stroke-dashoffset: 0;}100%{ stroke-dashoffset: 0;}}@keyframes kQJdlcfY_draw_49{6.227848101265822%{stroke-dashoffset: 90}31.544303797468352%{ stroke-dashoffset: 0;}100%{ stroke-dashoffset: 0;}}@keyframes kQJdlcfY_draw_50{6.329113924050633%{stroke-dashoffset: 119}31.645569620253166%{ stroke-dashoffset: 0;}100%{ stroke-dashoffset: 0;}}@keyframes kQJdlcfY_draw_51{6.4303797468354436%{stroke-dashoffset: 42}31.746835443037973%{ stroke-dashoffset: 0;}100%{ stroke-dashoffset: 0;}}@keyframes kQJdlcfY_draw_52{6.531645569620253%{stroke-dashoffset: 82}31.848101265822788%{ stroke-dashoffset: 0;}100%{ stroke-dashoffset: 0;}}@keyframes kQJdlcfY_draw_53{6.632911392405064%{stroke-dashoffset: 55}31.949367088607595%{ stroke-dashoffset: 0;}100%{ stroke-dashoffset: 0;}}@keyframes kQJdlcfY_draw_54{6.734177215189874%{stroke-dashoffset: 82}32.050632911392405%{ stroke-dashoffset: 0;}100%{ stroke-dashoffset: 0;}}@keyframes kQJdlcfY_draw_55{6.8354430379746836%{stroke-dashoffset: 74}32.151898734177216%{ stroke-dashoffset: 0;}100%{ stroke-dashoffset: 0;}}@keyframes kQJdlcfY_draw_56{6.936708860759494%{stroke-dashoffset: 97}32.25316455696203%{ stroke-dashoffset: 0;}100%{ stroke-dashoffset: 0;}}@keyframes kQJdlcfY_draw_57{7.037974683544304%{stroke-dashoffset: 90}32.35443037974684%{ stroke-dashoffset: 0;}100%{ stroke-dashoffset: 0;}}@keyframes kQJdlcfY_draw_58{7.139240506329115%{stroke-dashoffset: 87}32.45569620253165%{ stroke-dashoffset: 0;}100%{ stroke-dashoffset: 0;}}@keyframes kQJdlcfY_draw_59{7.2405063291139244%{stroke-dashoffset: 118}32.55696202531645%{ stroke-dashoffset: 0;}100%{ stroke-dashoffset: 0;}}@keyframes kQJdlcfY_draw_60{7.341772151898734%{stroke-dashoffset: 60}32.65822784810127%{ stroke-dashoffset: 0;}100%{ stroke-dashoffset: 0;}}@keyframes kQJdlcfY_draw_61{7.443037974683545%{stroke-dashoffset: 63}32.75949367088607%{ stroke-dashoffset: 0;}100%{ stroke-dashoffset: 0;}}@keyframes kQJdlcfY_draw_62{7.544303797468355%{stroke-dashoffset: 60}32.86075949367089%{ stroke-dashoffset: 0;}100%{ stroke-dashoffset: 0;}}@keyframes kQJdlcfY_draw_63{7.6455696202531644%{stroke-dashoffset: 88}32.962025316455694%{ stroke-dashoffset: 0;}100%{ stroke-dashoffset: 0;}}@keyframes kQJdlcfY_draw_64{7.746835443037975%{stroke-dashoffset: 84}33.063291139240505%{ stroke-dashoffset: 0;}100%{ stroke-dashoffset: 0;}}@keyframes kQJdlcfY_draw_65{7.848101265822785%{stroke-dashoffset: 89}33.164556962025316%{ stroke-dashoffset: 0;}100%{ stroke-dashoffset: 0;}}@keyframes kQJdlcfY_draw_66{7.949367088607595%{stroke-dashoffset: 112}33.265822784810126%{ stroke-dashoffset: 0;}100%{ stroke-dashoffset: 0;}}@keyframes kQJdlcfY_draw_67{8.050632911392405%{stroke-dashoffset: 63}33.36708860759494%{ stroke-dashoffset: 0;}100%{ stroke-dashoffset: 0;}}@keyframes kQJdlcfY_draw_68{8.151898734177216%{stroke-dashoffset: 104}33.46835443037975%{ stroke-dashoffset: 0;}100%{ stroke-dashoffset: 0;}}@keyframes kQJdlcfY_draw_69{8.253164556962025%{stroke-dashoffset: 112}33.56962025316456%{ stroke-dashoffset: 0;}100%{ stroke-dashoffset: 0;}}@keyframes kQJdlcfY_draw_70{8.354430379746836%{stroke-dashoffset: 90}33.67088607594937%{ stroke-dashoffset: 0;}100%{ stroke-dashoffset: 0;}}@keyframes kQJdlcfY_draw_71{8.455696202531646%{stroke-dashoffset: 97}33.77215189873418%{ stroke-dashoffset: 0;}100%{ stroke-dashoffset: 0;}}@keyframes kQJdlcfY_draw_72{8.556962025316455%{stroke-dashoffset: 97}33.87341772151899%{ stroke-dashoffset: 0;}100%{ stroke-dashoffset: 0;}}@keyframes kQJdlcfY_draw_73{8.658227848101266%{stroke-dashoffset: 88}33.974683544303794%{ stroke-dashoffset: 0;}100%{ stroke-dashoffset: 0;}}@keyframes kQJdlcfY_draw_74{8.759493670886076%{stroke-dashoffset: 74}34.07594936708861%{ stroke-dashoffset: 0;}100%{ stroke-dashoffset: 0;}}@keyframes kQJdlcfY_draw_75{8.860759493670885%{stroke-dashoffset: 75}34.177215189873415%{ stroke-dashoffset: 0;}100%{ stroke-dashoffset: 0;}}@keyframes kQJdlcfY_draw_76{8.962025316455696%{stroke-dashoffset: 48}34.27848101265823%{ stroke-dashoffset: 0;}100%{ stroke-dashoffset: 0;}}@keyframes kQJdlcfY_draw_77{9.063291139240507%{stroke-dashoffset: 48}34.379746835443036%{ stroke-dashoffset: 0;}100%{ stroke-dashoffset: 0;}}@keyframes kQJdlcfY_draw_78{9.164556962025316%{stroke-dashoffset: 111}34.48101265822785%{ stroke-dashoffset: 0;}100%{ stroke-dashoffset: 0;}}@keyframes kQJdlcfY_draw_79{9.265822784810126%{stroke-dashoffset: 77}34.58227848101266%{ stroke-dashoffset: 0;}100%{ stroke-dashoffset: 0;}}@keyframes kQJdlcfY_draw_80{9.367088607594937%{stroke-dashoffset: 48}34.68354430379747%{ stroke-dashoffset: 0;}100%{ stroke-dashoffset: 0;}}@keyframes kQJdlcfY_draw_81{9.468354430379748%{stroke-dashoffset: 81}34.78481012658228%{ stroke-dashoffset: 0;}100%{ stroke-dashoffset: 0;}}@keyframes kQJdlcfY_draw_82{9.569620253164556%{stroke-dashoffset: 72}34.88607594936709%{ stroke-dashoffset: 0;}100%{ stroke-dashoffset: 0;}}@keyframes kQJdlcfY_draw_83{9.670886075949367%{stroke-dashoffset: 68}34.9873417721519%{ stroke-dashoffset: 0;}100%{ stroke-dashoffset: 0;}}@keyframes kQJdlcfY_draw_84{9.772151898734178%{stroke-dashoffset: 47}35.08860759493671%{ stroke-dashoffset: 0;}100%{ stroke-dashoffset: 0;}}@keyframes kQJdlcfY_draw_85{9.873417721518987%{stroke-dashoffset: 68}35.189873417721515%{ stroke-dashoffset: 0;}100%{ stroke-dashoffset: 0;}}@keyframes kQJdlcfY_draw_86{9.974683544303797%{stroke-dashoffset: 48}35.29113924050633%{ stroke-dashoffset: 0;}100%{ stroke-dashoffset: 0;}}@keyframes kQJdlcfY_draw_87{10.075949367088608%{stroke-dashoffset: 102}35.392405063291136%{ stroke-dashoffset: 0;}100%{ stroke-dashoffset: 0;}}@keyframes kQJdlcfY_draw_88{10.177215189873417%{stroke-dashoffset: 73}35.493670886075954%{ stroke-dashoffset: 0;}100%{ stroke-dashoffset: 0;}}@keyframes kQJdlcfY_draw_89{10.278481012658228%{stroke-dashoffset: 43}35.59493670886076%{ stroke-dashoffset: 0;}100%{ stroke-dashoffset: 0;}}@keyframes kQJdlcfY_draw_90{10.379746835443038%{stroke-dashoffset: 93}35.69620253164557%{ stroke-dashoffset: 0;}100%{ stroke-dashoffset: 0;}}@keyframes kQJdlcfY_draw_91{10.481012658227847%{stroke-dashoffset: 78}35.79746835443038%{ stroke-dashoffset: 0;}100%{ stroke-dashoffset: 0;}}@keyframes kQJdlcfY_draw_92{10.582278481012658%{stroke-dashoffset: 76}35.89873417721519%{ stroke-dashoffset: 0;}100%{ stroke-dashoffset: 0;}}@keyframes kQJdlcfY_draw_93{10.683544303797468%{stroke-dashoffset: 57}36%{ stroke-dashoffset: 0;}100%{ stroke-dashoffset: 0;}}@keyframes kQJdlcfY_draw_94{10.784810126582279%{stroke-dashoffset: 68}36.10126582278481%{ stroke-dashoffset: 0;}100%{ stroke-dashoffset: 0;}}@keyframes kQJdlcfY_draw_95{10.886075949367088%{stroke-dashoffset: 74}36.20253164556962%{ stroke-dashoffset: 0;}100%{ stroke-dashoffset: 0;}}@keyframes kQJdlcfY_draw_96{10.987341772151899%{stroke-dashoffset: 88}36.30379746835443%{ stroke-dashoffset: 0;}100%{ stroke-dashoffset: 0;}}@keyframes kQJdlcfY_draw_97{11.08860759493671%{stroke-dashoffset: 77}36.40506329113924%{ stroke-dashoffset: 0;}100%{ stroke-dashoffset: 0;}}@keyframes kQJdlcfY_draw_98{11.189873417721518%{stroke-dashoffset: 48}36.50632911392405%{ stroke-dashoffset: 0;}100%{ stroke-dashoffset: 0;}}@keyframes kQJdlcfY_draw_99{11.291139240506329%{stroke-dashoffset: 81}36.60759493670886%{ stroke-dashoffset: 0;}100%{ stroke-dashoffset: 0;}}@keyframes kQJdlcfY_draw_100{11.39240506329114%{stroke-dashoffset: 72}36.708860759493675%{ stroke-dashoffset: 0;}100%{ stroke-dashoffset: 0;}}@keyframes kQJdlcfY_draw_101{11.493670886075948%{stroke-dashoffset: 68}36.81012658227848%{ stroke-dashoffset: 0;}100%{ stroke-dashoffset: 0;}}@keyframes kQJdlcfY_draw_102{11.594936708860759%{stroke-dashoffset: 47}36.911392405063296%{ stroke-dashoffset: 0;}100%{ stroke-dashoffset: 0;}}@keyframes kQJdlcfY_draw_103{11.69620253164557%{stroke-dashoffset: 68}37.0126582278481%{ stroke-dashoffset: 0;}100%{ stroke-dashoffset: 0;}}@keyframes kQJdlcfY_draw_104{11.797468354430379%{stroke-dashoffset: 48}37.11392405063291%{ stroke-dashoffset: 0;}100%{ stroke-dashoffset: 0;}}@keyframes kQJdlcfY_draw_105{11.89873417721519%{stroke-dashoffset: 66}37.21518987341772%{ stroke-dashoffset: 0;}100%{ stroke-dashoffset: 0;}}@keyframes kQJdlcfY_draw_106{12%{stroke-dashoffset: 145}37.31645569620253%{ stroke-dashoffset: 0;}100%{ stroke-dashoffset: 0;}}@keyframes kQJdlcfY_draw_107{12.101265822784809%{stroke-dashoffset: 73}37.41772151898734%{ stroke-dashoffset: 0;}100%{ stroke-dashoffset: 0;}}@keyframes kQJdlcfY_draw_108{12.20253164556962%{stroke-dashoffset: 73}37.51898734177215%{ stroke-dashoffset: 0;}100%{ stroke-dashoffset: 0;}}@keyframes kQJdlcfY_draw_109{12.30379746835443%{stroke-dashoffset: 93}37.620253164556964%{ stroke-dashoffset: 0;}100%{ stroke-dashoffset: 0;}}@keyframes kQJdlcfY_draw_110{12.40506329113924%{stroke-dashoffset: 66}37.721518987341774%{ stroke-dashoffset: 0;}100%{ stroke-dashoffset: 0;}}@keyframes kQJdlcfY_draw_111{12.50632911392405%{stroke-dashoffset: 111}37.82278481012658%{ stroke-dashoffset: 0;}100%{ stroke-dashoffset: 0;}}@keyframes kQJdlcfY_draw_112{12.60759493670886%{stroke-dashoffset: 73}37.924050632911396%{ stroke-dashoffset: 0;}100%{ stroke-dashoffset: 0;}}@keyframes kQJdlcfY_draw_113{12.708860759493671%{stroke-dashoffset: 83}38.0253164556962%{ stroke-dashoffset: 0;}100%{ stroke-dashoffset: 0;}}@keyframes kQJdlcfY_draw_114{12.81012658227848%{stroke-dashoffset: 79}38.12658227848102%{ stroke-dashoffset: 0;}100%{ stroke-dashoffset: 0;}}@keyframes kQJdlcfY_draw_115{12.91139240506329%{stroke-dashoffset: 80}38.22784810126582%{ stroke-dashoffset: 0;}100%{ stroke-dashoffset: 0;}}@keyframes kQJdlcfY_draw_116{13.012658227848101%{stroke-dashoffset: 79}38.32911392405063%{ stroke-dashoffset: 0;}100%{ stroke-dashoffset: 0;}}@keyframes kQJdlcfY_draw_117{13.11392405063291%{stroke-dashoffset: 80}38.43037974683544%{ stroke-dashoffset: 0;}100%{ stroke-dashoffset: 0;}}@keyframes kQJdlcfY_draw_118{13.215189873417721%{stroke-dashoffset: 66}38.53164556962025%{ stroke-dashoffset: 0;}100%{ stroke-dashoffset: 0;}}@keyframes kQJdlcfY_draw_119{13.316455696202532%{stroke-dashoffset: 84}38.63291139240506%{ stroke-dashoffset: 0;}100%{ stroke-dashoffset: 0;}}@keyframes kQJdlcfY_draw_120{13.41772151898734%{stroke-dashoffset: 79}38.734177215189874%{ stroke-dashoffset: 0;}100%{ stroke-dashoffset: 0;}}@keyframes kQJdlcfY_draw_121{13.518987341772151%{stroke-dashoffset: 43}38.835443037974684%{ stroke-dashoffset: 0;}100%{ stroke-dashoffset: 0;}}@keyframes kQJdlcfY_draw_122{13.620253164556962%{stroke-dashoffset: 43}38.936708860759495%{ stroke-dashoffset: 0;}100%{ stroke-dashoffset: 0;}}@keyframes kQJdlcfY_draw_123{13.72151898734177%{stroke-dashoffset: 401}39.0379746835443%{ stroke-dashoffset: 0;}100%{ stroke-dashoffset: 0;}}@keyframes kQJdlcfY_draw_124{13.822784810126581%{stroke-dashoffset: 401}39.139240506329116%{ stroke-dashoffset: 0;}100%{ stroke-dashoffset: 0;}}@keyframes kQJdlcfY_draw_125{13.924050632911392%{stroke-dashoffset: 401}39.24050632911392%{ stroke-dashoffset: 0;}100%{ stroke-dashoffset: 0;}}</style></svg>
