<!--?xml version="1.0" encoding="utf-8"?-->
<!-- Generator: Adobe Illustrator 22.0.1, SVG Export Plug-In . SVG Version: 6.00 Build 0)  -->
<svg version="1.1" xmlns="http://www.w3.org/2000/svg" xmlns:xlink="http://www.w3.org/1999/xlink" width="1280" x="0px" y="0px" viewBox="0 0 1920 1080" style="" xml:space="preserve">
<style type="text/css">
	.st0{fill:#3B7EE4;}
	.st1{fill:#48CFAD;}
	.st2{fill:#2772CC;}
	.st3{fill:#3577D8;}
	.st4{fill:#5491EA;}
	.st5{fill:none;stroke:#5CC1A6;stroke-width:1.3;stroke-miterlimit:10;}
</style>
<g id="fill">
	<path class="st0 zWfEGpuJ_0" width="1920" height="1080" d="M0 2.3 L1920 2.3 L1920 1082.3 L0 1082.3 Z"></path>
	<g>
		<path class="st1 zWfEGpuJ_1" d="M865.7,826.2c0.6,0.3,1.1,0.7,1.5,1.2c0.4,0.5,0.7,1,0.9,1.5c0.2,0.6,0.3,1.1,0.2,1.8c0,0.6-0.3,1.2-0.6,1.9
			c-0.3,0.5-0.6,0.9-1,1.2s-0.8,0.5-1.2,0.7c-0.4,0.1-0.9,0.2-1.4,0.2c-0.5,0-1-0.1-1.5-0.2c1,0.9,1.6,1.8,1.8,2.8c0.2,1,0,2-0.6,3
			c-0.4,0.6-0.8,1.1-1.4,1.5c-0.6,0.4-1.2,0.7-1.8,0.8c-0.7,0.1-1.4,0.1-2.1,0c-0.7-0.1-1.4-0.4-2.1-0.8c-0.9-0.5-1.5-1-2-1.6
			c-0.4-0.6-0.7-1.2-0.9-1.7s-0.2-1.2-0.1-1.8c0.1-0.6,0.2-1.1,0.3-1.7l0.5,0.1c0.1,0,0.2,0,0.3,0.1c0.1,0,0.1,0.1,0.2,0.2
			c0.1,0.1,0.1,0.2,0,0.3l0,0.3c0,0.2-0.1,0.4-0.1,0.6c0,0.2,0,0.5,0,0.8c0,0.3,0,0.6,0.1,0.9c0.1,0.3,0.2,0.6,0.4,0.9
			c0.2,0.3,0.4,0.6,0.7,0.9c0.3,0.3,0.7,0.6,1.2,0.9c0.7,0.4,1.3,0.6,1.9,0.7c0.6,0.1,1.2,0,1.7-0.1c0.5-0.1,1-0.4,1.4-0.7
			c0.4-0.3,0.7-0.7,0.9-1.1c0.3-0.5,0.4-0.9,0.5-1.4c0.1-0.5,0-1-0.1-1.5c-0.2-0.5-0.5-1-1-1.5s-1.1-1-1.9-1.5l0.4-0.7
			c0.7,0.4,1.3,0.6,1.9,0.7s1.1,0.2,1.7,0.1c0.5-0.1,1-0.3,1.4-0.6c0.4-0.3,0.7-0.7,1-1.1c0.3-0.5,0.5-1.1,0.5-1.6
			c0-0.5,0-1-0.2-1.4s-0.4-0.8-0.7-1.2c-0.3-0.4-0.7-0.7-1.2-0.9c-0.5-0.3-1-0.5-1.5-0.6c-0.5-0.1-1-0.1-1.4,0
			c-0.5,0.1-0.9,0.2-1.3,0.5c-0.4,0.2-0.8,0.6-1.2,1c-0.2,0.2-0.4,0.3-0.6,0.1c-0.1,0-0.1-0.1-0.1-0.1l-0.5-0.4
			c0.5-0.6,1-1.1,1.6-1.4c0.6-0.4,1.2-0.6,1.8-0.7c0.6-0.1,1.2-0.1,1.9,0C864.5,825.6,865.1,825.8,865.7,826.2z"></path>
		<path class="st1 zWfEGpuJ_2" d="M873.3,843.9l-0.7-7.4l1,0.6c0.1,0.1,0.2,0.1,0.2,0.2c0,0.1,0,0.1,0,0.2l0.5,6.4c0.1-0.1,0.2-0.2,0.4-0.3
			l5.4-2.5c0.1,0,0.2-0.1,0.2-0.1c0.1,0,0.2,0,0.2,0l1,0.5l-6.8,3l0.7,7.8l-1-0.6c-0.1-0.1-0.2-0.1-0.2-0.2c0-0.1,0-0.2,0-0.3
			l-0.5-6.7c-0.1,0.1-0.2,0.2-0.4,0.3l-5.7,2.6c-0.1,0-0.2,0.1-0.3,0.1c-0.1,0-0.2,0-0.2,0l-0.9-0.5L873.3,843.9z"></path>
	</g>
	<g>
		<path class="st1 zWfEGpuJ_3" d="M1147.1,253.8l-0.7-7.4l1,0.6c0.1,0.1,0.2,0.1,0.2,0.2c0,0.1,0,0.1,0,0.2l0.5,6.4c0.1-0.1,0.2-0.2,0.4-0.3
			l5.4-2.5c0.1,0,0.1-0.1,0.2-0.1c0.1,0,0.2,0,0.2,0l1,0.5l-6.8,3l0.7,7.8l-1-0.6c-0.1-0.1-0.2-0.1-0.2-0.2c0-0.1,0-0.2,0-0.3
			l-0.5-6.7c-0.1,0.1-0.2,0.2-0.4,0.3l-5.7,2.6c-0.1,0-0.2,0.1-0.3,0.1c-0.1,0-0.2,0-0.2,0l-0.9-0.5L1147.1,253.8z"></path>
	</g>
	<g>
		<path class="st1 zWfEGpuJ_4" d="M1274.1,327.1l-0.7-7.4l1,0.6c0.1,0.1,0.2,0.1,0.2,0.2c0,0.1,0,0.1,0,0.2l0.5,6.4c0.1-0.1,0.2-0.2,0.4-0.3
			l5.4-2.5c0.1,0,0.2-0.1,0.2-0.1c0.1,0,0.2,0,0.2,0l1,0.6l-6.8,3l0.7,7.8l-1-0.6c-0.1-0.1-0.2-0.1-0.2-0.2c0-0.1,0-0.2,0-0.3
			l-0.5-6.7c-0.1,0.1-0.2,0.2-0.4,0.3l-5.7,2.6c-0.1,0-0.2,0.1-0.3,0.1c-0.1,0-0.2,0-0.2,0l-0.9-0.5L1274.1,327.1z"></path>
	</g>
	<g>
		<path class="st1 zWfEGpuJ_5" d="M1237.3,488.8l-0.7-7.4l1,0.6c0.1,0.1,0.2,0.1,0.2,0.2c0,0.1,0,0.1,0,0.2l0.5,6.4c0.1-0.1,0.2-0.2,0.4-0.3
			l5.4-2.5c0.1,0,0.2-0.1,0.2-0.1c0.1,0,0.2,0,0.2,0l1,0.5l-6.8,3l0.7,7.8l-1-0.6c-0.1-0.1-0.2-0.1-0.2-0.2c0-0.1,0-0.2,0-0.3
			l-0.5-6.7c-0.1,0.1-0.2,0.2-0.4,0.3l-5.7,2.6c-0.1,0-0.2,0.1-0.3,0.1c-0.1,0-0.2,0-0.2,0l-0.9-0.5L1237.3,488.8z"></path>
	</g>
	<g>
		<path class="st1 zWfEGpuJ_6" d="M1077.4,276.8l-0.7-7.4l1,0.6c0.1,0.1,0.2,0.1,0.2,0.2c0,0.1,0,0.1,0,0.2l0.5,6.4c0.1-0.1,0.2-0.2,0.4-0.3
			l5.4-2.5c0.1,0,0.2-0.1,0.2-0.1c0.1,0,0.2,0,0.2,0l1,0.6l-6.8,3l0.7,7.8l-1-0.6c-0.1-0.1-0.2-0.1-0.2-0.2s0-0.2,0-0.3l-0.5-6.7
			c-0.1,0.1-0.2,0.2-0.4,0.3l-5.7,2.6c-0.1,0-0.2,0.1-0.3,0.1s-0.2,0-0.2,0l-0.9-0.5L1077.4,276.8z"></path>
	</g>
	<g>
		<path class="st1 zWfEGpuJ_7" d="M1261.9,579.6c0.6,0.3,1.1,0.7,1.5,1.2c0.4,0.5,0.8,1,1,1.6c0.2,0.6,0.3,1.2,0.2,1.8c-0.1,0.7-0.3,1.3-0.7,2
			c-0.3,0.6-0.7,1.1-1.2,1.5c-0.5,0.4-1,0.7-1.5,1c-0.6,0.3-1.2,0.5-1.8,0.7s-1.3,0.4-2,0.6l-7.6,2.1c0.3,0.1,0.5,0.2,0.8,0.3
			c0.3,0.1,0.5,0.2,0.8,0.4l6.6,3.8c0.1,0.1,0.2,0.2,0.2,0.3c0,0.1,0,0.2,0,0.3l-0.4,0.6l-9.9-5.7l0.2-0.4c0-0.1,0.1-0.1,0.2-0.2
			c0.1-0.1,0.2-0.1,0.3-0.1l8.3-2.3c0.7-0.2,1.3-0.4,1.9-0.6c0.6-0.2,1.2-0.4,1.7-0.7c0.5-0.3,1-0.6,1.4-0.9c0.4-0.4,0.8-0.8,1-1.3
			c0.3-0.6,0.5-1.1,0.6-1.6c0.1-0.5,0-1-0.2-1.5c-0.2-0.4-0.4-0.9-0.7-1.2c-0.3-0.4-0.7-0.7-1.2-0.9c-0.5-0.3-1-0.5-1.5-0.5
			c-0.5-0.1-1-0.1-1.4,0c-0.5,0.1-0.9,0.2-1.3,0.5c-0.4,0.2-0.8,0.6-1.1,1c-0.2,0.2-0.4,0.3-0.7,0.1c0,0,0,0-0.1,0c0,0,0,0,0,0
			l-0.5-0.4c0.5-0.6,1-1.1,1.5-1.4s1.2-0.6,1.8-0.7c0.6-0.1,1.2-0.1,1.9,0C1260.6,578.9,1261.3,579.2,1261.9,579.6z"></path>
		<path class="st1 zWfEGpuJ_8" d="M1269.9,597.5l-0.7-7.4l1,0.6c0.1,0.1,0.2,0.1,0.2,0.2c0,0.1,0,0.1,0,0.2l0.5,6.4c0.1-0.1,0.2-0.2,0.4-0.3
			l5.4-2.5c0.1,0,0.1-0.1,0.2-0.1c0.1,0,0.2,0,0.2,0l1,0.6l-6.8,3l0.7,7.8l-1-0.6c-0.1-0.1-0.2-0.1-0.2-0.2s0-0.2,0-0.3l-0.5-6.7
			c-0.1,0.1-0.2,0.2-0.4,0.3l-5.7,2.6c-0.1,0-0.2,0.1-0.3,0.1c-0.1,0-0.2,0-0.2,0l-0.9-0.5L1269.9,597.5z"></path>
	</g>
	<g>
		<path class="st1 zWfEGpuJ_9" d="M1183.2,324.6c0.6,0.3,1.1,0.7,1.5,1.2c0.4,0.5,0.8,1,1,1.6c0.2,0.6,0.3,1.2,0.2,1.8c-0.1,0.7-0.3,1.3-0.7,2
			c-0.3,0.6-0.7,1.1-1.2,1.5s-1,0.7-1.5,1c-0.6,0.3-1.2,0.5-1.8,0.7c-0.6,0.2-1.3,0.4-2,0.6l-7.6,2.1c0.3,0.1,0.5,0.2,0.8,0.3
			c0.3,0.1,0.5,0.2,0.8,0.4l6.6,3.8c0.1,0.1,0.2,0.2,0.2,0.3s0,0.2,0,0.3l-0.3,0.6l-9.9-5.7l0.2-0.4c0-0.1,0.1-0.1,0.2-0.2
			s0.2-0.1,0.3-0.1l8.3-2.3c0.7-0.2,1.3-0.4,1.9-0.6c0.6-0.2,1.2-0.4,1.7-0.7c0.5-0.3,1-0.6,1.4-0.9c0.4-0.4,0.8-0.8,1-1.3
			c0.3-0.6,0.5-1.1,0.6-1.6c0.1-0.5,0-1-0.2-1.5c-0.2-0.4-0.4-0.9-0.7-1.2c-0.3-0.4-0.7-0.7-1.2-0.9c-0.5-0.3-1-0.5-1.5-0.6
			c-0.5-0.1-1-0.1-1.4,0c-0.5,0.1-0.9,0.2-1.3,0.5c-0.4,0.2-0.8,0.6-1.1,0.9c-0.2,0.2-0.4,0.3-0.7,0.1c0,0,0,0-0.1,0c0,0,0,0-0.1,0
			l-0.5-0.4c0.5-0.6,1-1.1,1.5-1.4s1.2-0.6,1.8-0.7c0.6-0.1,1.2-0.1,1.9,0C1182,324,1182.6,324.2,1183.2,324.6z"></path>
		<path class="st1 zWfEGpuJ_10" d="M1191.3,342.5l-0.7-7.4l1,0.6c0.1,0.1,0.2,0.1,0.2,0.2c0,0.1,0,0.1,0,0.2l0.5,6.4c0.1-0.1,0.2-0.2,0.4-0.3
			l5.4-2.5c0.1,0,0.2-0.1,0.2-0.1s0.2,0,0.2,0l1,0.6l-6.8,3l0.7,7.8l-1-0.6c-0.1-0.1-0.2-0.1-0.2-0.2c0-0.1,0-0.2,0-0.3l-0.5-6.7
			c-0.1,0.1-0.2,0.2-0.4,0.3l-5.7,2.6c-0.1,0-0.2,0.1-0.3,0.1c-0.1,0-0.2,0-0.2,0l-0.9-0.5L1191.3,342.5z"></path>
	</g>
	<g>
		<path class="st1 zWfEGpuJ_11" d="M936.5,312.5c0.6,0.3,1.1,0.7,1.5,1.2s0.7,1,0.9,1.5c0.2,0.6,0.3,1.1,0.2,1.8c0,0.6-0.3,1.2-0.6,1.9
			c-0.3,0.5-0.6,0.9-1,1.2c-0.4,0.3-0.8,0.5-1.2,0.7c-0.4,0.1-0.9,0.2-1.4,0.2s-1-0.1-1.5-0.2c1,0.9,1.6,1.8,1.8,2.8
			c0.2,1,0,2-0.6,3c-0.4,0.6-0.8,1.1-1.4,1.5c-0.6,0.4-1.2,0.7-1.8,0.8c-0.7,0.1-1.4,0.1-2.1,0c-0.7-0.1-1.4-0.4-2.1-0.8
			c-0.9-0.5-1.5-1-2-1.6c-0.4-0.6-0.7-1.2-0.9-1.7c-0.2-0.6-0.2-1.2-0.1-1.8c0.1-0.6,0.2-1.1,0.3-1.7l0.5,0.1c0.1,0,0.2,0,0.3,0.1
			c0.1,0,0.1,0.1,0.2,0.2c0.1,0.1,0.1,0.2,0,0.3l0,0.3c0,0.2-0.1,0.4-0.1,0.6c0,0.2,0,0.5,0,0.8c0,0.3,0,0.6,0.1,0.9
			c0.1,0.3,0.2,0.6,0.4,0.9s0.4,0.6,0.7,0.9c0.3,0.3,0.7,0.6,1.2,0.9c0.6,0.4,1.3,0.6,1.9,0.7s1.2,0,1.7-0.1s1-0.4,1.4-0.7
			s0.7-0.7,0.9-1.1c0.3-0.5,0.4-0.9,0.5-1.4c0.1-0.5,0-1-0.1-1.5c-0.2-0.5-0.5-1-1-1.5c-0.5-0.5-1.1-1-1.9-1.5l0.4-0.7
			c0.7,0.4,1.3,0.6,1.9,0.7s1.1,0.2,1.7,0.1c0.5-0.1,1-0.3,1.4-0.6c0.4-0.3,0.7-0.7,1-1.1c0.3-0.5,0.5-1.1,0.5-1.6
			c0-0.5,0-1-0.2-1.4c-0.2-0.4-0.4-0.8-0.7-1.2s-0.7-0.7-1.2-0.9c-0.5-0.3-1-0.5-1.5-0.6c-0.5-0.1-1-0.1-1.4,0
			c-0.5,0.1-0.9,0.2-1.3,0.5c-0.4,0.2-0.8,0.6-1.2,0.9c-0.2,0.2-0.4,0.3-0.6,0.1c-0.1,0-0.1-0.1-0.1-0.1l-0.5-0.4
			c0.5-0.6,1-1.1,1.6-1.4c0.6-0.4,1.2-0.6,1.8-0.7c0.6-0.1,1.2-0.1,1.9,0C935.3,311.9,935.9,312.1,936.5,312.5z"></path>
		<path class="st1 zWfEGpuJ_12" d="M944.1,330.2l-0.7-7.4l1,0.6c0.1,0.1,0.2,0.1,0.2,0.2c0,0.1,0,0.1,0,0.2l0.5,6.4c0.1-0.1,0.2-0.2,0.4-0.3
			l5.4-2.5c0.1,0,0.1-0.1,0.2-0.1c0.1,0,0.2,0,0.2,0l1,0.6l-6.8,3l0.7,7.8l-1-0.6c-0.1-0.1-0.2-0.1-0.2-0.2c0-0.1,0-0.2,0-0.3
			l-0.5-6.7c-0.1,0.1-0.2,0.2-0.4,0.3l-5.7,2.6c-0.1,0-0.2,0.1-0.3,0.1c-0.1,0-0.2,0-0.2,0l-0.9-0.5L944.1,330.2z"></path>
	</g>
	<g>
		<path class="st1 zWfEGpuJ_13" d="M881.3,463.7l2.8,1.6l-0.3,0.6c0,0.1-0.1,0.1-0.2,0.1c-0.1,0-0.2,0-0.3-0.1l-2.5-1.5l-2.5,4.4l-0.9-0.5
			l2.5-4.4l-7.2-4.2c-0.1-0.1-0.2-0.1-0.2-0.2c0-0.1,0-0.2,0-0.3l0.2-0.6l13.6-5.7l0.9,0.5L881.3,463.7z M885,455.1
			c0.1-0.1,0.2-0.3,0.2-0.4c0.1-0.1,0.2-0.3,0.3-0.4l-11.7,5l6.6,3.8L885,455.1z"></path>
		<path class="st1 zWfEGpuJ_14" d="M891.8,469.3l-0.7-7.4l1,0.6c0.1,0.1,0.2,0.1,0.2,0.2c0,0.1,0,0.1,0,0.2l0.5,6.4c0.1-0.1,0.2-0.2,0.4-0.3
			l5.4-2.5c0.1,0,0.1-0.1,0.2-0.1s0.2,0,0.2,0l1,0.6l-6.8,3l0.7,7.8l-1-0.6c-0.1-0.1-0.2-0.1-0.2-0.2c0-0.1,0-0.2,0-0.3l-0.5-6.7
			c-0.1,0.1-0.2,0.2-0.4,0.3l-5.7,2.6c-0.1,0-0.2,0.1-0.3,0.1c-0.1,0-0.2,0-0.2,0l-0.9-0.5L891.8,469.3z"></path>
	</g>
	<g>
		<path class="st1 zWfEGpuJ_15" d="M716.7,650.9l2.8,1.6l-0.3,0.6c0,0.1-0.1,0.1-0.2,0.1c-0.1,0-0.2,0-0.3-0.1l-2.5-1.5l-2.5,4.4l-0.9-0.5
			l2.5-4.4l-7.2-4.2c-0.1-0.1-0.2-0.1-0.2-0.2c0-0.1,0-0.2,0-0.3l0.2-0.6l13.6-5.7l0.9,0.5L716.7,650.9z M720.4,642.3
			c0.1-0.1,0.1-0.3,0.2-0.4c0.1-0.1,0.2-0.3,0.3-0.4l-11.7,5l6.6,3.8L720.4,642.3z"></path>
		<path class="st1 zWfEGpuJ_16" d="M727.2,656.6l-0.7-7.4l1,0.6c0.1,0.1,0.2,0.1,0.2,0.2c0,0.1,0,0.1,0,0.2l0.5,6.4c0.1-0.1,0.2-0.2,0.4-0.3
			l5.4-2.5c0.1,0,0.1-0.1,0.2-0.1c0.1,0,0.2,0,0.2,0l1,0.6l-6.8,3l0.7,7.8l-1-0.6c-0.1-0.1-0.2-0.1-0.2-0.2c0-0.1,0-0.2,0-0.3
			l-0.5-6.7c-0.1,0.1-0.2,0.2-0.4,0.3l-5.7,2.6c-0.1,0-0.2,0.1-0.3,0.1c-0.1,0-0.2,0-0.2,0l-0.9-0.5L727.2,656.6z"></path>
	</g>
	<g>
		<path class="st1 zWfEGpuJ_17" d="M942.5,650.9l2.8,1.6l-0.3,0.6c0,0.1-0.1,0.1-0.2,0.1c-0.1,0-0.2,0-0.3-0.1l-2.5-1.5l-2.5,4.4l-0.9-0.5
			l2.5-4.4l-7.2-4.2c-0.1-0.1-0.2-0.1-0.2-0.2c0-0.1,0-0.2,0-0.3l0.2-0.6l13.6-5.7l0.9,0.5L942.5,650.9z M946.2,642.3
			c0.1-0.1,0.1-0.3,0.2-0.4c0.1-0.1,0.2-0.3,0.3-0.4l-11.7,5l6.6,3.8L946.2,642.3z"></path>
		<path class="st1 zWfEGpuJ_18" d="M953,656.6l-0.7-7.4l1,0.6c0.1,0.1,0.2,0.1,0.2,0.2c0,0.1,0,0.1,0,0.2l0.5,6.4c0.1-0.1,0.2-0.2,0.4-0.3
			l5.4-2.5c0.1,0,0.1-0.1,0.2-0.1c0.1,0,0.2,0,0.2,0l1,0.6l-6.8,3l0.7,7.8l-1-0.6c-0.1-0.1-0.2-0.1-0.2-0.2c0-0.1,0-0.2,0-0.3
			l-0.5-6.7c-0.1,0.1-0.2,0.2-0.4,0.3l-5.7,2.6c-0.1,0-0.2,0.1-0.3,0.1c-0.1,0-0.2,0-0.2,0l-0.9-0.5L953,656.6z"></path>
	</g>
	<g>
		<path class="st1 zWfEGpuJ_19" d="M1107.1,463.7l2.8,1.6l-0.3,0.6c0,0.1-0.1,0.1-0.2,0.1c-0.1,0-0.2,0-0.3-0.1l-2.5-1.5l-2.5,4.4l-0.9-0.5
			l2.5-4.4l-7.2-4.2c-0.1-0.1-0.2-0.1-0.2-0.2c0-0.1,0-0.2,0-0.3l0.2-0.6l13.6-5.7l0.9,0.5L1107.1,463.7z M1110.8,455.1
			c0.1-0.1,0.2-0.3,0.2-0.4c0.1-0.1,0.2-0.3,0.3-0.4l-11.7,5l6.6,3.8L1110.8,455.1z"></path>
		<path class="st1 zWfEGpuJ_20" d="M1117.6,469.3l-0.7-7.4l1,0.6c0.1,0.1,0.2,0.1,0.2,0.2c0,0.1,0,0.1,0,0.2l0.5,6.4c0.1-0.1,0.2-0.2,0.4-0.3
			l5.4-2.5c0.1,0,0.1-0.1,0.2-0.1s0.2,0,0.2,0l1,0.6l-6.8,3l0.7,7.8l-1-0.6c-0.1-0.1-0.2-0.1-0.2-0.2c0-0.1,0-0.2,0-0.3l-0.5-6.7
			c-0.1,0.1-0.2,0.2-0.4,0.3l-5.7,2.6c-0.1,0-0.2,0.1-0.3,0.1c-0.1,0-0.2,0-0.2,0l-0.9-0.5L1117.6,469.3z"></path>
	</g>
	<g>
		<path class="st1 zWfEGpuJ_21" d="M1311,781.7c-0.3,0.6-0.7,1.1-1.2,1.5s-1,0.7-1.5,0.9c-0.6,0.2-1.1,0.3-1.8,0.2c-0.6,0-1.2-0.3-1.9-0.6
			c-0.5-0.3-0.9-0.6-1.2-1c-0.3-0.4-0.5-0.8-0.7-1.2c-0.1-0.4-0.2-0.9-0.2-1.4c0-0.5,0.1-1,0.2-1.5c-0.9,1-1.8,1.6-2.8,1.8
			c-1,0.2-2,0-3-0.6c-0.6-0.4-1.1-0.8-1.5-1.4c-0.4-0.6-0.7-1.2-0.8-1.8s-0.1-1.4,0-2.1s0.4-1.4,0.8-2.1c0.5-0.9,1-1.5,1.6-2
			c0.6-0.4,1.2-0.7,1.7-0.9c0.6-0.2,1.2-0.2,1.8-0.1c0.6,0.1,1.1,0.2,1.7,0.3l-0.1,0.5c0,0.1,0,0.2-0.1,0.3c0,0.1-0.1,0.1-0.2,0.2
			c-0.1,0.1-0.2,0.1-0.3,0l-0.3,0c-0.2,0-0.4-0.1-0.6-0.1c-0.2,0-0.5,0-0.8,0s-0.6,0-0.9,0.1c-0.3,0.1-0.6,0.2-0.9,0.4
			s-0.6,0.4-0.9,0.7c-0.3,0.3-0.6,0.7-0.9,1.2c-0.4,0.6-0.6,1.3-0.7,1.9s0,1.2,0.1,1.7s0.4,1,0.7,1.4c0.3,0.4,0.7,0.7,1.1,0.9
			c0.5,0.3,0.9,0.4,1.4,0.5c0.5,0.1,1,0,1.5-0.1c0.5-0.2,1-0.5,1.5-1c0.5-0.5,1-1.1,1.5-1.9l0.7,0.4c-0.4,0.7-0.6,1.3-0.7,1.9
			c-0.1,0.6-0.2,1.1-0.1,1.7c0.1,0.5,0.3,1,0.6,1.3c0.3,0.4,0.7,0.7,1.1,1c0.5,0.3,1.1,0.5,1.6,0.5c0.5,0,1,0,1.4-0.2
			c0.4-0.2,0.8-0.4,1.2-0.7c0.4-0.3,0.7-0.7,0.9-1.2c0.3-0.5,0.5-1,0.6-1.5c0.1-0.5,0.1-1,0-1.4c-0.1-0.5-0.2-0.9-0.5-1.3
			c-0.2-0.4-0.6-0.8-0.9-1.2c-0.2-0.2-0.3-0.4-0.1-0.6c0-0.1,0.1-0.1,0.1-0.1l0.4-0.5c0.6,0.5,1.1,1,1.4,1.6s0.6,1.2,0.7,1.8
			c0.1,0.6,0.1,1.2,0,1.9C1311.6,780.5,1311.4,781.1,1311,781.7z"></path>
		<path class="st1 zWfEGpuJ_22" d="M1293.3,789.3l7.4-0.7l-0.6,1c-0.1,0.1-0.1,0.2-0.2,0.2c-0.1,0-0.1,0-0.2,0l-6.4,0.5c0.1,0.1,0.2,0.2,0.3,0.4
			l2.5,5.4c0,0.1,0.1,0.1,0.1,0.2s0,0.2,0,0.2l-0.5,1l-3-6.8l-7.8,0.7l0.6-1c0.1-0.1,0.1-0.2,0.2-0.2c0.1,0,0.2,0,0.3,0l6.7-0.5
			c-0.1-0.1-0.2-0.2-0.3-0.4l-2.6-5.7c0-0.1-0.1-0.2-0.1-0.3c0-0.1,0-0.2,0-0.2l0.5-0.9L1293.3,789.3z"></path>
	</g>
	<g>
		<path class="st1 zWfEGpuJ_23" d="M655.7,510.8c-0.4,0.6-0.8,1.1-1.3,1.6c-0.5,0.4-1.1,0.7-1.7,0.9c-0.6,0.2-1.2,0.2-1.9,0.1
			c-0.7-0.1-1.3-0.3-2-0.7c-0.7-0.4-1.2-0.9-1.6-1.4c-0.4-0.6-0.7-1.2-0.9-1.9c-0.2-0.7-0.2-1.4-0.1-2.1s0.4-1.4,0.8-2.2
			c0.4-0.7,0.9-1.2,1.4-1.7c0.6-0.4,1.2-0.7,1.8-0.9s1.3-0.2,2.1-0.1c0.7,0.1,1.4,0.4,2.2,0.8c0.4,0.2,0.8,0.5,1.1,0.8
			c0.3,0.3,0.6,0.6,0.9,1c0.3,0.4,0.5,0.8,0.8,1.2c0.2,0.4,0.5,0.9,0.8,1.5l3.6,7.4c0.1,0.2,0.1,0.4-0.1,0.7l-0.5,0.9l-3.7-8.2
			c-0.2-0.4-0.4-0.8-0.5-1.1c-0.2-0.3-0.3-0.7-0.5-1c0.2,0.7,0.3,1.4,0.2,2.1C656.3,509.4,656.1,510.1,655.7,510.8z M653.7,504.1
			c-0.6-0.3-1.1-0.5-1.7-0.6c-0.6-0.1-1.1-0.1-1.6,0.1c-0.5,0.1-1,0.4-1.4,0.7c-0.4,0.3-0.8,0.8-1.1,1.3c-0.3,0.6-0.5,1.1-0.6,1.7
			c-0.1,0.6-0.1,1.1,0.1,1.7c0.1,0.5,0.4,1,0.7,1.5c0.3,0.4,0.8,0.8,1.3,1.1c0.6,0.3,1.1,0.5,1.7,0.6c0.6,0.1,1.1,0.1,1.6-0.1
			c0.5-0.1,1-0.4,1.4-0.7c0.4-0.3,0.8-0.8,1.1-1.3c0.4-0.6,0.6-1.2,0.6-1.8c0.1-0.6,0-1.2-0.1-1.7c-0.1-0.5-0.4-1-0.7-1.4
			C654.5,504.7,654.2,504.4,653.7,504.1z"></path>
		<path class="st1 zWfEGpuJ_24" d="M664.8,497.3l-7.4,0.7l0.6-1c0.1-0.1,0.1-0.2,0.2-0.2c0.1,0,0.1,0,0.2,0l6.4-0.5c-0.1-0.1-0.2-0.2-0.3-0.4
			l-2.5-5.4c0-0.1-0.1-0.2-0.1-0.2c0-0.1,0-0.2,0-0.2l0.6-1l3,6.8l7.8-0.7l-0.6,1c-0.1,0.1-0.1,0.2-0.2,0.2c-0.1,0-0.2,0-0.3,0
			l-6.7,0.5c0.1,0.1,0.2,0.2,0.3,0.4l2.6,5.7c0,0.1,0.1,0.2,0.1,0.3c0,0.1,0,0.2,0,0.2l-0.5,0.9L664.8,497.3z"></path>
	</g>
	<g>
		<path class="st1 zWfEGpuJ_25" d="M639.9,826.2c0.6,0.3,1.1,0.7,1.5,1.2c0.4,0.5,0.7,1,0.9,1.5c0.2,0.6,0.3,1.1,0.2,1.8c0,0.6-0.3,1.2-0.6,1.9
			c-0.3,0.5-0.6,0.9-1,1.2c-0.4,0.3-0.8,0.5-1.2,0.7c-0.4,0.1-0.9,0.2-1.4,0.2c-0.5,0-1-0.1-1.5-0.2c1,0.9,1.6,1.8,1.8,2.8
			c0.2,1,0,2-0.6,3c-0.4,0.6-0.8,1.1-1.4,1.5c-0.6,0.4-1.2,0.7-1.8,0.8c-0.7,0.1-1.4,0.1-2.1,0c-0.7-0.1-1.4-0.4-2.1-0.8
			c-0.9-0.5-1.5-1-2-1.6c-0.4-0.6-0.7-1.2-0.9-1.7c-0.2-0.6-0.2-1.2-0.1-1.8c0.1-0.6,0.2-1.1,0.3-1.7l0.5,0.1c0.1,0,0.2,0,0.3,0.1
			c0.1,0,0.1,0.1,0.2,0.2c0.1,0.1,0.1,0.2,0,0.3l0,0.3c0,0.2-0.1,0.4-0.1,0.6c0,0.2,0,0.5,0,0.8c0,0.3,0,0.6,0.1,0.9
			c0.1,0.3,0.2,0.6,0.4,0.9c0.2,0.3,0.4,0.6,0.7,0.9c0.3,0.3,0.7,0.6,1.2,0.9c0.7,0.4,1.3,0.6,1.9,0.7c0.6,0.1,1.2,0,1.7-0.1
			c0.5-0.1,1-0.4,1.4-0.7c0.4-0.3,0.7-0.7,0.9-1.1c0.3-0.5,0.4-0.9,0.5-1.4c0.1-0.5,0-1-0.1-1.5c-0.2-0.5-0.5-1-1-1.5
			c-0.5-0.5-1.1-1-1.9-1.5l0.4-0.7c0.7,0.4,1.3,0.6,1.9,0.7s1.1,0.2,1.7,0.1c0.5-0.1,1-0.3,1.4-0.6c0.4-0.3,0.7-0.7,1-1.1
			c0.3-0.5,0.5-1.1,0.5-1.6c0-0.5,0-1-0.2-1.4c-0.2-0.4-0.4-0.8-0.7-1.2s-0.7-0.7-1.2-0.9c-0.5-0.3-1-0.5-1.5-0.6
			c-0.5-0.1-1-0.1-1.4,0c-0.5,0.1-0.9,0.2-1.3,0.5s-0.8,0.6-1.2,0.9c-0.2,0.2-0.4,0.3-0.6,0.1c-0.1,0-0.1-0.1-0.1-0.1l-0.5-0.4
			c0.5-0.6,1-1.1,1.6-1.4c0.6-0.4,1.2-0.6,1.8-0.7c0.6-0.1,1.2-0.1,1.9,0S639.3,825.8,639.9,826.2z"></path>
		<path class="st1 zWfEGpuJ_26" d="M647.6,843.9l-0.7-7.4l1,0.6c0.1,0.1,0.2,0.1,0.2,0.2c0,0.1,0,0.1,0,0.2l0.5,6.4c0.1-0.1,0.2-0.2,0.4-0.3
			l5.4-2.5c0.1,0,0.1-0.1,0.2-0.1c0.1,0,0.2,0,0.2,0l1,0.5l-6.8,3l0.7,7.8l-1-0.6c-0.1-0.1-0.2-0.1-0.2-0.2c0-0.1,0-0.2,0-0.3
			l-0.5-6.7c-0.1,0.1-0.2,0.2-0.4,0.3l-5.7,2.6c-0.1,0-0.2,0.1-0.3,0.1c-0.1,0-0.2,0-0.2,0l-0.9-0.5L647.6,843.9z"></path>
	</g>
	<g>
		<path class="st1 zWfEGpuJ_27" d="M1091,827.2c0.6,0.3,1.1,0.7,1.5,1.2c0.4,0.5,0.7,1,0.9,1.5c0.2,0.6,0.3,1.1,0.2,1.8c0,0.6-0.3,1.2-0.6,1.9
			c-0.3,0.5-0.6,0.9-1,1.2c-0.4,0.3-0.8,0.5-1.2,0.7c-0.4,0.1-0.9,0.2-1.4,0.2c-0.5,0-1-0.1-1.5-0.2c1,0.9,1.6,1.8,1.8,2.8
			c0.2,1,0,2-0.6,3c-0.4,0.6-0.8,1.1-1.4,1.5s-1.2,0.7-1.8,0.8c-0.7,0.1-1.4,0.1-2.1,0c-0.7-0.1-1.4-0.4-2.1-0.8
			c-0.9-0.5-1.5-1-2-1.6c-0.4-0.6-0.7-1.2-0.9-1.7c-0.2-0.6-0.2-1.2-0.1-1.8c0.1-0.6,0.2-1.1,0.3-1.7l0.5,0.1c0.1,0,0.2,0,0.3,0.1
			c0.1,0,0.1,0.1,0.2,0.2c0.1,0.1,0.1,0.2,0,0.3l0,0.3c0,0.2-0.1,0.4-0.1,0.6c0,0.2,0,0.5,0,0.8s0,0.6,0.1,0.9
			c0.1,0.3,0.2,0.6,0.4,0.9c0.2,0.3,0.4,0.6,0.7,0.9c0.3,0.3,0.7,0.6,1.2,0.9c0.7,0.4,1.3,0.6,1.9,0.7s1.2,0,1.7-0.1
			c0.5-0.1,1-0.4,1.4-0.7c0.4-0.3,0.7-0.7,0.9-1.1c0.3-0.5,0.4-0.9,0.5-1.4c0.1-0.5,0-1-0.1-1.5c-0.2-0.5-0.5-1-1-1.5
			c-0.5-0.5-1.1-1-1.9-1.5l0.4-0.7c0.7,0.4,1.3,0.6,1.9,0.7s1.1,0.2,1.7,0.1c0.5-0.1,1-0.3,1.3-0.6c0.4-0.3,0.7-0.7,1-1.1
			c0.3-0.5,0.5-1.1,0.5-1.6c0-0.5,0-1-0.2-1.4c-0.2-0.4-0.4-0.8-0.7-1.2c-0.3-0.4-0.7-0.7-1.2-0.9c-0.5-0.3-1-0.5-1.5-0.6
			c-0.5-0.1-1-0.1-1.4,0c-0.5,0.1-0.9,0.2-1.3,0.5c-0.4,0.2-0.8,0.6-1.2,0.9c-0.2,0.2-0.4,0.3-0.6,0.1c-0.1,0-0.1-0.1-0.1-0.1
			l-0.5-0.4c0.5-0.6,1-1.1,1.6-1.4c0.6-0.4,1.2-0.6,1.8-0.7c0.6-0.1,1.2-0.1,1.9,0C1089.7,826.6,1090.4,826.9,1091,827.2z"></path>
		<path class="st1 zWfEGpuJ_28" d="M1098.6,844.9l-0.7-7.4l1,0.6c0.1,0.1,0.2,0.1,0.2,0.2c0,0.1,0,0.1,0,0.2l0.5,6.4c0.1-0.1,0.2-0.2,0.4-0.3
			l5.4-2.5c0.1,0,0.2-0.1,0.2-0.1c0.1,0,0.2,0,0.2,0l1,0.5l-6.8,3l0.7,7.8l-1-0.6c-0.1-0.1-0.2-0.1-0.2-0.2c0-0.1,0-0.2,0-0.3
			l-0.5-6.7c-0.1,0.1-0.2,0.2-0.4,0.3l-5.7,2.6c-0.1,0-0.2,0.1-0.3,0.1c-0.1,0-0.2,0-0.2,0l-0.9-0.5L1098.6,844.9z"></path>
	</g>
	<g>
		<path class="st1 zWfEGpuJ_29" d="M504.4,756.1c0.8,0,1.5,0.1,2.1,0.4c0.6,0.3,1.2,0.6,1.7,1.1c0.5,0.5,0.8,1,1.1,1.6c0.3,0.6,0.4,1.4,0.4,2.2
			s-0.1,1.5-0.4,2.2s-0.7,1.3-1.2,1.8c-0.5,0.5-1.1,0.9-1.8,1.1c-0.7,0.3-1.5,0.4-2.4,0.4c-0.8,0-1.6-0.1-2.3-0.4
			c-0.7-0.3-1.3-0.6-1.8-1.1c-0.5-0.5-0.9-1.1-1.1-1.8c-0.3-0.7-0.4-1.5-0.4-2.4c0-0.7,0.2-1.5,0.5-2.3s0.9-1.8,1.7-2.9l4.8-6.5
			c0.1-0.2,0.4-0.3,0.6-0.3h1l-5.3,6.9c-0.3,0.3-0.5,0.7-0.7,1c-0.2,0.3-0.4,0.6-0.6,0.9c0.5-0.5,1.1-0.9,1.8-1.2
			C502.8,756.3,503.6,756.1,504.4,756.1z M499.4,761.4c0,0.7,0.1,1.3,0.3,1.8c0.2,0.6,0.5,1,0.9,1.4s0.8,0.7,1.4,0.9
			c0.5,0.2,1.1,0.3,1.8,0.3c0.7,0,1.4-0.1,1.9-0.3c0.6-0.2,1.1-0.5,1.5-0.9c0.4-0.4,0.7-0.9,0.9-1.4c0.2-0.5,0.3-1.1,0.3-1.8
			c0-0.7-0.1-1.3-0.3-1.8c-0.2-0.5-0.5-1-0.9-1.4c-0.4-0.4-0.8-0.7-1.4-0.9s-1.1-0.3-1.8-0.3c-0.7,0-1.4,0.1-2,0.4s-1.1,0.6-1.5,1
			s-0.7,0.9-0.9,1.4C499.5,760.3,499.4,760.8,499.4,761.4z"></path>
		<path class="st1 zWfEGpuJ_30" d="M528.5,757.8c0,1.5-0.2,2.9-0.5,4c-0.3,1.1-0.8,2.1-1.4,2.8c-0.6,0.7-1.2,1.3-2,1.7c-0.8,0.4-1.6,0.5-2.5,0.5
			s-1.7-0.2-2.5-0.5s-1.4-0.9-2-1.7c-0.6-0.7-1-1.7-1.4-2.8c-0.3-1.1-0.5-2.5-0.5-4c0-1.6,0.2-2.9,0.5-4c0.3-1.1,0.8-2.1,1.4-2.8
			c0.6-0.7,1.2-1.3,2-1.7s1.6-0.5,2.5-0.5s1.7,0.2,2.5,0.5c0.8,0.4,1.4,0.9,2,1.7c0.6,0.7,1,1.7,1.4,2.8
			C528.4,754.9,528.5,756.3,528.5,757.8z M527.3,757.8c0-1.4-0.1-2.7-0.4-3.7c-0.3-1-0.6-1.8-1.1-2.5s-1-1.1-1.6-1.4
			c-0.6-0.3-1.3-0.5-2-0.5c-0.7,0-1.3,0.2-1.9,0.5s-1.2,0.8-1.6,1.4c-0.5,0.6-0.8,1.5-1.1,2.5c-0.3,1-0.4,2.2-0.4,3.7
			c0,1.4,0.1,2.7,0.4,3.7c0.3,1,0.6,1.8,1.1,2.5c0.5,0.6,1,1.1,1.6,1.4s1.3,0.4,1.9,0.4c0.7,0,1.3-0.1,2-0.4
			c0.6-0.3,1.2-0.8,1.6-1.4c0.5-0.6,0.8-1.5,1.1-2.5C527.1,760.5,527.3,759.3,527.3,757.8z"></path>
		<path class="st1 zWfEGpuJ_31" d="M534.9,752.5c0-0.5,0.1-1,0.3-1.5s0.5-0.9,0.8-1.2c0.3-0.3,0.7-0.6,1.2-0.8c0.5-0.2,1-0.3,1.5-0.3
			s1,0.1,1.5,0.3c0.5,0.2,0.9,0.5,1.2,0.8c0.3,0.3,0.6,0.7,0.8,1.2s0.3,0.9,0.3,1.5s-0.1,1-0.3,1.5c-0.2,0.4-0.5,0.8-0.8,1.2
			c-0.3,0.3-0.7,0.6-1.2,0.8c-0.5,0.2-1,0.3-1.5,0.3s-1-0.1-1.5-0.3c-0.5-0.2-0.9-0.5-1.2-0.8c-0.3-0.3-0.6-0.7-0.8-1.2
			C535,753.5,534.9,753,534.9,752.5z M535.7,752.5c0,0.4,0.1,0.8,0.2,1.1c0.1,0.3,0.4,0.7,0.6,0.9c0.3,0.3,0.6,0.5,0.9,0.6
			c0.3,0.2,0.7,0.2,1.1,0.2c0.4,0,0.8-0.1,1.1-0.2c0.3-0.1,0.7-0.4,0.9-0.6c0.3-0.3,0.5-0.6,0.6-0.9c0.1-0.4,0.2-0.7,0.2-1.1
			c0-0.4-0.1-0.8-0.2-1.1c-0.1-0.4-0.4-0.7-0.6-0.9s-0.6-0.5-0.9-0.6c-0.3-0.1-0.7-0.2-1.1-0.2c-0.4,0-0.8,0.1-1.1,0.2
			c-0.3,0.2-0.7,0.4-0.9,0.6s-0.5,0.6-0.6,0.9C535.8,751.7,535.7,752.1,535.7,752.5z"></path>
	</g>
	<path class="st2 zWfEGpuJ_32" d="M1098.6,388.2L885.2,757.9l-42.3-24.4l171.1-296.4l0.1-0.2C1032.2,405.7,1064.9,388.2,1098.6,388.2z"></path>
	<path class="st3 zWfEGpuJ_33" d="M1189.8,425.8l-171.1,296.3c-27,46.8-86.8,62.8-133.6,35.8l213.4-369.7c16.6,0,33.5,4.2,48.9,13.1
		L1189.8,425.8z"></path>
	<path class="st3 zWfEGpuJ_34" d="M921.7,401.3c-46.8-27-106.6-11-133.6,35.8L617,733.5l42.3,24.4c46.8,27,106.6,11,133.6-35.8L964,425.8
		L921.7,401.3z"></path>
	<path class="st3 zWfEGpuJ_35" d="M1183.8,631.9L1110.5,758.9L1195.2,807.8L1268.5,680.7Z"></path>
	<path class="st4 zWfEGpuJ_36" d="M1006.4,450.2L978.1,433.9L964,425.8L744.1,806.8L758.1,814.9L786.4,831.2Z"></path>
	<path class="st4 zWfEGpuJ_37" d="M1232.2,450.2L1203.9,433.9L1189.8,425.8L969.9,806.8L983.9,814.9L1012.2,831.2Z"></path>
	
		<path transform="matrix(0.5 -0.866 0.866 0.5 -28.6608 1316.6787)" class="st2 zWfEGpuJ_38" width="146.7" height="48.9" d="M1052.6 658.7 L1199.3 658.7 L1199.3 707.6 L1052.6 707.6 Z"></path>
</g>
<g id="strokes">
	<path class="st5 zWfEGpuJ_39" d="M1183.7,631.5L1141.4,607.1L1068.1,734.2L1110.4,758.5L1195.2,807.5L1268.5,680.4Z"></path>
	<path class="st5 zWfEGpuJ_40" d="M460.2,757.5c17.3,10,28.9,28.6,28.9,50c0,0,0,0,0,0"></path>
	<g>
		<path class="st5 zWfEGpuJ_41" d="M945.4,848.8L818.4,775.5"></path>
	</g>
	<g>
		<path class="st5 zWfEGpuJ_42" d="M1241.6,335.7L1284,360.1"></path>
	</g>
	<g>
		<path class="st5 zWfEGpuJ_43" d="M1204.8,497.4L1247.2,521.8"></path>
	</g>
	<g>
		<path class="st5 zWfEGpuJ_44" d="M1044.9,285.4L1087.2,309.8"></path>
	</g>
	<g>
		<path class="st5 zWfEGpuJ_45" d="M1208.3,589.2L1292.9,638.1"></path>
	</g>
	<g>
		<path class="st5 zWfEGpuJ_46" d="M1129.6,334.3L1214.3,383.1"></path>
	</g>
	<g>
		<path class="st5 zWfEGpuJ_47" d="M861.5,309.8L988.5,383.1"></path>
	</g>
	<g>
		<path class="st5 zWfEGpuJ_48" d="M1310.8,704.9L1237.5,831.9"></path>
	</g>
	<g>
		<path class="st5 zWfEGpuJ_49" d="M574.5,708.6L794.5,327.6"></path>
	</g>
	<g>
		<path class="st5 zWfEGpuJ_50" d="M719.6,848.8L592.6,775.5"></path>
	</g>
	<g>
		<path class="st5 zWfEGpuJ_51" d="M1170.7,849.8L1043.7,776.5"></path>
	</g>
	<path transform="matrix(-0.5 0.866 -0.866 -0.5 1687.4977 184.357)" class="st5 zWfEGpuJ_52" width="440" height="146.7" d="M570.6 506 L1010.6 506 L1010.6 652.7 L570.6 652.7 Z"></path>
	<path transform="matrix(-0.5 0.866 -0.866 -0.5 2026.2058 -11.1962)" class="st5 zWfEGpuJ_53" width="440" height="146.7" d="M796.4 506 L1236.4 506 L1236.4 652.7 L796.4 652.7 Z"></path>
	<path class="st5 zWfEGpuJ_54" d="M775,485.7A97.8,97.8 0,1,1 970.5999999999999,485.7A97.8,97.8 0,1,1 775,485.7"></path>
	<path class="st5 zWfEGpuJ_55" d="M1000.8,485.7A97.8,97.8 0,1,1 1196.3999999999999,485.7A97.8,97.8 0,1,1 1000.8,485.7"></path>
	<path class="st5 zWfEGpuJ_56" d="M836.3000000000001,672.9A97.8,97.8 0,1,1 1031.9,672.9A97.8,97.8 0,1,1 836.3000000000001,672.9"></path>
	<path class="st5 zWfEGpuJ_57" d="M610.5,672.9A97.8,97.8 0,1,1 806.0999999999999,672.9A97.8,97.8 0,1,1 610.5,672.9"></path>
	<path class="st5 zWfEGpuJ_58" d="M1183.8,631.6L1110.4,758.6"></path>
	<path class="st5 zWfEGpuJ_59" d="M1098.6,387.9L885.2,757.6"></path>
	<path class="st5 zWfEGpuJ_60" d="M433.1,807.5L1388.6,807.5"></path>
	<path class="st5 zWfEGpuJ_61" d="M564.8,579.3L433.1,807.5"></path>
	<g>
		<path class="st5 zWfEGpuJ_62" d="M1114.6,262.4L1157,286.8"></path>
	</g>
	<g>
		<path class="st5 zWfEGpuJ_63" d="M788.1,436.8L957.1,534.4"></path>
	</g>
	<g>
		<path class="st5 zWfEGpuJ_64" d="M623.6,624L792.5,721.6"></path>
	</g>
	<g>
		<path class="st5 zWfEGpuJ_65" d="M849.4,624L1018.3,721.6"></path>
	</g>
	<g>
		<path class="st5 zWfEGpuJ_66" d="M1013.9,436.8L1182.9,534.4"></path>
	</g>
</g>
<style>.zWfEGpuJ_0{stroke-dasharray:6000 6002;stroke-dashoffset:6001;animation:zWfEGpuJ_draw_0 3320ms ease-out 0ms infinite,zWfEGpuJ_fade 3320ms linear 0ms infinite;}.zWfEGpuJ_1{stroke-dasharray:88 90;stroke-dashoffset:89;animation:zWfEGpuJ_draw_1 3320ms ease-out 0ms infinite,zWfEGpuJ_fade 3320ms linear 0ms infinite;}.zWfEGpuJ_2{stroke-dasharray:64 66;stroke-dashoffset:65;animation:zWfEGpuJ_draw_2 3320ms ease-out 0ms infinite,zWfEGpuJ_fade 3320ms linear 0ms infinite;}.zWfEGpuJ_3{stroke-dasharray:64 66;stroke-dashoffset:65;animation:zWfEGpuJ_draw_3 3320ms ease-out 0ms infinite,zWfEGpuJ_fade 3320ms linear 0ms infinite;}.zWfEGpuJ_4{stroke-dasharray:64 66;stroke-dashoffset:65;animation:zWfEGpuJ_draw_4 3320ms ease-out 0ms infinite,zWfEGpuJ_fade 3320ms linear 0ms infinite;}.zWfEGpuJ_5{stroke-dasharray:64 66;stroke-dashoffset:65;animation:zWfEGpuJ_draw_5 3320ms ease-out 0ms infinite,zWfEGpuJ_fade 3320ms linear 0ms infinite;}.zWfEGpuJ_6{stroke-dasharray:64 66;stroke-dashoffset:65;animation:zWfEGpuJ_draw_6 3320ms ease-out 0ms infinite,zWfEGpuJ_fade 3320ms linear 0ms infinite;}.zWfEGpuJ_7{stroke-dasharray:85 87;stroke-dashoffset:86;animation:zWfEGpuJ_draw_7 3320ms ease-out 0ms infinite,zWfEGpuJ_fade 3320ms linear 0ms infinite;}.zWfEGpuJ_8{stroke-dasharray:64 66;stroke-dashoffset:65;animation:zWfEGpuJ_draw_8 3320ms ease-out 0ms infinite,zWfEGpuJ_fade 3320ms linear 0ms infinite;}.zWfEGpuJ_9{stroke-dasharray:85 87;stroke-dashoffset:86;animation:zWfEGpuJ_draw_9 3320ms ease-out 0ms infinite,zWfEGpuJ_fade 3320ms linear 0ms infinite;}.zWfEGpuJ_10{stroke-dasharray:64 66;stroke-dashoffset:65;animation:zWfEGpuJ_draw_10 3320ms ease-out 0ms infinite,zWfEGpuJ_fade 3320ms linear 0ms infinite;}.zWfEGpuJ_11{stroke-dasharray:88 90;stroke-dashoffset:89;animation:zWfEGpuJ_draw_11 3320ms ease-out 0ms infinite,zWfEGpuJ_fade 3320ms linear 0ms infinite;}.zWfEGpuJ_12{stroke-dasharray:64 66;stroke-dashoffset:65;animation:zWfEGpuJ_draw_12 3320ms ease-out 0ms infinite,zWfEGpuJ_fade 3320ms linear 0ms infinite;}.zWfEGpuJ_13{stroke-dasharray:87 89;stroke-dashoffset:88;animation:zWfEGpuJ_draw_13 3320ms ease-out 0ms infinite,zWfEGpuJ_fade 3320ms linear 0ms infinite;}.zWfEGpuJ_14{stroke-dasharray:64 66;stroke-dashoffset:65;animation:zWfEGpuJ_draw_14 3320ms ease-out 0ms infinite,zWfEGpuJ_fade 3320ms linear 0ms infinite;}.zWfEGpuJ_15{stroke-dasharray:87 89;stroke-dashoffset:88;animation:zWfEGpuJ_draw_15 3320ms ease-out 0ms infinite,zWfEGpuJ_fade 3320ms linear 0ms infinite;}.zWfEGpuJ_16{stroke-dasharray:64 66;stroke-dashoffset:65;animation:zWfEGpuJ_draw_16 3320ms ease-out 0ms infinite,zWfEGpuJ_fade 3320ms linear 0ms infinite;}.zWfEGpuJ_17{stroke-dasharray:87 89;stroke-dashoffset:88;animation:zWfEGpuJ_draw_17 3320ms ease-out 0ms infinite,zWfEGpuJ_fade 3320ms linear 0ms infinite;}.zWfEGpuJ_18{stroke-dasharray:64 66;stroke-dashoffset:65;animation:zWfEGpuJ_draw_18 3320ms ease-out 0ms infinite,zWfEGpuJ_fade 3320ms linear 0ms infinite;}.zWfEGpuJ_19{stroke-dasharray:87 89;stroke-dashoffset:88;animation:zWfEGpuJ_draw_19 3320ms ease-out 0ms infinite,zWfEGpuJ_fade 3320ms linear 0ms infinite;}.zWfEGpuJ_20{stroke-dasharray:64 66;stroke-dashoffset:65;animation:zWfEGpuJ_draw_20 3320ms ease-out 0ms infinite,zWfEGpuJ_fade 3320ms linear 0ms infinite;}.zWfEGpuJ_21{stroke-dasharray:88 90;stroke-dashoffset:89;animation:zWfEGpuJ_draw_21 3320ms ease-out 0ms infinite,zWfEGpuJ_fade 3320ms linear 0ms infinite;}.zWfEGpuJ_22{stroke-dasharray:64 66;stroke-dashoffset:65;animation:zWfEGpuJ_draw_22 3320ms ease-out 0ms infinite,zWfEGpuJ_fade 3320ms linear 0ms infinite;}.zWfEGpuJ_23{stroke-dasharray:85 87;stroke-dashoffset:86;animation:zWfEGpuJ_draw_23 3320ms ease-out 0ms infinite,zWfEGpuJ_fade 3320ms linear 0ms infinite;}.zWfEGpuJ_24{stroke-dasharray:64 66;stroke-dashoffset:65;animation:zWfEGpuJ_draw_24 3320ms ease-out 0ms infinite,zWfEGpuJ_fade 3320ms linear 0ms infinite;}.zWfEGpuJ_25{stroke-dasharray:88 90;stroke-dashoffset:89;animation:zWfEGpuJ_draw_25 3320ms ease-out 0ms infinite,zWfEGpuJ_fade 3320ms linear 0ms infinite;}.zWfEGpuJ_26{stroke-dasharray:64 66;stroke-dashoffset:65;animation:zWfEGpuJ_draw_26 3320ms ease-out 0ms infinite,zWfEGpuJ_fade 3320ms linear 0ms infinite;}.zWfEGpuJ_27{stroke-dasharray:88 90;stroke-dashoffset:89;animation:zWfEGpuJ_draw_27 3320ms ease-out 0ms infinite,zWfEGpuJ_fade 3320ms linear 0ms infinite;}.zWfEGpuJ_28{stroke-dasharray:64 66;stroke-dashoffset:65;animation:zWfEGpuJ_draw_28 3320ms ease-out 0ms infinite,zWfEGpuJ_fade 3320ms linear 0ms infinite;}.zWfEGpuJ_29{stroke-dasharray:87 89;stroke-dashoffset:88;animation:zWfEGpuJ_draw_29 3320ms ease-out 0ms infinite,zWfEGpuJ_fade 3320ms linear 0ms infinite;}.zWfEGpuJ_30{stroke-dasharray:93 95;stroke-dashoffset:94;animation:zWfEGpuJ_draw_30 3320ms ease-out 0ms infinite,zWfEGpuJ_fade 3320ms linear 0ms infinite;}.zWfEGpuJ_31{stroke-dasharray:42 44;stroke-dashoffset:43;animation:zWfEGpuJ_draw_31 3320ms ease-out 0ms infinite,zWfEGpuJ_fade 3320ms linear 0ms infinite;}.zWfEGpuJ_32{stroke-dasharray:921 923;stroke-dashoffset:922;animation:zWfEGpuJ_draw_32 3320ms ease-out 0ms infinite,zWfEGpuJ_fade 3320ms linear 0ms infinite;}.zWfEGpuJ_33{stroke-dasharray:1023 1025;stroke-dashoffset:1024;animation:zWfEGpuJ_draw_33 3320ms ease-out 0ms infinite,zWfEGpuJ_fade 3320ms linear 0ms infinite;}.zWfEGpuJ_34{stroke-dasharray:1090 1092;stroke-dashoffset:1091;animation:zWfEGpuJ_draw_34 3320ms ease-out 0ms infinite,zWfEGpuJ_fade 3320ms linear 0ms infinite;}.zWfEGpuJ_35{stroke-dasharray:489 491;stroke-dashoffset:490;animation:zWfEGpuJ_draw_35 3320ms ease-out 0ms infinite,zWfEGpuJ_fade 3320ms linear 0ms infinite;}.zWfEGpuJ_36{stroke-dasharray:978 980;stroke-dashoffset:979;animation:zWfEGpuJ_draw_36 3320ms ease-out 0ms infinite,zWfEGpuJ_fade 3320ms linear 0ms infinite;}.zWfEGpuJ_37{stroke-dasharray:978 980;stroke-dashoffset:979;animation:zWfEGpuJ_draw_37 3320ms ease-out 0ms infinite,zWfEGpuJ_fade 3320ms linear 0ms infinite;}.zWfEGpuJ_38{stroke-dasharray:392 394;stroke-dashoffset:393;animation:zWfEGpuJ_draw_38 3320ms ease-out 0ms infinite,zWfEGpuJ_fade 3320ms linear 0ms infinite;}.zWfEGpuJ_39{stroke-dasharray:587 589;stroke-dashoffset:588;animation:zWfEGpuJ_draw_39 3320ms ease-out 0ms infinite,zWfEGpuJ_fade 3320ms linear 0ms infinite;}.zWfEGpuJ_40{stroke-dasharray:61 63;stroke-dashoffset:62;animation:zWfEGpuJ_draw_40 3320ms ease-out 0ms infinite,zWfEGpuJ_fade 3320ms linear 0ms infinite;}.zWfEGpuJ_41{stroke-dasharray:147 149;stroke-dashoffset:148;animation:zWfEGpuJ_draw_41 3320ms ease-out 0ms infinite,zWfEGpuJ_fade 3320ms linear 0ms infinite;}.zWfEGpuJ_42{stroke-dasharray:49 51;stroke-dashoffset:50;animation:zWfEGpuJ_draw_42 3320ms ease-out 0ms infinite,zWfEGpuJ_fade 3320ms linear 0ms infinite;}.zWfEGpuJ_43{stroke-dasharray:49 51;stroke-dashoffset:50;animation:zWfEGpuJ_draw_43 3320ms ease-out 0ms infinite,zWfEGpuJ_fade 3320ms linear 0ms infinite;}.zWfEGpuJ_44{stroke-dasharray:49 51;stroke-dashoffset:50;animation:zWfEGpuJ_draw_44 3320ms ease-out 0ms infinite,zWfEGpuJ_fade 3320ms linear 0ms infinite;}.zWfEGpuJ_45{stroke-dasharray:98 100;stroke-dashoffset:99;animation:zWfEGpuJ_draw_45 3320ms ease-out 0ms infinite,zWfEGpuJ_fade 3320ms linear 0ms infinite;}.zWfEGpuJ_46{stroke-dasharray:98 100;stroke-dashoffset:99;animation:zWfEGpuJ_draw_46 3320ms ease-out 0ms infinite,zWfEGpuJ_fade 3320ms linear 0ms infinite;}.zWfEGpuJ_47{stroke-dasharray:147 149;stroke-dashoffset:148;animation:zWfEGpuJ_draw_47 3320ms ease-out 0ms infinite,zWfEGpuJ_fade 3320ms linear 0ms infinite;}.zWfEGpuJ_48{stroke-dasharray:147 149;stroke-dashoffset:148;animation:zWfEGpuJ_draw_48 3320ms ease-out 0ms infinite,zWfEGpuJ_fade 3320ms linear 0ms infinite;}.zWfEGpuJ_49{stroke-dasharray:440 442;stroke-dashoffset:441;animation:zWfEGpuJ_draw_49 3320ms ease-out 0ms infinite,zWfEGpuJ_fade 3320ms linear 0ms infinite;}.zWfEGpuJ_50{stroke-dasharray:147 149;stroke-dashoffset:148;animation:zWfEGpuJ_draw_50 3320ms ease-out 0ms infinite,zWfEGpuJ_fade 3320ms linear 0ms infinite;}.zWfEGpuJ_51{stroke-dasharray:147 149;stroke-dashoffset:148;animation:zWfEGpuJ_draw_51 3320ms ease-out 0ms infinite,zWfEGpuJ_fade 3320ms linear 0ms infinite;}.zWfEGpuJ_52{stroke-dasharray:1174 1176;stroke-dashoffset:1175;animation:zWfEGpuJ_draw_52 3320ms ease-out 0ms infinite,zWfEGpuJ_fade 3320ms linear 0ms infinite;}.zWfEGpuJ_53{stroke-dasharray:1174 1176;stroke-dashoffset:1175;animation:zWfEGpuJ_draw_53 3320ms ease-out 0ms infinite,zWfEGpuJ_fade 3320ms linear 0ms infinite;}.zWfEGpuJ_54{stroke-dasharray:615 617;stroke-dashoffset:616;animation:zWfEGpuJ_draw_54 3320ms ease-out 0ms infinite,zWfEGpuJ_fade 3320ms linear 0ms infinite;}.zWfEGpuJ_55{stroke-dasharray:615 617;stroke-dashoffset:616;animation:zWfEGpuJ_draw_55 3320ms ease-out 0ms infinite,zWfEGpuJ_fade 3320ms linear 0ms infinite;}.zWfEGpuJ_56{stroke-dasharray:615 617;stroke-dashoffset:616;animation:zWfEGpuJ_draw_56 3320ms ease-out 0ms infinite,zWfEGpuJ_fade 3320ms linear 0ms infinite;}.zWfEGpuJ_57{stroke-dasharray:615 617;stroke-dashoffset:616;animation:zWfEGpuJ_draw_57 3320ms ease-out 0ms infinite,zWfEGpuJ_fade 3320ms linear 0ms infinite;}.zWfEGpuJ_58{stroke-dasharray:147 149;stroke-dashoffset:148;animation:zWfEGpuJ_draw_58 3320ms ease-out 0ms infinite,zWfEGpuJ_fade 3320ms linear 0ms infinite;}.zWfEGpuJ_59{stroke-dasharray:427 429;stroke-dashoffset:428;animation:zWfEGpuJ_draw_59 3320ms ease-out 0ms infinite,zWfEGpuJ_fade 3320ms linear 0ms infinite;}.zWfEGpuJ_60{stroke-dasharray:956 958;stroke-dashoffset:957;animation:zWfEGpuJ_draw_60 3320ms ease-out 0ms infinite,zWfEGpuJ_fade 3320ms linear 0ms infinite;}.zWfEGpuJ_61{stroke-dasharray:264 266;stroke-dashoffset:265;animation:zWfEGpuJ_draw_61 3320ms ease-out 0ms infinite,zWfEGpuJ_fade 3320ms linear 0ms infinite;}.zWfEGpuJ_62{stroke-dasharray:49 51;stroke-dashoffset:50;animation:zWfEGpuJ_draw_62 3320ms ease-out 0ms infinite,zWfEGpuJ_fade 3320ms linear 0ms infinite;}.zWfEGpuJ_63{stroke-dasharray:196 198;stroke-dashoffset:197;animation:zWfEGpuJ_draw_63 3320ms ease-out 0ms infinite,zWfEGpuJ_fade 3320ms linear 0ms infinite;}.zWfEGpuJ_64{stroke-dasharray:196 198;stroke-dashoffset:197;animation:zWfEGpuJ_draw_64 3320ms ease-out 0ms infinite,zWfEGpuJ_fade 3320ms linear 0ms infinite;}.zWfEGpuJ_65{stroke-dasharray:196 198;stroke-dashoffset:197;animation:zWfEGpuJ_draw_65 3320ms ease-out 0ms infinite,zWfEGpuJ_fade 3320ms linear 0ms infinite;}.zWfEGpuJ_66{stroke-dasharray:196 198;stroke-dashoffset:197;animation:zWfEGpuJ_draw_66 3320ms ease-out 0ms infinite,zWfEGpuJ_fade 3320ms linear 0ms infinite;}@keyframes zWfEGpuJ_draw{100%{stroke-dashoffset:0;}}@keyframes zWfEGpuJ_fade{0%{stroke-opacity:1;}90.96385542168674%{stroke-opacity:1;}100%{stroke-opacity:0;}}@keyframes zWfEGpuJ_draw_0{0.30120481927710846%{stroke-dashoffset: 6001}60.54216867469879%{ stroke-dashoffset: 0;}100%{ stroke-dashoffset: 0;}}@keyframes zWfEGpuJ_draw_1{0.7575757575757576%{stroke-dashoffset: 89}60.99853961299745%{ stroke-dashoffset: 0;}100%{ stroke-dashoffset: 0;}}@keyframes zWfEGpuJ_draw_2{1.2139466958744067%{stroke-dashoffset: 65}61.454910551296095%{ stroke-dashoffset: 0;}100%{ stroke-dashoffset: 0;}}@keyframes zWfEGpuJ_draw_3{1.6703176341730557%{stroke-dashoffset: 65}61.911281489594735%{ stroke-dashoffset: 0;}100%{ stroke-dashoffset: 0;}}@keyframes zWfEGpuJ_draw_4{2.126688572471705%{stroke-dashoffset: 65}62.3676524278934%{ stroke-dashoffset: 0;}100%{ stroke-dashoffset: 0;}}@keyframes zWfEGpuJ_draw_5{2.5830595107703544%{stroke-dashoffset: 65}62.82402336619205%{ stroke-dashoffset: 0;}100%{ stroke-dashoffset: 0;}}@keyframes zWfEGpuJ_draw_6{3.039430449069003%{stroke-dashoffset: 65}63.28039430449069%{ stroke-dashoffset: 0;}100%{ stroke-dashoffset: 0;}}@keyframes zWfEGpuJ_draw_7{3.4958013873676523%{stroke-dashoffset: 86}63.73676524278934%{ stroke-dashoffset: 0;}100%{ stroke-dashoffset: 0;}}@keyframes zWfEGpuJ_draw_8{3.952172325666302%{stroke-dashoffset: 65}64.19313618108798%{ stroke-dashoffset: 0;}100%{ stroke-dashoffset: 0;}}@keyframes zWfEGpuJ_draw_9{4.408543263964951%{stroke-dashoffset: 86}64.64950711938664%{ stroke-dashoffset: 0;}100%{ stroke-dashoffset: 0;}}@keyframes zWfEGpuJ_draw_10{4.8649142022636%{stroke-dashoffset: 65}65.10587805768529%{ stroke-dashoffset: 0;}100%{ stroke-dashoffset: 0;}}@keyframes zWfEGpuJ_draw_11{5.321285140562249%{stroke-dashoffset: 89}65.56224899598394%{ stroke-dashoffset: 0;}100%{ stroke-dashoffset: 0;}}@keyframes zWfEGpuJ_draw_12{5.777656078860898%{stroke-dashoffset: 65}66.01861993428258%{ stroke-dashoffset: 0;}100%{ stroke-dashoffset: 0;}}@keyframes zWfEGpuJ_draw_13{6.234027017159547%{stroke-dashoffset: 88}66.47499087258123%{ stroke-dashoffset: 0;}100%{ stroke-dashoffset: 0;}}@keyframes zWfEGpuJ_draw_14{6.690397955458197%{stroke-dashoffset: 65}66.93136181087988%{ stroke-dashoffset: 0;}100%{ stroke-dashoffset: 0;}}@keyframes zWfEGpuJ_draw_15{7.146768893756845%{stroke-dashoffset: 88}67.38773274917854%{ stroke-dashoffset: 0;}100%{ stroke-dashoffset: 0;}}@keyframes zWfEGpuJ_draw_16{7.603139832055496%{stroke-dashoffset: 65}67.84410368747719%{ stroke-dashoffset: 0;}100%{ stroke-dashoffset: 0;}}@keyframes zWfEGpuJ_draw_17{8.059510770354143%{stroke-dashoffset: 88}68.30047462577583%{ stroke-dashoffset: 0;}100%{ stroke-dashoffset: 0;}}@keyframes zWfEGpuJ_draw_18{8.515881708652794%{stroke-dashoffset: 65}68.75684556407448%{ stroke-dashoffset: 0;}100%{ stroke-dashoffset: 0;}}@keyframes zWfEGpuJ_draw_19{8.972252646951443%{stroke-dashoffset: 88}69.21321650237313%{ stroke-dashoffset: 0;}100%{ stroke-dashoffset: 0;}}@keyframes zWfEGpuJ_draw_20{9.428623585250092%{stroke-dashoffset: 65}69.66958744067178%{ stroke-dashoffset: 0;}100%{ stroke-dashoffset: 0;}}@keyframes zWfEGpuJ_draw_21{9.884994523548741%{stroke-dashoffset: 89}70.12595837897042%{ stroke-dashoffset: 0;}100%{ stroke-dashoffset: 0;}}@keyframes zWfEGpuJ_draw_22{10.34136546184739%{stroke-dashoffset: 65}70.58232931726907%{ stroke-dashoffset: 0;}100%{ stroke-dashoffset: 0;}}@keyframes zWfEGpuJ_draw_23{10.79773640014604%{stroke-dashoffset: 86}71.03870025556772%{ stroke-dashoffset: 0;}100%{ stroke-dashoffset: 0;}}@keyframes zWfEGpuJ_draw_24{11.254107338444687%{stroke-dashoffset: 65}71.49507119386637%{ stroke-dashoffset: 0;}100%{ stroke-dashoffset: 0;}}@keyframes zWfEGpuJ_draw_25{11.710478276743338%{stroke-dashoffset: 89}71.95144213216503%{ stroke-dashoffset: 0;}100%{ stroke-dashoffset: 0;}}@keyframes zWfEGpuJ_draw_26{12.166849215041985%{stroke-dashoffset: 65}72.40781307046367%{ stroke-dashoffset: 0;}100%{ stroke-dashoffset: 0;}}@keyframes zWfEGpuJ_draw_27{12.623220153340636%{stroke-dashoffset: 89}72.86418400876232%{ stroke-dashoffset: 0;}100%{ stroke-dashoffset: 0;}}@keyframes zWfEGpuJ_draw_28{13.079591091639283%{stroke-dashoffset: 65}73.32055494706097%{ stroke-dashoffset: 0;}100%{ stroke-dashoffset: 0;}}@keyframes zWfEGpuJ_draw_29{13.535962029937934%{stroke-dashoffset: 88}73.77692588535962%{ stroke-dashoffset: 0;}100%{ stroke-dashoffset: 0;}}@keyframes zWfEGpuJ_draw_30{13.992332968236584%{stroke-dashoffset: 94}74.23329682365826%{ stroke-dashoffset: 0;}100%{ stroke-dashoffset: 0;}}@keyframes zWfEGpuJ_draw_31{14.448703906535235%{stroke-dashoffset: 43}74.68966776195693%{ stroke-dashoffset: 0;}100%{ stroke-dashoffset: 0;}}@keyframes zWfEGpuJ_draw_32{14.905074844833882%{stroke-dashoffset: 922}75.14603870025557%{ stroke-dashoffset: 0;}100%{ stroke-dashoffset: 0;}}@keyframes zWfEGpuJ_draw_33{15.36144578313253%{stroke-dashoffset: 1024}75.6024096385542%{ stroke-dashoffset: 0;}100%{ stroke-dashoffset: 0;}}@keyframes zWfEGpuJ_draw_34{15.81781672143118%{stroke-dashoffset: 1091}76.05878057685285%{ stroke-dashoffset: 0;}100%{ stroke-dashoffset: 0;}}@keyframes zWfEGpuJ_draw_35{16.27418765972983%{stroke-dashoffset: 490}76.51515151515153%{ stroke-dashoffset: 0;}100%{ stroke-dashoffset: 0;}}@keyframes zWfEGpuJ_draw_36{16.730558598028477%{stroke-dashoffset: 979}76.97152245345016%{ stroke-dashoffset: 0;}100%{ stroke-dashoffset: 0;}}@keyframes zWfEGpuJ_draw_37{17.186929536327128%{stroke-dashoffset: 979}77.42789339174881%{ stroke-dashoffset: 0;}100%{ stroke-dashoffset: 0;}}@keyframes zWfEGpuJ_draw_38{17.643300474625775%{stroke-dashoffset: 393}77.88426433004747%{ stroke-dashoffset: 0;}100%{ stroke-dashoffset: 0;}}@keyframes zWfEGpuJ_draw_39{18.09967141292443%{stroke-dashoffset: 588}78.34063526834612%{ stroke-dashoffset: 0;}100%{ stroke-dashoffset: 0;}}@keyframes zWfEGpuJ_draw_40{18.556042351223077%{stroke-dashoffset: 62}78.79700620664477%{ stroke-dashoffset: 0;}100%{ stroke-dashoffset: 0;}}@keyframes zWfEGpuJ_draw_41{19.012413289521724%{stroke-dashoffset: 148}79.2533771449434%{ stroke-dashoffset: 0;}100%{ stroke-dashoffset: 0;}}@keyframes zWfEGpuJ_draw_42{19.468784227820375%{stroke-dashoffset: 50}79.70974808324206%{ stroke-dashoffset: 0;}100%{ stroke-dashoffset: 0;}}@keyframes zWfEGpuJ_draw_43{19.925155166119023%{stroke-dashoffset: 50}80.16611902154071%{ stroke-dashoffset: 0;}100%{ stroke-dashoffset: 0;}}@keyframes zWfEGpuJ_draw_44{20.381526104417674%{stroke-dashoffset: 50}80.62248995983937%{ stroke-dashoffset: 0;}100%{ stroke-dashoffset: 0;}}@keyframes zWfEGpuJ_draw_45{20.83789704271632%{stroke-dashoffset: 99}81.07886089813802%{ stroke-dashoffset: 0;}100%{ stroke-dashoffset: 0;}}@keyframes zWfEGpuJ_draw_46{21.29426798101497%{stroke-dashoffset: 99}81.53523183643667%{ stroke-dashoffset: 0;}100%{ stroke-dashoffset: 0;}}@keyframes zWfEGpuJ_draw_47{21.75063891931362%{stroke-dashoffset: 148}81.99160277473531%{ stroke-dashoffset: 0;}100%{ stroke-dashoffset: 0;}}@keyframes zWfEGpuJ_draw_48{22.207009857612267%{stroke-dashoffset: 148}82.44797371303395%{ stroke-dashoffset: 0;}100%{ stroke-dashoffset: 0;}}@keyframes zWfEGpuJ_draw_49{22.663380795910918%{stroke-dashoffset: 441}82.90434465133261%{ stroke-dashoffset: 0;}100%{ stroke-dashoffset: 0;}}@keyframes zWfEGpuJ_draw_50{23.11975173420957%{stroke-dashoffset: 148}83.36071558963125%{ stroke-dashoffset: 0;}100%{ stroke-dashoffset: 0;}}@keyframes zWfEGpuJ_draw_51{23.576122672508216%{stroke-dashoffset: 148}83.8170865279299%{ stroke-dashoffset: 0;}100%{ stroke-dashoffset: 0;}}@keyframes zWfEGpuJ_draw_52{24.032493610806863%{stroke-dashoffset: 1175}84.27345746622855%{ stroke-dashoffset: 0;}100%{ stroke-dashoffset: 0;}}@keyframes zWfEGpuJ_draw_53{24.488864549105514%{stroke-dashoffset: 1175}84.7298284045272%{ stroke-dashoffset: 0;}100%{ stroke-dashoffset: 0;}}@keyframes zWfEGpuJ_draw_54{24.94523548740416%{stroke-dashoffset: 616}85.18619934282584%{ stroke-dashoffset: 0;}100%{ stroke-dashoffset: 0;}}@keyframes zWfEGpuJ_draw_55{25.40160642570281%{stroke-dashoffset: 616}85.64257028112449%{ stroke-dashoffset: 0;}100%{ stroke-dashoffset: 0;}}@keyframes zWfEGpuJ_draw_56{25.85797736400146%{stroke-dashoffset: 616}86.09894121942315%{ stroke-dashoffset: 0;}100%{ stroke-dashoffset: 0;}}@keyframes zWfEGpuJ_draw_57{26.31434830230011%{stroke-dashoffset: 616}86.5553121577218%{ stroke-dashoffset: 0;}100%{ stroke-dashoffset: 0;}}@keyframes zWfEGpuJ_draw_58{26.770719240598762%{stroke-dashoffset: 148}87.01168309602045%{ stroke-dashoffset: 0;}100%{ stroke-dashoffset: 0;}}@keyframes zWfEGpuJ_draw_59{27.227090178897413%{stroke-dashoffset: 428}87.4680540343191%{ stroke-dashoffset: 0;}100%{ stroke-dashoffset: 0;}}@keyframes zWfEGpuJ_draw_60{27.683461117196057%{stroke-dashoffset: 957}87.92442497261774%{ stroke-dashoffset: 0;}100%{ stroke-dashoffset: 0;}}@keyframes zWfEGpuJ_draw_61{28.139832055494708%{stroke-dashoffset: 265}88.38079591091639%{ stroke-dashoffset: 0;}100%{ stroke-dashoffset: 0;}}@keyframes zWfEGpuJ_draw_62{28.59620299379336%{stroke-dashoffset: 50}88.83716684921504%{ stroke-dashoffset: 0;}100%{ stroke-dashoffset: 0;}}@keyframes zWfEGpuJ_draw_63{29.052573932092006%{stroke-dashoffset: 197}89.29353778751369%{ stroke-dashoffset: 0;}100%{ stroke-dashoffset: 0;}}@keyframes zWfEGpuJ_draw_64{29.508944870390657%{stroke-dashoffset: 197}89.74990872581235%{ stroke-dashoffset: 0;}100%{ stroke-dashoffset: 0;}}@keyframes zWfEGpuJ_draw_65{29.9653158086893%{stroke-dashoffset: 197}90.206279664111%{ stroke-dashoffset: 0;}100%{ stroke-dashoffset: 0;}}@keyframes zWfEGpuJ_draw_66{30.42168674698795%{stroke-dashoffset: 197}90.66265060240963%{ stroke-dashoffset: 0;}100%{ stroke-dashoffset: 0;}}</style></svg>
