<svg xmlns="http://www.w3.org/2000/svg" viewBox="0 0 37.039 37.039">
  <defs>
    <style>
      .cls-1 {
        fill: rgba(0,0,0,0);
      }

      .cls-2 {
        fill: #fff;
      }
    </style>
  </defs>
  <g id="Group_411" data-name="Group 411" transform="translate(-1302.274 -12555.961)">
    <rect id="Rectangle_1157" data-name="Rectangle 1157" class="cls-1" width="37.039" height="37.039" transform="translate(1302.274 12555.961)"/>
    <g id="instagram" transform="translate(1308.667 12561.666)">
      <g id="Group_406" data-name="Group 406">
        <g id="Group_405" data-name="Group 405">
          <path id="Path_838" data-name="Path 838" class="cls-2" d="M16.958,0H7.708A7.706,7.706,0,0,0,0,7.708v9.25a7.706,7.706,0,0,0,7.708,7.708h9.25a7.706,7.706,0,0,0,7.708-7.708V7.708A7.706,7.706,0,0,0,16.958,0Zm5.4,16.958a5.4,5.4,0,0,1-5.4,5.4H7.708a5.4,5.4,0,0,1-5.4-5.4V7.708a5.4,5.4,0,0,1,5.4-5.4h9.25a5.4,5.4,0,0,1,5.4,5.4Z"/>
        </g>
      </g>
      <g id="Group_408" data-name="Group 408" transform="translate(6.167 6.167)">
        <g id="Group_407" data-name="Group 407">
          <path id="Path_839" data-name="Path 839" class="cls-2" d="M134.167,128a6.167,6.167,0,1,0,6.167,6.167A6.166,6.166,0,0,0,134.167,128Zm0,10.021a3.854,3.854,0,1,1,3.854-3.854A3.859,3.859,0,0,1,134.167,138.021Z" transform="translate(-128 -128)"/>
        </g>
      </g>
      <g id="Group_410" data-name="Group 410" transform="translate(18.139 4.88)">
        <g id="Group_409" data-name="Group 409">
          <circle id="Ellipse_26" data-name="Ellipse 26" class="cls-2" cx="0.824" cy="0.824" r="0.824"/>
        </g>
      </g>
    </g>
  </g>
</svg>
