<svg id="linkedin_icon" data-name="linkedin icon" xmlns="http://www.w3.org/2000/svg" width="30" height="30" viewBox="0 0 30 30">
  <g id="Layer_1" data-name="Layer 1" transform="translate(0 0)">
    <path id="Path_1205" data-name="Path 1205" d="M2.47,30H27.53A2.47,2.47,0,0,0,30,27.53V2.47A2.47,2.47,0,0,0,27.53,0H2.47A2.47,2.47,0,0,0,0,2.47V27.53A2.47,2.47,0,0,0,2.47,30Zm9-18.53h4.2v2.11a4.916,4.916,0,0,1,4.363-2.333c4.147,0,5.563,1.877,5.563,6.333v8H21.177V18.517c0-2.333-.457-3.627-2.17-3.627-2.31,0-3.123,1.757-3.123,3.627V25.59H11.47ZM4.413,25.59h4.41V11.47H4.413ZM9.31,6.617a2.693,2.693,0,1,1-2.693-2.69A2.693,2.693,0,0,1,9.31,6.617Z" transform="translate(0 0)" fill="#0073b0" fill-rule="evenodd"/>
  </g>
</svg>
