<svg id="Group_345" data-name="Group 345" xmlns="http://www.w3.org/2000/svg" viewBox="0 0 37.039 37.039">
  <defs>
    <style>
      .cls-1 {
        fill: none;
      }

      .cls-2 {
        fill: #fff;
      }
    </style>
  </defs>
  <rect id="Rectangle_171" data-name="Rectangle 171" class="cls-1" width="37.039" height="37.039"/>
  <g id="Group_344" data-name="Group 344" transform="translate(8.233 8.257)">
    <path id="Path_677" data-name="Path 677" class="cls-2" d="M104.267,107.033a2.467,2.467,0,0,0,.016-4.933,2.467,2.467,0,1,0-.016,4.933Z" transform="translate(-101.8 -102.1)"/>
    <path id="Path_678" data-name="Path 678" class="cls-2" d="M109.674,186.4h-2.9a.683.683,0,0,0-.679.679V199.42a.683.683,0,0,0,.679.679h2.9a.683.683,0,0,0,.679-.679V187.087A.685.685,0,0,0,109.674,186.4Z" transform="translate(-105.752 -179.583)"/>
    <path id="Path_679" data-name="Path 679" class="cls-2" d="M192.183,196.247h3.688a.287.287,0,0,0,.283-.283V188.37a2.408,2.408,0,0,1,2.361-2.418,2.375,2.375,0,0,1,2.41,2.386v7.618a.287.287,0,0,0,.283.283h3.7a.287.287,0,0,0,.283-.283v-9.074h0A4.68,4.68,0,0,0,200.5,182.2h-.744a4.154,4.154,0,0,0-3.421,1.787c-.081.121-.162.243-.226.364a.1.1,0,0,1-.04-.008v-1.512a.287.287,0,0,0-.283-.283h-3.607a.287.287,0,0,0-.283.283v13.142A.285.285,0,0,0,192.183,196.247Z" transform="translate(-184.614 -175.722)"/>
  </g>
</svg>
