<svg xmlns="http://www.w3.org/2000/svg" width="10" height="13.826" viewBox="0 0 10 13.826">
  <g id="lock-padlock-symbol-for-security-interface" transform="translate(-80.994)">
    <g id="Group_17586" data-name="Group 17586" transform="translate(80.994)">
      <path id="Path_24907" data-name="Path 24907" d="M85.994,0a4.048,4.048,0,0,0-4.043,4.043V6.353a.109.109,0,0,1-.058.079c-.219.073-.4.136-.559.2a.559.559,0,0,0-.34.5v5.306a.563.563,0,0,0,.338.5,12.656,12.656,0,0,0,9.324,0,.563.563,0,0,0,.338-.5V7.13a.559.559,0,0,0-.34-.5c-.163-.063-.34-.126-.559-.2a.109.109,0,0,1-.058-.079V4.043A4.048,4.048,0,0,0,85.994,0Zm-1.1,8.746a1.1,1.1,0,1,1,2.2,0,1.085,1.085,0,0,1-.551.932V11.5a.551.551,0,1,1-1.1,0V9.679A1.085,1.085,0,0,1,84.893,8.746Zm3.754-4.7V6.036a12.622,12.622,0,0,0-5.306,0V4.043a2.653,2.653,0,0,1,5.306,0Z" transform="translate(-80.994)"/>
    </g>
  </g>
</svg>
