<?xml version="1.0" encoding="utf-8"?>
<!-- Generator: Adobe Illustrator 25.3.1, SVG Export Plug-In . SVG Version: 6.00 Build 0)  -->
<svg version="1.1" id="Layer_1" xmlns="http://www.w3.org/2000/svg" xmlns:xlink="http://www.w3.org/1999/xlink" x="0px" y="0px"
	 viewBox="0 0 164.5 35.8" style="enable-background:new 0 0 164.5 35.8;" xml:space="preserve">
<g id="Layer_2_1_">
	<g id="Layer_1-2">
		<polygon points="0,8.6 0,11.7 0,19.3 3.1,19.3 3.1,11.7 12.6,11.7 12.6,8.6 3.1,8.6 		"/>
		<rect x="19.4" y="0.5" width="3.1" height="18.8"/>
		<polygon points="23.5,31.6 28.1,31.6 28.1,30.6 23.5,30.6 22.6,30.6 22.6,31.6 22.6,34.5 22.6,35.5 23.5,35.5 28.7,35.5 
			28.7,34.5 23.5,34.5 		"/>
		<polygon points="43,33.9 37.8,27 37.8,27 37.8,27 36.8,27 36.8,35.5 37.8,35.5 37.8,28.6 43,35.5 44,35.5 44,27 43,27 		"/>
		<rect x="68.1" y="27" width="1" height="8.5"/>
		<polygon points="83.8,33.9 78.5,27 78.5,27 78.5,27 77.5,27 77.5,35.5 78.5,35.5 78.5,28.6 83.8,35.5 84.7,35.5 84.7,27 83.8,27 
					"/>
		<rect x="22.6" y="27" width="6.1" height="1"/>
		<polygon points="94.1,31.6 98.6,31.6 98.6,30.6 94.1,30.6 93.1,30.6 93.1,31.6 93.1,34.5 93.1,35.5 94.1,35.5 99.2,35.5 
			99.2,34.5 94.1,34.5 		"/>
		<rect x="93.1" y="27" width="6.1" height="1"/>
		<polygon points="108.4,31.6 112.9,31.6 112.9,30.6 108.4,30.6 107.4,30.6 107.4,31.6 107.4,34.5 107.4,35.5 108.4,35.5 
			113.5,35.5 113.5,34.5 108.4,34.5 		"/>
		<rect x="107.4" y="27" width="6.1" height="1"/>
		<rect x="119.1" y="0.5" width="3.1" height="18.8"/>
		<polygon points="155,16.3 155,0.5 151.9,0.5 151.9,16.3 151.9,19.3 151.9,19.4 164.5,19.4 164.5,16.3 		"/>
		<polygon points="58.7,0.5 63.4,11.7 57.1,11.7 54,11.7 52.7,14.8 50.8,19.3 53.9,19.3 55.8,14.8 64.7,14.8 66.6,19.3 69.7,19.3 
			61.8,0.5 		"/>
		<polygon points="135.6,0.5 140.3,11.7 134,11.7 130.9,11.7 129.6,14.8 127.7,19.3 130.9,19.3 132.7,14.8 141.6,14.8 143.5,19.3 
			146.6,19.3 138.7,0.5 		"/>
		<polygon points="44,0.5 42.9,1.3 41.9,2 42.4,2 42.4,13.7 32.5,0.6 32.5,0.5 29.4,0.5 29.4,19.3 32.5,19.3 32.5,5.8 42.4,19.3 
			45.5,19.3 45.5,2 46.1,2 45,1.3 		"/>
		<polygon points="89.5,0.5 88.5,1.3 87.4,2 88,2 88,13.7 78,0.6 78,0.5 74.9,0.5 74.9,19.3 78,19.3 78,5.8 88,19.3 91.1,19.3 
			91.1,2 91.6,2 90.6,1.3 		"/>
		<path d="M110.9,14.4c-2.5,2.5-6.5,2.5-9,0s-2.5-6.5,0-9c2.4-2.4,6.3-2.5,8.8-0.2l2-2.2c-3.8-3.5-9.8-3.2-13.3,0.6
			s-3.2,9.8,0.6,13.3c3.7,3.4,9.5,3.3,13-0.3L110.9,14.4z"/>
		<path d="M58.6,33.8c-1.4,1.3-3.6,1.1-4.9-0.3c-1.3-1.4-1.1-3.6,0.3-4.9c1.3-1.2,3.3-1.2,4.7,0.1l0.7-0.8c-1.8-1.7-4.7-1.6-6.4,0.2
			s-1.6,4.7,0.2,6.4c1.8,1.7,4.6,1.6,6.3-0.1l0.2-0.2V31h-1.1V33.8z"/>
		<path d="M127.2,31.8c0.6-0.6,0.9-1.3,0.8-2.1c0.1-0.8-0.2-1.6-0.8-2.1c-0.5-0.4-1.1-0.6-1.8-0.6h-3.8v1h3.9c0.4,0,0.7,0.1,1,0.3
			c0.3,0.4,0.5,0.8,0.4,1.3c0,0.5-0.1,1-0.4,1.4c-0.3,0.3-0.7,0.4-1.1,0.4h-3.8v4.2h1.1v-3.1h2.4l2.3,3.4l0.9-0.6l-2-2.9
			C126.7,32.2,127,32,127.2,31.8z"/>
		<path d="M140.8,31.1c-0.4-0.1-0.8-0.2-1.2-0.3c-1.8-0.4-2.5-0.7-2.2-2c0-0.3,0.2-0.5,0.5-0.7c0.8-0.4,2.5,0.1,3.1,0.4l0.4-1
			c-0.3-0.1-2.6-1.1-4-0.3c-0.5,0.3-0.9,0.8-1,1.4c-0.5,2.5,1.6,3,3.1,3.3c0.4,0.1,0.7,0.2,1.1,0.3c0.4,0.1,0.7,0.4,0.8,0.8
			c0,0.5-0.2,0.9-0.6,1.2c-0.8,0.4-1.7,0.5-2.6,0.3c-0.4,0-0.9-0.2-1.1-0.6l-0.9,0.5c0.4,0.6,1.1,1,1.9,1.1c0.4,0.1,0.8,0.1,1.2,0.1
			c0.8,0,1.6-0.2,2.3-0.6c0.7-0.5,1-1.3,0.9-2.2C142.2,32,141.6,31.3,140.8,31.1z"/>
		<polygon points="13.5,0.5 0,0.5 0,3.6 13.5,3.6 13.5,4.2 15,2.1 13.5,0 		"/>
	</g>
</g>
</svg>
