<svg xmlns="http://www.w3.org/2000/svg" viewBox="0 0 242.14 145.98"><defs><style>.cls-1{fill:#444085;}</style></defs><g id="Layer_2" data-name="Layer 2"><g id="Layer_1-2" data-name="Layer 1"><path id="logotype_dark" data-name="logotype dark" class="cls-1" d="M4,144.19c1.44.38,1.59.95,1.2,1.54-.11.17-.56.17-.85.25ZM5,141l1.13-.35c.2.32.53.66.53,1s-.54.28-.84.42Zm-.49-1.51a18.64,18.64,0,0,1-.26-2.47l2.86,1.22a10.29,10.29,0,0,1-1.44,1.51.22.22,0,0,1-.14,0,2.05,2.05,0,0,1-1-.3Zm-2.41,0c-.78-.53-1.55-1.09-.75-2.15.51.55,1,1.11,1.49,1.68.1.13,0,.42-.13.55a.19.19,0,0,1-.15,0,1.07,1.07,0,0,1-.46-.11Zm6.54-1.14,2.42.26a1.24,1.24,0,0,1,0,.27,3.05,3.05,0,0,0-.67.07,3.68,3.68,0,0,1-.58.07,1.45,1.45,0,0,1-1.2-.68Zm1.27-1.6a2.47,2.47,0,0,1-1.22-.63c-.5-.73-1-1-1.75-.47a.84.84,0,0,1-1.19-.11.91.91,0,0,1-.17-.34,5.38,5.38,0,0,1-.24-.55c-.1-.37-.18-.75-.27-1.12a9.24,9.24,0,0,0,1.07.58,2.43,2.43,0,0,0,.8.12,3.42,3.42,0,0,0,.15-1.59c-.08-.3-.7-.67-1.14-.8-2-.57-2.55-1.15-2.43-2.7.07-.91-.51-1.42-1.65-1.46-1,0-2.13-1-1.82-1.62s1.06-1,1.61-1.57c.35.33.93.66,1,1,.29,1.19.45,1.38,2.25,1.72,0-1.34-1.21-2.72-.18-4a5.65,5.65,0,0,0,.82,1.4,3.23,3.23,0,0,0,3.08,1.08,2.26,2.26,0,0,1,2.34.83c.72.92,1.26.63,1.82.12.18-.16.26-.42.48-.49.6-.17,1.26-.27,1.9-.4.23.59.75,1.25.63,1.74-.3,1.21-1,2.32-1.33,3.52a9,9,0,0,0,0,2.07,3.37,3.37,0,0,1-.3,1,4.82,4.82,0,0,1-1.06-.6,2.52,2.52,0,0,1-.42-3.52l.06-.07c1-1.19.9-1.52-.9-2.12a14,14,0,0,0-2.8-.38c.1.75.23,1.5.37,2.44-.53.31-1.12.17-1.62-.6a3.22,3.22,0,0,0-.73-.87,1.17,1.17,0,0,0-.84-.11A19.69,19.69,0,0,0,5.05,130l.39.45,1-1.06a6.58,6.58,0,0,1,1,1.24c.46,1.27.81,2.55,1.28,3.83.12.32.55.61.85.91a9.18,9.18,0,0,1,.93.94c0,.06-.37.45-.53.45Zm3.84-12.6c-.4-.13-.74-.8-.89-1.26-.39-1.14-.61-1.29-1.91-1-2.61.57-5.77-1.54-5.58-3.72a2.13,2.13,0,0,1,.18-.5h.18a.51.51,0,0,1,.27,0c1.18,1,2.1,1.28,2.9-.08.32-.55,1.81-.21,2.52.59a2.83,2.83,0,0,0,2.68.91c.41-.06.66-.51,1-.8a7.17,7.17,0,0,0-.94-.7,37.84,37.84,0,0,1-3.61-1.79c-1.33-.86-.41-1.63.15-2.29s.54-1-.28-1.2c-.44.46-.69,1.08-1.13,1.12-1.09.11-1.63-.46-2.12-1.36-.66-1.21-.65-2.6-2.06-3.64-.28-.21-.1-.87-.07-1.3a5,5,0,0,1,.27-.93c-.35,0-.7.11-1.07.12a3.57,3.57,0,0,1-1.56,0c-.46-.21-.75-.73-1.11-1.1l1.33-.38a14.36,14.36,0,0,0,2.64-.73c.78-.38.51-.93-.48-1.24s-1-.31-1.1-1.31a6.27,6.27,0,0,0,1.06.13,2.28,2.28,0,0,0,1.28-.29c.16-.16-.14-.65-.22-1s-.46-1.06-.24-1.33c1.33-1.63.89-3.23-.53-5a8.6,8.6,0,0,1-1-2.34,3.67,3.67,0,0,0-.56-1.14c-.72-.8-.52-1.14.44-1.51a10.13,10.13,0,0,0,2.6-1.62c.45-.37.16-.73-.58-.83a7.57,7.57,0,0,1-1.13-.31,4,4,0,0,1,.59-.83c.57-.53.78-.95-.22-1.55C4,83.05,4,82.8,4.93,81.73c.1-.13.22-.35.14-.48-.6-1.07,0-1.34,1.15-1.53,1.59-.28,1.65-.79.48-1.91a6.26,6.26,0,0,0-.41-.49c-.41-.31-.85-.59-1.29-.88-.25.32-.5.65-.78,1s-.87.83-1.3,1.25l-.52-.3c-.07-1-.11-2,1.26-2.48.3-.1.7-.3.74-.53.12-.77.74-.88,1.57-1,1.22-.15,1.13-1.11.72-1.76a11.23,11.23,0,0,1-1.4-4c-.06-.32-.57-.63-.72-1a7.22,7.22,0,0,1-.67-2.22c0-.17,1-.29,1.62-.38a2.44,2.44,0,0,1,.54,0,1.94,1.94,0,0,0,.68,0c.3-.09.74-.46.66-.6A22.14,22.14,0,0,0,5.82,61.8a6.77,6.77,0,0,0-1-.93c.41-.2.81-.41,1.21-.63A3.43,3.43,0,0,0,6.36,60c-1-.37-2-.68-2.92-1-1.36-.53-1.52-1-1.13-2.08a6.93,6.93,0,0,0,.23-2.07A2.69,2.69,0,0,1,4.42,52c-.55-.32-1.29-.55-1.5-.92s0-1,0-1.52a13.3,13.3,0,0,1-.1-2.75A3.9,3.9,0,0,1,3.9,44.9c.43-.45.52-.73,0-1.23a2.29,2.29,0,0,1-.71-2.94,1.92,1.92,0,0,0-.23-2.22c-1-1.45-.12-2.86,1.7-3,.3,0,.76-.47.69-.61-.17-.33-.69-.84-1-.82-1.26.08-1.16-.45-1.29-1.18-.57-3.1.35-6.1-.71-9.24-.22-.65.17-1.36.17-2.06,0-5.15-.22-10.31-.13-15.44A19.71,19.71,0,0,1,3.59.93C3.92-.16,5.16-.27,6.43.5a4.08,4.08,0,0,0,1.09.58A12.67,12.67,0,0,0,12.35,1c2-.3,3.94-.6,5.76.29,3.41,1.67,6.8,3.33,10.17,5.05C30,7.16,30,8.54,30.08,9.79c.18,4.07-.1,11.73.08,15.8.08,1.87.38,3.77.49,5.65s.07,3.83.14,5.75.19,4.06.27,6.08a17.09,17.09,0,0,1,0,3.43c-.44,2.4.72,5-.38,7.33a3.75,3.75,0,0,0,0,1.53c0,1.1.08,2.2.1,3.29a37.14,37.14,0,0,0,.09,4c.2,1.66-1.8,3-.22,4.82-1,1.13-.73,2.44-.32,3.8.09.29-.22.6-.31.91s-.33.67-.19.94c.52,1,.84,1.82-.7,2.18-.12,0-.06.7.15,1,.62.85.79,1.55-.14,2.18a.94.94,0,0,0-.19,1c.44,1.42.47,1.42-.7,2.32,1.36,1.29,1.18,2.45,0,3.53-.19.18-.16.53-.19.81a17.65,17.65,0,0,1-.32,3c-.11.39-.89.59-1.62,1A6.38,6.38,0,0,0,27.2,91c.85.48,1,.81.56,1.57a5.06,5.06,0,0,0-.35,2.64A1.56,1.56,0,0,1,26.35,97c-1.08.46-1.09,1.1-.22,2a2.54,2.54,0,0,1-.05,3.58,2.79,2.79,0,0,1-.63.45,1.33,1.33,0,0,0-.85,1.68,1.31,1.31,0,0,0,.34.53c.64.55,1,1.06.32,1.49a2,2,0,0,1-2.26-.4c-.46-.36-.94-.69-1.41-1l-.35.18a2.7,2.7,0,0,0,.21.8c.65,1.18.46,1.63-.7,2.25-.4.21-.52.74-.74,1.13-.68,1.25.21,2.51.58,3.78.27,1-.4,1.24-1.62,1a3.78,3.78,0,0,0-1.37.25c.19.37.26.84.59,1.11,1.06.82,1.1,1.38,0,1.85-1.89.78-1.9,1.72-.18,3,.47.35.65,1,1.1,1.68l-1.27-.16c-1.59-.28-1.8-.06-1.37,1.17.1.3-.15.88-.4.92a5.23,5.23,0,0,1-1,.09,5.29,5.29,0,0,1-1.31-.17Zm-.26-8.73c.56,0,1.18,0,1-.6-.1-.34-.89-.66-1.4-1a1.1,1.1,0,0,0-.67,0c-.45.11-.87.29-1.3.44l1,1.06c.51,0,.8.08,1.06.08h.32ZM13,101.09l.82,1.48c.57-.3,1.18-.5,1.13-.66a2,2,0,0,0-.83-1,.41.41,0,0,0-.16,0,7.48,7.48,0,0,0-1,.24ZM4.75,55.23a14.34,14.34,0,0,0,1.37,1.33c.14.13.57,0,.87,0H7a2.18,2.18,0,0,0,.14-.34A16.6,16.6,0,0,0,5.59,55a.12.12,0,0,0-.08,0,4,4,0,0,0-.76.26Zm-.27-17c-.08.13.26.62.47.68s.68-.09,1.28-.2c-.43-.44-.65-.85-.92-.9h0a1,1,0,0,0-.81.42ZM4.86,116a10.63,10.63,0,0,1-1.28-1.23l-1-1,1.66-.4.07.33c1,.23,2.07.43,3.09.72a3.29,3.29,0,0,1,1.3.73,1.06,1.06,0,0,1,.29,1c-.07.17-.7.31-1,.21a1.87,1.87,0,0,0-1.88.13.08.08,0,0,1-.07,0A3,3,0,0,1,4.86,116Zm213.05-8.7c-.8-1.31-2-3.43-3.57-6.34a46,46,0,0,0-10.13,5q-10.34,6.38-11.32,6.35c-1.07,0-2.85-1.59-5.36-4.76q-9.34-11.72-9.34-29.2a48.75,48.75,0,0,1,1.49-13.11q1.48-5.16,8.84-14.69A39.89,39.89,0,0,1,205.2,38.23q8.34-3.58,8.34-6.16,0-4.17-6.15-8.44t-8.15-4.29a25,25,0,0,0-4.57,1.19,21.5,21.5,0,0,1-6.16,1.2,12.2,12.2,0,0,1-5.65-1.39,4.48,4.48,0,0,1-2.68-4.17c0-2.52,1.19-3.77,3.57-3.77a25.42,25.42,0,0,1,5,1,8.07,8.07,0,0,0,2.18.4q3.18,0,10.72-3.59t15.3-7.58q3.17,0,11.91,7.55,9.93,8.55,9.93,15.1V92.81a14.57,14.57,0,0,0,1.59,4.38,30.15,30.15,0,0,0,1.79,3.37q0,1.39-8.15,7c-5.43,3.7-8.6,5.57-9.53,5.58q-3,0-6.55-5.75ZM202.92,54c-2.45,5.09-3.68,9.24-3.68,12.42a44.15,44.15,0,0,0,3.87,17.38q3.88,9,7.06,9A12.65,12.65,0,0,1,213,92l-.6-47.66Q206.59,46.37,202.92,54Zm-83,57.49V25.28q0-1.79-2.09-5a16.69,16.69,0,0,0-4.06-4.56q1-2.17,8.23-7.74t10.23-5.56c1.59,0,3.58,1.25,6,3.77s4.83,5,7.35,7.55q1.59,0,7.25-5.67c3.77-3.77,5.78-5.66,6.05-5.66A47.08,47.08,0,0,1,164.61,7c3.83,4,5.75,8,5.75,12.12,0,1.19-1.24,3.24-3.74,6.15q-7.49,8.55-9.25,8.54c-.8,0-2-.92-3.55-2.78a27.42,27.42,0,0,0-6.3-5.76v86.2ZM3.16,111l.36-1.25.54.12-.22,1.3ZM80,110.76q-1.38,0-6-3.38a85.11,85.11,0,0,1-10-8.74,58.12,58.12,0,0,1-13.5-21.26,53.82,53.82,0,0,1-3.78-18.67A43,43,0,0,1,49.44,45a75.17,75.17,0,0,1,7.75-15.7q2.58-4,12.71-14.7Q81.21,2.68,84.2,2.67c.4,0,2,1.86,4.77,5.57q3.38,4.77,7,9.52a82.8,82.8,0,0,1,5,7q5,7.37,5,8.76,0,6.15-15.79,19.66T74.27,68.63q0,5.58,25.62,25.23-1,1.8-9.73,9.35T80,110.75ZM65.92,34.54a29.8,29.8,0,0,0-1.39,7.25A40.87,40.87,0,0,0,66,53.22c1,3.38,2.35,5.06,4.08,5.06s4.31-2,8.14-6S84,45.83,84,44.77q0-1.2-3.78-7.14-5.16-8.14-8.93-13.12h-2q-2,5.16-3.38,10Zm-63,37.64c1.12.35,1.51,1,1.26,1.57-.12.29-.91.34-1.75.6.21-1,.35-1.53.49-2.16ZM1.66,70.57c0-.25-.26-.62-.13-.75a11.7,11.7,0,0,1,1.42-1c.08.23.33.54.24.67a10.81,10.81,0,0,1-1.11,1.23Zm.88-8.42a11.49,11.49,0,0,1,1.71-.68c.21.37.73,1,.64,1.06a9,9,0,0,1-1.84.77c-.26-.57-.61-1.09-.51-1.15Z"/></g></g></svg>