<?xml version="1.0" encoding="UTF-8"?><svg xmlns="http://www.w3.org/2000/svg" xmlns:xlink="http://www.w3.org/1999/xlink" viewBox="0 0 948.28 274.86"><defs><style>.cls-1{fill:#fff;}.cls-2{fill:url(#linear-gradient-4);opacity:.77;}.cls-2,.cls-3{mix-blend-mode:screen;}.cls-3{fill:url(#linear-gradient-2);opacity:.8;}.cls-4{isolation:isolate;}.cls-5{fill:url(#linear-gradient-5);opacity:.6;}.cls-6{fill:url(#linear-gradient-3);}.cls-7{fill:url(#linear-gradient);}</style><linearGradient id="linear-gradient" x1="-41.45" y1="266.16" x2="162.51" y2="-31.32" gradientTransform="translate(133.37) skewX(-2.65)" gradientUnits="userSpaceOnUse"><stop offset=".15" stop-color="#ff1e2c"/><stop offset=".7" stop-color="#ffff5c"/></linearGradient><linearGradient id="linear-gradient-2" x1="3.07" y1="261.23" x2="187.17" y2="-7.28" gradientTransform="translate(133.37) skewX(-2.65)" gradientUnits="userSpaceOnUse"><stop offset=".15" stop-color="#ff1e2c"/><stop offset=".7" stop-color="#ffff5c"/></linearGradient><linearGradient id="linear-gradient-3" x1="3702.5" y1="5639.19" x2="3507.02" y2="5852.36" gradientTransform="translate(3525.59 5920.34) rotate(-180) skewX(-2.65)" gradientUnits="userSpaceOnUse"><stop offset=".35" stop-color="#65ff89"/><stop offset=".78" stop-color="#2634ff"/></linearGradient><linearGradient id="linear-gradient-4" x1="3707.46" y1="5702.26" x2="3445.8" y2="5897.83" gradientTransform="translate(3525.59 5920.34) rotate(-180) skewX(-2.65)" gradientUnits="userSpaceOnUse"><stop offset=".01" stop-color="#e2514a"/><stop offset=".35" stop-color="#a4daa4"/><stop offset=".78" stop-color="#4449a9"/></linearGradient><linearGradient id="linear-gradient-5" x1="3624.97" y1="5599.92" x2="3617.35" y2="5853.54" gradientTransform="translate(3525.59 5920.34) rotate(-180) skewX(-2.65)" gradientUnits="userSpaceOnUse"><stop offset=".25" stop-color="#65ff89" stop-opacity="0"/><stop offset=".7" stop-color="#2634ff"/></linearGradient></defs><g class="cls-4"><g id="Layer_2"><g id="design"><g><g><path class="cls-1" d="M429.46,137.48h13.73l8.4,31.79,9.12-31.79h10.75l8.31,31.79,8.94-31.79h12.55l-14.9,47.23h-12.82l-8.04-29.62-8.67,29.62h-13l-14.36-47.23Z"/><path class="cls-1" d="M506.19,171.62c0-11.02,10.11-15.17,24.56-15.17h5.33v-1.9c0-5.6-1.72-8.67-7.68-8.67-5.15,0-7.49,2.62-8.04,6.68h-12.37c.81-11.2,9.66-16.16,21.22-16.16s19.78,4.7,19.78,17.52v30.79h-12.73v-5.69c-2.71,3.79-6.86,6.68-14.27,6.68-8.58,0-15.8-4.15-15.8-14.09Zm29.89-3.43v-3.97h-5.06c-7.59,0-12.01,1.62-12.01,6.68,0,3.43,2.08,5.69,6.86,5.69,5.78,0,10.21-3.16,10.21-8.4Z"/><path class="cls-1" d="M555.65,137.48h14l11.29,33.77,11.2-33.77h12.64l-17.16,47.23h-14.72l-17.25-47.23Z"/><path class="cls-1" d="M608.99,161.69v-.72c0-14.9,10.57-24.56,24.29-24.56,12.19,0,23.03,7.13,23.03,24.02v3.61h-34.05c.36,7.86,4.61,12.37,11.74,12.37,6.05,0,9.03-2.62,9.84-6.59h12.37c-1.53,10.21-9.66,15.89-22.57,15.89-14.27,0-24.65-8.94-24.65-24.02Zm34.59-5.69c-.45-7.13-4.06-10.57-10.29-10.57-5.87,0-9.84,3.88-10.84,10.57h21.13Z"/><path class="cls-1" d="M667.85,116.08h13v68.63h-13V116.08Z"/><path class="cls-1" d="M692.07,161.69v-.72c0-14.9,10.57-24.56,24.29-24.56,12.19,0,23.03,7.13,23.03,24.02v3.61h-34.04c.36,7.86,4.6,12.37,11.74,12.37,6.05,0,9.03-2.62,9.84-6.59h12.37c-1.54,10.21-9.66,15.89-22.58,15.89-14.27,0-24.65-8.94-24.65-24.02Zm34.59-5.69c-.45-7.13-4.06-10.57-10.3-10.57-5.87,0-9.84,3.88-10.84,10.57h21.13Z"/><path class="cls-1" d="M750.68,137.48h13.09v7.49c2.35-4.7,7.49-8.58,15.35-8.58,9.3,0,15.89,5.6,15.89,18.24v30.07h-13.09v-28.18c0-6.41-2.53-9.48-8.31-9.48s-9.84,3.43-9.84,10.39v27.27h-13.09v-47.23Z"/><path class="cls-1" d="M805.93,185.71h13c.81,4.16,3.79,6.86,10.48,6.86,7.95,0,11.92-4.15,11.92-11.56v-7.13c-2.62,4.6-8.22,8.76-15.17,8.76-11.47,0-20.59-8.58-20.59-22.58v-.63c0-13.55,9.03-23.03,20.77-23.03,7.68,0,12.28,3.34,14.99,8.13v-7.04h13v43.53c-.09,14-9.39,21.13-24.92,21.13s-22.22-6.68-23.48-16.44Zm35.76-25.83v-.63c0-8.04-4.24-12.91-11.38-12.91s-11.38,5.24-11.38,13v.72c0,7.86,4.6,12.73,11.11,12.73,6.86,0,11.65-4.88,11.65-12.91Z"/><path class="cls-1" d="M869.82,170.72v-23.93h-6.05v-9.3h6.05v-10.21h13v10.21h9.93v9.3h-9.93v22.76c0,3.79,1.9,5.6,5.24,5.6,1.99,0,3.43-.27,4.97-.9v10.11c-1.81,.63-4.43,1.26-7.95,1.26-9.93,0-15.26-5.06-15.26-14.9Z"/><path class="cls-1" d="M903.94,116.08h13.09v28.9c2.35-4.7,7.49-8.58,15.35-8.58,9.3,0,15.89,5.6,15.89,18.24v30.07h-13.09v-28.18c0-6.41-2.53-9.48-8.31-9.48s-9.84,3.43-9.84,10.39v27.27h-13.09V116.08Z"/></g><g><path class="cls-7" d="M347.66,137.42c-7.12,.28-14.6-4.48-20.3-8.14-15-9.61-27.92-22.56-39.84-35.68-13.37-14.72-26.18-29.97-37.95-46.01-10.83-14.76-23.61-40.16-34.93-45.56-15.45-7.37-24.88,6.83-30,17.3-7.61,15.56-14.59,31.39-21.86,47.11-5.61,12.13-10.47,24.8-19.41,34.98-5.81,6.6-15.04,13.86-23.66,7.53-6.59-4.84-9.79-13.73-12.65-20.84-3.49-8.66-6.25-17.74-11.45-25.68-7.65-11.69-20.61-18.98-32.51-7.59-8.23,7.88-12.14,18.1-17.26,27.8-10.8,20.44-25.18,42.06-45.82,54.76,0,0,347.63,0,347.66,0Z"/><path class="cls-3" d="M388.17,137.42c-28.94-12.17-53.71-27.9-74.96-46.92-15.52-13.89-27.25-29.41-40.58-44.47-6.01-6.79-13.49-18.49-25.14-18.5-14.42-.01-20.48,20.8-24.09,30.66-6.54,17.84-11.25,36.86-21.59,53.23-5.91,9.35-17.6,22.05-30.72,19.51-10.43-2.02-16.68-12.84-21.05-20.93-5.42-10.02-9.41-20.64-13.97-31.01-2.72-6.19-5.98-16.7-12.82-20.15-20.39-10.29-26.75,23.42-43.48,43.7-10.26,12.44-21.2,26.69-37.99,34.89,0,0,346.4,0,346.4,0Z"/><path class="cls-6" d="M40.51,137.44c7.12-.28,14.6,4.48,20.3,8.14,15,9.61,27.92,22.56,39.84,35.68,13.37,14.72,26.18,29.97,37.95,46.01,10.83,14.76,23.61,40.16,34.93,45.56,15.45,7.37,24.88-6.83,30-17.3,7.61-15.56,14.59-31.39,21.86-47.11,5.61-12.13,10.47-24.8,19.41-34.98,5.81-6.6,15.04-13.86,23.66-7.53,6.59,4.84,9.79,13.73,12.65,20.84,3.49,8.66,6.25,17.74,11.45,25.68,7.65,11.69,20.61,18.98,32.51,7.59,8.23-7.88,12.14-18.1,17.26-27.8,10.8-20.44,25.18-42.06,45.82-54.76,0,0-347.63,0-347.66,0Z"/><path class="cls-2" d="M0,137.44c28.94,12.17,53.71,27.9,74.96,46.92,15.52,13.89,27.25,29.41,40.58,44.47,6.01,6.79,13.49,18.49,25.14,18.5,14.42,.01,20.48-20.8,24.09-30.66,6.54-17.84,11.25-36.86,21.59-53.23,5.91-9.35,17.6-22.05,30.72-19.51,10.43,2.02,16.68,12.84,21.05,20.93,5.42,10.02,9.41,20.64,13.97,31.01,2.72,6.19,5.98,16.7,12.82,20.15,20.39,10.29,26.75-23.42,43.48-43.7,10.26-12.44,22.46-26.69,39.25-34.89,0,0-347.66,0-347.66,0Z"/><path class="cls-5" d="M0,137.44c28.94,12.17,53.71,27.9,74.96,46.92,15.52,13.89,27.25,29.41,40.58,44.47,6.01,6.79,13.49,18.49,25.14,18.5,14.42,.01,20.48-20.8,24.09-30.66,6.54-17.84,11.25-36.86,21.59-53.23,5.91-9.35,17.6-22.05,30.72-19.51,10.43,2.02,16.68,12.84,21.05,20.93,5.42,10.02,9.41,20.64,13.97,31.01,2.72,6.19,5.98,16.7,12.82,20.15,20.39,10.29,26.75-23.42,43.48-43.7,10.26-12.44,22.46-26.69,39.25-34.89,0,0-347.66,0-347.66,0Z"/></g></g></g></g></g></svg>