<?xml version="1.0" encoding="utf-8"?>
<!-- Generator: Adobe Illustrator 23.0.2, SVG Export Plug-In . SVG Version: 6.00 Build 0)  -->
<svg version="1.1" baseProfile="basic" id="_x3C_Calque_x3E_"
	 xmlns="http://www.w3.org/2000/svg" xmlns:xlink="http://www.w3.org/1999/xlink" x="0px" y="0px" viewBox="0 0 219.6 219.6"
	 xml:space="preserve">
<style type="text/css">
	.st0{fill:#EE0000;}
	.st1{fill:#FFFFFF;}
	.st2{fill:#FEF200;}
</style>
<g>
	
		<rect x="32.16" y="32.16" transform="matrix(0.7071 -0.7071 0.7071 0.7071 -45.48 109.7987)" class="st0" width="155.28" height="155.28"/>
	<path class="st1" d="M97.52,147.97l-4.18,4.18L116,162.37l2.98-2.98l-10.12-22.75l-4.18,4.18l6.39,13.57L97.52,147.97z
		 M113.66,131.83l-3.84,3.84l16.43,16.44l3.85-3.84L113.66,131.83z M120.02,125.47l-3.84,3.84l16.44,16.44l8.46-8.46l-3.62-3.62
		l-4.61,4.61L120.02,125.47z M129.73,115.76l-3.84,3.84l16.43,16.44l8.46-8.46l-3.62-3.62l-4.61,4.61L129.73,115.76z M147.63,105.1
		l-3.62-3.62l-8.42,8.42l16.43,16.44l8.42-8.41l-3.62-3.62l-4.57,4.57l-2.83-2.83l4.33-4.34l-3.62-3.62l-4.34,4.34l-2.75-2.75
		L147.63,105.1z M167.59,110.78l5.45-5.45c4.1-4.1,3.92-11.11-0.7-15.73c-4.62-4.62-11.61-4.82-15.73-0.71l-5.45,5.45L167.59,110.78
		z M158.62,94.11l0.9-0.9c2.47-2.47,5.87-2.56,8.82,0.38c3.21,3.2,2.64,6.56,0.34,8.86l-0.86,0.86L158.62,94.11z M177.94,74.79
		l-3.62-3.62l-8.42,8.42l16.43,16.43l8.42-8.42l-3.62-3.62l-4.57,4.57l-2.83-2.83l4.33-4.33l-3.62-3.62l-4.34,4.34l-2.75-2.75
		L177.94,74.79z M142.45,147.66c-2.14,0.49-4.49,1.79-5.98,3.28c-2.96,2.96-2.92,7.28,0.41,10.62c3.18,3.18,5.47,2.29,8.65,0.64
		c1.09-0.56,3.01-1.66,4.21-0.46c1.16,1.16,0.7,2.62-0.21,3.52c-1.31,1.31-3.22,1.69-5.11,1.71l1.8,5.09
		c2.69-0.33,5.21-1.46,7.07-3.32c1.49-1.49,2.58-3.5,2.65-5.74c0.06-2.29-1.26-4.32-2.89-5.96c-2.66-2.66-5.41-2.22-8.14-0.84
		l-1.31,0.65c-0.91,0.43-2.32,1.1-3.28,0.14c-0.91-0.92-0.43-2.32,0.27-3.02c0.94-0.94,2.28-1.41,3.64-1.46L142.45,147.66z
		 M147.81,140.47l-3.84,3.84l16.44,16.44l3.84-3.85L147.81,140.47z M162.36,133.16l-3.62-3.62l-8.42,8.42l16.43,16.44l8.42-8.42
		l-3.62-3.62l-4.57,4.57l-2.83-2.83l4.34-4.34l-3.62-3.62l-4.34,4.34l-2.75-2.75L162.36,133.16z M178.46,129.22
		c1.68-2.51,0.86-5.61-1.41-7.88c-3.51-3.51-7.27-2.84-10.2,0.08l-5.75,5.75l16.43,16.44l3.85-3.84l-6.32-6.32l0.04-0.04l9.95,2.69
		l4.79-4.79L178.46,129.22z M168.23,126.6l0.37-0.37c1.26-1.25,2.93-2.41,4.72-0.62c1.79,1.79,0.64,3.46-0.62,4.72l-0.37,0.37
		L168.23,126.6z M191.31,116.37c1.68-2.51,0.86-5.61-1.41-7.88c-3.51-3.51-7.27-2.84-10.2,0.08l-5.75,5.75l16.43,16.44l3.84-3.84
		l-6.32-6.32l0.04-0.04l9.95,2.69l4.79-4.79L191.31,116.37z M181.07,113.75l0.38-0.37c1.25-1.25,2.93-2.41,4.72-0.62
		c1.79,1.79,0.64,3.46-0.62,4.72l-0.37,0.37L181.07,113.75z M199.33,96.18l-3.62-3.62l-8.42,8.42l16.43,16.44l8.41-8.42l-3.62-3.62
		l-4.57,4.57l-2.83-2.83l4.34-4.33l-3.62-3.62l-4.34,4.34l-2.75-2.75L199.33,96.18z"/>
	<path class="st2" d="M109.55,113.2c-0.85,0.49-1.17,1.47-0.32,2.22v0.17c-0.8-0.4-1.74-0.57-2.74-0.48
		c-1.67,0.48-1.57,2.25-2.42,3.36c-0.04,0.41,0,0.89,0.45,0.92h0.8c0.13,0.49-0.4,0.68-0.63,0.97c-0.58,0.28-0.76-0.39-1.12-0.65
		c0.63-1.42-1.26-1.77-1.3-3.18c0.5-0.05,0.81-0.4,0.63-0.94c0.8,0,1.03-1.36,1.97-1.46c1.04,0.22,1.67-0.93,2.42-1.11
		c0.41-0.17,0.41-1.01,0.95-0.48C108.65,112.85,109.95,111.85,109.55,113.2z M39.42,120.69c-0.64-0.59-1.31-1.26-1.31-1.91
		c-2.07-1.01-3.68-2.96-5.47-4.64c-0.23-1.55-1.36-2.48-2.6-3.49c-1.13-0.93,0.27-2.3-1.44-3.01c0.62-1.76-1.8-2.26-1.61-3.84
		c-1.45-0.57-0.19-2.21-1.5-2.83c-0.26-1.33-1.35-2.43-1.3-3.67c-1.08-0.44-0.59-2.69-2.07-1.77c0.58,1.02-0.32,1.94-0.8,2.56
		c0.22,1.27,1.3,1.15,2.07,2.08c0.49,1.01-0.77,1.23-1.26,2.04c-1.21-0.09-2.06-1.38-2.92-1.91c-0.15-0.63-0.69-1.03-1.25-1.45
		l-2.37,2.37c0.87,1.27,1.89,2.49,3.31,3.56c-0.54,1.27,0.85,1.76,1.12,2.69c1.79,0.57,2.29,2.48,3.23,3.85
		c1.66-0.13,2.66,2,3.74,2.7c0.75,0.7,1.61,1.81,2.86,1.59c0.94,0.09,0.14,1.55,1.3,1.29c1.57,1.06,2.92,3.31,4.85,3.48
		c1.71,0.54,1.08,2.44,2.29,3.19c1.21,1.01,1.97,2.2,3.54,2.7c1.8-0.71,0.58-2.2,0.62-3.49C41.85,121.82,40.73,120.64,39.42,120.69z
		 M102.27,101.76c-0.49,0.57-0.76,0.18-1.43,0.31c-1,0.62-1.76,1.77-2.92,1.9c-0.89-0.71-2.29-1.68-1.93-2.86l0.93-0.81l0.18,0.19
		c0.95-1.46,2.48-2.17,3.74-3.19c0.58-0.09,1.25,0.75,1.74,0c-0.27-0.79,0.45-1.32,0.68-1.77c0.44-0.08,0.81-0.4,1.26-0.48
		c0.3,0.53-0.59,0.96,0.17,1.28c1.76-0.56,3.15-2.38,3.42-4.11c-0.13-2.51-3.64-0.26-3.09-3.04c-0.41-0.28-0.63-1.01-1.31-0.79
		c-0.94,1.8-3.54,0.67-4.03,2.56c-1.07,0.04-0.5-1.15-0.81-1.77c0.05-0.67-0.72-0.76-1.11-1.11c-1.45,0.61-2.35,1.86-3.38,3
		c-0.04,0.4,0.13,0.87-0.17,1.14c-0.35-0.57-0.5-1.5-1.13-2.07c-1.34-2.83,3.05-0.97,1.93-3.49c0.06-1.12,2.38-0.85,1.12-2.08
		c-1.3,0.31-2.51,2.69-3.85,0.93c-1.67-0.22-1.03,2.83-2.75,1.45c-1.29,0.35-0.79,1.67-1.17,2.52c0.72,0.53,1.13,0.92,1.62,1.59
		c0.54-0.13,0.9,0.17,0.99,0.66c0.1,2.11-1.79,3.13-3.41,3.98c-1.49,0.39-2.29-2.3-3.68-0.81c-0.36,0-0.76,0.09-0.99-0.3
		c0.31-1.15,2.11-2.04,0.99-3.36c-1.17,0.71-2.33,1.41-3.91,1.11c-1.61,0.57-2.02-1.72-3.73-1.58c-0.26-0.7-1.11-0.49-1.61-0.31
		c-1.08,0.53-2.52-0.7-3.56,0.62c0.14,0.31-0.14,0.48-0.31,0.66c-0.89,0.17-0.85-0.85-1.3-1.28c0.08-0.39-0.18-0.89,0.32-1.11
		c0.79-0.14,1.48-0.27,1.6-1.1c-0.49-1.01-2.24-0.62-3.05-1.59c-1.62,0.08-2.78-0.76-4.22-1.15c-1.03-0.93-2.11-0.85-3.54-0.81
		l-1.12,0.81c0.22,0.34,0.27,0.7,0.67,0.96c0.95-0.79,0.69,0.71,1.26,0.98c-0.31,0.44,0.05,0.8,0.19,1.23
		c-0.22,2.84-4.32,0.45-3.56,3.53c-1.12,0.05-1.84-0.78-3.09-0.48c-0.5,0.61-0.86,1.63-1.75,0.79c-0.13-0.31-0.4-0.54-0.68-0.79
		c-0.94,0-1.89,1.32-2.74,0.12c-0.44-0.17-1.07-0.17-1.3-0.62c0.23-0.65-0.27-1.18-0.8-1.41c-0.76,0-1.66-0.17-2.24,0.32
		c0.9-1.15-0.9-1.54-1.12-2.4c-0.23-0.48-0.77-0.3-1.12-0.48c-0.13-1.68-2.06-2.38-3.23-3.18c-0.47-1.59-2.87-2.5-3.13-4.07
		l1.44-1.44c0.56,0.58,1.11,1.22,1.2,1.7c0.63,1.02,2.15,1.25,2.11,2.53c1.04,0.88,2.38,2.26,3.86,1.89c0.45-0.35,1.52-0.17,1.3-1.1
		l-3.91-3.8c0.45-0.67,0-1.41-0.45-1.9c-0.32-0.45-1.08-0.67-0.81-1.28l0.13-0.17c-0.03-0.07-0.26-0.34-0.57-0.72l68.69-68.7
		l29.45,29.45c-0.13,1.37-0.72,2.85,0.02,4.36c0.72,0.66-0.05,1.9,0.68,2.55c-0.46,1.02-0.54,1.81-0.5,2.84
		c0,0.17-0.04,0.4,0.18,0.49c-1.75,0.87-0.67,2.52-1,3.84c1.08,1.24,0.55,2.52,1.12,3.98c0.68,0.92,0.1,2.43,0.5,3.49
		c-0.81,0.49-0.84,1.18-0.5,1.9c1.45,0.74,0.95,1.86,0.8,3.01c-0.21,0.82,1.22,2.69-0.49,3.05c-0.44,0.39-0.62,1.19-0.32,1.71
		c1.26,0.71,1.04,1.86,1.13,2.87c-0.45,0.52-0.99,1.12-1.62,0.49c-0.44-0.09-0.8,0.44-0.94,0.79c-0.45,0.88,0.31,1.82-0.99,2.21
		c-0.46,0.05-0.36,0.75-0.95,0.48c0-0.75,0.71-1.18,0.45-2.07c-0.31-0.45-1.03-0.98-1.43-0.31c-0.63,0.4-0.8,1.15-0.49,1.76
		c-0.68,0.67-1.7,1.41-1.3,2.39c-0.67,0.58-0.91,1.94-2.24,1.42c-0.68-0.35-0.59-1.05-0.82-1.59c0.73-0.58,0-1.6,0.33-2.22
		c1.12-0.17,0.35-1.35,0.8-1.89c1.66-0.62-0.58-2.21,1.31-2.74c0.17-1.06-0.55-2.3,0.62-3.19c0.9-0.4,1.61-1.46,1.97-2.39
		c-0.9-1.24-1.17-3.66-0.36-5.21c0.55-0.05,1.22,0.31,1.17-0.49c0.41-1.36-1.44-2.17-0.81-3.18c-0.06-1.73,0.18-3.9-0.82-5.44
		c0.45-1.6-2.29-2.02-1.61-3.5c-0.5-0.17-0.36-0.92-0.99-0.78c-0.32,0.44-0.99,0.7-0.99,1.28c0.44,0.36,0.72,0.75,0.81,1.28
		c-1.4,0.84-0.67,2.75-0.62,3.98c0.35,0.5,0.94,1.1,0.49,1.74l0.32,4.76c-0.9,0.45,0.4,1.19-0.5,1.59
		c-0.31,1.33,0.09,2.97-0.94,3.98c-0.14,1.07,0.27,2.31,0.13,3.37c-0.37,1.94-2.83,0.48-3.37,2.38c-0.27,0.8-0.09,1.9-1.17,2.22
		c-0.22-0.28-0.62-0.1-0.94-0.14c-0.36,0.31-0.72,0.84-0.31,1.28c0.31,0.4,0.76,0.54,1.25,0.45c0.1-0.67,0.95-0.48,1.3-0.31
		c0.41,0.09,0.23,0.4,0.5,0.67c-0.4,1.54-2.79,2.16-2.12,4.28c0.41,0.75-0.62,1.06-0.93,1.58c-1.08-1.54-3.47-0.21-4.41-1.76
		c-0.4,0.18-0.5-0.31-0.81-0.49c0.67-0.74-0.41-1.2-0.81-1.72c-0.81,0.09-1.47,1.06-2.41,0.48c-0.19,0.45-0.9,0.76-0.64,1.42
		c0.54,0.58,1.45,1.2,1.12,1.9c0.09,0.45,0.33,0.97,0.81,1.11c0.22,0.09,0.32-0.17,0.49-0.3c-0.32-1.2,1.13-0.31,1.45-0.98
		c1.14-0.07,1.63,1.32,2.55,1.69c-0.68,0.21-0.09,1.74-0.94,1.85c-1.44,0.36-2.16-1.38-3.54-0.67c-0.22-0.26-0.62-0.08-0.94-0.12
		c-0.59,0.26-0.5,1.11-1.3,0.79c-0.58-0.62,0.49-1.28-0.31-1.77c-1.26,0.79-2.7-0.31-3.73,0.98c-0.08,0.34-0.44,0.48-0.8,0.44
		c-0.41-0.44-0.5-1.37-1.3-0.79c-0.18,0.13-0.27,0.4-0.5,0.36l-0.13-0.19c-0.94,0.45-0.76,1.64-1.62,2.21
		c-0.31,0.93,1.21,0.89,0.46,1.77c-0.41-0.22-1.18-0.22-1.62,0l-0.95,0.98c-1.71,0.04,0.1-3.49-1.92-1.58
		c-1.35-1.29-2.34,0.83-2.92,1.58c0.54,0.39-0.09,1.46,0.8,1.59c1-0.8,2.47-0.4,3.54-0.98c0.77,0.45,2.16-0.34,2.43,0.98
		c0.9,0.26,1.38-0.45,1.92-0.98c1.52,1.51,3.63-1.76,4.22,0.98c0.23,1.2,0.46,2.83-0.79,3.61c-0.9,0.31-1.4-1.8-1.8-0.12
		c0.23,0.48,0.94,0.29,0.81,0.92c-0.35,0.31-0.58,0.66-0.5,1.14c0.24,0.31-0.31,0.72-0.44,1.1c-1.67-0.04-1.44,2.13-2.11,3.19
		c-0.55,1.06-1.67,0.76-2.43,1.27C105.1,100.3,103.89,102.29,102.27,101.76z M56.88,83.29c-1.02,0.67-1.66-0.57-2.78-0.17
		c-0.59-0.17-0.77-0.84-1.12-1.23c-1.84-1.47-3.06-3.32-5.35-3.68c-1.2-1.45-2.69-2.21-3.85-3.8c-0.11,0.18-0.32,0.13-0.49,0.13
		c0.12,0.75,0.8,1.46,0.31,2.22c1.97,0.93,2.92,2.78,4.4,4.15c-0.27,0.57-0.32,1.77,0.64,1.77c-0.27,1.46-2.62,1.41-2.25,3
		c1.07,0.44,0.17,2.21,1.74,1.9c0.46,0.26,0.46,0.76,0.68,1.1c0.81-0.34,1.08,0.67,1.75,0.67c0.45-1.6-1.53-2.16-1.31-3.67
		c0.23-0.17,0.37-0.48,0.68-0.48c1.03-0.22,1.13,0.92,1.31,1.59c0.67,0.84,1.65-0.48,2.23,0.67c1.72,0.57,2.44-1.41,3.55-2.38
		C56.75,84.36,57.65,83.78,56.88,83.29z M90.15,120.36c-0.54,0.49-0.99-0.27-1.61,0c-1.22,1.1-2.11-0.83-3.42,0
		c0.09-1.18-1.2-0.79-1.93-1.1c-0.48,0.54-1.79-0.71-1.74,0.62c-0.67,0.21-1.17-0.35-1.61-0.17c0.13,0.84,0.76,1.46,1.43,2.07
		c0,0.45-0.04,1.02,0.32,1.11c0.9-0.5,0.81-1.19,0.31-1.91c0.23-0.48,0.77-0.88,1.29-0.91c0.37,1.11,1.76,1.11,2.75,1.4
		c1.04,0.59,1.93,1.33,2.79,2.22c1.39-0.21,0.98-1.77,1.74-2.51C90.51,120.82,90.47,120.55,90.15,120.36z M36.51,89.35
		c2.02,1.73,3.32,3.83,5.65,5.26c1.58-0.76,1.85,2.07,3.41,0.92c1.17,0.4,1.57,1.63,2.07,2.56c0.85,0.23,1.71,0.84,2.43,0.8
		c0.77-0.1,1.25,0.74,1.61,1.28c0.77,0.71,1.76,0,2.6,0c0.54,0.62,1.49,0.53,1.8,1.41c1.49-0.98,1.98,1.42,3.37,1.1
		c0.9-0.48,0.32-1.77,0.49-2.39h-0.99c-1.07-2.03-3.59-1.23-4.98-2.86c-0.63-0.4-1.62,0.17-2.11-0.44c0.24-1.15-1.16-1.23-1.61-2.09
		c-1.61-0.04-2.73-1.54-3.73-2.69l-0.13,0.14l-0.82-0.61c-1.97,0.21-2.01-2.42-3.72-2.68c-2.65-0.15-4.18-2.79-5.67-4.66
		c-0.67-0.18,0-1.64-0.98-0.92c-0.42-0.09-0.77-0.25-1.25-0.61l-3.26,3.26c0.88,0.71,2.01,0.84,2.89,1.46
		C34.21,88.38,35.07,90.32,36.51,89.35z M122.42,80.82c0.15-0.05,0.37-0.03,0.68,0.08C122.85,80.95,122.63,80.91,122.42,80.82z
		 M46.51,112.11c-0.67-0.13-1.38-1.19-2.11-0.35c-0.94-0.31-0.18-1.37-0.62-1.89c-2.07,1.23-3.05-1.38-4.36-2.09
		c-1.84-2.12-4.13-4.07-6.15-5.7l-0.18,0.14c-0.1-0.14-0.37-0.22-0.31-0.45h-0.33c0.33,0.66,0.64,1.37,0.99,2.04
		c3.68,0.93,3.59,5.48,6.78,7.03c1.71,0,2.38,1.64,3.73,2.2c0.91,0,1.61,0.54,2.43,0.98C46.87,113.35,47.45,112.72,46.51,112.11z
		 M56.71,118.11l-2.11-2.03c-0.71,0.08-1.97-0.52-2.74,0.13c-0.66-0.62-0.8-1.46-1.43-2.07c-0.94,0.49-2.06,0.45-3.09,0.66
		l0.98,0.93c1.43-0.57,2.2,1.54,3.36,2.09c1.17-0.49,1.44,1.27,2.43,1.11c1.08-0.27,2.47-0.27,3.23,0.65
		c0.63,0.1,1.21-0.08,1.61-0.48c0-0.62-0.27-1.1-0.63-1.6L56.71,118.11z M75.12,117.01c1.52,0.17,2.74-0.93,4.21-0.48
		c0.4-0.09,0.94-0.22,1.12-0.62c-0.66-1.28-1.7-0.72-2.73-0.63c-1.25-0.6,0.35-1.41-0.18-2.08c-1.02,0.42-2.1,0.85-3.23,1.11
		c-0.76-0.48-0.54-1.68-0.8-2.56c-0.76,0-1.3,0.97-2.12,0.48c-1.03,1.07,1.08,1.59,0.81,2.7c-0.49,0.3-1.22,0.13-1.76,0.34
		c-0.8-0.31-1.07-1.37-1.62-1.59c-0.94-1.41-2.83,0.09-4.04-0.97c-0.49,0.05-1.08-0.13-1.48,0.18c-0.95-1.59-2.83,0.08-4-1.46
		c-1.75,0.92-2.61-1.58-3.74-2.21c-0.12,0.18-0.31,0.14-0.48,0.14c-0.54-0.41-0.32-0.68-0.32-1.24c-0.13-0.32-0.44-0.14-0.67-0.18
		c-0.05,0.23,0.12,0.53-0.14,0.62c-0.18,0.09-0.22-0.04-0.31-0.12c-0.14,0.25-0.45,0.08-0.67,0.12c-0.86-0.27-1.26-0.84-1.31-1.72
		c-0.31,0.23-0.89,0.45-1.25,0.93c-0.5,0.13-0.68-0.4-0.99-0.61c-0.54-2.08-3.05-2.36-4.21-3.99c-0.81-0.44-0.95-0.89-1.76-1.59
		c-1.75,0.13-2.2-1.68-3.55-2.39c-0.54-0.4-1.38,0.17-1.8-0.48c-0.45-0.44-0.54-0.96-0.32-1.59c-2.29-2.26-4.53-4.25-6.64-6.85
		c-0.26-0.4-0.09-1.23-0.13-1.6c-0.85-0.14-1-1.05-1.47-1.42L24.79,92c0.07,0.81,1.4,1.09,1.82,1.93c-0.67,2.34,2.78,2.69,2.29,4.96
		c0.41,0.7,1.09,1.14,1.76,1.4c0.61-0.44,0.48-1.19,0.48-1.89c-0.22-0.62-0.9-0.93-1.44-1.11c-0.62-0.44-0.09-0.93,0.32-1.29
		c0.54,0.45,0.98,1.15,1.43,1.77c2.53,0.71,3.15,3.9,5.84,4.11c0.49,0.35,1.39,0.88,1.3,1.59c0.22,0.45,0.14,1.15,0.81,1.29
		c0.99-0.63,1.16,0.83,1.74,1.27c1.62,0.49,2.51,2.69,4.4,2.52c1.17,2.04,3.46,1.46,5.17,2.26c1.03,1.33,2.56,1.6,4.03,1.9
		c0.94,0.18,1.85,0.97,2.74,0.8c1.08-0.67,1.8,0.49,2.6,0.97c0.86,0.4,2.11-0.18,2.88,0.45c0.99,0.58-0.4,1.27-0.63,1.45
		c0.36,0.32,0.67,0.75,1.12,0.79c0.98-0.74,2.24-0.82,3.41-1.27c0.76,0.98,3.02,0.48,2.56,2.39c0.62,0.84,1.89,1.06,2.29-0.19
		c-0.32-0.13-0.13-0.49-0.18-0.79C72.37,115.28,73.94,117.18,75.12,117.01z M64.29,119.26c-0.32,0.45-0.63,0.93-0.98,1.43
		c-0.19,0.49-1.49,0.21-0.81,0.97c0.81-0.68,1.25,0.4,1.8,0.79c0.67,0.14,1.03-0.62,1.61-0.66c-0.44-0.57-0.4-1.38-0.62-2.07
		C65.24,119.26,64.7,119.23,64.29,119.26z M156.41,59.42c-0.05-2.17,0.1-3.89-0.15-5.94l-7.38-7.38c0.16,2.17,0.56,4.4-0.06,6.48
		c0.94,0.62-0.54,1.58,0.64,2.08c1.12,1.23-1.42,1.37-0.33,2.38c-0.22,1.36-0.22,3.09,0,4.46l-0.32,0.31
		c-0.94,0.09-0.27,0.97-0.31,1.46c-1.35,0.76,0.12,2.66-1.49,3.31c0.5,0.76-0.22,1.37,0,2.26c-1.43,0.61,0.36,1.59-0.63,2.38
		c0.23,1.59-1.47,1.95-2.29,3.32c0.5,1.5-1.92,1.85-1.12,3.5c-0.8,0.27-0.35,1.23-0.49,1.58c0.49,0.93-0.95,0.8-1.27,1.6
		c0.37,1.59-1.48,2.29-1.97,3.48c-0.05,1.33-0.94,1.86-1.93,2.75c-0.09,0.22-0.32,0.57,0,0.8c-0.9,0.93-1.08,2.3-2.25,3
		c0.18,0.93-0.63,1.86-1.47,2.56c-1.17-0.7-1.52,0.48-2.42,0.93c0.04,0.36,0,0.62-0.32,0.8l-0.13-0.14
		c-0.27-0.08-0.37,0.18-0.5,0.32c1.13,1.76-1.52,1.99-1.93,3.31c0.62,1.9-1.79,2.3-2.43,3.53c-0.4,0.22,0.13,1.15-0.67,0.93
		c-1.17,2.12-3.95,0.45-5.34,2.08c-0.95-0.88-1.8,0.67-2.42,1.28c0.49,1.89-2.39,2.39-2.75,4.12c-1.21,0.48-2.86-0.05-4.03-0.8
		c-0.19-0.09-0.45-0.45-0.63-0.14c-0.22-0.05-0.54,0.14-0.67-0.17c-0.09,0.22-0.27,0.17-0.45,0.17c0.13,0.84,0.9,1.55,1.44,2.08
		c0.99,0.79-0.4,1.54-0.49,2.21c0.31,0.48,1.03,0.66,1.47,1.28c0.62,0.18,1.62,0.66,2.07-0.17c-0.4-2.66,2.96-1.15,3.59-2.7
		c0.22-0.08,0.59-0.3,0.82,0c0.75-0.39,0.88-1.32,0.79-2.21c0.32-0.34,0.68-0.62,1.13-0.65c2.02,1.99,3.31-1.6,4.97-2.4
		c3.91-1.36,6.25-5.52,9.7-7.96c-0.85-1.85,1.39-2.38,2.11-3.79c0.81-0.62,1.89,0.56,2.3-0.67c0.62-0.84,1.25,0.22,1.93,0.34
		c0.04-0.83,0.4-1.54,1.11-2.07c-0.71-1.94,1.98-3.66,0.33-5.43c1.21-0.92,1.69-2.11,3.09-3c1.97,0.09,2.6-1.94,4.48-2.07
		l-0.13-1.29c-1.96-2.44,2.57-3.28,2.76-5.53c-0.87-0.88-0.95-2.03-1.45-3.04c0.89-1.11,1.83-2.08,2.87-2.87
		c0.09-0.44-0.09-0.8-0.44-1.11c-0.59-0.92,0.58-1.72,1.25-2.21c1.18-0.71-0.26-1.99,1.18-2.4c0.4-0.48-0.14-0.96-0.19-1.45
		c0.11-0.45,0.73-0.67,0.81-1.11l-0.99-0.62C154.94,60.44,155.84,59.77,156.41,59.42z M74.98,121.78c-0.13,0.13-0.4,0.53-0.49,0.8
		c0.17,0.26,0.45,0.26,0.63,0.48c0.76,0,1.21,0.61,1.92,0.61c1.08-0.27,2.57-0.52,2.79-1.9l-1.8-0.12
		C77.04,122.09,76.06,122.01,74.98,121.78z M71.26,122.45c-0.64-0.26-0.14-0.74-0.19-1.15c-0.4-0.57-1.03-1.38-1.75-1.59
		c-0.81,0.58-1.17,1.46-1.62,2.38c-0.49,1.38,1.12,0.5,1.62,0.98c0.63-0.27,1.7-0.1,2.24-0.18c0.27-0.04,0.63,0.13,0.81-0.14
		C72.24,121.97,71.75,122.64,71.26,122.45z"/>
</g>
</svg>
