<?xml version="1.0" encoding="utf-8"?>
<!-- Generator: Adobe Illustrator 25.2.0, SVG Export Plug-In . SVG Version: 6.00 Build 0)  -->
<svg version="1.1" id="Layer_1" xmlns="http://www.w3.org/2000/svg" xmlns:xlink="http://www.w3.org/1999/xlink" x="0px" y="0px"
	 viewBox="0 0 400.8 85.1" style="enable-background:new 0 0 400.8 85.1;" xml:space="preserve">
<g id="Layer_2_1_">
	<g id="Layer_1-2">
		<path d="M70,53.5C70,34.9,83.4,22,104.3,22s34.4,12.9,34.4,31.6s-13.4,31.6-34.4,31.6S70,72.2,70,53.5z M115.3,53.5
			c0-7.2-4.2-12.5-11-12.5s-11,5.2-11,12.5s4.2,12.5,11,12.5S115.3,60.8,115.3,53.5z M184.9,83.1l-16-24.5v24.5h-23.3V0h23.3v47.4
			l16.4-23.3h26.4l-21.5,27.7l22.2,31.3H184.9z M277.1,59.2h-43.5c0.4,6.2,4.6,9.8,11.3,9.8c4.9,0,8.1-1.4,9.3-4.4h22.6
			c-2.1,12.5-14.6,20.4-31.8,20.4c-21.2,0-34.6-11.3-34.6-31.5c0-19.8,13.5-31.7,34.1-31.7c19.6,0,33.2,11.8,33.2,28.6
			C277.7,53.5,277.5,56.4,277.1,59.2z M254.4,46.4c-0.1-6.4-3.7-10.3-10.2-10.3s-10.3,4.3-10.6,10.3H254.4z M284.9,24.1h23.3v13.2
			c2.1-9.3,9-14.4,17-14.4c1.5,0,2.9,0.1,4.4,0.4v22c-2-0.3-3.9-0.5-5.9-0.5c-8.7,0-15.4,3.8-15.4,18.5v19.8h-23.3V24.1z
			 M332.3,53.7c0-18.2,10.6-31.2,26.8-31.2c9.1,0,15.6,4.4,18.3,10.5v-8.8h23.4v59h-23.4v-8.8c-2.6,6-9.5,10.4-18.4,10.4
			C342.5,84.8,332.3,71.7,332.3,53.7z M378.5,53.7c0-7.1-4.2-12.5-11.2-12.5c-6.6,0-10.9,5.2-10.9,12.5S360.7,66,367.4,66
			C374.4,66,378.5,60.7,378.5,53.7z M23.3,47.1v36H0v-36H23.3z M23.3,31.9c3-4.8,9.3-9.5,18.3-9.5c14,0,21.6,8.4,21.6,24.9v35.7
			H39.4V52c0-5.9-2.7-10.1-8.2-10.1c-3.5-0.1-6.7,2-8,5.2L23.3,31.9z"/>
	</g>
</g>
</svg>
