<svg xmlns="http://www.w3.org/2000/svg" viewBox="0 0 173.24 147.6"><defs><style>.cls-1{fill:#fff;}</style></defs><g id="Layer_2" data-name="Layer 2"><g id="logotype"><path class="cls-1" d="M114.81,7.05a28.85,28.85,0,1,0,0,43.6v4.7h10v-53h-10ZM95.93,47.72a18.88,18.88,0,1,1,18.88-18.87A18.88,18.88,0,0,1,95.93,47.72Z"/><polygon class="cls-1" points="171.74 15.03 159.06 15.03 159.06 2.34 149.09 2.34 149.09 15.03 136.41 15.03 136.41 25 149.09 25 149.09 37.68 159.06 37.68 159.06 25 171.74 25 171.74 15.03"/><polygon class="cls-1" points="45.7 23.86 12.73 23.86 14.98 2.34 4.95 2.34 1.66 33.83 45.7 33.83 45.7 55.35 55.67 55.35 55.67 7.64 45.7 7.64 45.7 23.86"/><path class="cls-1" d="M95.93,147.6a30.35,30.35,0,1,1,17.38-55.22V89.25h13v56h-13v-3.14A30.34,30.34,0,0,1,95.93,147.6Zm0-57.69a27.35,27.35,0,1,0,17.89,48l2.49-2.15v6.49h7v-50h-7v6.49l-2.49-2.15A27.3,27.3,0,0,0,95.93,89.91Zm0,47.72a20.38,20.38,0,1,1,20.38-20.38A20.4,20.4,0,0,1,95.93,137.63Zm0-37.75a17.38,17.38,0,1,0,17.38,17.37A17.39,17.39,0,0,0,95.93,99.88Z"/><path class="cls-1" d="M160.56,127.59h-13V114.91H134.91v-13h12.68V89.25h13v12.68h12.68v13H160.56Zm-10-3h7V111.91h12.68v-7H157.56V92.25h-7v12.68H137.91v7h12.68Z"/><path class="cls-1" d="M57.17,145.26h-13V123.74H0L3.6,89.25h13L14.4,110.77H44.2V94.55h13Zm-10-3h7V97.55h-7v16.22H11.07l2.24-21.52h-7l-3,28.49H47.2Z"/></g></g></svg>