<?xml version="1.0" encoding="UTF-8"?>
<svg id="Layer_2" data-name="Layer 2" xmlns="http://www.w3.org/2000/svg" viewBox="0 0 58.8 16.17">
  <defs>
    <style>
      .cls-1 {
        fill: #fff;
      }

      .cls-2 {
        fill: none;
        isolation: isolate;
      }
    </style>
  </defs>
  <g id="Layer_1-2" data-name="Layer 1">
    <g id="DFE" class="cls-2">
      <g class="cls-2">
        <path class="cls-1" d="m9.25,0c1.82,0,3.33.22,4.55.65,1.22.43,2.19,1.02,2.91,1.76.72.74,1.24,1.6,1.55,2.56.31.97.46,1.98.46,3.05s-.17,2.09-.51,3.08c-.34.98-.88,1.85-1.62,2.61-.74.76-1.72,1.36-2.93,1.8s-2.68.66-4.41.66H0V0h9.25ZM3.33,13.33h5.85c1.2,0,2.2-.15,2.99-.44.79-.29,1.42-.69,1.89-1.19.47-.5.8-1.07,1-1.7.2-.63.3-1.29.3-1.98s-.1-1.33-.3-1.95c-.2-.62-.53-1.17-1-1.65-.47-.48-1.1-.87-1.89-1.15-.79-.28-1.79-.42-2.99-.42H3.33v10.48Z"/>
        <path class="cls-1" d="m39,0v2.77h-12.45v4.35h10.2v2.6h-10.2v6.45h-3.33V0h15.78Z"/>
        <path class="cls-1" d="m46.33,9.42v3.97h12.47v2.78h-15.8V0h15.78v2.77h-12.45v4.03h10.2v2.62h-10.2Z"/>
      </g>
    </g>
  </g>
</svg>