<svg xmlns="http://www.w3.org/2000/svg" width="39.138" height="22.196" viewBox="0 0 39.138 22.196">
  <path id="Path_7454" data-name="Path 7454" d="M11.049.246A11.1,11.1,0,1,1,0,11.344,11.076,11.076,0,0,1,11.049.246ZM28.727.884c3,0,5.5,4.714,5.5,10.46,0,5.795-2.456,10.46-5.5,10.46s-5.5-4.665-5.5-10.46S25.683.884,28.727.884Zm8.446,1.08c1.129,0,1.964,4.223,1.964,9.379s-.884,9.379-1.964,9.379S35.227,16.584,35.21,11.5v-.154C35.209,6.187,36.093,1.964,37.174,1.964Z" transform="translate(0 -0.246)" fill="#fff"/>
</svg>
