<svg xmlns="http://www.w3.org/2000/svg" width="50" height="50" viewBox="0 0 50 50">
  <g id="medium" transform="translate(-380 -4727)">
    <circle id="Ellipse_97" data-name="Ellipse 97" cx="25" cy="25" r="25" transform="translate(380 4727)" fill="#fff"/>
    <g id="Group_5156" data-name="Group 5156" transform="translate(368.873 4706)">
      <path id="Path_7469" data-name="Path 7469" d="M26.925,39.85a6.294,6.294,0,0,0-3.773,5.643c-.34,4.861,2.855,8.09,7.614,7.716a6.778,6.778,0,0,0,5.507-3.671,7.832,7.832,0,0,0-.408-7.41A8,8,0,0,0,30.052,39,8.657,8.657,0,0,0,26.925,39.85Z"/>
      <path id="Path_7470" data-name="Path 7470" d="M68.924,41.24c-1.428,1.428-2.005,3.467-1.8,6.526.34,4.861,2.889,7.41,5.1,5,1.292-1.394,1.8-3.059,1.8-5.711-.034-2.787-.85-5.269-2.107-6.254C70.726,39.881,70.216,39.949,68.924,41.24Z" transform="translate(-29.015 -0.779)"/>
      <path id="Path_7471" data-name="Path 7471" d="M91.008,43.926c-.544.986-.544,8.872,0,10.2.986,2.379,1.768-.068,1.734-5.337-.034-3.977-.238-5.3-.884-5.507C91.654,43.212,91.28,43.484,91.008,43.926Z" transform="translate(-44.538 -2.818)"/>
    </g>
  </g>
</svg>
