<svg xmlns="http://www.w3.org/2000/svg" width="200.763" height="32" viewBox="0 0 200.763 32">
  <g id="Camada_1" transform="translate(0.006)">
    <g id="Group_5162" data-name="Group 5162" transform="translate(-0.006)">
      <g id="Group_5160" data-name="Group 5160" transform="translate(73.47 10.85)">
        <path id="Path_7493" data-name="Path 7493" d="M280.115,46.46V64.967H276.4V52.93l-4.957,12.037h-2.809L263.651,52.93V64.967H259.94V46.46h4.217l5.887,13.762,5.887-13.762h4.189Z" transform="translate(-259.94 -44.179)" fill="#fff"/>
        <path id="Path_7494" data-name="Path 7494" d="M353.1,59.963V74.651h-3.739V72.794a4.9,4.9,0,0,1-1.868,1.5,5.816,5.816,0,0,1-2.507.543,6.224,6.224,0,0,1-3.05-.729,5.146,5.146,0,0,1-2.083-2.148,7.105,7.105,0,0,1-.755-3.38V59.96h3.711v8.086a3.8,3.8,0,0,0,.876,2.691,3.1,3.1,0,0,0,2.385.941,3.165,3.165,0,0,0,2.414-.941,3.812,3.812,0,0,0,.876-2.691V59.96H353.1Z" transform="translate(-316.727 -53.864)" fill="#fff"/>
        <path id="Path_7495" data-name="Path 7495" d="M400.611,42.52V62.141H396.9V42.52Z" transform="translate(-358.19 -41.353)" fill="#fff"/>
        <path id="Path_7496" data-name="Path 7496" d="M419.639,53.794V60.9A1.4,1.4,0,0,0,420,61.974a1.761,1.761,0,0,0,1.207.331h1.724v3.129h-2.335q-4.693,0-4.695-4.562v-7.08h-1.75v-3.05h1.75V47.11h3.739v3.632h3.287v3.05h-3.287Z" transform="translate(-370.565 -44.645)" fill="#fff"/>
        <path id="Path_7497" data-name="Path 7497" d="M449.23,42.115a2.177,2.177,0,0,1,0-3.1,2.449,2.449,0,0,1,3.262,0,2.177,2.177,0,0,1,0,3.1,2.449,2.449,0,0,1-3.262,0Zm3.459,2.374V59.178h-3.711V44.489Z" transform="translate(-395.264 -38.39)" fill="#fff"/>
        <path id="Path_7498" data-name="Path 7498" d="M468.937,62.712a6.636,6.636,0,0,1,2.572-2.651,7.445,7.445,0,0,1,3.765-.941,7.25,7.25,0,0,1,4.522,1.365,6.646,6.646,0,0,1,2.4,3.833h-4a2.93,2.93,0,0,0-1.074-1.5,3.12,3.12,0,0,0-1.868-.543,3.062,3.062,0,0,0-2.518,1.153,5.1,5.1,0,0,0-.927,3.276,5.017,5.017,0,0,0,.927,3.247,3.062,3.062,0,0,0,2.518,1.153,2.815,2.815,0,0,0,2.942-2.015h4a6.776,6.776,0,0,1-2.414,3.793,7.1,7.1,0,0,1-4.508,1.4,7.445,7.445,0,0,1-3.765-.941,6.636,6.636,0,0,1-2.572-2.651,9.053,9.053,0,0,1,0-7.982Z" transform="translate(-409.202 -53.261)" fill="#fff"/>
        <path id="Path_7499" data-name="Path 7499" d="M534.418,47.969a5.028,5.028,0,0,1,2.029,2.148,7.374,7.374,0,0,1,.729,3.409v8.618h-3.711V54.029a3.8,3.8,0,0,0-.876-2.691A3.1,3.1,0,0,0,530.2,50.4a3.2,3.2,0,0,0-2.425.941,3.764,3.764,0,0,0-.887,2.691v8.114H523.18V42.52h3.711v6.761a4.845,4.845,0,0,1,1.908-1.5,6.325,6.325,0,0,1,2.651-.543,5.97,5.97,0,0,1,2.97.729Z" transform="translate(-448.779 -41.353)" fill="#fff"/>
        <path id="Path_7500" data-name="Path 7500" d="M578,62.708a6.5,6.5,0,0,1,2.414-2.651,6.422,6.422,0,0,1,3.409-.927,5.965,5.965,0,0,1,2.877.664,5.806,5.806,0,0,1,1.976,1.67V59.37h3.739V74.059H588.68V71.911a5.511,5.511,0,0,1-1.976,1.71,6.062,6.062,0,0,1-2.9.675,6.24,6.24,0,0,1-3.38-.955,6.691,6.691,0,0,1-2.414-2.691,8.627,8.627,0,0,1-.888-3.991,8.471,8.471,0,0,1,.888-3.951Zm10.141,1.685a3.736,3.736,0,0,0-1.433-1.484,3.83,3.83,0,0,0-1.936-.517,3.725,3.725,0,0,0-3.327,1.976,4.617,4.617,0,0,0-.543,2.3,4.771,4.771,0,0,0,.543,2.32,3.887,3.887,0,0,0,1.433,1.523,3.643,3.643,0,0,0,1.9.531,3.875,3.875,0,0,0,1.936-.517,3.755,3.755,0,0,0,1.433-1.484,5.332,5.332,0,0,0,0-4.641Z" transform="translate(-487.474 -53.268)" fill="#fff"/>
        <path id="Path_7501" data-name="Path 7501" d="M638.64,42.115a2.177,2.177,0,0,1,0-3.1,2.449,2.449,0,0,1,3.262,0,2.177,2.177,0,0,1,0,3.1,2.449,2.449,0,0,1-3.262,0Zm3.459,2.374V59.178h-3.711V44.489Z" transform="translate(-531.14 -38.39)" fill="#fff"/>
        <path id="Path_7502" data-name="Path 7502" d="M673.179,60.876A6.352,6.352,0,0,1,674.8,65.5v8.618h-3.711V66.006a3.8,3.8,0,0,0-.876-2.691,3.1,3.1,0,0,0-2.385-.941,3.2,3.2,0,0,0-2.425.941,3.764,3.764,0,0,0-.888,2.691v8.114H660.8V59.432h3.711v1.829a5.127,5.127,0,0,1,1.9-1.5,5.876,5.876,0,0,1,2.532-.543,5.669,5.669,0,0,1,4.242,1.656Z" transform="translate(-547.503 -53.333)" fill="#fff"/>
      </g>
      <g id="Group_5161" data-name="Group 5161">
        <path id="Path_7503" data-name="Path 7503" d="M42.857,4.8a3.208,3.208,0,0,1,2.289.95l3.476,3.476a2.531,2.531,0,0,0,1.778.738,2.38,2.38,0,0,0,1.563-.579,2.424,2.424,0,0,0,.831-1.826,2.394,2.394,0,0,0-.709-1.71L48.662,2.425a8.212,8.212,0,0,0-11.611,0L13.929,25.539a5.446,5.446,0,0,1-3.875,1.608h0a5.282,5.282,0,0,1-3.708-9.022l1.034-1.034,1.967,1.967V11.535H1.827l2.134,2.134-.933.933A10.233,10.233,0,0,0,2.9,29.021a10.143,10.143,0,0,0,14.366.023L40.565,5.749a3.22,3.22,0,0,1,2.289-.95Z" transform="translate(0.006 -0.014)" fill="#fff"/>
        <path id="Path_7504" data-name="Path 7504" d="M147.065,41.818,145.344,40.1l2.137-2.137h-7.524v7.524l1.967-1.967,1.823,1.823a5.266,5.266,0,0,1,1.552,3.748,5.347,5.347,0,0,1-1.645,3.841,5.207,5.207,0,0,1-3.612,1.433,5.436,5.436,0,0,1-3.875-1.608L123.813,40.4l-3.423,3.423,12.436,12.436a10.143,10.143,0,0,0,14.366-.023,10.233,10.233,0,0,0-.124-14.42Z" transform="translate(-86.362 -27.231)" fill="#fff"/>
        <path id="Path_7505" data-name="Path 7505" d="M36.951,10.1a2.38,2.38,0,0,0,1.563.579,2.531,2.531,0,0,0,1.778-.738L44.5,5.732a3.234,3.234,0,0,1,4.579,0l3.106,3.106,3.423-3.423L52.592,2.4a8.212,8.212,0,0,0-11.608.006L36.829,6.56a2.419,2.419,0,0,0,.122,3.536Z" transform="translate(-25.909 0)" fill="#fff"/>
      </g>
    </g>
  </g>
</svg>
