<svg xmlns="http://www.w3.org/2000/svg" width="215.279" height="21.938" viewBox="0 0 215.279 21.938">
  <g id="Group_5231" data-name="Group 5231" transform="translate(-132.146 -2593.138)">
    <path id="occam-logomark" d="M25.491,0H8.044c-2,0-3.124,1.627-3.656,3.667L.076,17.987a1.67,1.67,0,0,0-.069.633,3.666,3.666,0,0,0,3.64,3.318H29.473A3.644,3.644,0,0,0,33.116,18.6a1.687,1.687,0,0,0-.057-.587L29.148,3.667C28.567,1.766,27.522,0,25.491,0ZM4,19.829c-.073.073-.175-.241-.252-.535a1.675,1.675,0,0,1,.01-.875L8.044,3.1C8.377,1.766,8.83,1.026,9.885.783h13.3Zm25.469-.994A2.379,2.379,0,0,1,27.1,21.217H8.733a.345.345,0,0,1-.24-.592L21.12,8.274a7.867,7.867,0,0,0,2.063-5.422c0-1.1.372-1.748.822-1.958A2.741,2.741,0,0,1,25.491,3.1Z" transform="translate(132.146 2593.138)" fill="#fff"/>
    <g id="Group_5217" data-name="Group 5217" transform="translate(185.035 2593.138)">
      <path id="Path_7533" data-name="Path 7533" d="M29.969,11.777A3.611,3.611,0,0,0,26.292,8.1H4.477A3.687,3.687,0,0,0,.8,11.777V26.361a3.611,3.611,0,0,0,3.677,3.677H26.292a3.611,3.611,0,0,0,3.677-3.677V11.777ZM6.928,29.18A2.327,2.327,0,0,1,4.6,26.851V11.164A2.327,2.327,0,0,1,6.928,8.835H23.963a2.327,2.327,0,0,1,2.329,2.329V26.851a2.327,2.327,0,0,1-2.329,2.329H6.928Z" transform="translate(-0.8 -8.1)" fill="#fff"/>
      <path id="Path_7534" data-name="Path 7534" d="M55.269,22.684v3.677a3.611,3.611,0,0,1-3.677,3.677H29.777A3.585,3.585,0,0,1,26.1,26.484V11.777A3.611,3.611,0,0,1,29.777,8.1H55.269v.735l-23.163.123a2.254,2.254,0,0,0-2.329,2.329V26.974A2.327,2.327,0,0,0,32.105,29.3H49.263a2.327,2.327,0,0,0,2.329-2.329v-4.29Z" transform="translate(4.907 -8.1)" fill="#fff"/>
      <path id="Path_7535" data-name="Path 7535" d="M80.446,22.684v3.677a3.611,3.611,0,0,1-3.677,3.677H55.077A3.585,3.585,0,0,1,51.4,26.484V11.777A3.611,3.611,0,0,1,55.077,8.1H80.569v.735l-23.163.123a2.254,2.254,0,0,0-2.329,2.329V26.974A2.327,2.327,0,0,0,57.405,29.3H74.441a2.327,2.327,0,0,0,2.329-2.329v-4.29Z" transform="translate(10.614 -8.1)" fill="#fff"/>
      <path id="Path_7536" data-name="Path 7536" d="M76.6,8.1v.735H97.68L76.6,29.915h5.147l13.972-13.6A7.683,7.683,0,0,0,97.8,10.919c0-2.819,4.412-2.819,4.412,0v19h3.554V11.654A3.481,3.481,0,0,0,102.215,8.1Z" transform="translate(16.299 -8.1)" fill="#fff"/>
      <path id="Path_7537" data-name="Path 7537" d="M130.333,8.1a3.338,3.338,0,0,0-2.574,1.1l-2.7,2.819a7.031,7.031,0,0,0-1.961,5.025,1.966,1.966,0,1,1-3.922,0,7.031,7.031,0,0,0-1.961-5.025L114.4,9.2a3.527,3.527,0,0,0-2.574-1.1h-6.25a3.611,3.611,0,0,0-3.677,3.677V29.915h3.677V11.164a2.367,2.367,0,0,1,4.044-1.716l9.314,9.314a3.107,3.107,0,0,0,4.412,0l9.314-9.314a2.394,2.394,0,0,1,4.044,1.716V29.915h3.677V11.777A3.611,3.611,0,0,0,136.706,8.1Z" transform="translate(22.006 -8.1)" fill="#fff"/>
    </g>
  </g>
</svg>
