<?xml version="1.0" encoding="utf-8"?>
<!-- Generator: Adobe Illustrator 23.0.1, SVG Export Plug-In . SVG Version: 6.00 Build 0)  -->
<svg version="1.1" id="Layer_1" xmlns="http://www.w3.org/2000/svg" xmlns:xlink="http://www.w3.org/1999/xlink" x="0px" y="0px"
	 viewBox="0 0 21.2 24.9" style="enable-background:new 0 0 21.2 24.9;" xml:space="preserve">
<style type="text/css">
	.st0{fill:#FFFFFF;}
	.st1{fill:#14CE58;}
</style>
<circle class="st0" cx="10.6" cy="12.7" r="7.3"/>
<g id="Group_458" transform="translate(-0.002)">
	<path id="Path_906" class="st1" d="M10.6,7.7c-2.6,0-4.7,2.1-4.7,4.7c0,2.6,2.1,4.7,4.7,4.7s4.7-2.1,4.7-4.7v0
		C15.3,9.8,13.2,7.7,10.6,7.7z M13.4,11.6L10,15c-0.3,0.3-0.7,0.3-1,0c0,0,0,0,0,0l-1.3-1.3c-0.3-0.3-0.3-0.7,0-1
		c0.3-0.3,0.7-0.3,1,0l0.8,0.8l2.9-2.9c0.3-0.3,0.7-0.3,1,0C13.7,10.8,13.7,11.3,13.4,11.6L13.4,11.6z"/>
	<path id="Path_907" class="st1" d="M21.2,6.8L21.2,6.8c0-0.3,0-0.5,0-0.8c0-1.4-1.1-2.5-2.5-2.6c-2.6-0.1-5.1-1.1-7-2.9l0,0
		c-0.6-0.6-1.6-0.6-2.2,0l0,0c-1.9,1.8-4.4,2.9-7,2.9C1.2,3.5,0.1,4.6,0.1,6c0,0.3,0,0.5,0,0.8v0C0,9.7-0.1,13.3,1.1,16.6
		c0.6,1.8,1.7,3.4,3,4.7c1.7,1.6,3.7,2.8,5.9,3.5c0.1,0,0.2,0.1,0.2,0.1c0.2,0,0.5,0,0.7,0c0.1,0,0.2,0,0.2-0.1
		c2.2-0.7,4.2-1.9,5.9-3.5c1.3-1.3,2.4-2.9,3-4.7C21.3,13.3,21.2,9.7,21.2,6.8z M10.6,18.7c-3.4,0-6.2-2.8-6.2-6.2
		c0-3.4,2.8-6.2,6.2-6.2c3.4,0,6.2,2.8,6.2,6.2v0C16.8,15.9,14,18.7,10.6,18.7L10.6,18.7z"/>
</g>
</svg>
