<svg xmlns="http://www.w3.org/2000/svg" viewBox="0 0 62.87 21.3"><defs><style>.cls-1{fill:#fff;}</style></defs><title>signature</title><g id="Layer_2" data-name="Layer 2"><g id="Layer_1-2" data-name="Layer 1"><path class="cls-1" d="M19.56,10.61a11.5,11.5,0,0,0-3.45-.43c-.24.56-.47,1.13-.67,1.7s-.45,1.3-.63,2c-.09.31-.18.63-.24.95a2.53,2.53,0,0,1,0,.38v.09a.89.89,0,0,1,.42.54c0,.25-.09.48-.38.38-1.23-.45-1.21-1.62-.94-2.7a25.54,25.54,0,0,1,1.08-3.27,36.84,36.84,0,0,0-4.69.44l-1.12.19A42.37,42.37,0,0,0,4.4,18.35c-.25.52-1.26-.34-1.06-.78A43.9,43.9,0,0,1,7,11.26a40.16,40.16,0,0,0-6,2c-.45.19-1.3-.84-.77-1.06A39.27,39.27,0,0,1,8,9.81Q8.86,8.7,9.76,7.65A42.88,42.88,0,0,1,13.9,3.48a18.39,18.39,0,0,1,5-3.46c.31-.12.75.29.85.54.51,1.22-.38,2.56-.88,3.66C18.3,5.48,17.69,6.72,17.1,8c-.18.38-.36.77-.53,1.15a11.12,11.12,0,0,1,2.69.44,1,1,0,0,1,.67.67C20,10.49,19.84,10.7,19.56,10.61ZM17.12,4.93c.32-.66.63-1.32.93-2,.16-.36.32-.73.47-1.1a2.17,2.17,0,0,0,.12-.26,22.47,22.47,0,0,0-3.94,3,40.92,40.92,0,0,0-4,4c-.26.29-.5.59-.74.88a38.24,38.24,0,0,1,4.54-.37h.66C15.79,7.69,16.46,6.31,17.12,4.93Z"/><path class="cls-1" d="M29.16,10.69a30.76,30.76,0,0,0-3.06,1.73,7.42,7.42,0,0,1-2,1.1,1.09,1.09,0,0,1-1.27-1.21,4.45,4.45,0,0,1,.43-1.22,10.9,10.9,0,0,0-3.08,2.55c-.34.41-1.09-.5-1-.86a12.68,12.68,0,0,1,1.3-3c.28-.51,1.29.37,1.05.78l0,.07a11.34,11.34,0,0,1,3-1.46c.45-.14,1.12.59.87,1-.36.58-.67,1.17-1,1.77,1.43-.72,3-1.36,4.39-2C29.2,9.73,29.68,10.44,29.16,10.69Z"/><path class="cls-1" d="M39.59,5.46c0,.3-.31.32-.53.2A8.39,8.39,0,0,0,35.6,4.9c-1.17-.08-2.34-.1-3.51-.08H32c-1.8,4-3.31,8.11-3.24,12.51,0,.65-1.08-.08-1.09-.55C27.63,12.6,29,8.66,30.6,4.87a44.3,44.3,0,0,0-5.85.72c-.49.1-1.28-1-.78-1.06a45.09,45.09,0,0,1,7.14-.79c.43-1,.88-1.89,1.33-2.82.25-.52,1.26.34,1.06.78q-.49,1-1,2c2.17,0,4.58,0,6.5,1C39.27,4.84,39.62,5.16,39.59,5.46Z"/><path class="cls-1" d="M41.7,10.7a22.6,22.6,0,0,1-3.88,2.07,1.26,1.26,0,0,1-1.74-1,3,3,0,0,1,.25-1.22,8,8,0,0,0,.29-.82,17.45,17.45,0,0,0-4.41,3.52c-.15.17-.47,0-.61-.09-.89-.7-.76-1.58-.42-2.54.42-1.19.88-2.36,1.39-3.5A45.15,45.15,0,0,1,36.27.44c.27-.4,1.25.5.95,1A43.93,43.93,0,0,0,34.05,7c-.46,1-.88,1.95-1.27,2.95-.17.43-.34.88-.49,1.32a19.06,19.06,0,0,1,3.36-2.48c.61-.35,1.14-.62,1.72-.07a1.58,1.58,0,0,1,.36,1.58c-.1.46-.31.89-.45,1.34a20.61,20.61,0,0,0,3.94-1.69C41.63,9.69,42.21,10.41,41.7,10.7Z"/><path class="cls-1" d="M42.89,12.84c-.61.78-1.57,1.14-2.32.3-1.39-1.55.92-3.81,2.23-4.46.4-.2,1.17.65.87,1a.79.79,0,0,1,.06.22A4.07,4.07,0,0,1,42.89,12.84Zm-.29-2.45a5,5,0,0,0-.55.58,4,4,0,0,0-.53.83,4.08,4.08,0,0,0-.17.42,1.85,1.85,0,0,0,0,.25c.15-.13.3-.21.45-.36a3.45,3.45,0,0,0,.84-1.72Z"/><path class="cls-1" d="M53.72,10.69a30.76,30.76,0,0,0-3.06,1.73,7.14,7.14,0,0,1-2,1.1,1.08,1.08,0,0,1-1.26-1.21,3.88,3.88,0,0,1,.43-1.22,10.77,10.77,0,0,0-3.08,2.55c-.35.41-1.1-.5-1-.86a12.68,12.68,0,0,1,1.3-3c.29-.51,1.29.37,1.06.78l0,.07a11.34,11.34,0,0,1,3-1.46c.45-.14,1.12.59.86,1a19,19,0,0,0-1,1.77c1.42-.72,3-1.36,4.38-2C53.76,9.73,54.24,10.44,53.72,10.69Z"/><path class="cls-1" d="M62.69,10.74a27.73,27.73,0,0,0-5.15,4.15,37,37,0,0,1-3.87,6.3c-.29.38-.94-.37-1-.62a4.06,4.06,0,0,1,1.08-3.5A25.06,25.06,0,0,1,56,14.56l.58-.58c.47-1,.89-2,1.27-3a15.25,15.25,0,0,1-1.38,1c-1,.69-2.13,1.45-3.38.89a1,1,0,0,1-.56-.75,5.36,5.36,0,0,1,1.16-2.91c.32-.39,1.29.54,1,.95A4.53,4.53,0,0,0,53.71,12a3.76,3.76,0,0,0,1-.49,17,17,0,0,0,1.44-.95,21.77,21.77,0,0,0,2.52-2.18c.37-.37,1.11.48,1,.87-.26.89-.56,1.78-.89,2.65a19.81,19.81,0,0,1,3.28-2C62.53,9.7,63.19,10.44,62.69,10.74Z"/></g></g></svg>