<svg xmlns="http://www.w3.org/2000/svg" width="20.5" height="20.5" viewBox="0 0 20.5 20.5">
  <path id="Path_7457" data-name="Path 7457" d="M9.813,15.9,9,18.75,8.187,15.9a4.5,4.5,0,0,0-3.09-3.09L2.25,12,5.1,11.187A4.5,4.5,0,0,0,8.186,8.1L9,5.25,9.813,8.1a4.5,4.5,0,0,0,3.09,3.09L15.75,12l-2.846.813a4.5,4.5,0,0,0-3.09,3.09Zm8.446-7.189L18,9.75l-.259-1.035a3.375,3.375,0,0,0-2.455-2.456L14.25,6l1.036-.259a3.375,3.375,0,0,0,2.455-2.456L18,2.25l.259,1.035a3.375,3.375,0,0,0,2.456,2.456L21.75,6l-1.035.259a3.375,3.375,0,0,0-2.456,2.456ZM16.894,20.567,16.5,21.75l-.394-1.183a2.25,2.25,0,0,0-1.423-1.423L13.5,18.75l1.183-.394a2.25,2.25,0,0,0,1.423-1.423L16.5,15.75l.394,1.183a2.25,2.25,0,0,0,1.423,1.423l1.183.394-1.183.394A2.25,2.25,0,0,0,16.894,20.567Z" transform="translate(-1.75 -1.75)" fill="none" stroke="#fff" stroke-linecap="round" stroke-linejoin="round" stroke-width="1"/>
</svg>
