<svg id="stripe-seeklogo.com" xmlns="http://www.w3.org/2000/svg" width="29.982" height="12.476" viewBox="0 0 29.982 12.476">
  <path id="Path_24909" data-name="Path 24909" d="M2.107,4.889c0-.325.267-.45.708-.45a4.645,4.645,0,0,1,2.065.533V3.015a5.492,5.492,0,0,0-2.065-.383C1.124,2.632,0,3.515,0,4.989c0,2.3,3.165,1.932,3.165,2.923,0,.383-.333.508-.8.508A5.184,5.184,0,0,1,.092,7.754V9.736a5.773,5.773,0,0,0,2.274.475c1.732,0,2.923-.858,2.923-2.349C5.28,5.38,2.107,5.821,2.107,4.889ZM7.737.966,5.7,1.4,5.7,8.07a2.093,2.093,0,0,0,2.157,2.14,3.216,3.216,0,0,0,1.457-.275V8.245c-.266.108-1.582.491-1.582-.741V4.547H9.311V2.773H7.729ZM11.9,3.39l-.133-.616h-1.8V10.06h2.082V5.122a1.469,1.469,0,0,1,1.582-.433V2.773A1.414,1.414,0,0,0,11.9,3.39Zm2.24-.616h2.09V10.06h-2.09Zm0-.633,2.09-.45V0l-2.09.441Zm6.438.491a2.353,2.353,0,0,0-1.632.65l-.108-.516H17.006v9.711l2.082-.441L19.1,9.677a2.345,2.345,0,0,0,1.474.525c1.491,0,2.848-1.2,2.848-3.839C23.411,3.948,22.036,2.632,20.579,2.632Zm-.5,5.738a1.245,1.245,0,0,1-.983-.391l-.008-3.09a1.24,1.24,0,0,1,.991-.408c.758,0,1.283.849,1.283,1.94C21.362,7.537,20.846,8.37,20.079,8.37Zm9.9-1.924c0-2.132-1.033-3.814-3.006-3.814s-3.181,1.682-3.181,3.8c0,2.507,1.416,3.773,3.448,3.773a4.644,4.644,0,0,0,2.307-.541V8a4.422,4.422,0,0,1-2.04.458c-.808,0-1.524-.283-1.616-1.266h4.073C29.965,7.079,29.982,6.646,29.982,6.446Zm-4.114-.791c0-.941.575-1.333,1.1-1.333.508,0,1.049.391,1.049,1.333Z" fill="#6772e5"/>
</svg>
