<!--?xml version="1.0" encoding="utf-8"?-->
<!-- Generator: Adobe Illustrator 22.0.1, SVG Export Plug-In . SVG Version: 6.00 Build 0)  -->
<svg version="1.1" id="eagle-cup-thumbnail" xmlns="http://www.w3.org/2000/svg" xmlns:xlink="http://www.w3.org/1999/xlink" width="750" x="0px" y="0px" viewBox="0 0 750 500" style="" xml:space="preserve">
<style type="text/css">
	.st0{fill:#997C3A;}
	.st1{fill:#BF9B52;}
	.st2{fill:none;stroke:#543F16;stroke-miterlimit:10;}
</style>
<path id="background-static" class="st0 OQgyWmzE_0" width="750" height="500" d="M0 0 L750 0 L750 500 L0 500 Z"></path>
<path id="eagle-full-static" class="st1 OQgyWmzE_1" d="M373.1,332.6c-19.1-6.9-35.4-19.6-46.7-36c-0.9,5.2-1.4,10.5-1.4,16
	c0,17.5,4.7,33.8,12.8,48c-34-15-57.8-48.9-57.8-88.5c0-4.1,0.3-8.1,0.8-12.1c-11.5,8.2-21,18.9-28,31.2c-0.3,0.6-0.6,1.1-0.9,1.6
	c-1.5-6.7-2.3-13.7-2.3-20.8c0-49.7,37.5-90.5,85.7-96c3.6-0.4,7.3-0.7,11-0.7c5.2,0,10.2,0.5,15.2,1.3
	c21.3,3.4,40.2,13.7,54.5,28.6c2.5,0.5,4.9,1.3,7.3,2c17.6,5.7,31.5,19.1,37.7,36.4c2.3,6.4,3.8,13.1,3.8,20.2
	c0,3.1-0.5,6.1-0.9,9.1c-1.7-10.7-10.9-19-22.1-19c-1.2,0-2.4,0.2-3.5,0.4c0,0-2.5,0.6-3.9,1c-7.9,2.1-16.2,3.3-24.7,3.3
	c-3.9,0-7.7-0.3-11.5-0.7c-4.8,5-10,9.6-15.8,13.5c-4.4,2.3-7.5,4.6-7.5,4.6c-8.2,6.4-13.9,17.8-14.5,28.9
	C360.4,316.1,365.4,325.9,373.1,332.6"></path>
<path class="st2 OQgyWmzE_2" d="M442.9,272.1c0,53.4-43.3,96.7-96.7,96.7c-53.4,0-96.7-43.3-96.7-96.7c0-53.4,43.3-96.7,96.7-96.7
	C399.6,175.4,442.9,218.7,442.9,272.1z"></path>
<path class="st2 OQgyWmzE_3" d="M473.3,272.1c0,53.4-43.3,96.7-96.7,96.7c-53.4,0-96.7-43.3-96.7-96.7c0-53.4,43.3-96.7,96.7-96.7
	C430,175.4,473.3,218.7,473.3,272.1z"></path>
<path class="st2 OQgyWmzE_4" d="M518.2,312.6c0,53.4-43.3,96.7-96.7,96.7c-53.4,0-96.7-43.3-96.7-96.7c0-53.4,43.3-96.7,96.7-96.7
	C474.9,215.9,518.2,259.2,518.2,312.6z"></path>
<path class="st2 OQgyWmzE_5" d="M506.6,162.1c0,53.4-43.3,96.7-96.7,96.7c-53.4,0-96.7-43.3-96.7-96.7c0-53.4,43.3-96.7,96.7-96.7
	C463.4,65.4,506.6,108.7,506.6,162.1z"></path>
<path class="st2 OQgyWmzE_6" d="M425.1,191.5c0,53.4-43.3,96.7-96.7,96.7c-53.4,0-96.7-43.3-96.7-96.7c0-53.4,43.3-96.7,96.7-96.7
	C381.8,94.8,425.1,138.1,425.1,191.5z"></path>
<path class="st2 OQgyWmzE_7" d="M502.6,241.8c0,53.4-43.3,96.7-96.7,96.7c-53.4,0-96.7-43.3-96.7-96.7c0-53.4,43.3-96.7,96.7-96.7
	C459.3,145.1,502.6,188.4,502.6,241.8z"></path>
<path class="st2 OQgyWmzE_8" d="M433.7,338.5c0,53.4-43.3,96.7-96.7,96.7c-53.4,0-96.7-43.3-96.7-96.7c0-53.4,43.3-96.7,96.7-96.7
	C390.4,241.8,433.7,285.1,433.7,338.5z"></path>
<path class="st2 OQgyWmzE_9" d="M446,289.7c0,53.4-43.3,96.7-96.7,96.7c-53.4,0-96.7-43.3-96.7-96.7c0-53.4,43.3-96.7,96.7-96.7
	C402.8,193,446,236.3,446,289.7z"></path>
<path class="st2 OQgyWmzE_10" d="M465.7,265c0,33-26.7,59.7-59.7,59.7S346.2,298,346.2,265c0-33,26.8-59.7,59.8-59.7S465.7,232,465.7,265z"></path>
<path class="st2 OQgyWmzE_11" d="M433.7,305c0,20.3-16.4,36.7-36.7,36.7c-20.3,0-36.7-16.4-36.7-36.7c0-20.3,16.4-36.7,36.7-36.7
	C417.3,268.3,433.7,284.7,433.7,305z"></path>
<path class="st2 OQgyWmzE_12" d="M464.6,276.6c0,12.4-10.1,22.5-22.5,22.5c-12.4,0-22.5-10.1-22.5-22.5c0-12.4,10.1-22.5,22.5-22.5
	C454.6,254.1,464.6,264.2,464.6,276.6z"></path>
<style>.OQgyWmzE_0{stroke-dasharray:2500 2502;stroke-dashoffset:2501;animation:OQgyWmzE_draw_0 3810ms ease-in 0ms infinite,OQgyWmzE_fade 3810ms linear 0ms infinite;}.OQgyWmzE_1{stroke-dasharray:807 809;stroke-dashoffset:808;animation:OQgyWmzE_draw_1 3810ms ease-in 0ms infinite,OQgyWmzE_fade 3810ms linear 0ms infinite;}.OQgyWmzE_2{stroke-dasharray:608 610;stroke-dashoffset:609;animation:OQgyWmzE_draw_2 3810ms ease-in 0ms infinite,OQgyWmzE_fade 3810ms linear 0ms infinite;}.OQgyWmzE_3{stroke-dasharray:608 610;stroke-dashoffset:609;animation:OQgyWmzE_draw_3 3810ms ease-in 0ms infinite,OQgyWmzE_fade 3810ms linear 0ms infinite;}.OQgyWmzE_4{stroke-dasharray:608 610;stroke-dashoffset:609;animation:OQgyWmzE_draw_4 3810ms ease-in 0ms infinite,OQgyWmzE_fade 3810ms linear 0ms infinite;}.OQgyWmzE_5{stroke-dasharray:608 610;stroke-dashoffset:609;animation:OQgyWmzE_draw_5 3810ms ease-in 0ms infinite,OQgyWmzE_fade 3810ms linear 0ms infinite;}.OQgyWmzE_6{stroke-dasharray:608 610;stroke-dashoffset:609;animation:OQgyWmzE_draw_6 3810ms ease-in 0ms infinite,OQgyWmzE_fade 3810ms linear 0ms infinite;}.OQgyWmzE_7{stroke-dasharray:608 610;stroke-dashoffset:609;animation:OQgyWmzE_draw_7 3810ms ease-in 0ms infinite,OQgyWmzE_fade 3810ms linear 0ms infinite;}.OQgyWmzE_8{stroke-dasharray:608 610;stroke-dashoffset:609;animation:OQgyWmzE_draw_8 3810ms ease-in 0ms infinite,OQgyWmzE_fade 3810ms linear 0ms infinite;}.OQgyWmzE_9{stroke-dasharray:608 610;stroke-dashoffset:609;animation:OQgyWmzE_draw_9 3810ms ease-in 0ms infinite,OQgyWmzE_fade 3810ms linear 0ms infinite;}.OQgyWmzE_10{stroke-dasharray:376 378;stroke-dashoffset:377;animation:OQgyWmzE_draw_10 3810ms ease-in 0ms infinite,OQgyWmzE_fade 3810ms linear 0ms infinite;}.OQgyWmzE_11{stroke-dasharray:231 233;stroke-dashoffset:232;animation:OQgyWmzE_draw_11 3810ms ease-in 0ms infinite,OQgyWmzE_fade 3810ms linear 0ms infinite;}.OQgyWmzE_12{stroke-dasharray:142 144;stroke-dashoffset:143;animation:OQgyWmzE_draw_12 3810ms ease-in 0ms infinite,OQgyWmzE_fade 3810ms linear 0ms infinite;}@keyframes OQgyWmzE_draw{100%{stroke-dashoffset:0;}}@keyframes OQgyWmzE_fade{0%{stroke-opacity:1;}92.1259842519685%{stroke-opacity:1;}100%{stroke-opacity:0;}}@keyframes OQgyWmzE_draw_0{0.26246719160104987%{stroke-dashoffset: 2501}35.258092738407704%{ stroke-dashoffset: 0;}100%{ stroke-dashoffset: 0;}}@keyframes OQgyWmzE_draw_1{1.7206182560513266%{stroke-dashoffset: 808}36.71624380285798%{ stroke-dashoffset: 0;}100%{ stroke-dashoffset: 0;}}@keyframes OQgyWmzE_draw_2{3.178769320501604%{stroke-dashoffset: 609}38.17439486730826%{ stroke-dashoffset: 0;}100%{ stroke-dashoffset: 0;}}@keyframes OQgyWmzE_draw_3{4.636920384951881%{stroke-dashoffset: 609}39.632545931758536%{ stroke-dashoffset: 0;}100%{ stroke-dashoffset: 0;}}@keyframes OQgyWmzE_draw_4{6.095071449402158%{stroke-dashoffset: 609}41.090696996208806%{ stroke-dashoffset: 0;}100%{ stroke-dashoffset: 0;}}@keyframes OQgyWmzE_draw_5{7.553222513852435%{stroke-dashoffset: 609}42.54884806065909%{ stroke-dashoffset: 0;}100%{ stroke-dashoffset: 0;}}@keyframes OQgyWmzE_draw_6{9.011373578302711%{stroke-dashoffset: 609}44.00699912510937%{ stroke-dashoffset: 0;}100%{ stroke-dashoffset: 0;}}@keyframes OQgyWmzE_draw_7{10.469524642752988%{stroke-dashoffset: 609}45.465150189559644%{ stroke-dashoffset: 0;}100%{ stroke-dashoffset: 0;}}@keyframes OQgyWmzE_draw_8{11.927675707203266%{stroke-dashoffset: 609}46.92330125400992%{ stroke-dashoffset: 0;}100%{ stroke-dashoffset: 0;}}@keyframes OQgyWmzE_draw_9{13.38582677165354%{stroke-dashoffset: 609}48.38145231846019%{ stroke-dashoffset: 0;}100%{ stroke-dashoffset: 0;}}@keyframes OQgyWmzE_draw_10{14.84397783610382%{stroke-dashoffset: 377}49.839603382910475%{ stroke-dashoffset: 0;}100%{ stroke-dashoffset: 0;}}@keyframes OQgyWmzE_draw_11{16.3021289005541%{stroke-dashoffset: 232}51.29775444736075%{ stroke-dashoffset: 0;}100%{ stroke-dashoffset: 0;}}@keyframes OQgyWmzE_draw_12{17.760279965004376%{stroke-dashoffset: 143}52.75590551181102%{ stroke-dashoffset: 0;}100%{ stroke-dashoffset: 0;}}</style></svg>