<?xml version="1.0" encoding="utf-8"?>
<!-- Generator: Adobe Illustrator 24.3.0, SVG Export Plug-In . SVG Version: 6.00 Build 0)  -->
<svg version="1.1" id="ryzGROv0f" xmlns="http://www.w3.org/2000/svg" xmlns:xlink="http://www.w3.org/1999/xlink" x="0px" y="0px"
	 viewBox="0 0 343 342" style="enable-background:new 0 0 343 342;" xml:space="preserve">
<g id="BJxfMR_DCf">
	<g id="SkWMfC_PCM">
		<g id="HyMMzAdw0z">
			<polygon id="SyXffAdPRG" points="170.2,80.4 94.6,80.4 94.6,103.1 114.6,103.1 114.6,203.8 138.9,203.8 138.9,103.1 170.2,103.1 
							"/>
			<polygon id="HyNzMA_DRz" points="148.9,113.2 148.9,230.9 186.8,230.9 186.8,212.9 170.2,212.9 170.2,113.2 			"/>
			<polygon id="S1rzzCdvAz" points="205.3,148.9 215.8,148.9 215.8,203.5 240.6,203.5 240.6,80.6 215.8,80.6 215.8,127.9 
				205.3,127.9 205.3,59.1 180.3,59.1 180.3,203.5 205.3,203.5 			"/>
			<path id="Hk8GfR_wRM" d="M116.6,243.3c-3.8-2.4-8.6-1.8-10.9,2c-1.8,2.9-1.2,6.5,1.8,9.2l2.4,2.2c1.1,1.1,1.5,2.3,0.9,3.3
				c-0.8,1.2-2.3,1.4-4,0.3c-2.7-1.7-2.9-4.1-2-6l-4.6-1.5c-1.4,3-1.3,8,4.1,11.4c4.7,3,9.2,1.4,11.1-1.7c1.7-2.8,1.3-6.5-2-9.6
				l-2.2-2.2c-1.2-1.1-1.3-2.2-0.8-3.1c0.7-1.1,2.3-1.5,4-0.4c1.7,0.8,2.4,2.8,1.7,4.6l4.6,1.4C121.5,250.6,121.5,246.4,116.6,243.3
				z"/>
			<polygon id="ryvGzC_wCf" points="125.1,274.4 130,276.2 138,254.3 133.1,252.4 			"/>
			<polygon id="SJOfGAOPAf" points="145,280.7 159.4,283.1 160.2,278.2 150.9,276.6 151.6,272.2 160,273.6 160.8,269.1 152.3,267.7 
				153,263.3 162.3,264.8 163.1,260 148.7,257.6 			"/>
			<path id="BkYGzROwCf" d="M190.7,266.5c-0.1-3.9-3.4-6.9-7.3-6.8c-0.2,0-0.5,0-0.7,0.1l-9.1,0.7l1.7,23.3l5.1-0.4l-0.6-8.7
				l1.8-0.1l4.8,8.4l5.6-0.4l-5.4-9.1C189.3,272.2,191,269.4,190.7,266.5z M182.5,270l-3,0.2l-0.4-5.7l3-0.2
				c2.1-0.2,3.3,0.8,3.4,2.6S184.6,269.8,182.5,270L182.5,270z"/>
			<path id="rJczz0OPAG" d="M217.7,258.7c-1.1-3.7-4.9-5.9-8.7-4.8c-0.2,0.1-0.5,0.1-0.7,0.2l-8.6,2.9l7.2,22.2l4.9-1.6l-2.7-8.3
				l1.7-0.6l6.6,7l5.4-1.8l-7.4-7.5C217.8,264.7,218.7,261.5,217.7,258.7z M210.6,264.2l-2.9,1l-1.8-5.4l2.9-1c2-0.7,3.4,0,3.9,1.7
				S212.6,263.5,210.6,264.2z"/>
			<polygon id="HkiGMC_D0f" points="246.1,255.1 238.1,260.2 235.8,256.4 243,251.8 240.6,247.9 233.4,252.5 231.1,248.7 
				239.1,243.6 236.5,239.4 224.1,247.3 236.4,267.2 248.7,259.3 			"/>
		</g>
		<g id="Bk3fM0_DAf_ry2Q0uDAz">
			<g id="Bk3fM0_DAf">
				<polygon id="HyaMGC_DRf" points="164.1,23.9 171.8,18.3 179.5,23.9 176.5,14.8 184.3,9.2 174.7,9.2 171.8,0 168.8,9.2 
					159.2,9.2 167,14.8 				"/>
				<polygon id="B10fMAOwRG" points="84.5,45.2 92.2,39.6 99.9,45.2 96.9,36.2 104.8,30.6 95.1,30.6 92.2,21.4 89.2,30.6 79.6,30.6 
					87.4,36.2 				"/>
				<polygon id="BJkxfzAdPCz" points="26.2,103.6 33.9,98 41.6,103.6 38.7,94.5 46.5,88.9 36.9,88.9 33.9,79.7 31,88.9 21.4,88.9 
					29.2,94.5 				"/>
				<polygon id="HJegfGR_P0G" points="25.1,168.4 15.5,168.4 12.6,159.2 9.6,168.4 0,168.4 7.8,174 4.9,183.1 12.6,177.5 
					20.3,183.1 17.3,174 				"/>
				<polygon id="Sk-xfG0uPRM" points="36.9,248.2 33.9,239 31,248.2 21.4,248.2 29.2,253.8 26.2,262.9 33.9,257.2 41.6,262.9 
					38.7,253.8 46.5,248.2 				"/>
				<polygon id="BJflfzR_D0G" points="95.2,306.5 92.3,297.3 89.3,306.5 79.7,306.5 87.5,312.1 84.6,321.2 92.3,315.6 100,321.2 
					97.1,312.1 104.9,306.5 				"/>
				<polygon id="SJXlGG0dPRz" points="174.7,327.6 171.8,318.5 168.8,327.7 159.2,327.6 167,333.3 164.1,342.3 171.8,336.7 
					179.5,342.3 176.6,333.3 184.4,327.6 				"/>
				<polygon id="HJExGzC_vCz" points="254.2,306.5 251.3,297.3 248.3,306.5 238.7,306.5 246.5,312.1 243.6,321.2 251.3,315.6 
					259,321.2 256,312.1 263.9,306.5 				"/>
				<polygon id="BJBxMG0dvRz" points="312.6,248.2 309.6,239 306.7,248.2 297.1,248.2 304.9,253.8 301.9,262.9 309.6,257.2 
					317.3,262.9 314.4,253.8 322.2,248.2 				"/>
				<polygon id="SJLxzzAuD0z" points="343.3,168.2 333.7,168.2 330.8,159 327.8,168.2 318.2,168.2 326,173.8 323.1,182.9 
					330.8,177.3 338.5,182.9 335.5,173.8 				"/>
				<polygon id="HkDgfGAuwRM" points="301.9,103.4 309.6,97.8 317.3,103.4 314.4,94.3 322.2,88.7 312.6,88.7 309.6,79.5 306.7,88.7 
					297.1,88.7 304.9,94.3 				"/>
				<polygon id="ryuxMzC_wRG" points="251.5,21.4 248.6,30.6 238.9,30.6 246.7,36.2 243.8,45.3 251.5,39.7 259.2,45.3 256.3,36.2 
					264.1,30.6 254.4,30.6 				"/>
			</g>
		</g>
	</g>
</g>
<script>
	(function(){var a=document.querySelector(&apos;#ryzGROv0f&apos;),b=a.querySelectorAll(&apos;style&apos;),c=function(d){b.forEach(function(f){var g=f.textContent;g&amp;&amp;(f.textContent=g.replace(/transform-box:[^;\r\n]*/gi,&apos;transform-box: &apos;+d))})};c(&apos;initial&apos;),window.requestAnimationFrame(function(){return c(&apos;fill-box&apos;)})})();
	</script>
</svg>
