<svg xmlns="http://www.w3.org/2000/svg" width="50" height="50" viewBox="0 0 50 50">
  <g id="twitter" transform="translate(-296 -4711)">
    <circle id="Ellipse_97" data-name="Ellipse 97" cx="25" cy="25" r="25" transform="translate(296 4711)" fill="#fff"/>
    <g id="layer1" transform="translate(305 4723)">
      <path id="path3611" d="M550.051,595.368c11.845,0,18.323-9.813,18.323-18.323q0-.418-.018-.832a13.1,13.1,0,0,0,3.212-3.335,12.841,12.841,0,0,1-3.7,1.014,6.462,6.462,0,0,0,2.832-3.562,12.914,12.914,0,0,1-4.089,1.563,6.445,6.445,0,0,0-10.974,5.873,18.284,18.284,0,0,1-13.274-6.728,6.445,6.445,0,0,0,1.994,8.6,6.392,6.392,0,0,1-2.917-.805c0,.027,0,.053,0,.082a6.442,6.442,0,0,0,5.167,6.313,6.427,6.427,0,0,1-2.908.11,6.446,6.446,0,0,0,6.016,4.473,12.919,12.919,0,0,1-8,2.756,13.091,13.091,0,0,1-1.536-.089,18.23,18.23,0,0,0,9.872,2.893" transform="translate(-540.179 -569.858)" fill="#00a2f5"/>
    </g>
  </g>
</svg>
