<?xml version="1.0" encoding="UTF-8"?><svg id="Layer_2" xmlns="http://www.w3.org/2000/svg" viewBox="0 0 31.39 25.51"><defs><style>.cls-1{fill:#fff;}</style></defs><g id="Layer_1-2"><path id="path3611" class="cls-1" d="M9.87,25.51c11.84,0,18.32-9.81,18.32-18.32,0-.28,0-.56-.02-.83,1.26-.91,2.35-2.04,3.21-3.34-1.18,.52-2.42,.86-3.7,1.01,1.34-.8,2.35-2.07,2.83-3.56-1.26,.75-2.65,1.28-4.09,1.56-2.44-2.59-6.52-2.72-9.11-.28-1.67,1.57-2.38,3.92-1.86,6.16-5.18-.26-10-2.7-13.27-6.73-1.71,2.94-.84,6.71,1.99,8.6-1.02-.03-2.02-.31-2.92-.8v.08c0,3.07,2.16,5.71,5.17,6.31-.95,.26-1.94,.3-2.91,.11,.84,2.62,3.26,4.42,6.02,4.47-2.28,1.79-5.1,2.76-8,2.76-.51,0-1.03-.03-1.54-.09,2.94,1.89,6.37,2.9,9.87,2.89"/></g></svg>