<svg xmlns="http://www.w3.org/2000/svg" viewBox="0 0 400 98.68"><defs><style>.cls-1{fill:#081716;}.cls-2{fill:#48bc8e;}.cls-3{fill:#fff;}</style></defs><g id="Layer_2" data-name="Layer 2"><g id="Layer_1-2" data-name="Layer 1"><rect class="cls-1" width="400" height="98.68"/><path class="cls-2" d="M78.69,49.68a15.51,15.51,0,0,0-2.93-9.11l4.72-4.72-4.29-4.28-4.84,4.85a15.66,15.66,0,0,0-17,.26l-5.11-5.11-4.28,4.28L50,41a15.64,15.64,0,0,0-.26,17l-4.85,4.85,4.28,4.28,4.72-4.71a15.67,15.67,0,0,0,17.83.27l4.43,4.44,4.29-4.28L76,58.39A15.52,15.52,0,0,0,78.69,49.68ZM56.26,56.46a9.59,9.59,0,1,1,13.56,0A9.61,9.61,0,0,1,56.26,56.46Z"/><path class="cls-3" d="M119.77,34.68h0L111,57.38l-8.66-22.7v0H95.54l0,0L108,65.07v.05h6.13v-.05l12.43-30.39,0,0-6.86,0Zm-5.71,30.44H108l-6.82-16.63L108,65.12ZM244.62,56a8.58,8.58,0,0,1-1.84,5.57,10.1,10.1,0,0,1-4.61,3.22,17.46,17.46,0,0,1-6.22,1c-6.67,0-11.1-2.53-13.08-7.5l-.09-.19v0h.05l5-2.62h0v.05l.1.23a6.4,6.4,0,0,0,3,3.4,10.46,10.46,0,0,0,5,1.16,9.61,9.61,0,0,0,4.7-1.06A3.37,3.37,0,0,0,238.49,56c0-2.25-2.21-3.63-6.58-4.09a28.4,28.4,0,0,1-4.42-.79,16,16,0,0,1-3.69-1.47A6.51,6.51,0,0,1,221,46.88a8.55,8.55,0,0,1-.92-4.24A7.52,7.52,0,0,1,222,37.53a9.57,9.57,0,0,1,4.37-3,18.31,18.31,0,0,1,5.48-.87c5.9,0,9.86,2,11.84,6.08l.09.18V40h0l-4.79,2.49h0v0l-.09-.19A6.16,6.16,0,0,0,236.14,40a9,9,0,0,0-4.1-1,7.56,7.56,0,0,0-4.37,1.06,3.09,3.09,0,0,0-1.43,2.63,2,2,0,0,0,.23,1,1.78,1.78,0,0,0,.65.78,5.46,5.46,0,0,0,2.16,1.06,27.13,27.13,0,0,0,3.27.6c1.38.18,2.58.37,3.64.6a15.58,15.58,0,0,1,3.22,1.06,9.32,9.32,0,0,1,2.77,1.7,7.18,7.18,0,0,1,1.75,2.63A11.39,11.39,0,0,1,244.62,56ZM155.14,34.68h0l0,6H138.65V47h15.93v5.76H138.65V58.9h16.53V65H132.62V34.63h22.52Zm49.37,0h0l-6.13,0v0L186,65.12l0,0h6.82v0l8.75-22.71,8.65,22.71v0h6.82l-.05,0Zm0,0,6.81,16.63ZM167.29,59h15.16V65H161.22V34.68h6.07Z"/><polygon class="cls-3" points="340.8 52.77 340.79 52.8 341.79 54.22 340.8 52.77"/><path class="cls-3" d="M278,33.71H266V64.25h12c10.69,0,15.4-7.81,15.27-15.53C293.17,41.17,288.5,33.71,278,33.71Zm0,25h-6.28V39.16H278c6.63,0,9.42,4.76,9.55,9.51C287.71,53.65,285,58.71,278,58.71Z"/><path class="cls-3" d="M298.71,64.25h22.86V58.57H304.42V51.68H321V46.32H304.42v-7h17.15V33.71H298.71Z"/><polygon class="cls-3" points="326.54 64.07 326.54 64.25 333 64.25 338.53 56.11 335.27 51.49 326.54 64.07"/><polygon class="cls-3" points="355.07 64.07 344.43 48.8 354.76 33.97 354.76 33.71 348.44 33.71 340.8 45.09 333.17 33.71 327.29 33.71 340.79 52.8 340.8 52.77 341.79 54.22 348.88 64.25 355.07 64.25 355.07 64.07"/><polygon class="cls-3" points="348.61 64.25 348.88 64.25 341.79 54.22 348.61 64.25"/></g></g></svg>