<svg xmlns="http://www.w3.org/2000/svg" width="100%" height="100%" viewBox="0 0 264.607 55">
  <title>Velas</title>
    <defs>
    <style>
      .color {
        fill: #0037c1;
      }
    </style>
  </defs>
  <g class="color">
  <path d="M221.351,167.68h0l-10.674,27.7-10.562-27.7v-.056H191.8l.056.056,15.169,37.079v.056H214.5v-.056l15.169-37.079.056-.056-8.371.056Zm-6.966,37.135h-7.416l-8.315-20.281,8.315,20.281Zm159.27-11.124a10.437,10.437,0,0,1-2.247,6.8,12.363,12.363,0,0,1-5.618,3.933,21.655,21.655,0,0,1-7.584,1.18c-8.146,0-13.539-3.09-15.955-9.157l-.112-.225v-.056h.056l6.124-3.2h.056v.056l.112.281a7.9,7.9,0,0,0,3.708,4.157,12.827,12.827,0,0,0,6.067,1.4,11.684,11.684,0,0,0,5.73-1.292,4.092,4.092,0,0,0,2.191-3.82c0-2.753-2.7-4.438-8.034-5a34.972,34.972,0,0,1-5.393-.955,19.271,19.271,0,0,1-4.494-1.8,7.939,7.939,0,0,1-3.371-3.427,10.493,10.493,0,0,1-1.124-5.169,9.155,9.155,0,0,1,2.247-6.236,11.586,11.586,0,0,1,5.337-3.6,22.2,22.2,0,0,1,6.685-1.067c7.191,0,12.022,2.472,14.438,7.416l.112.225v.056h-.056l-5.843,3.034h-.056v-.056l-.112-.225a7.533,7.533,0,0,0-3.2-2.753,11.09,11.09,0,0,0-5-1.18,9.225,9.225,0,0,0-5.337,1.292,3.771,3.771,0,0,0-1.742,3.2,2.356,2.356,0,0,0,.281,1.236,2.195,2.195,0,0,0,.786.955,6.822,6.822,0,0,0,2.64,1.292,33.094,33.094,0,0,0,3.989.73c1.685.225,3.146.449,4.438.73a18.974,18.974,0,0,1,3.933,1.292,11.633,11.633,0,0,1,3.371,2.079,8.672,8.672,0,0,1,2.135,3.2A13.883,13.883,0,0,1,373.654,193.691ZM264.5,167.68h0l.056,7.3H244.384v7.7h19.438V189.7H244.384v7.528h20.169v7.416H237.025V167.624H264.5Zm60.225.056h0l-7.472-.056v.056l-15.169,37.079-.056.056h8.315v-.056l10.674-27.7,10.562,27.7v.056h8.315l-.056-.056Zm-.056,0,8.315,20.281Zm-45.337,29.551h18.483V204.7h-25.9V167.68h7.416Z" transform="translate(-109.047 -157.792)" />
  <path d="M87.421,171.674,75.736,192.292,64.051,171.674Zm11.685-6.91h-46.8L75.736,206ZM44.5,151l3.876,6.854h54.607L106.86,151Z" transform="translate(-44.5 -151)" />
  </g>
  <a xmlns="http://www.w3.org/2000/svg" xlink:href="https://velas.com/" xmlns:xlink="http://www.w3.org/1999/xlink" target="_blank">
    <rect x="0" y="0" width="100%" height="100%" fill-opacity="0"/>
</a>
</svg>