<svg id="warning" xmlns="http://www.w3.org/2000/svg" width="15" height="14.135" viewBox="0 0 15 14.135">
  <g id="Group_17599" data-name="Group 17599">
    <path id="Path_24913" data-name="Path 24913" d="M14.688,25.575l-5.3-9.741a2.2,2.2,0,0,0-3.779,0l-5.3,9.741A2.2,2.2,0,0,0,2.2,28.894H12.8A2.2,2.2,0,0,0,14.688,25.575ZM7.5,27.136a.879.879,0,1,1,.879-.879A.88.88,0,0,1,7.5,27.136Zm.879-3.516a.879.879,0,1,1-1.758,0V19.226a.879.879,0,1,1,1.758,0Z" transform="translate(0 -14.759)" fill="#ffb34c"/>
  </g>
</svg>
